<?xml version="1.0" standalone="no"?>
<!DOCTYPE svg PUBLIC "-//W3C//DTD SVG 1.1//EN" "http://www.w3.org/Graphics/SVG/1.1/DTD/svg11.dtd" >
<svg>
<metadata>
Created by FontForge 20090622 at Wed May 25 13:07:47 2016
 By deploy user
(c) 1999-2012 Typodermic Fonts Inc. See attached license agreement. If agreement is missing visit typodermicfonts.com for more info. Accents by Chikako Larabie.
</metadata>
<defs>
<font id="ForgottenFuturistRg-BoldItalic" horiz-adv-x="480" >
  <font-face 
    font-family="Forgotten Futurist Rg"
    font-weight="700"
    font-style="italic"
    font-stretch="normal"
    units-per-em="1000"
    panose-1="2 11 8 6 2 2 2 8 2 3"
    ascent="726"
    descent="-274"
    x-height="513"
    cap-height="701"
    bbox="-245 -234 1037 953"
    underline-thickness="20"
    underline-position="-123"
    slope="-10"
    unicode-range="U+0017-U+FB02"
  />
<missing-glyph horiz-adv-x="505" 
d="M157 0q-115 0 -115 102v478q0 103 115 103h189q116 0 116 -103v-478q0 -102 -116 -102h-189zM371 580q0 19 -25 19h-189q-26 0 -26 -19v-478q0 -19 26 -19h189q25 0 25 19v478z" />
    <glyph glyph-name="copyright" unicode="&#x28;C&#x29;" horiz-adv-x="800" 
d="M468 -14q-75 0 -141 29t-115.5 78.5t-78 115.5t-28.5 141t28.5 141.5t78 116t115.5 78t141 28.5t141.5 -28.5t116 -78t78 -116t28.5 -141.5t-28.5 -141t-78 -115.5t-116 -78.5t-141.5 -29zM755 350q0 59 -22.5 111t-61 90.5t-91 60.5t-112.5 22q-59 0 -111 -22t-91 -60.5
t-61.5 -90.5t-22.5 -111t22.5 -111t61.5 -91t91 -61.5t111 -22.5q60 0 112.5 22.5t91 61.5t61 91t22.5 111zM412 194q-53 0 -77.5 25.5t-24.5 78.5v113q0 51 24.5 77t77.5 26h181v-77h-164q-35 0 -35 -35v-94q0 -36 35 -36h164v-78h-181z" />
    <glyph glyph-name="registered" unicode="&#x28;R&#x29;" horiz-adv-x="535" 
d="M357 253q-48 0 -90 18t-73.5 49.5t-49.5 73.5t-18 90t18 90t49.5 73.5t73.5 49.5t90 18t90 -18t73.5 -49.5t49.5 -73.5t18 -90t-18 -90t-49.5 -73.5t-73.5 -49.5t-90 -18zM357 302q38 0 71 14t57 39t38 58t14 71q0 37 -14 70t-38 57.5t-57 39t-71 14.5t-71 -14.5
t-57.5 -39t-39 -57.5t-14.5 -70q0 -38 14.5 -71t39 -58t57.5 -39t71 -14zM404 382v49q0 18 -23 18h-61v-67h-53v202h137q29 0 40 -12.5t11 -37.5v-26q0 -17 -7.5 -25t-18.5 -11q13 -3 21.5 -11.5t8.5 -28.5v-50h-55zM400 522q0 16 -16 16h-64v-50h60q20 0 20 17v17z" />
    <glyph glyph-name="uni2117" unicode="&#x28;P&#x29;" horiz-adv-x="800" 
d="M461 -14q-75 0 -141 28.5t-115.5 78t-78 116t-28.5 141.5q0 76 28.5 142t78 115t115.5 77.5t141 28.5q76 0 142 -28.5t115.5 -77.5t78 -115t28.5 -142q0 -75 -28.5 -141.5t-78 -116t-115.5 -78t-142 -28.5zM748 350q0 60 -22.5 111.5t-61 90t-91 60.5t-112.5 22
q-59 0 -111 -22t-91 -60.5t-61.5 -90t-22.5 -111.5q0 -59 22.5 -111t61.5 -91t91 -61.5t111 -22.5q60 0 112.5 22.5t91 61.5t61 91t22.5 111zM407 265v-79h-86v327h227q47 0 67.5 -20t20.5 -58v-87q0 -43 -20.5 -63t-65.5 -20h-143zM551 416q0 26 -28 26h-116v-110h116
q28 0 28 27v57z" />
    <glyph glyph-name=".notdef" horiz-adv-x="505" 
d="M157 0q-115 0 -115 102v478q0 103 115 103h189q116 0 116 -103v-478q0 -102 -116 -102h-189zM371 580q0 19 -25 19h-189q-26 0 -26 -19v-478q0 -19 26 -19h189q25 0 25 19v478z" />
    <glyph glyph-name="uni0017" horiz-adv-x="199" 
 />
    <glyph glyph-name="space" unicode=" " horiz-adv-x="199" 
 />
    <glyph glyph-name="exclam" unicode="!" horiz-adv-x="240" 
d="M98 206l88 495h117l-88 -495h-117zM62 0l26 150h118l-26 -150h-118z" />
    <glyph glyph-name="quotedbl" unicode="&#x22;" horiz-adv-x="406" 
d="M152 458zM152 458l14 243h118l-72 -243h-60zM355 458l14 243h118l-72 -243h-60z" />
    <glyph glyph-name="numbersign" unicode="#" horiz-adv-x="602" 
d="M460 449h-157l-33 -188h157zM381 0l33 187h-157l-33 -187h-77l33 187h-105l13 74h105l33 188h-105l13 73h105l32 179h77l-32 -179h157l32 179h78l-32 -179h100l-13 -73h-100l-33 -188h100l-13 -74h-100l-33 -187h-78z" />
    <glyph glyph-name="dollar" unicode="$" horiz-adv-x="508" 
d="M220 0l12 67h-178l20 114h252q42 0 50 38l9 51q0 2 0.5 4t0.5 4q0 28 -38 28h-121q-62 0 -87 23t-25 65q0 21 4 41l12 67q11 66 47.5 99t110.5 33h43l12 67h68l-12 -67h165l-20 -114h-239q-43 0 -49 -38l-8 -48q-1 -4 -1 -10q0 -27 36 -27h120q62 0 87 -23t25 -66
q0 -10 -1 -20t-3 -21l-12 -69q-11 -64 -48.5 -97.5t-109.5 -33.5h-42l-12 -67h-68z" />
    <glyph glyph-name="percent" unicode="%" horiz-adv-x="769" 
d="M31 0zM191 361q-34 0 -48.5 13t-14.5 39v10.5t2 12.5l35 200q6 37 26 56t61 19h80q34 0 48.5 -13t14.5 -39q0 -5 -0.5 -11t-1.5 -12l-35 -200q-7 -37 -26.5 -56t-60.5 -19h-80zM329 624q0 2 0.5 3.5t0.5 3.5q0 17 -21 17h-56q-24 0 -28 -24l-31 -176q-1 -2 -1 -7
q0 -17 21 -17h56q23 0 28 24zM31 -32l734 769h96l-734 -769h-96zM568 -10q-34 0 -48.5 13t-14.5 39v10.5t2 12.5l35 200q6 37 26 56t61 19h80q34 0 48.5 -13t14.5 -39q0 -5 -0.5 -11t-1.5 -12l-35 -200q-7 -37 -26.5 -56t-60.5 -19h-80zM706 253q0 2 0.5 3.5t0.5 3.5
q0 17 -21 17h-56q-24 0 -28 -24l-31 -176q-1 -2 -1 -7q0 -17 21 -17h56q23 0 28 24z" />
    <glyph glyph-name="ampersand" unicode="&#x26;" horiz-adv-x="549" 
d="M476 0q-37 0 -62.5 13t-28.5 32q-9 -19 -39.5 -32t-68.5 -13h-57q-155 0 -155 136q0 12 1.5 25.5t3.5 27.5l9 54q9 54 37 85t63 39q-25 7 -38 24.5t-13 49.5q0 9 1.5 19.5t3.5 22.5l14 79q12 69 57 104t113 35h231l-22 -126h-209q-54 0 -63 -54l-10 -57q-1 -5 -1.5 -8.5
t-0.5 -6.5q0 -38 47 -38h105l11 62h104l-11 -62h93l-17 -95h-93l-24 -138q-1 -5 -1 -14q0 -38 46 -38h39l-22 -126h-43zM377 316h-93q-32 0 -53.5 -17.5t-26.5 -49.5l-9 -56q-1 -5 -1.5 -9.5t-0.5 -8.5q0 -49 58 -49h38q55 0 64 52z" />
    <glyph glyph-name="quotesingle" unicode="'" horiz-adv-x="203" 
d="M152 458l14 243h118l-72 -243h-60z" />
    <glyph glyph-name="parenleft" unicode="(" horiz-adv-x="374" 
d="M263 -150q-35 14 -64 35.5t-49.5 52t-32 72t-11.5 96.5q0 52 12 120l43 247q15 86 41.5 148.5t62.5 107t80 73t94 46.5l30 -77q-88 -32 -136 -104t-68 -181l-49 -275q-5 -24 -6.5 -46t-1.5 -42q0 -72 27 -122t85 -76z" />
    <glyph glyph-name="parenright" unicode=")" horiz-adv-x="375" 
d="M29 -75q85 33 133.5 105.5t68.5 180.5l49 275q4 23 6 45t2 42q0 148 -111 198l56 77q35 -14 64 -35.5t50 -52t32.5 -72t11.5 -96.5q0 -53 -12 -119l-43 -247q-15 -86 -42 -149t-63 -107.5t-80.5 -73t-93.5 -46.5z" />
    <glyph glyph-name="asterisk" unicode="*" horiz-adv-x="515" 
d="M428 321l-72 123l-79 -120l-90 60l102 104l-149 37l36 91l140 -58l-18 143h114l-16 -143l142 58l32 -94l-150 -32l100 -107z" />
    <glyph glyph-name="plus" unicode="+" horiz-adv-x="620" 
d="M278 91l39 221h-221l17 98h221l39 220h99l-39 -220h218l-17 -98h-218l-39 -221h-99z" />
    <glyph glyph-name="comma" unicode="," horiz-adv-x="208" 
d="M28 -93l47 243h122l-75 -243h-94z" />
    <glyph glyph-name="hyphen" unicode="-" horiz-adv-x="351" 
d="M78 301l14 80h301l-14 -80h-301z" />
    <glyph glyph-name="period" unicode="." horiz-adv-x="207" 
d="M44 0l26 150h118l-26 -150h-118z" />
    <glyph glyph-name="slash" unicode="/" horiz-adv-x="464" 
d="M-3 -28l492 756h101l-492 -756h-101z" />
    <glyph glyph-name="zero" unicode="0" horiz-adv-x="530" 
d="M184 0q-66 0 -95.5 26.5t-29.5 77.5q0 19 5 47l70 399q13 74 53 112.5t121 38.5h161q67 0 95.5 -26.5t28.5 -77.5q0 -11 -1 -22.5t-3 -24.5l-70 -399q-13 -74 -53 -112.5t-121 -38.5h-161zM462 526q1 3 1 6.5v5.5q0 37 -41 37h-112q-47 0 -56 -49l-62 -351q-2 -10 -2 -14
q0 -35 41 -35h112q48 0 57 49z" />
    <glyph glyph-name="one" unicode="1" horiz-adv-x="296" 
d="M122 0l101 575h-93l23 126h216l-124 -701h-123z" />
    <glyph glyph-name="two" unicode="2" horiz-adv-x="514" 
d="M39 0l39 221q30 172 204 172h77q62 0 74 65l9 51q1 5 1.5 10t0.5 10q0 46 -54 46h-71q-54 0 -63 -53l-7 -39h-120l7 40q16 92 69 135t138 43h70q157 0 157 -137q0 -13 -1.5 -26.5t-3.5 -28.5l-9 -51q-15 -87 -66.5 -131t-137.5 -44h-78q-63 0 -73 -62l-17 -95h306
l-22 -126h-429z" />
    <glyph glyph-name="three" unicode="3" horiz-adv-x="511" 
d="M210 0q-72 0 -110 30t-38 94q0 19 5 47l8 47h120l-8 -45q-1 -4 -1 -10q0 -37 45 -37h76q68 0 80 67l9 51q1 5 1 8.5v7.5q0 52 -57 52h-87l16 92h99q29 0 43.5 14t19.5 40l11 63q1 5 1.5 8.5t0.5 7.5q0 38 -46 38h-84q-24 0 -40 -12.5t-20 -36.5l-7 -43h-120l7 44
q14 90 67.5 132t134.5 42h84q148 0 148 -106q0 -15 -3 -33l-15 -85q-9 -53 -30.5 -80.5t-56.5 -35.5q26 -7 42 -29t16 -60q0 -16 -3 -35l-8 -48q-32 -189 -216 -189h-84z" />
    <glyph glyph-name="four" unicode="4" horiz-adv-x="491" 
d="M384 527l-211 -302h158zM291 0l21 118h-273l17 96l333 486h146l-83 -475h55l-19 -107h-55l-21 -118h-121z" />
    <glyph glyph-name="five" unicode="5" horiz-adv-x="510" 
d="M209 0q-71 0 -107.5 30t-36.5 94q0 23 4 46l8 48h120l-8 -47q-1 -4 -1 -10q0 -18 11 -27t31 -9h82q57 0 68 63l12 70q1 5 1.5 9.5t0.5 8.5q0 43 -48 43h-244l68 382h417l-23 -126h-307l-26 -147h146q142 0 142 -123q0 -11 -1 -22.5t-3 -24.5l-12 -70q-33 -188 -213 -188
h-81z" />
    <glyph glyph-name="six" unicode="6" horiz-adv-x="510" 
d="M218 0q-153 0 -153 136q0 12 1 25.5t4 27.5l58 326q33 186 215 186h80q71 0 108 -30t37 -94q0 -20 -5 -48l-8 -46h-120l8 46q1 4 1 12q0 34 -44 34h-80q-59 0 -69 -60l-18 -103h152q67 0 102 -24t35 -83q0 -11 -1.5 -22.5t-3.5 -25.5l-14 -83q-15 -90 -67.5 -132
t-135.5 -42h-82zM397 255q1 4 1 11q0 37 -43 37h-142l-20 -114q-1 -5 -1.5 -9t-0.5 -9q0 -46 49 -46h83q24 0 39.5 13t20.5 37z" />
    <glyph glyph-name="seven" unicode="7" horiz-adv-x="451" 
d="M52 0l320 576h-240l22 125h417l-384 -701h-135z" />
    <glyph glyph-name="eight" unicode="8" horiz-adv-x="513" 
d="M220 0q-155 0 -155 136q0 12 1.5 25.5t3.5 27.5l8 48q9 54 37 85t63 39q-51 12 -51 74q0 9 1.5 19.5t3.5 22.5l15 85q24 139 192 139h79q147 0 147 -106q0 -15 -3 -33l-15 -85q-9 -53 -30.5 -80.5t-56.5 -35.5q27 -7 42.5 -29t15.5 -59q1 -8 0 -17t-3 -19l-8 -48
q-32 -189 -215 -189h-72zM393 244q1 5 1 9v8q0 24 -14 37.5t-43 13.5h-53q-33 0 -54 -18t-26 -50l-9 -51q-1 -5 -1.5 -9.5t-0.5 -8.5q0 -49 58 -49h54q67 0 79 67zM440 521q1 5 1.5 8.5t0.5 7.5q0 38 -46 38h-79q-54 0 -63 -54l-11 -63q-1 -5 -1.5 -8.5t-0.5 -6.5
q0 -39 47 -39h78q29 0 43.5 14t19.5 40z" />
    <glyph glyph-name="nine" unicode="9" horiz-adv-x="510" 
d="M211 0q-72 0 -109 30.5t-37 94.5q0 23 4 46l8 47h120l-8 -47q-1 -4 -1 -10q0 -36 44 -36h80q59 0 70 61l18 104h-151q-69 0 -104 24t-35 84q0 11 1.5 22l3.5 25l15 81q17 91 68 133t136 42h81q152 0 152 -135q0 -12 -1.5 -26t-3.5 -28l-57 -326q-33 -186 -215 -186h-79z
M439 512q1 5 1.5 9.5t0.5 9.5q0 44 -49 44h-82q-51 0 -60 -50l-14 -78q-1 -5 -1 -13q0 -35 42 -35h142z" />
    <glyph glyph-name="colon" unicode=":" horiz-adv-x="233" 
d="M60 0l26 150h118l-26 -150h-118zM119 333l26 150h118l-26 -150h-118z" />
    <glyph glyph-name="semicolon" unicode=";" horiz-adv-x="232" 
d="M40 -93l47 243h122l-75 -243h-94zM120 333l26 150h118l-26 -150h-118z" />
    <glyph glyph-name="less" unicode="&#x3c;" horiz-adv-x="620" 
d="M95 305l13 74l578 229l-19 -108l-400 -157l345 -158l-19 -107z" />
    <glyph glyph-name="equal" unicode="=" horiz-adv-x="620" 
d="M75 192l17 99h538l-17 -99h-538zM117 429l17 99h538l-17 -99h-538z" />
    <glyph glyph-name="greater" unicode="&#x3e;" horiz-adv-x="620" 
d="M55 78l19 107l399 158l-344 157l19 108l498 -229l-13 -74z" />
    <glyph glyph-name="question" unicode="?" horiz-adv-x="486" 
d="M159 206l7 39q14 75 51.5 110.5t117.5 35.5q38 0 58 15t25 45l10 61q1 5 1.5 9.5t0.5 9.5q0 44 -47 44h-82q-49 0 -58 -50l-8 -42h-121l7 38q17 96 69 138t141 42h62q85 0 123.5 -31.5t38.5 -103.5q0 -30 -6 -66l-8 -49q-14 -84 -64.5 -125.5t-131.5 -43.5
q-24 -1 -42 -10.5t-23 -37.5l-5 -28h-116zM123 0l26 150h117l-26 -150h-117z" />
    <glyph glyph-name="at" unicode="@" horiz-adv-x="569" 
d="M176 0q-65 0 -92.5 25t-27.5 72q0 16 3 36l81 456q11 60 42.5 86t89.5 26h278q47 0 69 -14.5t22 -56.5q0 -9 -1 -19t-3 -22l-66 -375h-215q-47 0 -63.5 12t-16.5 37q0 7 1 15t3 18l24 133q7 40 29 60t75 20h133l12 72q1 4 1 7.5v6.5q0 16 -8.5 21.5t-25.5 5.5h-227
q-23 0 -38 -12t-19 -36l-73 -418q-1 -5 -1.5 -9.5t-0.5 -9.5q0 -46 54 -46h334l-16 -91h-357zM530 446h-105q-19 0 -29.5 -6.5t-13.5 -25.5l-18 -103q-1 -4 -1 -10q0 -10 7 -14.5t25 -4.5h106z" />
    <glyph glyph-name="A" unicode="A" horiz-adv-x="503" 
d="M362 0l-6 123h-177l-48 -123h-122l292 701h144l49 -701h-132zM339 525l-120 -299h133z" />
    <glyph glyph-name="B" unicode="B" horiz-adv-x="507" 
d="M438 521q1 4 1 7.5v6.5q0 40 -46 40h-126l-29 -164h125q56 0 65 54zM391 248q1 5 1 9v8q0 51 -57 51h-113l-34 -190h114q67 0 79 67zM42 0l124 701h250q147 0 147 -106q0 -15 -3 -33l-14 -79q-10 -53 -31 -80.5t-56 -35.5q27 -7 42.5 -29t15.5 -60q0 -17 -3 -35l-10 -54
q-17 -94 -69.5 -141.5t-146.5 -47.5h-246z" />
    <glyph glyph-name="C" unicode="C" horiz-adv-x="470" 
d="M225 0q-161 0 -161 135q0 11 1.5 23t3.5 26l59 334q16 92 70.5 137.5t145.5 45.5h212l-23 -126h-212q-59 0 -69 -57l-58 -333q-1 -5 -1.5 -8.5t-0.5 -7.5q0 -43 51 -43h213l-22 -126h-209z" />
    <glyph glyph-name="D" unicode="D" horiz-adv-x="514" 
d="M42 0l124 701h245q161 0 161 -138q0 -12 -1.5 -25.5t-3.5 -27.5l-56 -319q-33 -191 -229 -191h-240zM443 510q1 5 1.5 9.5t0.5 8.5q0 47 -57 47h-122l-79 -449h121q67 0 79 66z" />
    <glyph glyph-name="E" unicode="E" horiz-adv-x="479" 
d="M42 0l124 701h404l-23 -126h-280l-29 -166h150l-19 -107h-150l-31 -176h280l-22 -126h-404z" />
    <glyph glyph-name="F" unicode="F" horiz-adv-x="431" 
d="M42 0l124 701h374l-23 -126h-250l-31 -177h150l-20 -116h-150l-50 -282h-124z" />
    <glyph glyph-name="G" unicode="G" horiz-adv-x="506" 
d="M225 0q-161 0 -161 135q0 11 1.5 23t3.5 26l59 333q33 184 216 184h234l-23 -126h-234q-59 0 -69 -58l-58 -332q-1 -5 -1.5 -8.5t-0.5 -7.5q0 -43 51 -43h133l32 178h-111l19 108h225l-73 -412h-243z" />
    <glyph glyph-name="H" unicode="H" horiz-adv-x="515" 
d="M349 0l51 292h-183l-51 -292h-124l124 701h124l-52 -290h183l52 290h124l-124 -701h-124z" />
    <glyph glyph-name="I" unicode="I" horiz-adv-x="218" 
d="M47 0l124 701h124l-124 -701h-124z" />
    <glyph glyph-name="J" unicode="J" horiz-adv-x="443" 
d="M20 0l22 126h200q60 0 71 59l68 390h-124l23 126h248l-92 -517q-33 -184 -220 -184h-196z" />
    <glyph glyph-name="K" unicode="K" horiz-adv-x="493" 
d="M328 0l41 232q1 5 1 15q0 46 -54 46h-99l-52 -293h-123l124 701h123l-56 -318l219 318h132l-234 -317q70 -3 108 -29t38 -83q0 -9 -1 -18.5t-3 -20.5l-41 -233h-123z" />
    <glyph glyph-name="L" unicode="L" horiz-adv-x="381" 
d="M42 0l124 701h123l-102 -575h201l-22 -126h-324z" />
    <glyph glyph-name="M" unicode="M" horiz-adv-x="624" 
d="M476 0l83 473l-185 -473h-123l-17 475l-84 -475h-112l124 701h161l17 -567l215 567h155l-124 -701h-110z" />
    <glyph glyph-name="N" unicode="N" horiz-adv-x="499" 
d="M343 0l-113 452l-80 -452h-112l124 701h130l108 -423l75 423h110l-124 -701h-118z" />
    <glyph glyph-name="O" unicode="O" horiz-adv-x="530" 
d="M209 0q-75 0 -110.5 34t-35.5 94q0 11 1.5 22.5t3.5 23.5l62 352q14 81 64 128t139 47h112q75 0 109.5 -34t34.5 -94q0 -11 -1 -23t-3 -24l-62 -352q-14 -80 -63.5 -127t-138.5 -47h-112zM462 526q1 3 1 6.5v5.5q0 37 -41 37h-112q-47 0 -56 -49l-62 -351q-2 -10 -2 -14
q0 -35 41 -35h112q48 0 57 49z" />
    <glyph glyph-name="P" unicode="P" horiz-adv-x="491" 
d="M438 516q1 5 1.5 9.5t0.5 8.5q0 41 -44 41h-130l-36 -208h130q52 0 63 62zM42 0l124 701h255q146 0 146 -130q0 -13 -1.5 -26.5t-3.5 -27.5l-15 -88q-15 -90 -67 -134t-139 -44h-132l-44 -251h-123z" />
    <glyph glyph-name="Q" unicode="Q" horiz-adv-x="556" 
d="M213 0q-75 0 -110 34.5t-35 92.5q0 22 4 42l64 362q14 76 63 123t134 47h117q72 0 105 -34.5t33 -92.5q0 -11 -1 -21.5t-3 -21.5l-72 -409h62l-22 -122h-339zM463 531q1 4 1 12q0 32 -37 32h-117q-42 0 -50 -44l-65 -365q-1 -4 -1 -12q0 -32 37 -32h160z" />
    <glyph glyph-name="R" unicode="R" horiz-adv-x="506" 
d="M347 0l33 189q1 5 1.5 9t0.5 9q0 23 -14.5 36.5t-43.5 13.5h-113l-45 -257h-124l124 701h247q75 0 111.5 -27.5t36.5 -88.5q0 -10 -1 -20.5t-3 -22.5l-18 -100l-10.5 -61l-10 -60t-7 -48.5t-2.5 -26.5v-8.5t-0.5 -14.5t-1.5 -16t-2 -12l-34 -195h-124zM437 516q1 5 1 8.5
v7.5q0 43 -48 43h-123l-36 -204h125q56 0 65 53z" />
    <glyph glyph-name="S" unicode="S" horiz-adv-x="494" 
d="M34 0l22 126h242q64 0 76 67l7 41q1 5 1.5 9.5t0.5 8.5q0 44 -53 44h-77q-147 0 -147 124q0 11 1.5 23t3.5 26l7 39q17 97 71 145t148 48h225l-23 -126h-225q-61 0 -73 -67l-7 -39q-1 -5 -1.5 -9.5t-0.5 -9.5q0 -43 53 -43h77q147 0 147 -124q0 -11 -1.5 -23t-3.5 -26
l-7 -41q-33 -193 -221 -193h-242z" />
    <glyph glyph-name="T" unicode="T" horiz-adv-x="435" 
d="M155 0l101 575h-140l23 126h404l-23 -126h-142l-101 -575h-122z" />
    <glyph glyph-name="U" unicode="U" horiz-adv-x="524" 
d="M227 0q-161 0 -161 135q0 11 1.5 23t3.5 26l92 517h124l-91 -516q-1 -5 -1.5 -8.5t-0.5 -7.5q0 -43 51 -43h78q60 0 71 59l91 516h124l-92 -517q-33 -184 -220 -184h-70z" />
    <glyph glyph-name="V" unicode="V" horiz-adv-x="503" 
d="M182 0l-49 701h134l25 -509l203 509h123l-292 -701h-144z" />
    <glyph glyph-name="W" unicode="W" horiz-adv-x="789" 
d="M492 0l-21 440l-175 -440h-136l-27 701h133v-506l202 506h111l21 -506l186 506h117l-270 -701h-141z" />
    <glyph glyph-name="X" unicode="X" horiz-adv-x="488" 
d="M333 0l-55 238l-143 -238h-128l233 356l-89 345h138l56 -231l140 231h120l-221 -344l93 -357h-144z" />
    <glyph glyph-name="Y" unicode="Y" horiz-adv-x="494" 
d="M183 0l55 313l-109 388h134l67 -255l160 255h123l-252 -388l-55 -313h-123z" />
    <glyph glyph-name="Z" unicode="Z" horiz-adv-x="446" 
d="M29 0l17 99l318 476h-234l23 126h387l-13 -70l-330 -505h241l-22 -126h-387z" />
    <glyph glyph-name="bracketleft" unicode="[" horiz-adv-x="356" 
d="M69 -150l176 998h220l-15 -82h-120l-147 -832h120l-14 -84h-220z" />
    <glyph glyph-name="backslash" unicode="\" horiz-adv-x="464" 
d="M355 -28l-225 756h100l227 -756h-102z" />
    <glyph glyph-name="bracketright" unicode="]" horiz-adv-x="357" 
d="M15 -150l14 84h120l147 832h-120l15 82h220l-176 -998h-220z" />
    <glyph glyph-name="asciicircum" unicode="^" horiz-adv-x="572" 
d="M459 258l-77 295l-184 -295h-111l275 443h91l122 -443h-116z" />
    <glyph glyph-name="underscore" unicode="_" horiz-adv-x="478" 
d="M-25 -140l16 89h480l-16 -89h-480z" />
    <glyph glyph-name="grave" unicode="`" horiz-adv-x="339" 
d="M158 676l54 60l193 -141l-37 -39z" />
    <glyph glyph-name="a" unicode="a" 
d="M162 0q-109 0 -109 97q0 22 4 42l8 50q19 120 152 120h163l6 29q1 5 1 8.5v7.5q0 37 -40 37h-215l21 122h215q137 0 137 -122q0 -11 -1.5 -23t-3.5 -26l-60 -342h-278zM364 217h-147q-37 0 -43 -39l-5 -30q-1 -4 -1 -10q0 -25 31 -25h147z" />
    <glyph glyph-name="b" unicode="b" horiz-adv-x="485" 
d="M42 0l124 701h119l-34 -188h124q137 0 137 -122q0 -11 -1.5 -23t-3.5 -26l-30 -171q-30 -171 -192 -171h-243zM389 338q1 5 1 8.5v6.5q0 38 -41 38h-119l-48 -270h119q50 0 59 53z" />
    <glyph glyph-name="c" unicode="c" horiz-adv-x="418" 
d="M200 0q-138 0 -138 122q0 11 1.5 23t3.5 26l30 169q30 173 193 173h179l-21 -122h-176q-48 0 -57 -55l-28 -162q-1 -5 -1.5 -9t-0.5 -8q0 -36 39 -36h178l-21 -121h-181z" />
    <glyph glyph-name="d" unicode="d" horiz-adv-x="484" 
d="M200 0q-138 0 -138 122q0 11 1.5 23t3.5 26l30 171q30 171 193 171h123l34 188h119l-124 -701h-242zM392 391h-119q-48 0 -57 -53l-29 -164q-1 -5 -1.5 -8.5t-0.5 -7.5q0 -37 40 -37h119z" />
    <glyph glyph-name="e" unicode="e" horiz-adv-x="481" 
d="M200 0q-138 0 -138 122q0 11 1.5 23t3.5 26l30 171q30 171 193 171h80q138 0 138 -122q0 -11 -1.5 -23t-3.5 -26l-23 -132h-290l-6 -36q-1 -5 -1.5 -9t-0.5 -8q0 -36 39 -36h229l-21 -121h-229zM391 345q1 5 1 8.5v7.5q0 38 -40 38h-82q-25 0 -38 -13.5t-18 -40.5l-8 -42
h177z" />
    <glyph glyph-name="f" unicode="f" horiz-adv-x="287" 
d="M39 0l96 544q27 157 174 157h79l-19 -107h-75q-35 0 -41 -37l-8 -44h116l-18 -103h-112l-72 -410h-120z" />
    <glyph glyph-name="g" unicode="g" horiz-adv-x="486" 
d="M98 -159l20 112h152q46 0 57 58l8 44h-125q-139 0 -139 119q0 20 5 48l21 120q30 171 193 171h244l-87 -497q-31 -175 -186 -175h-163zM394 391h-121q-48 0 -57 -53l-22 -121q-2 -10 -2 -15q0 -37 41 -37h121z" />
    <glyph glyph-name="h" unicode="h" horiz-adv-x="501" 
d="M344 0l60 338q1 5 1.5 9.5t0.5 9.5q0 34 -34 34h-96q-48 0 -57 -54l-59 -337h-118l124 701h118l-43 -244q12 16 23.5 27t25 17.5t30 9t37.5 2.5h68q103 0 103 -110q0 -13 -1 -27t-4 -30l-61 -346h-118z" />
    <glyph glyph-name="i" unicode="i" horiz-adv-x="214" 
d="M149 581l22 120h120l-22 -120h-120zM47 0l90 513h120l-90 -513h-120z" />
    <glyph glyph-name="j" unicode="j" horiz-adv-x="232" 
d="M-63 -159l20 112h58q47 0 58 58l88 502h119l-87 -497q-31 -175 -186 -175h-70zM173 581l22 120h119l-22 -120h-119z" />
    <glyph glyph-name="k" unicode="k" horiz-adv-x="476" 
d="M319 0l27 154q1 5 1.5 10t0.5 10q0 24 -14 34t-39 10h-97l-38 -218h-118l124 701h118l-70 -396l198 208h131l-215 -213h32q62 0 86 -22.5t24 -65.5q0 -11 -1.5 -24.5t-3.5 -27.5l-28 -160h-118z" />
    <glyph glyph-name="l" unicode="l" horiz-adv-x="204" 
d="M42 0l124 701h119l-124 -701h-119z" />
    <glyph glyph-name="m" unicode="m" horiz-adv-x="753" 
d="M596 0l60 338q1 5 1 9v8q0 36 -34 36h-73q-45 0 -54 -53l-60 -338h-117l60 338q1 5 1 9v9q0 35 -34 35h-70q-48 0 -57 -54l-59 -337h-118l90 513h114l-9 -56q23 33 48.5 44.5t67.5 11.5h47q75 0 92 -60q24 35 58.5 47.5t76.5 12.5h49q104 0 104 -110q0 -26 -6 -57
l-61 -346h-117z" />
    <glyph glyph-name="n" unicode="n" horiz-adv-x="504" 
d="M347 0l60 338q1 5 1 9v8q0 36 -33 36h-99q-48 0 -57 -54l-59 -337h-118l90 513h114l-9 -56q23 33 48.5 44.5t67.5 11.5h74q104 0 104 -110q0 -26 -6 -57l-61 -346h-117z" />
    <glyph glyph-name="o" unicode="o" horiz-adv-x="493" 
d="M205 0q-75 0 -109 28.5t-34 90.5q0 24 6 56l29 163q8 46 23.5 79.5t39.5 54.5t57.5 31t77.5 10h83q75 0 109 -28.5t34 -90.5q0 -13 -1.5 -27t-3.5 -29l-29 -163q-16 -88 -61.5 -131.5t-127.5 -43.5h-93zM397 339q1 5 1.5 9t0.5 8q0 35 -37 35h-94q-43 0 -52 -48l-29 -170
q-1 -5 -1.5 -9.5t-0.5 -8.5q0 -34 35 -34h94q44 0 53 48z" />
    <glyph glyph-name="p" unicode="p" horiz-adv-x="483" 
d="M14 -160l118 673h241q70 0 103 -31t33 -94q0 -26 -6 -59l-28 -159q-30 -170 -192 -170h-123l-28 -160h-118zM381 306q5 28 5 44q0 20 -8 30t-30 10h-119l-48 -269h119q49 0 58 53z" />
    <glyph glyph-name="q" unicode="q" horiz-adv-x="486" 
d="M297 -160l28 160h-125q-138 0 -138 122q0 11 1.5 23t3.5 26l30 171q30 171 193 171h244l-118 -673h-119zM394 391h-121q-48 0 -57 -53l-29 -164q-1 -5 -1.5 -8.5t-0.5 -7.5q0 -37 40 -37h121z" />
    <glyph glyph-name="r" unicode="r" horiz-adv-x="364" 
d="M42 0l90 513h114l-9 -56q23 33 48.5 44.5t67.5 11.5h80l-21 -122h-136q-48 0 -57 -54l-59 -337h-118z" />
    <glyph glyph-name="s" unicode="s" horiz-adv-x="478" 
d="M40 0l21 121h255q39 0 45 36l3 18q0 2 0.5 4.5t0.5 4.5q0 27 -33 27h-118q-65 0 -98 22.5t-33 70.5q0 14 3 31l5 28q14 79 58 114.5t121 35.5h242l-21 -122h-247q-36 0 -42 -36l-2 -9q-1 -4 -1 -10q0 -29 33 -29h121q63 0 96 -23t33 -71v-13.5t-2 -14.5l-6 -33
q-27 -152 -175 -152h-259z" />
    <glyph glyph-name="t" unicode="t" horiz-adv-x="297" 
d="M194 0q-129 0 -129 121q0 12 1 25t4 28l90 514h120l-31 -175h107l-18 -102h-107l-42 -241q-1 -5 -1.5 -9.5t-0.5 -9.5q0 -40 39 -40h58l-20 -111h-70z" />
    <glyph glyph-name="u" unicode="u" horiz-adv-x="495" 
d="M338 0l10 56q-24 -32 -49 -44t-68 -12h-64q-104 0 -104 111q0 13 1 26.5t4 29.5l61 346h117l-59 -339q-1 -5 -1.5 -9.5t-0.5 -8.5q0 -35 34 -35h88q49 0 58 54l59 338h118l-90 -513h-114z" />
    <glyph glyph-name="v" unicode="v" horiz-adv-x="460" 
d="M168 0l-69 513h130l32 -346l155 346h125l-250 -513h-123z" />
    <glyph glyph-name="w" unicode="w" horiz-adv-x="696" 
d="M429 0l-26 335l-144 -335h-112l-48 513h123l16 -344l147 344h109l29 -344l136 344h117l-227 -513h-120z" />
    <glyph glyph-name="x" unicode="x" horiz-adv-x="471" 
d="M315 0l-58 166l-119 -166h-126l204 261l-97 252h137l58 -163l116 163h120l-196 -252l103 -261h-142z" />
    <glyph glyph-name="y" unicode="y" 
d="M106 -159l20 112h139q46 0 57 58l8 44h-118q-139 0 -139 119q0 20 5 48l51 291h119l-52 -296q-2 -10 -2 -15q0 -37 41 -37h114l61 348h119l-87 -497q-31 -175 -186 -175h-150z" />
    <glyph glyph-name="z" unicode="z" horiz-adv-x="431" 
d="M29 0l14 81l261 314h-205l20 118h373l-12 -73l-259 -323h202l-21 -117h-373z" />
    <glyph glyph-name="braceleft" unicode="{" horiz-adv-x="405" 
d="M254 -150q-22 0 -44 5.5t-39 19t-28 36t-11 56.5q0 9 1 19.5t3 21.5l40 223q2 14 3 26t2 21q0 20 -5.5 28t-16.5 8h-43l17 95h43q32 0 45 77l38 219q7 40 24.5 67.5t41 44t50.5 24t53 7.5h86l-16 -88h-63q-29 0 -53.5 -31.5t-35.5 -97.5l-30 -171q-13 -71 -65 -102
q33 -24 33 -65q0 -14 -3 -32l-38 -216q-4 -20 -4 -40q0 -35 13.5 -50.5t34.5 -15.5h66l-15 -89h-84z" />
    <glyph glyph-name="bar" unicode="|" horiz-adv-x="393" 
d="M117 -127l172 976h113l-172 -976h-113z" />
    <glyph glyph-name="braceright" unicode="}" horiz-adv-x="404" 
d="M15 -150l15 89h64q26 0 49.5 24.5t33.5 81.5l38 216q6 36 20 58t43 39q-31 24 -31 70q0 14 3 32l30 171q2 15 3.5 28t1.5 24q0 39 -13 58t-35 19h-62l16 88h83q23 0 44.5 -5.5t38.5 -18.5t27.5 -34t10.5 -51q0 -16 -3 -34l-38 -219q-5 -28 -5 -42q0 -35 22 -35h44
l-17 -95h-44q-16 0 -26.5 -18.5t-18.5 -64.5l-40 -223q-8 -47 -26.5 -77.5t-42.5 -48.5t-51 -25t-52 -7h-82z" />
    <glyph glyph-name="asciitilde" unicode="~" horiz-adv-x="620" 
d="M638 335q-63 -63 -169 -63q-31 0 -57.5 13t-52.5 28.5t-53 28.5t-59 13q-42 0 -79 -17.5t-79 -65.5l21 117q25 28 60.5 45t88.5 17q37 0 67 -13.5t56.5 -29t53 -29t56.5 -13.5q49 0 89 21.5t79 72.5z" />
    <glyph glyph-name="nonbreakingspace" unicode="&#xa0;" horiz-adv-x="199" 
 />
    <glyph glyph-name="exclamdown" unicode="&#xa1;" horiz-adv-x="240" 
d="M62 0zM267.006 495.013l-87.9941 -494.97h-116.993l87.9941 494.97h116.993zM303.004 701l-25.998 -149.991h-117.993l25.998 149.991h117.993z" />
    <glyph glyph-name="cent" unicode="&#xa2;" horiz-adv-x="504" 
d="M330 67l-12 -67h-67l12 67h-41q-76 0 -111 32t-35 97q0 13 1 27t4 29l35 197q17 93 66 139t140 46h41l12 67h67l-12 -67h146l-22 -126h-225q-35 0 -53.5 -18t-24.5 -54l-30 -172q-3 -14 -3 -24q0 -47 55 -47h225l-22 -126h-146z" />
    <glyph glyph-name="sterling" unicode="&#xa3;" horiz-adv-x="597" 
d="M43 0l28 156h75l24 141h-76l19 104h76l12 72q37 228 254 228h225l-28 -155h-189q-42 0 -65 -22t-31 -69l-9 -54h263l-19 -104h-263l-24 -141h266l-28 -156h-510z" />
    <glyph glyph-name="currency" unicode="&#xa4;" horiz-adv-x="493" 
d="M421 352q-1 38 -27 65t-69 27q-26 0 -49.5 -10t-42.5 -26.5t-30 -38.5t-11 -46q0 -39 27 -66t69 -27q26 0 50 10t42.5 26.5t29.5 38.5t11 47zM373 201q-46 -26 -95 -26q-25 0 -47 7t-40 19l-73 -63l-43 54l68 59q-16 29 -16 67q0 30 13 56.5t35 49.5l-49 59l63 55l51 -64
q44 25 95 25q48 0 86 -24l73 63l43 -55l-68 -58q18 -29 18 -68q0 -29 -13 -56.5t-35 -50.5l47 -58l-63 -54z" />
    <glyph glyph-name="yen" unicode="&#xa5;" horiz-adv-x="705" 
d="M272 0l40 229h-192l16 89h192l15 83l-177 300h165l116 -206l189 206h149l-272 -286l-17 -97h185l-16 -89h-185l-40 -229h-168z" />
    <glyph glyph-name="brokenbar" unicode="&#xa6;" horiz-adv-x="393" 
d="M116 -127l85 484h113l-85 -484h-113zM327 427h-113l74 422h113z" />
    <glyph glyph-name="section" unicode="&#xa7;" horiz-adv-x="590" 
d="M195 -180l22 123h119q31 0 46.5 14.5t20.5 43.5l13 75h-194q-81 0 -114.5 28.5t-33.5 82.5q0 11 1.5 23t3.5 26l54 306q13 77 56 118t135 41h163l-22 -122h-120q-31 0 -46 -15.5t-20 -44.5l-14 -75h194q81 0 114.5 -29t33.5 -84q0 -11 -1 -22.5t-3 -23.5l-54 -307
q-7 -38 -20.5 -67.5t-36 -49.5t-56 -30.5t-79.5 -10.5h-162zM452 280q1 5 1.5 9.5t0.5 8.5q0 20 -11 30.5t-37 10.5h-159l-18 -99q-1 -5 -1.5 -9t-0.5 -8q0 -20 11 -31t37 -11h160z" />
    <glyph glyph-name="dieresis" unicode="&#xa8;" horiz-adv-x="410" 
d="M367 586l21 119h102l-21 -119h-102zM149 586l21 119h103l-21 -119h-103z" />
    <glyph glyph-name="ordfeminine" unicode="&#xaa;" horiz-adv-x="324" 
d="M171 300q-59 0 -59 53v11t2 12l5 28q6 33 25.5 49.5t57.5 16.5h89l3 16q1 4 1 10q0 19 -22 19h-118l12 67h118q75 0 75 -67v-13t-2 -14l-34 -188h-153zM282 419h-81q-19 0 -22 -21l-3 -17q0 -2 -0.5 -3t-0.5 -3q0 -13 16 -13h81z" />
    <glyph glyph-name="guillemotleft" unicode="&#xab;" horiz-adv-x="614" 
d="M82 90zM227 90l-145 240l229 239l61 -65l-172 -174l110 -175zM534 90l-145 240l229 239l61 -65l-172 -174l110 -175z" />
    <glyph glyph-name="logicalnot" unicode="&#xac;" horiz-adv-x="629" 
d="M466 0l57 325h-424l15 84h510l-72 -409h-86z" />
    <glyph glyph-name="macron" unicode="&#xaf;" horiz-adv-x="420" 
d="M148 609l14 77h337l-14 -77h-337z" />
    <glyph glyph-name="degree" unicode="&#xb0;" horiz-adv-x="358" 
d="M370 625q0 26 -16 42.5t-53 16.5q-26 0 -44 -7.5t-29 -19.5t-16 -28t-5 -34q0 -26 15 -43.5t52 -17.5q25 0 43 7.5t30 20.5t17.5 29t5.5 34zM431 634q0 -29 -9 -56.5t-29 -49t-51.5 -34.5t-76.5 -13q-65 0 -92 30.5t-27 74.5q0 29 9 56.5t29 48.5t51 33.5t75 12.5
q65 0 93 -30t28 -73z" />
    <glyph glyph-name="plusminus" unicode="&#xb1;" horiz-adv-x="620" 
d="M34 0zM278 91l39 221h-221l17 98h221l39 220h99l-39 -220h218l-17 -98h-218l-39 -221h-99zM34 -47l17 98h538l-17 -98h-538z" />
    <glyph glyph-name="twosuperior" unicode="&#xb2;" horiz-adv-x="287" 
d="M97 361zM97 361l19 110q15 86 102 86h39q31 0 37 33l5 25v8q0 25 -27 25h-35q-27 0 -31 -26l-4 -20h-60l4 20q18 89 102 89h35q79 0 79 -69v-12.5t-2 -14.5l-5 -25q-9 -44 -33 -66t-68 -22h-39q-33 0 -37 -31l-8 -47h153l-11 -63h-215z" />
    <glyph glyph-name="threesuperior" unicode="&#xb3;" horiz-adv-x="285" 
d="M108 361zM183 361q-36 0 -55.5 14.5t-19.5 46.5q0 10 3 24l4 24h60l-4 -23q-1 -2 -1 -6q0 -17 23 -17h38q34 0 40 33l4 26q0 2 0.5 4.5t0.5 4.5q0 25 -29 25h-43l8 46h49q26 0 32 27l6 31v7q0 20 -23 20h-42q-25 0 -29 -24l-4 -22h-60l4 22q8 45 33.5 66t66.5 21h42
q74 0 74 -53v-7.5t-1 -8.5l-7 -43q-5 -26 -15.5 -39.5t-28.5 -18.5q29 -6 29 -45v-8t-1 -9l-5 -24q-10 -47 -35 -70.5t-72 -23.5h-42z" />
    <glyph glyph-name="acute" unicode="&#xb4;" horiz-adv-x="340" 
d="M167 556l-23 39l243 141l32 -60z" />
    <glyph glyph-name="mu" unicode="&#x3bc;" horiz-adv-x="498" 
d="M340 0l10 56q-12 -18 -25 -29t-28.5 -17t-34 -8t-42.5 -2h-27q-21 0 -32 11l-30 -171h-117l118 673h117l-59 -339q-1 -5 -1.5 -9.5t-0.5 -8.5q0 -35 34 -35h88q49 0 58 53l59 339h118l-90 -513h-115z" />
    <glyph glyph-name="paragraph" unicode="&#xb6;" horiz-adv-x="544" 
d="M372 -129l130 737h-142l-130 -737h-100l102 577q-110 20 -110 107q0 29 9 55.5t30 46.5t55 32t84 12h318l-147 -830h-99z" />
    <glyph glyph-name="periodcentered" unicode="&#xb7;" horiz-adv-x="207" 
d="M91 270l27 150h118l-27 -150h-118z" />
    <glyph glyph-name="cedilla" unicode="&#xb8;" horiz-adv-x="190" 
d="M-2 -234l37 194h113l-68 -194h-82z" />
    <glyph glyph-name="onesuperior" unicode="&#xb9;" horiz-adv-x="178" 
d="M139 361zM139 361l50 287h-47l11 63h108l-61 -350h-61z" />
    <glyph glyph-name="ordmasculine" unicode="&#xba;" horiz-adv-x="331" 
d="M195 300q-42 0 -60.5 16t-18.5 50q0 13 3 30l16 90q9 51 35 73.5t75 22.5h45q42 0 60.5 -15.5t18.5 -49.5q0 -15 -3 -31l-16 -90q-8 -48 -33.5 -72t-70.5 -24h-51zM300 486q1 4 1 10q0 19 -20 19h-52q-23 0 -27 -26l-17 -94q-1 -4 -1 -10q0 -18 19 -18h52q25 0 29 26z
" />
    <glyph glyph-name="guillemotright" unicode="&#xbb;" horiz-adv-x="614" 
d="M51 90zM51 155l172 175l-110 174l84 65l144 -239l-228 -240zM358 155l172 175l-110 174l84 65l144 -239l-228 -240z" />
    <glyph glyph-name="onequarter" unicode="&#xbc;" horiz-adv-x="769" 
d="M31 0zM207 361l50 287h-47l11 63h108l-61 -350h-61zM31 -32l734 769h96l-734 -769h-96zM687 253l-106 -151h79zM641 -10l10 59h-136l9 48l166 243h73l-42 -238h27l-9 -53h-27l-10 -59h-61z" />
    <glyph glyph-name="onehalf" unicode="&#xbd;" horiz-adv-x="783" 
d="M31 0zM227 361l50 287h-47l11 63h108l-61 -350h-61zM31 -32l734 769h96l-734 -769h-96zM525 -10l19 110q15 86 102 86h39q31 0 37 33l5 25v8q0 25 -27 25h-35q-27 0 -31 -26l-4 -20h-60l4 20q18 89 102 89h35q79 0 79 -69v-12.5t-2 -14.5l-5 -25q-9 -44 -33 -66t-68 -22
h-39q-33 0 -37 -31l-8 -47h153l-11 -63h-215z" />
    <glyph glyph-name="threequarters" unicode="&#xbe;" horiz-adv-x="769" 
d="M31 0zM204 361q-36 0 -55.5 14.5t-19.5 46.5q0 10 3 24l4 24h60l-4 -23q-1 -2 -1 -6q0 -17 23 -17h38q34 0 40 33l4 26q0 2 0.5 4.5t0.5 4.5q0 25 -29 25h-43l8 46h49q26 0 32 27l6 31v7q0 20 -23 20h-42q-25 0 -29 -24l-4 -22h-60l4 22q8 45 33.5 66t66.5 21h42
q74 0 74 -53v-7.5t-1 -8.5l-7 -43q-5 -26 -15.5 -39.5t-28.5 -18.5q29 -6 29 -45v-8t-1 -9l-5 -24q-10 -47 -35 -70.5t-72 -23.5h-42zM31 -32l734 769h96l-734 -769h-96zM657 253l-106 -151h79zM611 -10l10 59h-136l9 48l166 243h73l-42 -238h27l-9 -53h-27l-10 -59h-61z
" />
    <glyph glyph-name="questiondown" unicode="&#xbf;" horiz-adv-x="486" 
d="M55 0zM451.01 495.013l-7 -38.998q-13.999 -74.9951 -51.4961 -110.493q-37.498 -35.498 -117.493 -35.498q-37.998 0 -57.9961 -14.999q-19.999 -14.999 -24.999 -44.9971l-9.99902 -60.9961q-1 -5 -1.5 -9.49902q-0.5 -4.5 -0.5 -9.5q0 -43.9971 46.9971 -43.9971
h81.9951q48.9971 0 57.9961 49.9971l8 41.9971h120.992l-6.99902 -37.9971q-16.999 -95.9941 -68.9961 -137.992q-51.9971 -41.9971 -140.991 -41.9971h-61.9961q-84.9951 0 -123.493 31.498q-38.4971 31.498 -38.4971 103.493q0 29.999 5.99902 65.9961l8 48.9971
q13.999 83.9951 64.4961 125.492q50.4971 41.498 131.492 43.498q23.998 1 41.9971 10.499t22.999 37.498l4.99902 27.998h115.993zM487.008 701l-25.999 -149.991h-116.992l25.998 149.991h116.993z" />
    <glyph glyph-name="Agrave" unicode="&#xc0;" horiz-adv-x="503" 
d="M9 0zM362 0l-6 123h-177l-48 -123h-122l292 701h144l49 -701h-132zM339 525l-120 -299h133zM243 864l54 60l193 -141l-37 -39z" />
    <glyph glyph-name="Aacute" unicode="&#xc1;" horiz-adv-x="503" 
d="M9 0zM362 0l-6 123h-177l-48 -123h-122l292 701h144l49 -701h-132zM339 525l-120 -299h133zM312 744l-23 39l243 141l32 -60z" />
    <glyph glyph-name="Acircumflex" unicode="&#xc2;" horiz-adv-x="503" 
d="M9 0zM362 0l-6 123h-177l-48 -123h-122l292 701h144l49 -701h-132zM339 525l-120 -299h133zM536 744l-134 114l-173 -114l-30 29l188 151h55l134 -151z" />
    <glyph glyph-name="Atilde" unicode="&#xc3;" horiz-adv-x="503" 
d="M9 0zM362 0l-6 123h-177l-48 -123h-122l292 701h144l49 -701h-132zM339 525l-120 -299h133zM595 865q-7 -17 -19 -33t-28.5 -28.5t-36.5 -20t-42 -7.5q-28 0 -46.5 7t-34 15.5t-31.5 15.5t-40 7q-21 0 -39 -10.5t-30 -36.5l-48 26q14 34 47.5 60.5t79.5 26.5
q27 0 46.5 -7t35.5 -15t32.5 -15t37.5 -7q45 0 67 49z" />
    <glyph glyph-name="Adieresis" unicode="&#xc4;" horiz-adv-x="503" 
d="M9 0zM362 0l-6 123h-177l-48 -123h-122l292 701h144l49 -701h-132zM339 525l-120 -299h133zM445 774l21 119h102l-21 -119h-102zM227 774l21 119h103l-21 -119h-103z" />
    <glyph glyph-name="Aring" unicode="&#xc5;" horiz-adv-x="503" 
d="M9 0zM362 0l-6 123h-177l-48 -123h-122l292 701h144l49 -701h-132zM339 525l-120 -299h133zM483 851q0 25 -17 40t-56 15q-27 0 -45.5 -6.5t-29.5 -18t-15.5 -26.5t-4.5 -32q0 -26 16 -41t54 -15q56 0 77 24t21 60zM542 860q0 -30 -8.5 -55t-28 -44t-51 -29.5
t-77.5 -10.5q-66 0 -93.5 25t-27.5 68q0 30 8.5 55t27.5 44t50 29.5t76 10.5q67 0 95.5 -25t28.5 -68z" />
    <glyph glyph-name="AE" unicode="&#xc6;" horiz-adv-x="828" 
d="M401 0l22 123h-215l-69 -123h-130l406 701h494l-23 -126h-260l-29 -168h132l-18 -103h-132l-32 -178h260l-22 -126h-384zM502 575h-41l-196 -349h176z" />
    <glyph glyph-name="Ccedilla" unicode="&#xc7;" horiz-adv-x="470" 
d="M64 0zM225 0q-161 0 -161 135q0 11 1.5 23t3.5 26l59 334q16 92 70.5 137.5t145.5 45.5h212l-23 -126h-212q-59 0 -69 -57l-58 -333q-1 -5 -1.5 -8.5t-0.5 -7.5q0 -43 51 -43h213l-22 -126h-209zM156 -234l37 194h113l-68 -194h-82z" />
    <glyph glyph-name="Egrave" unicode="&#xc8;" horiz-adv-x="479" 
d="M42 0zM42 0l124 701h404l-23 -126h-280l-29 -166h150l-19 -107h-150l-31 -176h280l-22 -126h-404zM231 864l54 60l193 -141l-37 -39z" />
    <glyph glyph-name="Eacute" unicode="&#xc9;" horiz-adv-x="479" 
d="M42 0zM42 0l124 701h404l-23 -126h-280l-29 -166h150l-19 -107h-150l-31 -176h280l-22 -126h-404zM300 744l-23 39l243 141l32 -60z" />
    <glyph glyph-name="Ecircumflex" unicode="&#xca;" horiz-adv-x="479" 
d="M42 0zM42 0l124 701h404l-23 -126h-280l-29 -166h150l-19 -107h-150l-31 -176h280l-22 -126h-404zM524 744l-134 114l-173 -114l-30 29l188 151h55l134 -151z" />
    <glyph glyph-name="Edieresis" unicode="&#xcb;" horiz-adv-x="479" 
d="M42 0zM42 0l124 701h404l-23 -126h-280l-29 -166h150l-19 -107h-150l-31 -176h280l-22 -126h-404zM443 774l21 119h102l-21 -119h-102zM225 774l21 119h103l-21 -119h-103z" />
    <glyph glyph-name="Igrave" unicode="&#xcc;" horiz-adv-x="218" 
d="M47 0zM47 0l124 701h124l-124 -701h-124zM103 864l54 60l193 -141l-37 -39z" />
    <glyph glyph-name="Iacute" unicode="&#xcd;" horiz-adv-x="218" 
d="M47 0zM47 0l124 701h124l-124 -701h-124zM170 744l-23 39l243 141l32 -60z" />
    <glyph glyph-name="Icircumflex" unicode="&#xce;" horiz-adv-x="218" 
d="M47 0zM47 0l124 701h124l-124 -701h-124zM396 744l-134 114l-173 -114l-30 29l188 151h55l134 -151z" />
    <glyph glyph-name="Idieresis" unicode="&#xcf;" horiz-adv-x="218" 
d="M47 0zM47 0l124 701h124l-124 -701h-124zM305 774l21 119h102l-21 -119h-102zM87 774l21 119h103l-21 -119h-103z" />
    <glyph glyph-name="Eth" unicode="&#xd0;" horiz-adv-x="514" 
d="M42 0l53 298h-39l17 101h39l54 302h244q161 0 161 -138q0 -12 -1.5 -25.5t-3.5 -27.5l-56 -319q-33 -191 -228 -191h-240zM442 510q1 5 1.5 9.5t0.5 9.5q0 46 -57 46h-121l-31 -176h77l-17 -101h-77l-31 -172h121q66 0 78 66z" />
    <glyph glyph-name="Ntilde" unicode="&#xd1;" horiz-adv-x="499" 
d="M38 0zM343 0l-113 452l-80 -452h-112l124 701h130l108 -423l75 423h110l-124 -701h-118zM593 865q-7 -17 -19 -33t-28.5 -28.5t-36.5 -20t-42 -7.5q-28 0 -46.5 7t-34 15.5t-31.5 15.5t-40 7q-21 0 -39 -10.5t-30 -36.5l-48 26q14 34 47.5 60.5t79.5 26.5q27 0 46.5 -7
t35.5 -15t32.5 -15t37.5 -7q45 0 67 49z" />
    <glyph glyph-name="Ograve" unicode="&#xd2;" horiz-adv-x="530" 
d="M63 0zM209 0q-75 0 -110.5 34t-35.5 94q0 11 1.5 22.5t3.5 23.5l62 352q14 81 64 128t139 47h112q75 0 109.5 -34t34.5 -94q0 -11 -1 -23t-3 -24l-62 -352q-14 -80 -63.5 -127t-138.5 -47h-112zM462 526q1 3 1 6.5v5.5q0 37 -41 37h-112q-47 0 -56 -49l-62 -351
q-2 -10 -2 -14q0 -35 41 -35h112q48 0 57 49zM256 864l54 60l193 -141l-37 -39z" />
    <glyph glyph-name="Oacute" unicode="&#xd3;" horiz-adv-x="530" 
d="M63 0zM209 0q-75 0 -110.5 34t-35.5 94q0 11 1.5 22.5t3.5 23.5l62 352q14 81 64 128t139 47h112q75 0 109.5 -34t34.5 -94q0 -11 -1 -23t-3 -24l-62 -352q-14 -80 -63.5 -127t-138.5 -47h-112zM462 526q1 3 1 6.5v5.5q0 37 -41 37h-112q-47 0 -56 -49l-62 -351
q-2 -10 -2 -14q0 -35 41 -35h112q48 0 57 49zM325 744l-23 39l243 141l32 -60z" />
    <glyph glyph-name="Ocircumflex" unicode="&#xd4;" horiz-adv-x="530" 
d="M63 0zM209 0q-75 0 -110.5 34t-35.5 94q0 11 1.5 22.5t3.5 23.5l62 352q14 81 64 128t139 47h112q75 0 109.5 -34t34.5 -94q0 -11 -1 -23t-3 -24l-62 -352q-14 -80 -63.5 -127t-138.5 -47h-112zM462 526q1 3 1 6.5v5.5q0 37 -41 37h-112q-47 0 -56 -49l-62 -351
q-2 -10 -2 -14q0 -35 41 -35h112q48 0 57 49zM549 744l-134 114l-173 -114l-30 29l188 151h55l134 -151z" />
    <glyph glyph-name="Otilde" unicode="&#xd5;" horiz-adv-x="530" 
d="M63 0zM209 0q-75 0 -110.5 34t-35.5 94q0 11 1.5 22.5t3.5 23.5l62 352q14 81 64 128t139 47h112q75 0 109.5 -34t34.5 -94q0 -11 -1 -23t-3 -24l-62 -352q-14 -80 -63.5 -127t-138.5 -47h-112zM462 526q1 3 1 6.5v5.5q0 37 -41 37h-112q-47 0 -56 -49l-62 -351
q-2 -10 -2 -14q0 -35 41 -35h112q48 0 57 49zM609 865q-7 -17 -19 -33t-28.5 -28.5t-36.5 -20t-42 -7.5q-28 0 -46.5 7t-34 15.5t-31.5 15.5t-40 7q-21 0 -39 -10.5t-30 -36.5l-48 26q14 34 47.5 60.5t79.5 26.5q27 0 46.5 -7t35.5 -15t32.5 -15t37.5 -7q45 0 67 49z" />
    <glyph glyph-name="Odieresis" unicode="&#xd6;" horiz-adv-x="530" 
d="M63 0zM209 0q-75 0 -110.5 34t-35.5 94q0 11 1.5 22.5t3.5 23.5l62 352q14 81 64 128t139 47h112q75 0 109.5 -34t34.5 -94q0 -11 -1 -23t-3 -24l-62 -352q-14 -80 -63.5 -127t-138.5 -47h-112zM462 526q1 3 1 6.5v5.5q0 37 -41 37h-112q-47 0 -56 -49l-62 -351
q-2 -10 -2 -14q0 -35 41 -35h112q48 0 57 49zM459 774l21 119h102l-21 -119h-102zM241 774l21 119h103l-21 -119h-103z" />
    <glyph glyph-name="multiply" unicode="&#xd7;" horiz-adv-x="620" 
d="M489 136l-128 156l-184 -156l-57 69l184 156l-128 156l82 70l128 -156l182 155l56 -70l-181 -154l129 -156z" />
    <glyph glyph-name="Oslash" unicode="&#xd8;" horiz-adv-x="530" 
d="M209 0q-60 0 -94 21l-49 -69l-37 21l55 78q-20 29 -20 77q0 11 1 22.5t3 23.5l62 352q14 81 64 128t139 47h112q55 0 90 -20l47 66l37 -21l-52 -73q22 -31 22 -81q0 -11 -1 -22.5t-3 -23.5l-62 -352q-14 -80 -63.5 -127t-138.5 -47h-112zM457 500l-259 -363
q11 -11 33 -11h112q48 0 57 49zM198 210l254 356q-11 9 -30 9h-112q-47 0 -56 -49z" />
    <glyph glyph-name="Ugrave" unicode="&#xd9;" horiz-adv-x="524" 
d="M66 0zM227 0q-161 0 -161 135q0 11 1.5 23t3.5 26l92 517h124l-91 -516q-1 -5 -1.5 -8.5t-0.5 -7.5q0 -43 51 -43h78q60 0 71 59l91 516h124l-92 -517q-33 -184 -220 -184h-70zM253 864l54 60l193 -141l-37 -39z" />
    <glyph glyph-name="Uacute" unicode="&#xda;" horiz-adv-x="524" 
d="M66 0zM227 0q-161 0 -161 135q0 11 1.5 23t3.5 26l92 517h124l-91 -516q-1 -5 -1.5 -8.5t-0.5 -7.5q0 -43 51 -43h78q60 0 71 59l91 516h124l-92 -517q-33 -184 -220 -184h-70zM322 744l-23 39l243 141l32 -60z" />
    <glyph glyph-name="Ucircumflex" unicode="&#xdb;" horiz-adv-x="524" 
d="M66 0zM227 0q-161 0 -161 135q0 11 1.5 23t3.5 26l92 517h124l-91 -516q-1 -5 -1.5 -8.5t-0.5 -7.5q0 -43 51 -43h78q60 0 71 59l91 516h124l-92 -517q-33 -184 -220 -184h-70zM546 744l-134 114l-173 -114l-30 29l188 151h55l134 -151z" />
    <glyph glyph-name="Udieresis" unicode="&#xdc;" horiz-adv-x="524" 
d="M66 0zM227 0q-161 0 -161 135q0 11 1.5 23t3.5 26l92 517h124l-91 -516q-1 -5 -1.5 -8.5t-0.5 -7.5q0 -43 51 -43h78q60 0 71 59l91 516h124l-92 -517q-33 -184 -220 -184h-70zM456 774l21 119h102l-21 -119h-102zM238 774l21 119h103l-21 -119h-103z" />
    <glyph glyph-name="Yacute" unicode="&#xdd;" horiz-adv-x="494" 
d="M129 0zM183 0l55 313l-109 388h134l67 -255l160 255h123l-252 -388l-55 -313h-123zM311 744l-23 39l243 141l32 -60z" />
    <glyph glyph-name="Thorn" unicode="&#xde;" horiz-adv-x="496" 
d="M42 0l123 700h123l-20 -115h118q80 0 120 -31t40 -99q0 -12 -1.5 -25t-3.5 -27l-15 -84q-18 -101 -71.5 -145.5t-148.5 -44.5h-118l-23 -129h-123zM418 401q1 5 1.5 9t0.5 8q0 41 -47 41h-127l-36 -205h127q55 0 66 62z" />
    <glyph glyph-name="germandbls" unicode="&#xdf;" horiz-adv-x="609" 
d="M235 0l21 121h179q48 0 57 53l9 53q1 5 1 15q0 35 -39 35q-129 0 -129 103q0 8 1 17t3 20l24 139q0 3 0.5 5.5t0.5 5.5q0 27 -29 27h-36q-35 0 -41 -37l-98 -557h-120l96 544q27 157 174 157h52q122 0 122 -111q0 -11 -1 -22.5t-3 -23.5l-22 -124q-1 -5 -1 -13
q0 -27 28 -27q139 0 139 -110q0 -18 -3 -39l-11 -60q-16 -86 -62.5 -128.5t-129.5 -42.5h-182z" />
    <glyph glyph-name="agrave" unicode="&#xe0;" 
d="M53 0zM162 0q-109 0 -109 97q0 22 4 42l8 50q19 120 152 120h163l6 29q1 5 1 8.5v7.5q0 37 -40 37h-215l21 122h215q137 0 137 -122q0 -11 -1.5 -23t-3.5 -26l-60 -342h-278zM364 217h-147q-37 0 -43 -39l-5 -30q-1 -4 -1 -10q0 -25 31 -25h147zM218 676l54 60l193 -141
l-37 -39z" />
    <glyph glyph-name="aacute" unicode="&#xe1;" 
d="M53 0zM162 0q-109 0 -109 97q0 22 4 42l8 50q19 120 152 120h163l6 29q1 5 1 8.5v7.5q0 37 -40 37h-215l21 122h215q137 0 137 -122q0 -11 -1.5 -23t-3.5 -26l-60 -342h-278zM364 217h-147q-37 0 -43 -39l-5 -30q-1 -4 -1 -10q0 -25 31 -25h147zM267 556l-23 39l243 141
l32 -60z" />
    <glyph glyph-name="acircumflex" unicode="&#xe2;" 
d="M53 0zM162 0q-109 0 -109 97q0 22 4 42l8 50q19 120 152 120h163l6 29q1 5 1 8.5v7.5q0 37 -40 37h-215l21 122h215q137 0 137 -122q0 -11 -1.5 -23t-3.5 -26l-60 -342h-278zM364 217h-147q-37 0 -43 -39l-5 -30q-1 -4 -1 -10q0 -25 31 -25h147zM501 556l-134 114
l-173 -114l-30 29l188 151h55l134 -151z" />
    <glyph glyph-name="atilde" unicode="&#xe3;" 
d="M53 0zM162 0q-109 0 -109 97q0 22 4 42l8 50q19 120 152 120h163l6 29q1 5 1 8.5v7.5q0 37 -40 37h-215l21 122h215q137 0 137 -122q0 -11 -1.5 -23t-3.5 -26l-60 -342h-278zM364 217h-147q-37 0 -43 -39l-5 -30q-1 -4 -1 -10q0 -25 31 -25h147zM561 677q-7 -17 -19 -33
t-28.5 -28.5t-36.5 -20t-42 -7.5q-28 0 -46.5 7t-34 15.5t-31.5 15.5t-40 7q-21 0 -39 -10.5t-30 -36.5l-48 26q14 34 47.5 60.5t79.5 26.5q27 0 46.5 -7t35.5 -15t32.5 -15t37.5 -7q45 0 67 49z" />
    <glyph glyph-name="adieresis" unicode="&#xe4;" 
d="M53 0zM162 0q-109 0 -109 97q0 22 4 42l8 50q19 120 152 120h163l6 29q1 5 1 8.5v7.5q0 37 -40 37h-215l21 122h215q137 0 137 -122q0 -11 -1.5 -23t-3.5 -26l-60 -342h-278zM364 217h-147q-37 0 -43 -39l-5 -30q-1 -4 -1 -10q0 -25 31 -25h147zM411 586l21 119h102
l-21 -119h-102zM193 586l21 119h103l-21 -119h-103z" />
    <glyph glyph-name="aring" unicode="&#xe5;" 
d="M53 0zM162 0q-109 0 -109 97q0 22 4 42l8 50q19 120 152 120h163l6 29q1 5 1 8.5v7.5q0 37 -40 37h-215l21 122h215q137 0 137 -122q0 -11 -1.5 -23t-3.5 -26l-60 -342h-278zM364 217h-147q-37 0 -43 -39l-5 -30q-1 -4 -1 -10q0 -25 31 -25h147zM448 663q0 25 -17 40
t-56 15q-27 0 -45.5 -6.5t-29.5 -18t-15.5 -26.5t-4.5 -32q0 -26 16 -41t54 -15q56 0 77 24t21 60zM507 672q0 -30 -8.5 -55t-28 -44t-51 -29.5t-77.5 -10.5q-66 0 -93.5 25t-27.5 68q0 30 8.5 55t27.5 44t50 29.5t76 10.5q67 0 95.5 -25t28.5 -68z" />
    <glyph glyph-name="ae" unicode="&#xe6;" horiz-adv-x="769" 
d="M532 0q-48 0 -71 12.5t-32 38.5l-9 -51h-260q-107 0 -107 98q0 11 1 21.5t3 22.5l8 45q21 121 151 121h164l6 34q1 5 1 14q0 35 -40 35h-215l21 122h215q35 0 61.5 -11.5t34.5 -34.5q17 23 48 34.5t66 11.5h81q137 0 137 -122q0 -11 -1.5 -23t-3.5 -26l-23 -131h-291
l-7 -42q-1 -4 -1 -7.5v-6.5q0 -34 40 -34h229l-21 -121h-185zM364 218h-147q-19 0 -28.5 -9.5t-13.5 -28.5l-6 -32q-1 -4 -1 -10q0 -25 31 -25h147zM679 345q1 5 1 8.5v7.5q0 38 -39 38h-83q-47 0 -57 -54l-8 -43h178z" />
    <glyph glyph-name="ccedilla" unicode="&#xe7;" horiz-adv-x="418" 
d="M62 0zM200 0q-138 0 -138 122q0 11 1.5 23t3.5 26l30 169q30 173 193 173h179l-21 -122h-176q-48 0 -57 -55l-28 -162q-1 -5 -1.5 -9t-0.5 -8q0 -36 39 -36h178l-21 -121h-181zM120 -234l37 194h113l-68 -194h-82z" />
    <glyph glyph-name="egrave" unicode="&#xe8;" horiz-adv-x="481" 
d="M62 0zM200 0q-138 0 -138 122q0 11 1.5 23t3.5 26l30 171q30 171 193 171h80q138 0 138 -122q0 -11 -1.5 -23t-3.5 -26l-23 -132h-290l-6 -36q-1 -5 -1.5 -9t-0.5 -8q0 -36 39 -36h229l-21 -121h-229zM391 345q1 5 1 8.5v7.5q0 38 -40 38h-82q-25 0 -38 -13.5t-18 -40.5
l-8 -42h177zM199 676l54 60l193 -141l-37 -39z" />
    <glyph glyph-name="eacute" unicode="&#xe9;" horiz-adv-x="481" 
d="M62 0zM200 0q-138 0 -138 122q0 11 1.5 23t3.5 26l30 171q30 171 193 171h80q138 0 138 -122q0 -11 -1.5 -23t-3.5 -26l-23 -132h-290l-6 -36q-1 -5 -1.5 -9t-0.5 -8q0 -36 39 -36h229l-21 -121h-229zM391 345q1 5 1 8.5v7.5q0 38 -40 38h-82q-25 0 -38 -13.5t-18 -40.5
l-8 -42h177zM268 556l-23 39l243 141l32 -60z" />
    <glyph glyph-name="ecircumflex" unicode="&#xea;" horiz-adv-x="481" 
d="M62 0zM200 0q-138 0 -138 122q0 11 1.5 23t3.5 26l30 171q30 171 193 171h80q138 0 138 -122q0 -11 -1.5 -23t-3.5 -26l-23 -132h-290l-6 -36q-1 -5 -1.5 -9t-0.5 -8q0 -36 39 -36h229l-21 -121h-229zM391 345q1 5 1 8.5v7.5q0 38 -40 38h-82q-25 0 -38 -13.5t-18 -40.5
l-8 -42h177zM502 556l-134 114l-173 -114l-30 29l188 151h55l134 -151z" />
    <glyph glyph-name="edieresis" unicode="&#xeb;" horiz-adv-x="481" 
d="M62 0zM200 0q-138 0 -138 122q0 11 1.5 23t3.5 26l30 171q30 171 193 171h80q138 0 138 -122q0 -11 -1.5 -23t-3.5 -26l-23 -132h-290l-6 -36q-1 -5 -1.5 -9t-0.5 -8q0 -36 39 -36h229l-21 -121h-229zM391 345q1 5 1 8.5v7.5q0 38 -40 38h-82q-25 0 -38 -13.5t-18 -40.5
l-8 -42h177zM411 586l21 119h102l-21 -119h-102zM193 586l21 119h103l-21 -119h-103z" />
    <glyph glyph-name="igrave" unicode="&#xec;" horiz-adv-x="214" 
d="M47 0l90 513h120l-90 -513h-120zM66 676l53 60l193 -141l-36 -39z" />
    <glyph glyph-name="iacute" unicode="&#xed;" horiz-adv-x="214" 
d="M47 0l90 513h120l-90 -513h-120zM135 556l-24 39l243 141l33 -60z" />
    <glyph glyph-name="icircumflex" unicode="&#xee;" horiz-adv-x="214" 
d="M47 0l90 513h120l-90 -513h-120zM359 556l-134 114l-173 -114l-30 29l187 151h55l135 -151z" />
    <glyph glyph-name="idieresis" unicode="&#xef;" horiz-adv-x="214" 
d="M47 0l90 513h120l-90 -513h-120zM268 586l21 119h102l-21 -119h-102zM50 586l21 119h103l-21 -119h-103z" />
    <glyph glyph-name="eth" unicode="&#xf0;" horiz-adv-x="493" 
d="M203 0q-140 0 -140 124q0 12 1.5 25t3.5 27l23 132q15 88 63.5 128t132.5 40h134l9 50q1 5 1.5 9.5t0.5 9.5q0 44 -42 44h-143l20 112h155q131 0 131 -125q0 -13 -1.5 -26.5t-3.5 -28.5l-61 -345q-32 -176 -197 -176h-87zM400 360h-126q-31 0 -45 -14t-20 -46l-21 -117
q-2 -7 -2 -12v-10q0 -22 11 -31t35 -9h70q28 0 45 13.5t22 44.5z" />
    <glyph glyph-name="ntilde" unicode="&#xf1;" horiz-adv-x="504" 
d="M42 0zM347 0l60 338q1 5 1 9v8q0 36 -33 36h-99q-48 0 -57 -54l-59 -337h-118l90 513h114l-9 -56q23 33 48.5 44.5t67.5 11.5h74q104 0 104 -110q0 -26 -6 -57l-61 -346h-117zM583 677q-7 -17 -19 -33t-28.5 -28.5t-36.5 -20t-42 -7.5q-28 0 -46.5 7t-34 15.5t-31.5 15.5
t-40 7q-21 0 -39 -10.5t-30 -36.5l-48 26q14 34 47.5 60.5t79.5 26.5q27 0 46.5 -7t35.5 -15t32.5 -15t37.5 -7q45 0 67 49z" />
    <glyph glyph-name="ograve" unicode="&#xf2;" horiz-adv-x="493" 
d="M62 0zM205 0q-75 0 -109 28.5t-34 90.5q0 24 6 56l29 163q8 46 23.5 79.5t39.5 54.5t57.5 31t77.5 10h83q75 0 109 -28.5t34 -90.5q0 -13 -1.5 -27t-3.5 -29l-29 -163q-16 -88 -61.5 -131.5t-127.5 -43.5h-93zM397 339q1 5 1.5 9t0.5 8q0 35 -37 35h-94q-43 0 -52 -48
l-29 -170q-1 -5 -1.5 -9.5t-0.5 -8.5q0 -34 35 -34h94q44 0 53 48zM205 676l54 60l193 -141l-37 -39z" />
    <glyph glyph-name="oacute" unicode="&#xf3;" horiz-adv-x="493" 
d="M62 0zM205 0q-75 0 -109 28.5t-34 90.5q0 24 6 56l29 163q8 46 23.5 79.5t39.5 54.5t57.5 31t77.5 10h83q75 0 109 -28.5t34 -90.5q0 -13 -1.5 -27t-3.5 -29l-29 -163q-16 -88 -61.5 -131.5t-127.5 -43.5h-93zM397 339q1 5 1.5 9t0.5 8q0 35 -37 35h-94q-43 0 -52 -48
l-29 -170q-1 -5 -1.5 -9.5t-0.5 -8.5q0 -34 35 -34h94q44 0 53 48zM274 556l-23 39l243 141l32 -60z" />
    <glyph glyph-name="ocircumflex" unicode="&#xf4;" horiz-adv-x="493" 
d="M62 0zM205 0q-75 0 -109 28.5t-34 90.5q0 24 6 56l29 163q8 46 23.5 79.5t39.5 54.5t57.5 31t77.5 10h83q75 0 109 -28.5t34 -90.5q0 -13 -1.5 -27t-3.5 -29l-29 -163q-16 -88 -61.5 -131.5t-127.5 -43.5h-93zM397 339q1 5 1.5 9t0.5 8q0 35 -37 35h-94q-43 0 -52 -48
l-29 -170q-1 -5 -1.5 -9.5t-0.5 -8.5q0 -34 35 -34h94q44 0 53 48zM498 556l-134 114l-173 -114l-30 29l188 151h55l134 -151z" />
    <glyph glyph-name="otilde" unicode="&#xf5;" horiz-adv-x="493" 
d="M62 0zM205 0q-75 0 -109 28.5t-34 90.5q0 24 6 56l29 163q8 46 23.5 79.5t39.5 54.5t57.5 31t77.5 10h83q75 0 109 -28.5t34 -90.5q0 -13 -1.5 -27t-3.5 -29l-29 -163q-16 -88 -61.5 -131.5t-127.5 -43.5h-93zM397 339q1 5 1.5 9t0.5 8q0 35 -37 35h-94q-43 0 -52 -48
l-29 -170q-1 -5 -1.5 -9.5t-0.5 -8.5q0 -34 35 -34h94q44 0 53 48zM557 677q-7 -17 -19 -33t-28.5 -28.5t-36.5 -20t-42 -7.5q-28 0 -46.5 7t-34 15.5t-31.5 15.5t-40 7q-21 0 -39 -10.5t-30 -36.5l-48 26q14 34 47.5 60.5t79.5 26.5q27 0 46.5 -7t35.5 -15t32.5 -15
t37.5 -7q45 0 67 49z" />
    <glyph glyph-name="odieresis" unicode="&#xf6;" horiz-adv-x="493" 
d="M62 0zM205 0q-75 0 -109 28.5t-34 90.5q0 24 6 56l29 163q8 46 23.5 79.5t39.5 54.5t57.5 31t77.5 10h83q75 0 109 -28.5t34 -90.5q0 -13 -1.5 -27t-3.5 -29l-29 -163q-16 -88 -61.5 -131.5t-127.5 -43.5h-93zM397 339q1 5 1.5 9t0.5 8q0 35 -37 35h-94q-43 0 -52 -48
l-29 -170q-1 -5 -1.5 -9.5t-0.5 -8.5q0 -34 35 -34h94q44 0 53 48zM407 586l21 119h102l-21 -119h-102zM189 586l21 119h103l-21 -119h-103z" />
    <glyph glyph-name="divide" unicode="&#xf7;" horiz-adv-x="620" 
d="M96 33zM96 312l17 98h538l-17 -98h-538zM346 540l26 150h118l-26 -150h-118zM256 33l26 150h118l-26 -150h-118z" />
    <glyph glyph-name="oslash" unicode="&#xf8;" horiz-adv-x="493" 
d="M205 0q-41 0 -66 7l-39 -55l-37 21l37 52q-38 28 -38 92q0 26 6 58l29 163q8 46 23.5 79.5t39.5 54.5t57.5 31t77.5 10h83q40 0 65 -7l51 70l37 -21l-49 -68q39 -29 39 -95q0 -12 -1.5 -25.5t-3.5 -28.5l-29 -163q-16 -88 -61.5 -131.5t-127.5 -43.5h-93zM397 339
q1 5 1 8.5v7.5q0 9 -1 13l-177 -247h94q44 0 53 48zM361 391h-93q-43 0 -52 -48l-29 -170q-3 -12 -3 -22q0 -2 0.5 -3.5t0.5 -3.5z" />
    <glyph glyph-name="ugrave" unicode="&#xf9;" horiz-adv-x="495" 
d="M63 0zM338 0l10 56q-24 -32 -49 -44t-68 -12h-64q-104 0 -104 111q0 13 1 26.5t4 29.5l61 346h117l-59 -339q-1 -5 -1.5 -9.5t-0.5 -8.5q0 -35 34 -35h88q49 0 58 54l59 338h118l-90 -513h-114zM206 676l54 60l193 -141l-37 -39z" />
    <glyph glyph-name="uacute" unicode="&#xfa;" horiz-adv-x="495" 
d="M63 0zM338 0l10 56q-24 -32 -49 -44t-68 -12h-64q-104 0 -104 111q0 13 1 26.5t4 29.5l61 346h117l-59 -339q-1 -5 -1.5 -9.5t-0.5 -8.5q0 -35 34 -35h88q49 0 58 54l59 338h118l-90 -513h-114zM275 556l-23 39l243 141l32 -60z" />
    <glyph glyph-name="ucircumflex" unicode="&#xfb;" horiz-adv-x="495" 
d="M63 0zM338 0l10 56q-24 -32 -49 -44t-68 -12h-64q-104 0 -104 111q0 13 1 26.5t4 29.5l61 346h117l-59 -339q-1 -5 -1.5 -9.5t-0.5 -8.5q0 -35 34 -35h88q49 0 58 54l59 338h118l-90 -513h-114zM499 556l-134 114l-173 -114l-30 29l188 151h55l134 -151z" />
    <glyph glyph-name="udieresis" unicode="&#xfc;" horiz-adv-x="495" 
d="M63 0zM338 0l10 56q-24 -32 -49 -44t-68 -12h-64q-104 0 -104 111q0 13 1 26.5t4 29.5l61 346h117l-59 -339q-1 -5 -1.5 -9.5t-0.5 -8.5q0 -35 34 -35h88q49 0 58 54l59 338h118l-90 -513h-114zM418 586l21 119h102l-21 -119h-102zM200 586l21 119h103l-21 -119h-103z
" />
    <glyph glyph-name="yacute" unicode="&#xfd;" 
d="M73 0zM106 -159l20 112h139q46 0 57 58l8 44h-118q-139 0 -139 119q0 20 5 48l51 291h119l-52 -296q-2 -10 -2 -15q0 -37 41 -37h114l61 348h119l-87 -497q-31 -175 -186 -175h-150zM267 556l-23 39l243 141l32 -60z" />
    <glyph glyph-name="thorn" unicode="&#xfe;" horiz-adv-x="483" 
d="M14 -160l152 861h118l-34 -188h122q137 0 137 -125q0 -28 -6 -59l-28 -159q-30 -170 -193 -170h-122l-28 -160h-118zM380 306l3.5 25t1.5 21q0 19 -8 28.5t-30 9.5h-118l-48 -269h119q48 0 57 53z" />
    <glyph glyph-name="ydieresis" unicode="&#xff;" 
d="M73 0zM106 -159l20 112h139q46 0 57 58l8 44h-118q-139 0 -139 119q0 20 5 48l51 291h119l-52 -296q-2 -10 -2 -15q0 -37 41 -37h114l61 348h119l-87 -497q-31 -175 -186 -175h-150zM405 586l21 119h102l-21 -119h-102zM187 586l21 119h103l-21 -119h-103z" />
    <glyph glyph-name="Amacron" unicode="&#x100;" horiz-adv-x="503" 
d="M9 0zM362 0l-6 123h-177l-48 -123h-122l292 701h144l49 -701h-132zM339 525l-120 -299h133zM223 797l14 77h337l-14 -77h-337z" />
    <glyph glyph-name="amacron" unicode="&#x101;" 
d="M53 0zM162 0q-109 0 -109 97q0 22 4 42l8 50q19 120 152 120h163l6 29q1 5 1 8.5v7.5q0 37 -40 37h-215l21 122h215q137 0 137 -122q0 -11 -1.5 -23t-3.5 -26l-60 -342h-278zM364 217h-147q-37 0 -43 -39l-5 -30q-1 -4 -1 -10q0 -25 31 -25h147zM188 609l14 77h337
l-14 -77h-337z" />
    <glyph glyph-name="Abreve" unicode="&#x102;" horiz-adv-x="503" 
d="M9 0zM362 0l-6 123h-177l-48 -123h-122l292 701h144l49 -701h-132zM339 525l-120 -299h133zM596 883q-11 -24 -30.5 -48.5t-47 -45t-62 -33t-74.5 -12.5t-70.5 12.5t-51 33t-31 45t-10.5 48.5l52 29q5 -49 38 -77.5t83 -28.5q52 0 94 27.5t68 78.5z" />
    <glyph glyph-name="abreve" unicode="&#x103;" 
d="M53 0zM162 0q-109 0 -109 97q0 22 4 42l8 50q19 120 152 120h163l6 29q1 5 1 8.5v7.5q0 37 -40 37h-215l21 122h215q137 0 137 -122q0 -11 -1.5 -23t-3.5 -26l-60 -342h-278zM364 217h-147q-37 0 -43 -39l-5 -30q-1 -4 -1 -10q0 -25 31 -25h147zM561 695
q-11 -24 -30.5 -48.5t-47 -45t-62 -33t-74.5 -12.5t-70.5 12.5t-51 33t-31 45t-10.5 48.5l52 29q5 -49 38 -77.5t83 -28.5q52 0 94 27.5t68 78.5z" />
    <glyph glyph-name="Aogonek" unicode="&#x104;" horiz-adv-x="503" 
d="M340 -234q-47 0 -71 18.5t-24 53.5q0 40 25 72t82 55l87 35h-77l-7 123h-177l-47 -123h-122l291 701h144l50 -701l-120 -52q-38 -17 -38 -45q0 -13 10.5 -21t31.5 -8h93l-19 -108h-112zM338 525l-120 -299h133z" />
    <glyph glyph-name="aogonek" unicode="&#x105;" 
d="M286 -234q-47 0 -71 18.5t-24 53.5q0 40 25 72t82 55l87 35h-223q-110 0 -110 98q0 21 4 41l9 50q21 120 152 120h163l5 29q1 5 1 8.5v7.5q0 37 -40 37h-215l22 122h215q137 0 137 -122q0 -11 -1.5 -23t-3.5 -26l-60 -342l-120 -52q-38 -17 -38 -45q0 -13 10.5 -21
t31.5 -8h93l-19 -108h-112zM364 217h-147q-37 0 -43 -39l-5 -30q-1 -4 -1 -10q0 -25 30 -25h147z" />
    <glyph glyph-name="Cacute" unicode="&#x106;" horiz-adv-x="470" 
d="M64 0zM225 0q-161 0 -161 135q0 11 1.5 23t3.5 26l59 334q16 92 70.5 137.5t145.5 45.5h212l-23 -126h-212q-59 0 -69 -57l-58 -333q-1 -5 -1.5 -8.5t-0.5 -7.5q0 -43 51 -43h213l-22 -126h-209zM295 744l-23 39l243 141l32 -60z" />
    <glyph glyph-name="cacute" unicode="&#x107;" horiz-adv-x="418" 
d="M62 0zM200 0q-138 0 -138 122q0 11 1.5 23t3.5 26l30 169q30 173 193 173h179l-21 -122h-176q-48 0 -57 -55l-28 -162q-1 -5 -1.5 -9t-0.5 -8q0 -36 39 -36h178l-21 -121h-181zM236 556l-23 39l243 141l32 -60z" />
    <glyph glyph-name="Cdotaccent" unicode="&#x10a;" horiz-adv-x="470" 
d="M64 0zM225 0q-161 0 -161 135q0 11 1.5 23t3.5 26l59 334q16 92 70.5 137.5t145.5 45.5h212l-23 -126h-212q-59 0 -69 -57l-58 -333q-1 -5 -1.5 -8.5t-0.5 -7.5q0 -43 51 -43h213l-22 -126h-209zM352 774l21 119h103l-21 -119h-103z" />
    <glyph glyph-name="cdotaccent" unicode="&#x10b;" horiz-adv-x="418" 
d="M62 0zM200 0q-138 0 -138 122q0 11 1.5 23t3.5 26l30 169q30 173 193 173h179l-21 -122h-176q-48 0 -57 -55l-28 -162q-1 -5 -1.5 -9t-0.5 -8q0 -36 39 -36h178l-21 -121h-181zM284 586l21 119h103l-21 -119h-103z" />
    <glyph glyph-name="Ccaron" unicode="&#x10c;" horiz-adv-x="470" 
d="M64 0zM225 0q-161 0 -161 135q0 11 1.5 23t3.5 26l59 334q16 92 70.5 137.5t145.5 45.5h212l-23 -126h-212q-59 0 -69 -57l-58 -333q-1 -5 -1.5 -8.5t-0.5 -7.5q0 -43 51 -43h213l-22 -126h-209zM413 744h-55l-135 150l41 30l132 -116l175 116l29 -30z" />
    <glyph glyph-name="ccaron" unicode="&#x10d;" horiz-adv-x="418" 
d="M62 0zM200 0q-138 0 -138 122q0 11 1.5 23t3.5 26l30 169q30 173 193 173h179l-21 -122h-176q-48 0 -57 -55l-28 -162q-1 -5 -1.5 -9t-0.5 -8q0 -36 39 -36h178l-21 -121h-181zM355 556h-55l-135 150l41 30l132 -116l175 116l29 -30z" />
    <glyph glyph-name="Dcaron" unicode="&#x10e;" horiz-adv-x="514" 
d="M42 0zM42 0l124 701h245q161 0 161 -138q0 -12 -1.5 -25.5t-3.5 -27.5l-56 -319q-33 -191 -229 -191h-240zM443 510q1 5 1.5 9.5t0.5 8.5q0 47 -57 47h-122l-79 -449h121q67 0 79 66zM405 744h-55l-135 150l41 30l132 -116l175 116l29 -30z" />
    <glyph glyph-name="dcaron" unicode="&#x10f;" horiz-adv-x="589" 
d="M62 0zM200 0q-138 0 -138 122q0 11 1.5 23t3.5 26l30 171q30 171 193 171h123l34 188h119l-124 -701h-242zM392 391h-119q-48 0 -57 -53l-29 -164q-1 -5 -1.5 -8.5t-0.5 -7.5q0 -37 40 -37h119zM556 458l47 243h110l-77 -243h-80z" />
    <glyph glyph-name="Dcroat" unicode="&#x110;" horiz-adv-x="514" 
d="M42 0zM42 0l53 298h-39l17 101h39l54 302h244q161 0 161 -138q0 -12 -1.5 -25.5t-3.5 -27.5l-56 -319q-33 -191 -228 -191h-240zM442 510q1 5 1.5 9.5t0.5 9.5q0 46 -57 46h-121l-31 -176h77l-17 -101h-77l-31 -172h121q66 0 78 66z" />
    <glyph glyph-name="dcroat" unicode="&#x111;" horiz-adv-x="484" 
d="M200 0q-138 0 -138 122q0 11 1.5 23t3.5 26l30 171q30 171 193 171h123l10 56h-146l13 77h146l10 55h119l-10 -55h42l-13 -77h-42l-100 -569h-242zM391 391h-119q-48 0 -57 -53l-29 -164q-1 -5 -1.5 -8.5t-0.5 -6.5q0 -38 41 -38h119z" />
    <glyph glyph-name="Emacron" unicode="&#x112;" horiz-adv-x="479" 
d="M42 0zM42 0l124 701h404l-23 -126h-280l-29 -166h150l-19 -107h-150l-31 -176h280l-22 -126h-404zM221 797l14 77h337l-14 -77h-337z" />
    <glyph glyph-name="emacron" unicode="&#x113;" horiz-adv-x="481" 
d="M62 0zM200 0q-138 0 -138 122q0 11 1.5 23t3.5 26l30 171q30 171 193 171h80q138 0 138 -122q0 -11 -1.5 -23t-3.5 -26l-23 -132h-290l-6 -36q-1 -5 -1.5 -9t-0.5 -8q0 -36 39 -36h229l-21 -121h-229zM391 345q1 5 1 8.5v7.5q0 38 -40 38h-82q-25 0 -38 -13.5t-18 -40.5
l-8 -42h177zM189 609l14 77h337l-14 -77h-337z" />
    <glyph glyph-name="Ebreve" unicode="&#x114;" horiz-adv-x="479" 
d="M42 0zM42 0l124 701h404l-23 -126h-280l-29 -166h150l-19 -107h-150l-31 -176h280l-22 -126h-404zM594 883q-11 -24 -30.5 -48.5t-47 -45t-62 -33t-74.5 -12.5t-70.5 12.5t-51 33t-31 45t-10.5 48.5l52 29q5 -49 38 -77.5t83 -28.5q52 0 94 27.5t68 78.5z" />
    <glyph glyph-name="ebreve" unicode="&#x115;" horiz-adv-x="481" 
d="M62 0zM200 0q-138 0 -138 122q0 11 1.5 23t3.5 26l30 171q30 171 193 171h80q138 0 138 -122q0 -11 -1.5 -23t-3.5 -26l-23 -132h-290l-6 -36q-1 -5 -1.5 -9t-0.5 -8q0 -36 39 -36h229l-21 -121h-229zM391 345q1 5 1 8.5v7.5q0 38 -40 38h-82q-25 0 -38 -13.5t-18 -40.5
l-8 -42h177zM562 695q-11 -24 -30.5 -48.5t-47 -45t-62 -33t-74.5 -12.5t-70.5 12.5t-51 33t-31 45t-10.5 48.5l52 29q5 -49 38 -77.5t83 -28.5q52 0 94 27.5t68 78.5z" />
    <glyph glyph-name="Edotaccent" unicode="&#x116;" horiz-adv-x="479" 
d="M42 0zM42 0l124 701h404l-23 -126h-280l-29 -166h150l-19 -107h-150l-31 -176h280l-22 -126h-404zM334 774l21 119h103l-21 -119h-103z" />
    <glyph glyph-name="edotaccent" unicode="&#x117;" horiz-adv-x="481" 
d="M62 0zM200 0q-138 0 -138 122q0 11 1.5 23t3.5 26l30 171q30 171 193 171h80q138 0 138 -122q0 -11 -1.5 -23t-3.5 -26l-23 -132h-290l-6 -36q-1 -5 -1.5 -9t-0.5 -8q0 -36 39 -36h229l-21 -121h-229zM391 345q1 5 1 8.5v7.5q0 38 -40 38h-82q-25 0 -38 -13.5t-18 -40.5
l-8 -42h177zM302 586l21 119h103l-21 -119h-103z" />
    <glyph glyph-name="Eogonek" unicode="&#x118;" horiz-adv-x="479" 
d="M292 -234q-47 0 -71 18.5t-24 53.5q0 40 25 72t82 55l87 35h-349l123 701h404l-22 -126h-280l-29 -166h150l-19 -107h-150l-31 -176h280l-22 -126l-120 -52q-38 -17 -38 -45q0 -13 10.5 -21t31.5 -8h93l-19 -108h-112z" />
    <glyph glyph-name="eogonek" unicode="&#x119;" horiz-adv-x="481" 
d="M275 -234q-47 0 -71 18.5t-24 53.5q0 40 25 72t82 55l87 35h-174q-138 0 -138 122q0 11 1.5 23t3.5 26l30 171q30 171 193 171h80q138 0 138 -122q0 -11 -1.5 -23t-3.5 -26l-23 -132h-290l-7 -36q-1 -5 -1.5 -8.5t-0.5 -7.5q0 -37 40 -37h229l-21 -121l-120 -52
q-38 -17 -38 -45q0 -13 10.5 -21t31.5 -8h93l-19 -108h-112zM390 345q1 5 1.5 9t0.5 8q0 37 -40 37h-82q-48 0 -57 -54l-7 -42h177z" />
    <glyph glyph-name="Ecaron" unicode="&#x11a;" horiz-adv-x="479" 
d="M42 0zM42 0l124 701h404l-23 -126h-280l-29 -166h150l-19 -107h-150l-31 -176h280l-22 -126h-404zM408 744h-55l-135 150l41 30l132 -116l175 116l29 -30z" />
    <glyph glyph-name="ecaron" unicode="&#x11b;" horiz-adv-x="481" 
d="M62 0zM200 0q-138 0 -138 122q0 11 1.5 23t3.5 26l30 171q30 171 193 171h80q138 0 138 -122q0 -11 -1.5 -23t-3.5 -26l-23 -132h-290l-6 -36q-1 -5 -1.5 -9t-0.5 -8q0 -36 39 -36h229l-21 -121h-229zM391 345q1 5 1 8.5v7.5q0 38 -40 38h-82q-25 0 -38 -13.5t-18 -40.5
l-8 -42h177zM366 556h-55l-135 150l41 30l132 -116l175 116l29 -30z" />
    <glyph glyph-name="Gbreve" unicode="&#x11e;" horiz-adv-x="506" 
d="M64 0zM225 0q-161 0 -161 135q0 11 1.5 23t3.5 26l59 333q33 184 216 184h234l-23 -126h-234q-59 0 -69 -58l-58 -332q-1 -5 -1.5 -8.5t-0.5 -7.5q0 -43 51 -43h133l32 178h-111l19 108h225l-73 -412h-243zM613 883q-11 -24 -30.5 -48.5t-47 -45t-62 -33t-74.5 -12.5
t-70.5 12.5t-51 33t-31 45t-10.5 48.5l52 29q5 -49 38 -77.5t83 -28.5q52 0 94 27.5t68 78.5z" />
    <glyph glyph-name="gbreve" unicode="&#x11f;" horiz-adv-x="486" 
d="M71 0zM98 -159l20 112h152q46 0 57 58l8 44h-125q-139 0 -139 119q0 20 5 48l21 120q30 171 193 171h244l-87 -497q-31 -175 -186 -175h-163zM394 391h-121q-48 0 -57 -53l-22 -121q-2 -10 -2 -15q0 -37 41 -37h121zM567 695q-11 -24 -30.5 -48.5t-47 -45t-62 -33
t-74.5 -12.5t-70.5 12.5t-51 33t-31 45t-10.5 48.5l52 29q5 -49 38 -77.5t83 -28.5q52 0 94 27.5t68 78.5z" />
    <glyph glyph-name="Gdotaccent" unicode="&#x120;" horiz-adv-x="506" 
d="M64 0zM225 0q-161 0 -161 135q0 11 1.5 23t3.5 26l59 333q33 184 216 184h234l-23 -126h-234q-59 0 -69 -58l-58 -332q-1 -5 -1.5 -8.5t-0.5 -7.5q0 -43 51 -43h133l32 178h-111l19 108h225l-73 -412h-243zM357 774l21 119h103l-21 -119h-103z" />
    <glyph glyph-name="gdotaccent" unicode="&#x121;" horiz-adv-x="486" 
d="M71 0zM98 -159l20 112h152q46 0 57 58l8 44h-125q-139 0 -139 119q0 20 5 48l21 120q30 171 193 171h244l-87 -497q-31 -175 -186 -175h-163zM394 391h-121q-48 0 -57 -53l-22 -121q-2 -10 -2 -15q0 -37 41 -37h121zM305 586l21 119h103l-21 -119h-103z" />
    <glyph glyph-name="Gcommaaccent" unicode="&#x122;" horiz-adv-x="506" 
d="M64 0zM225 0q-161 0 -161 135q0 11 1.5 23t3.5 26l59 333q33 184 216 184h234l-23 -126h-234q-59 0 -69 -58l-58 -332q-1 -5 -1.5 -8.5t-0.5 -7.5q0 -43 51 -43h133l32 178h-111l19 108h225l-73 -412h-243zM172 -234l37 194h113l-68 -194h-82z" />
    <glyph glyph-name="gcommaaccent" unicode="&#x123;" horiz-adv-x="486" 
d="M71 0zM98 -159l20 112h152q46 0 57 58l8 44h-125q-139 0 -139 119q0 20 5 48l21 120q30 171 193 171h244l-87 -497q-31 -175 -186 -175h-163zM394 391h-121q-48 0 -57 -53l-22 -121q-2 -10 -2 -15q0 -37 41 -37h121zM452 747.985l-36.998 -193.987h-112.993
l67.9961 193.987h81.9951z" />
    <glyph glyph-name="Hbar" unicode="&#x126;" horiz-adv-x="515" 
d="M349 0l51 292h-183l-51 -292h-124l123 701h124l-19 -107h183l19 107h124l-123 -701h-124zM421 411l19 106h-183l-19 -106h183z" />
    <glyph glyph-name="hbar" unicode="&#x127;" horiz-adv-x="501" 
d="M258 559l-18 -102q25 33 49.5 44.5t67.5 11.5h68q103 0 103 -111q0 -13 -1.5 -27t-3.5 -29l-61 -346h-118l59 338q1 5 1.5 9.5t0.5 9.5q0 34 -34 34h-96q-47 0 -56 -54l-59 -337h-118l98 559h-42l14 77h42l11 65h118l-11 -65h137l-14 -77h-137z" />
    <glyph glyph-name="Itilde" unicode="&#x128;" horiz-adv-x="218" 
d="M47 0zM47 0l124 701h124l-124 -701h-124zM455 865q-7 -17 -19 -33t-28.5 -28.5t-36.5 -20t-42 -7.5q-28 0 -46.5 7t-34 15.5t-31.5 15.5t-40 7q-21 0 -39 -10.5t-30 -36.5l-48 26q14 34 47.5 60.5t79.5 26.5q27 0 46.5 -7t35.5 -15t32.5 -15t37.5 -7q45 0 67 49z" />
    <glyph glyph-name="itilde" unicode="&#x129;" horiz-adv-x="214" 
d="M24 0zM47 0l90 513h120l-90 -513h-120zM419 677q-7 -17 -19 -33t-28.5 -28.5t-36.5 -20t-42 -7.5q-28 0 -46.5 7t-34 15.5t-31.5 15.5t-40 7q-21 0 -39 -10.5t-30 -36.5l-48 26q14 34 47.5 60.5t79.5 26.5q27 0 46.5 -7t35.5 -15t32.5 -15t37.5 -7q45 0 67 49z" />
    <glyph glyph-name="uni012A" unicode="&#x12a;" horiz-adv-x="218" 
d="M47 0zM47 0l124 701h124l-124 -701h-124zM83 797l14 77h337l-14 -77h-337z" />
    <glyph glyph-name="imacron" unicode="&#x12b;" horiz-adv-x="214" 
d="M47 0zM47 0l90 513h120l-90 -513h-120zM47 609l14 77h337l-14 -77h-337z" />
    <glyph glyph-name="Ibreve" unicode="&#x12c;" horiz-adv-x="218" 
d="M47 0zM47 0l124 701h124l-124 -701h-124zM456 883q-11 -24 -30.5 -48.5t-47 -45t-62 -33t-74.5 -12.5t-70.5 12.5t-51 33t-31 45t-10.5 48.5l52 29q5 -49 38 -77.5t83 -28.5q52 0 94 27.5t68 78.5z" />
    <glyph glyph-name="ibreve" unicode="&#x12d;" horiz-adv-x="214" 
d="M43 0zM47 0l90 513h120l-90 -513h-120zM420 695q-11 -24 -30.5 -48.5t-47 -45t-62 -33t-74.5 -12.5t-70.5 12.5t-51 33t-31 45t-10.5 48.5l52 29q5 -49 38 -77.5t83 -28.5q52 0 94 27.5t68 78.5z" />
    <glyph glyph-name="Iogonek" unicode="&#x12e;" horiz-adv-x="218" 
d="M17 -234q-46 0 -70 18.5t-24 53.5q0 41 25 72t81 55l87 35h-69l123 701h124l-123 -701l-120 -52q-38 -17 -38 -45q0 -13 10.5 -21t31.5 -8h93l-19 -108h-112z" />
    <glyph glyph-name="iogonek" unicode="&#x12f;" horiz-adv-x="214" 
d="M13 -234q-46 0 -70 18.5t-24 53.5q0 41 25 72t81 55l87 35h-65l90 513h120l-90 -513l-120 -52q-38 -17 -38 -45q0 -13 10.5 -21t31.5 -8h93l-19 -108h-112z" />
    <glyph glyph-name="Idotaccent" unicode="&#x130;" horiz-adv-x="218" 
d="M47 0zM47 0l124 701h124l-124 -701h-124zM193 774l21 119h103l-21 -119h-103z" />
    <glyph glyph-name="dotlessi" unicode="&#x131;" horiz-adv-x="214" 
d="M47 0l90 513h120l-90 -513h-120z" />
    <glyph glyph-name="IJ" unicode="&#x132;" horiz-adv-x="661" 
d="M47 0zM47 0l124 701h124l-124 -701h-124zM238 0l22 126h200q60 0 71 59l68 390h-124l23 126h248l-92 -517q-33 -184 -220 -184h-196z" />
    <glyph glyph-name="ij" unicode="&#x133;" horiz-adv-x="446" 
d="M47 0zM149 581l22 120h120l-22 -120h-120zM47 0l90 513h120l-90 -513h-120zM151 -159l20 112h58q47 0 58 58l88 502h119l-87 -497q-31 -175 -186 -175h-70zM387 581l22 120h119l-22 -120h-119z" />
    <glyph glyph-name="Kcommaaccent" unicode="&#x136;" horiz-adv-x="493" 
d="M42 0zM328 0l41 232q1 5 1 15q0 46 -54 46h-99l-52 -293h-123l124 701h123l-56 -318l219 318h132l-234 -317q70 -3 108 -29t38 -83q0 -9 -1 -18.5t-3 -20.5l-41 -233h-123zM147 -234l37 194h113l-68 -194h-82z" />
    <glyph glyph-name="kcommaaccent" unicode="&#x137;" horiz-adv-x="476" 
d="M42 0zM319 0l27 154q1 5 1.5 10t0.5 10q0 24 -14 34t-39 10h-97l-38 -218h-118l124 701h118l-70 -396l198 208h131l-215 -213h32q62 0 86 -22.5t24 -65.5q0 -11 -1.5 -24.5t-3.5 -27.5l-28 -160h-118zM139 -234l37 194h113l-68 -194h-82z" />
    <glyph glyph-name="Lacute" unicode="&#x139;" horiz-adv-x="381" 
d="M42 0zM42 0l124 701h123l-102 -575h201l-22 -126h-324zM171 744l-23 39l243 141l32 -60z" />
    <glyph glyph-name="lacute" unicode="&#x13a;" horiz-adv-x="204" 
d="M42 0zM42 0l124 701h119l-124 -701h-119zM165 744l-23 39l243 141l32 -60z" />
    <glyph glyph-name="Lcommaaccent" unicode="&#x13b;" horiz-adv-x="381" 
d="M42 0zM42 0l124 701h123l-102 -575h201l-22 -126h-324zM111 -234l37 194h113l-68 -194h-82z" />
    <glyph glyph-name="lcommaaccent" unicode="&#x13c;" horiz-adv-x="204" 
d="M3 0zM42 0l124 701h119l-124 -701h-119zM3 -234l37 194h113l-68 -194h-82z" />
    <glyph glyph-name="Lcaron" unicode="&#x13d;" horiz-adv-x="381" 
d="M42 0zM42 0l124 701h123l-102 -575h201l-22 -126h-324zM273 458l47 243h110l-77 -243h-80z" />
    <glyph glyph-name="lcaron" unicode="&#x13e;" horiz-adv-x="298" 
d="M42 0zM42 0l124 701h119l-124 -701h-119zM265 458l47 243h110l-77 -243h-80z" />
    <glyph glyph-name="Ldot" unicode="&#x13f;" horiz-adv-x="381" 
d="M42 0zM42 0l124 701h123l-102 -575h201l-22 -126h-324zM246 333l21 119h103l-21 -119h-103z" />
    <glyph glyph-name="ldot" unicode="&#x140;" horiz-adv-x="283" 
d="M42 0zM42 0l124 701h119l-124 -701h-119zM235 319l21 119h103l-21 -119h-103z" />
    <glyph glyph-name="Lslash" unicode="&#x141;" horiz-adv-x="380" 
d="M42 0l55 312l-41 -14l15 85l41 14l54 304h123l-46 -259l99 37l-15 -85l-99 -36l-41 -232h200l-22 -126h-323z" />
    <glyph glyph-name="lslash" unicode="&#x142;" horiz-adv-x="261" 
d="M68 0l57 325l-69 -25l15 84l69 25l52 292h119l-44 -248l76 27l-15 -84l-76 -27l-65 -369h-119z" />
    <glyph glyph-name="Nacute" unicode="&#x143;" horiz-adv-x="499" 
d="M38 0zM343 0l-113 452l-80 -452h-112l124 701h130l108 -423l75 423h110l-124 -701h-118zM310 744l-23 39l243 141l32 -60z" />
    <glyph glyph-name="nacute" unicode="&#x144;" horiz-adv-x="504" 
d="M42 0zM347 0l60 338q1 5 1 9v8q0 36 -33 36h-99q-48 0 -57 -54l-59 -337h-118l90 513h114l-9 -56q23 33 48.5 44.5t67.5 11.5h74q104 0 104 -110q0 -26 -6 -57l-61 -346h-117zM279 556l-23 39l243 141l32 -60z" />
    <glyph glyph-name="Ncommaaccent" unicode="&#x145;" horiz-adv-x="499" 
d="M38 0zM343 0l-113 452l-80 -452h-112l124 701h130l108 -423l75 423h110l-124 -701h-118zM150 -234l37 194h113l-68 -194h-82z" />
    <glyph glyph-name="ncommaaccent" unicode="&#x146;" horiz-adv-x="504" 
d="M42 0zM347 0l60 338q1 5 1 9v8q0 36 -33 36h-99q-48 0 -57 -54l-59 -337h-118l90 513h114l-9 -56q23 33 48.5 44.5t67.5 11.5h74q104 0 104 -110q0 -26 -6 -57l-61 -346h-117zM153 -234l37 194h113l-68 -194h-82z" />
    <glyph glyph-name="Ncaron" unicode="&#x147;" horiz-adv-x="499" 
d="M38 0zM343 0l-113 452l-80 -452h-112l124 701h130l108 -423l75 423h110l-124 -701h-118zM408 744h-55l-135 150l41 30l132 -116l175 116l29 -30z" />
    <glyph glyph-name="ncaron" unicode="&#x148;" horiz-adv-x="504" 
d="M42 0zM347 0l60 338q1 5 1 9v8q0 36 -33 36h-99q-48 0 -57 -54l-59 -337h-118l90 513h114l-9 -56q23 33 48.5 44.5t67.5 11.5h74q104 0 104 -110q0 -26 -6 -57l-61 -346h-117zM393 556h-55l-135 150l41 30l132 -116l175 116l29 -30z" />
    <glyph glyph-name="Eng" unicode="&#x14a;" horiz-adv-x="499" 
d="M238 -234l20 112h14q24 0 43 14.5t24 43.5l12 64l-122 452l-79 -452h-112l123 701h130l109 -423l74 423h110l-134 -760q-31 -175 -186 -175h-26z" />
    <glyph glyph-name="eng" unicode="&#x14b;" horiz-adv-x="504" 
d="M235 -234l20 112h20q49 0 60 58l71 402q1 5 1 9v8q0 36 -33 36h-99q-47 0 -56 -54l-59 -337h-118l90 513h114l-10 -56q24 33 49.5 44.5t67.5 11.5h74q103 0 103 -111q0 -12 -1 -26t-4 -30l-72 -405q-31 -175 -186 -175h-32z" />
    <glyph glyph-name="Omacron" unicode="&#x14c;" horiz-adv-x="530" 
d="M63 0zM209 0q-75 0 -110.5 34t-35.5 94q0 11 1.5 22.5t3.5 23.5l62 352q14 81 64 128t139 47h112q75 0 109.5 -34t34.5 -94q0 -11 -1 -23t-3 -24l-62 -352q-14 -80 -63.5 -127t-138.5 -47h-112zM462 526q1 3 1 6.5v5.5q0 37 -41 37h-112q-47 0 -56 -49l-62 -351
q-2 -10 -2 -14q0 -35 41 -35h112q48 0 57 49zM236 797l14 77h337l-14 -77h-337z" />
    <glyph glyph-name="omacron" unicode="&#x14d;" horiz-adv-x="493" 
d="M62 0zM205 0q-75 0 -109 28.5t-34 90.5q0 24 6 56l29 163q8 46 23.5 79.5t39.5 54.5t57.5 31t77.5 10h83q75 0 109 -28.5t34 -90.5q0 -13 -1.5 -27t-3.5 -29l-29 -163q-16 -88 -61.5 -131.5t-127.5 -43.5h-93zM397 339q1 5 1.5 9t0.5 8q0 35 -37 35h-94q-43 0 -52 -48
l-29 -170q-1 -5 -1.5 -9.5t-0.5 -8.5q0 -34 35 -34h94q44 0 53 48zM185 609l14 77h337l-14 -77h-337z" />
    <glyph glyph-name="Obreve" unicode="&#x14e;" horiz-adv-x="530" 
d="M63 0zM209 0q-75 0 -110.5 34t-35.5 94q0 11 1.5 22.5t3.5 23.5l62 352q14 81 64 128t139 47h112q75 0 109.5 -34t34.5 -94q0 -11 -1 -23t-3 -24l-62 -352q-14 -80 -63.5 -127t-138.5 -47h-112zM462 526q1 3 1 6.5v5.5q0 37 -41 37h-112q-47 0 -56 -49l-62 -351
q-2 -10 -2 -14q0 -35 41 -35h112q48 0 57 49zM609 883q-11 -24 -30.5 -48.5t-47 -45t-62 -33t-74.5 -12.5t-70.5 12.5t-51 33t-31 45t-10.5 48.5l52 29q5 -49 38 -77.5t83 -28.5q52 0 94 27.5t68 78.5z" />
    <glyph glyph-name="obreve" unicode="&#x14f;" horiz-adv-x="493" 
d="M62 0zM205 0q-75 0 -109 28.5t-34 90.5q0 24 6 56l29 163q8 46 23.5 79.5t39.5 54.5t57.5 31t77.5 10h83q75 0 109 -28.5t34 -90.5q0 -13 -1.5 -27t-3.5 -29l-29 -163q-16 -88 -61.5 -131.5t-127.5 -43.5h-93zM397 339q1 5 1.5 9t0.5 8q0 35 -37 35h-94q-43 0 -52 -48
l-29 -170q-1 -5 -1.5 -9.5t-0.5 -8.5q0 -34 35 -34h94q44 0 53 48zM558 695q-11 -24 -30.5 -48.5t-47 -45t-62 -33t-74.5 -12.5t-70.5 12.5t-51 33t-31 45t-10.5 48.5l52 29q5 -49 38 -77.5t83 -28.5q52 0 94 27.5t68 78.5z" />
    <glyph glyph-name="Ohungarumlaut" unicode="&#x150;" horiz-adv-x="530" 
d="M63 0zM209 0q-75 0 -110.5 34t-35.5 94q0 11 1.5 22.5t3.5 23.5l62 352q14 81 64 128t139 47h112q75 0 109.5 -34t34.5 -94q0 -11 -1 -23t-3 -24l-62 -352q-14 -80 -63.5 -127t-138.5 -47h-112zM462 526q1 3 1 6.5v5.5q0 37 -41 37h-112q-47 0 -56 -49l-62 -351
q-2 -10 -2 -14q0 -35 41 -35h112q48 0 57 49zM256 745l106 179h82l-113 -179h-75zM427 745l116 179h84l-125 -179h-75z" />
    <glyph glyph-name="ohungarumlaut" unicode="&#x151;" horiz-adv-x="493" 
d="M62 0zM205 0q-75 0 -109 28.5t-34 90.5q0 24 6 56l29 163q8 46 23.5 79.5t39.5 54.5t57.5 31t77.5 10h83q75 0 109 -28.5t34 -90.5q0 -13 -1.5 -27t-3.5 -29l-29 -163q-16 -88 -61.5 -131.5t-127.5 -43.5h-93zM397 339q1 5 1.5 9t0.5 8q0 35 -37 35h-94q-43 0 -52 -48
l-29 -170q-1 -5 -1.5 -9.5t-0.5 -8.5q0 -34 35 -34h94q44 0 53 48zM205 557l106 179h82l-113 -179h-75zM376 557l116 179h84l-125 -179h-75z" />
    <glyph glyph-name="OE" unicode="&#x152;" horiz-adv-x="800" 
d="M231 0q-88 0 -128 31t-40 95q0 11 1.5 22.5t3.5 25.5l62 351q8 48 25 81.5t44.5 54.5t66 30.5t89.5 9.5h534l-23 -126h-277l-29 -167h147l-19 -106h-147l-31 -176h277l-22 -126h-534zM458 525q1 4 1 12q0 38 -41 38h-108q-26 0 -39 -13t-18 -37l-62 -350q-2 -10 -2 -14
q0 -35 42 -35h108q48 0 57 49z" />
    <glyph glyph-name="oe" unicode="&#x153;" horiz-adv-x="780" 
d="M508 0q-85 0 -105 40q-34 -40 -114 -40h-93q-134 0 -134 119q0 11 1 22.5t3 24.5l32 181q29 166 188 166h93q80 0 100 -42q36 42 119 42h72q137 0 137 -122q0 -11 -1.5 -23t-3.5 -26l-23 -133h-290l-6 -35q-1 -5 -1.5 -8.5t-0.5 -7.5q0 -37 39 -37h229l-21 -121h-220z
M397 343q1 5 1 8.5v7.5q0 32 -36 32h-94q-43 0 -52 -48l-30 -174q-1 -5 -1.5 -8t-0.5 -7q0 -33 36 -33h94q44 0 53 48zM690 345q1 5 1 8.5v7.5q0 38 -40 38h-82q-46 0 -56 -54l-8 -42h177z" />
    <glyph glyph-name="Racute" unicode="&#x154;" horiz-adv-x="506" 
d="M42 0zM347 0l33 189q1 5 1.5 9t0.5 9q0 23 -14.5 36.5t-43.5 13.5h-113l-45 -257h-124l124 701h247q75 0 111.5 -27.5t36.5 -88.5q0 -10 -1 -20.5t-3 -22.5l-18 -100l-10.5 -61l-10 -60t-7 -48.5t-2.5 -26.5v-8.5t-0.5 -14.5t-1.5 -16t-2 -12l-34 -195h-124zM437 516
q1 5 1 8.5v7.5q0 43 -48 43h-123l-36 -204h125q56 0 65 53zM313 744l-23 39l243 141l32 -60z" />
    <glyph glyph-name="racute" unicode="&#x155;" horiz-adv-x="364" 
d="M42 0zM42 0l90 513h114l-9 -56q23 33 48.5 44.5t67.5 11.5h80l-21 -122h-136q-48 0 -57 -54l-59 -337h-118zM209 556l-23 39l243 141l32 -60z" />
    <glyph glyph-name="Rcommaaccent" unicode="&#x156;" horiz-adv-x="506" 
d="M42 0zM347 0l33 189q1 5 1.5 9t0.5 9q0 23 -14.5 36.5t-43.5 13.5h-113l-45 -257h-124l124 701h247q75 0 111.5 -27.5t36.5 -88.5q0 -10 -1 -20.5t-3 -22.5l-18 -100l-10.5 -61l-10 -60t-7 -48.5t-2.5 -26.5v-8.5t-0.5 -14.5t-1.5 -16t-2 -12l-34 -195h-124zM437 516
q1 5 1 8.5v7.5q0 43 -48 43h-123l-36 -204h125q56 0 65 53zM154 -234l37 194h113l-68 -194h-82z" />
    <glyph glyph-name="rcommaaccent" unicode="&#x157;" horiz-adv-x="364" 
d="M4 0zM42 0l90 513h114l-9 -56q23 33 48.5 44.5t67.5 11.5h80l-21 -122h-136q-48 0 -57 -54l-59 -337h-118zM4 -234l37 194h113l-68 -194h-82z" />
    <glyph glyph-name="Rcaron" unicode="&#x158;" horiz-adv-x="506" 
d="M42 0zM347 0l33 189q1 5 1.5 9t0.5 9q0 23 -14.5 36.5t-43.5 13.5h-113l-45 -257h-124l124 701h247q75 0 111.5 -27.5t36.5 -88.5q0 -10 -1 -20.5t-3 -22.5l-18 -100l-10.5 -61l-10 -60t-7 -48.5t-2.5 -26.5v-8.5t-0.5 -14.5t-1.5 -16t-2 -12l-34 -195h-124zM437 516
q1 5 1 8.5v7.5q0 43 -48 43h-123l-36 -204h125q56 0 65 53zM401 744h-55l-135 150l41 30l132 -116l175 116l29 -30z" />
    <glyph glyph-name="rcaron" unicode="&#x159;" horiz-adv-x="364" 
d="M42 0zM42 0l90 513h114l-9 -56q23 33 48.5 44.5t67.5 11.5h80l-21 -122h-136q-48 0 -57 -54l-59 -337h-118zM309 556h-55l-135 150l41 30l132 -116l175 116l29 -30z" />
    <glyph glyph-name="Sacute" unicode="&#x15a;" horiz-adv-x="494" 
d="M34 0zM34 0l22 126h242q64 0 76 67l7 41q1 5 1.5 9.5t0.5 8.5q0 44 -53 44h-77q-147 0 -147 124q0 11 1.5 23t3.5 26l7 39q17 97 71 145t148 48h225l-23 -126h-225q-61 0 -73 -67l-7 -39q-1 -5 -1.5 -9.5t-0.5 -9.5q0 -43 53 -43h77q147 0 147 -124q0 -11 -1.5 -23
t-3.5 -26l-7 -41q-33 -193 -221 -193h-242zM307 744l-23 39l243 141l32 -60z" />
    <glyph glyph-name="sacute" unicode="&#x15b;" horiz-adv-x="478" 
d="M40 0zM40 0l21 121h255q39 0 45 36l3 18q0 2 0.5 4.5t0.5 4.5q0 27 -33 27h-118q-65 0 -98 22.5t-33 70.5q0 14 3 31l5 28q14 79 58 114.5t121 35.5h242l-21 -122h-247q-36 0 -42 -36l-2 -9q-1 -4 -1 -10q0 -29 33 -29h121q63 0 96 -23t33 -71v-13.5t-2 -14.5l-6 -33
q-27 -152 -175 -152h-259zM266 556l-23 39l243 141l32 -60z" />
    <glyph glyph-name="Scedilla" unicode="&#x15e;" horiz-adv-x="494" 
d="M34 0zM34 0l22 126h242q64 0 76 67l7 41q1 5 1.5 9.5t0.5 8.5q0 44 -53 44h-77q-147 0 -147 124q0 11 1.5 23t3.5 26l7 39q17 97 71 145t148 48h225l-23 -126h-225q-61 0 -73 -67l-7 -39q-1 -5 -1.5 -9.5t-0.5 -9.5q0 -43 53 -43h77q147 0 147 -124q0 -11 -1.5 -23
t-3.5 -26l-7 -41q-33 -193 -221 -193h-242zM148 -234l37 194h113l-68 -194h-82z" />
    <glyph glyph-name="scedilla" unicode="&#x15f;" horiz-adv-x="478" 
d="M40 0zM40 0l21 121h255q39 0 45 36l3 18q0 2 0.5 4.5t0.5 4.5q0 27 -33 27h-118q-65 0 -98 22.5t-33 70.5q0 14 3 31l5 28q14 79 58 114.5t121 35.5h242l-21 -122h-247q-36 0 -42 -36l-2 -9q-1 -4 -1 -10q0 -29 33 -29h121q63 0 96 -23t33 -71v-13.5t-2 -14.5l-6 -33
q-27 -152 -175 -152h-259zM140 -234l37 194h113l-68 -194h-82z" />
    <glyph glyph-name="Scaron" unicode="&#x160;" horiz-adv-x="494" 
d="M34 0zM34 0l22 126h242q64 0 76 67l7 41q1 5 1.5 9.5t0.5 8.5q0 44 -53 44h-77q-147 0 -147 124q0 11 1.5 23t3.5 26l7 39q17 97 71 145t148 48h225l-23 -126h-225q-61 0 -73 -67l-7 -39q-1 -5 -1.5 -9.5t-0.5 -9.5q0 -43 53 -43h77q147 0 147 -124q0 -11 -1.5 -23
t-3.5 -26l-7 -41q-33 -193 -221 -193h-242zM415 744h-55l-135 150l41 30l132 -116l175 116l29 -30z" />
    <glyph glyph-name="scaron" unicode="&#x161;" horiz-adv-x="478" 
d="M40 0zM40 0l21 121h255q39 0 45 36l3 18q0 2 0.5 4.5t0.5 4.5q0 27 -33 27h-118q-65 0 -98 22.5t-33 70.5q0 14 3 31l5 28q14 79 58 114.5t121 35.5h242l-21 -122h-247q-36 0 -42 -36l-2 -9q-1 -4 -1 -10q0 -29 33 -29h121q63 0 96 -23t33 -71v-13.5t-2 -14.5l-6 -33
q-27 -152 -175 -152h-259zM374 556h-55l-135 150l41 30l132 -116l175 116l29 -30z" />
    <glyph glyph-name="Tcommaaccent" unicode="&#x162;" horiz-adv-x="435" 
d="M116 0zM155 0l101 575h-140l23 126h404l-23 -126h-142l-101 -575h-122zM118 -234l37 194h113l-68 -194h-82z" />
    <glyph glyph-name="tcommaaccent" unicode="&#x163;" horiz-adv-x="297" 
d="M49 0zM194 0q-129 0 -129 121q0 12 1 25t4 28l90 514h120l-31 -175h107l-18 -102h-107l-42 -241q-1 -5 -1.5 -9.5t-0.5 -9.5q0 -40 39 -40h58l-20 -111h-70zM49 -234l37 194h113l-68 -194h-82z" />
    <glyph glyph-name="Tcaron" unicode="&#x164;" horiz-adv-x="435" 
d="M116 0zM155 0l101 575h-140l23 126h404l-23 -126h-142l-101 -575h-122zM376 744h-55l-135 150l41 30l132 -116l175 116l29 -30z" />
    <glyph glyph-name="tcaron" unicode="&#x165;" horiz-adv-x="407" 
d="M65 0zM194 0q-129 0 -129 121q0 12 1 25t4 28l90 514h120l-31 -175h107l-18 -102h-107l-42 -241q-1 -5 -1.5 -9.5t-0.5 -9.5q0 -40 39 -40h58l-20 -111h-70zM374 458l47 243h110l-77 -243h-80z" />
    <glyph glyph-name="Tbar" unicode="&#x166;" horiz-adv-x="435" 
d="M155 0l49 279h-68l14 80h68l38 216h-140l22 126h404l-22 -126h-142l-38 -216h71l-14 -80h-71l-49 -279h-122z" />
    <glyph glyph-name="tbar" unicode="&#x167;" horiz-adv-x="297" 
d="M197 221l-9 -51q-1 -5 -1.5 -9t-0.5 -9q0 -41 39 -41h58l-19 -111h-70q-130 0 -130 122q0 12 1.5 25t3.5 27l91 514h120l-31 -175h107l-18 -102h-107l-19 -110h102l-15 -80h-102z" />
    <glyph glyph-name="Utilde" unicode="&#x168;" horiz-adv-x="524" 
d="M66 0zM227 0q-161 0 -161 135q0 11 1.5 23t3.5 26l92 517h124l-91 -516q-1 -5 -1.5 -8.5t-0.5 -7.5q0 -43 51 -43h78q60 0 71 59l91 516h124l-92 -517q-33 -184 -220 -184h-70zM611 865q-7 -17 -19 -33t-28.5 -28.5t-36.5 -20t-42 -7.5q-28 0 -46.5 7t-34 15.5
t-31.5 15.5t-40 7q-21 0 -39 -10.5t-30 -36.5l-48 26q14 34 47.5 60.5t79.5 26.5q27 0 46.5 -7t35.5 -15t32.5 -15t37.5 -7q45 0 67 49z" />
    <glyph glyph-name="utilde" unicode="&#x169;" horiz-adv-x="495" 
d="M63 0zM338 0l10 56q-24 -32 -49 -44t-68 -12h-64q-104 0 -104 111q0 13 1 26.5t4 29.5l61 346h117l-59 -339q-1 -5 -1.5 -9.5t-0.5 -8.5q0 -35 34 -35h88q49 0 58 54l59 338h118l-90 -513h-114zM558 677q-7 -17 -19 -33t-28.5 -28.5t-36.5 -20t-42 -7.5q-28 0 -46.5 7
t-34 15.5t-31.5 15.5t-40 7q-21 0 -39 -10.5t-30 -36.5l-48 26q14 34 47.5 60.5t79.5 26.5q27 0 46.5 -7t35.5 -15t32.5 -15t37.5 -7q45 0 67 49z" />
    <glyph glyph-name="Umacron" unicode="&#x16a;" horiz-adv-x="524" 
d="M66 0zM227 0q-161 0 -161 135q0 11 1.5 23t3.5 26l92 517h124l-91 -516q-1 -5 -1.5 -8.5t-0.5 -7.5q0 -43 51 -43h78q60 0 71 59l91 516h124l-92 -517q-33 -184 -220 -184h-70zM233 797l14 77h337l-14 -77h-337z" />
    <glyph glyph-name="umacron" unicode="&#x16b;" horiz-adv-x="495" 
d="M63 0zM338 0l10 56q-24 -32 -49 -44t-68 -12h-64q-104 0 -104 111q0 13 1 26.5t4 29.5l61 346h117l-59 -339q-1 -5 -1.5 -9.5t-0.5 -8.5q0 -35 34 -35h88q49 0 58 54l59 338h118l-90 -513h-114zM186 609l14 77h337l-14 -77h-337z" />
    <glyph glyph-name="Ubreve" unicode="&#x16c;" horiz-adv-x="524" 
d="M66 0zM227 0q-161 0 -161 135q0 11 1.5 23t3.5 26l92 517h124l-91 -516q-1 -5 -1.5 -8.5t-0.5 -7.5q0 -43 51 -43h78q60 0 71 59l91 516h124l-92 -517q-33 -184 -220 -184h-70zM606 883q-11 -24 -30.5 -48.5t-47 -45t-62 -33t-74.5 -12.5t-70.5 12.5t-51 33t-31 45
t-10.5 48.5l52 29q5 -49 38 -77.5t83 -28.5q52 0 94 27.5t68 78.5z" />
    <glyph glyph-name="ubreve" unicode="&#x16d;" horiz-adv-x="495" 
d="M63 0zM338 0l10 56q-24 -32 -49 -44t-68 -12h-64q-104 0 -104 111q0 13 1 26.5t4 29.5l61 346h117l-59 -339q-1 -5 -1.5 -9.5t-0.5 -8.5q0 -35 34 -35h88q49 0 58 54l59 338h118l-90 -513h-114zM569 695q-11 -24 -30.5 -48.5t-47 -45t-62 -33t-74.5 -12.5t-70.5 12.5
t-51 33t-31 45t-10.5 48.5l52 29q5 -49 38 -77.5t83 -28.5q52 0 94 27.5t68 78.5z" />
    <glyph glyph-name="Uring" unicode="&#x16e;" horiz-adv-x="524" 
d="M66 0zM227 0q-161 0 -161 135q0 11 1.5 23t3.5 26l92 517h124l-91 -516q-1 -5 -1.5 -8.5t-0.5 -7.5q0 -43 51 -43h78q60 0 71 59l91 516h124l-92 -517q-33 -184 -220 -184h-70zM493 851q0 25 -17 40t-56 15q-27 0 -45.5 -6.5t-29.5 -18t-15.5 -26.5t-4.5 -32
q0 -26 16 -41t54 -15q56 0 77 24t21 60zM552 860q0 -30 -8.5 -55t-28 -44t-51 -29.5t-77.5 -10.5q-66 0 -93.5 25t-27.5 68q0 30 8.5 55t27.5 44t50 29.5t76 10.5q67 0 95.5 -25t28.5 -68z" />
    <glyph glyph-name="uring" unicode="&#x16f;" horiz-adv-x="495" 
d="M63 0zM338 0l10 56q-24 -32 -49 -44t-68 -12h-64q-104 0 -104 111q0 13 1 26.5t4 29.5l61 346h117l-59 -339q-1 -5 -1.5 -9.5t-0.5 -8.5q0 -35 34 -35h88q49 0 58 54l59 338h118l-90 -513h-114zM450 663q0 25 -17 40t-56 15q-27 0 -45.5 -6.5t-29.5 -18t-15.5 -26.5
t-4.5 -32q0 -26 16 -41t54 -15q56 0 77 24t21 60zM509 672q0 -30 -8.5 -55t-28 -44t-51 -29.5t-77.5 -10.5q-66 0 -93.5 25t-27.5 68q0 30 8.5 55t27.5 44t50 29.5t76 10.5q67 0 95.5 -25t28.5 -68z" />
    <glyph glyph-name="Uhungarumlaut" unicode="&#x170;" horiz-adv-x="524" 
d="M66 0zM227 0q-161 0 -161 135q0 11 1.5 23t3.5 26l92 517h124l-91 -516q-1 -5 -1.5 -8.5t-0.5 -7.5q0 -43 51 -43h78q60 0 71 59l91 516h124l-92 -517q-33 -184 -220 -184h-70zM253 745l106 179h82l-113 -179h-75zM424 745l116 179h84l-125 -179h-75z" />
    <glyph glyph-name="uhungarumlaut" unicode="&#x171;" horiz-adv-x="495" 
d="M63 0zM338 0l10 56q-24 -32 -49 -44t-68 -12h-64q-104 0 -104 111q0 13 1 26.5t4 29.5l61 346h117l-59 -339q-1 -5 -1.5 -9.5t-0.5 -8.5q0 -35 34 -35h88q49 0 58 54l59 338h118l-90 -513h-114zM206 557l106 179h82l-113 -179h-75zM377 557l116 179h84l-125 -179h-75z
" />
    <glyph glyph-name="Uogonek" unicode="&#x172;" horiz-adv-x="524" 
d="M149 -234q-47 0 -71 18.5t-24 53.5q0 40 25 72t82 55l87 35h-21q-161 0 -161 134q0 11 1.5 23.5t3.5 26.5l91 517h124l-91 -516q-1 -5 -1.5 -8.5t-0.5 -7.5q0 -43 52 -43h78q59 0 70 59l91 516h124l-91 -517q-32 -181 -214 -184l-120 -52q-38 -17 -38 -45q0 -13 10.5 -21
t31.5 -8h93l-19 -108h-112z" />
    <glyph glyph-name="uogonek" unicode="&#x173;" horiz-adv-x="495" 
d="M298 -234q-47 0 -71 18.5t-24 53.5q0 40 25 72t82 55l87 35h-59l9 56q-23 -32 -48 -44t-68 -12h-64q-105 0 -105 110q0 25 6 57l61 346h117l-60 -339q-1 -5 -1.5 -9t-0.5 -8q0 -36 35 -36h88q26 0 39 13.5t18 40.5l60 338h118l-90 -513l-120 -52q-38 -17 -38 -45
q0 -13 10.5 -21t31.5 -8h93l-19 -108h-112z" />
    <glyph glyph-name="Wcircumflex" unicode="&#x174;" horiz-adv-x="789" 
d="M133 0zM492 0l-21 440l-175 -440h-136l-27 701h133v-506l202 506h111l21 -506l186 506h117l-270 -701h-141zM679 744l-134 114l-173 -114l-30 29l188 151h55l134 -151z" />
    <glyph glyph-name="wcircumflex" unicode="&#x175;" horiz-adv-x="696" 
d="M99 0zM429 0l-26 335l-144 -335h-112l-48 513h123l16 -344l147 344h109l29 -344l136 344h117l-227 -513h-120zM599 556l-134 114l-173 -114l-30 29l188 151h55l134 -151z" />
    <glyph glyph-name="Ycircumflex" unicode="&#x176;" horiz-adv-x="494" 
d="M129 0zM183 0l55 313l-109 388h134l67 -255l160 255h123l-252 -388l-55 -313h-123zM537 744l-134 114l-173 -114l-30 29l188 151h55l134 -151z" />
    <glyph glyph-name="ycircumflex" unicode="&#x177;" 
d="M73 0zM106 -159l20 112h139q46 0 57 58l8 44h-118q-139 0 -139 119q0 20 5 48l51 291h119l-52 -296q-2 -10 -2 -15q0 -37 41 -37h114l61 348h119l-87 -497q-31 -175 -186 -175h-150zM491 556l-134 114l-173 -114l-30 29l188 151h55l134 -151z" />
    <glyph glyph-name="Ydieresis" unicode="&#x178;" horiz-adv-x="494" 
d="M129 0zM183 0l55 313l-109 388h134l67 -255l160 255h123l-252 -388l-55 -313h-123zM445 774l21 119h102l-21 -119h-102zM227 774l21 119h103l-21 -119h-103z" />
    <glyph glyph-name="Zacute" unicode="&#x179;" horiz-adv-x="446" 
d="M29 0zM29 0l17 99l318 476h-234l23 126h387l-13 -70l-330 -505h241l-22 -126h-387zM283 744l-23 39l243 141l32 -60z" />
    <glyph glyph-name="zacute" unicode="&#x17a;" horiz-adv-x="431" 
d="M29 0zM29 0l14 81l261 314h-205l20 118h373l-12 -73l-259 -323h202l-21 -117h-373zM243 556l-23 39l243 141l32 -60z" />
    <glyph glyph-name="Zdotaccent" unicode="&#x17b;" horiz-adv-x="446" 
d="M29 0zM29 0l17 99l318 476h-234l23 126h387l-13 -70l-330 -505h241l-22 -126h-387zM307 774l21 119h103l-21 -119h-103z" />
    <glyph glyph-name="zdotaccent" unicode="&#x17c;" horiz-adv-x="431" 
d="M29 0zM29 0l14 81l261 314h-205l20 118h373l-12 -73l-259 -323h202l-21 -117h-373zM267 586l21 119h103l-21 -119h-103z" />
    <glyph glyph-name="Zcaron" unicode="&#x17d;" horiz-adv-x="446" 
d="M29 0zM29 0l17 99l318 476h-234l23 126h387l-13 -70l-330 -505h241l-22 -126h-387zM382 744h-55l-135 150l41 30l132 -116l175 116l29 -30z" />
    <glyph glyph-name="zcaron" unicode="&#x17e;" horiz-adv-x="431" 
d="M29 0zM29 0l14 81l261 314h-205l20 118h373l-12 -73l-259 -323h202l-21 -117h-373zM342 556h-55l-135 150l41 30l132 -116l175 116l29 -30z" />
    <glyph glyph-name="florin" unicode="&#x192;" horiz-adv-x="639" 
d="M31 -55q15 -9 30 -12.5t34 -3.5q43 0 75.5 22.5t52.5 76.5l110 313h-70l14 77h83l31 85q22 59 47.5 97.5t56.5 61t68 31.5t82 9q27 0 43.5 -2.5t30.5 -7.5l-17 -95q-16 9 -31 12.5t-35 3.5q-43 0 -75.5 -22t-52.5 -78l-31 -95h86l-14 -77h-100l-105 -303
q-21 -59 -47 -97.5t-57.5 -61t-69.5 -31t-82 -8.5q-27 0 -44 2.5t-29 7.5z" />
    <glyph glyph-name="Ohorn" unicode="&#x1a0;" horiz-adv-x="657" 
d="M209 0q-75 0 -110.5 34t-35.5 94q0 11 1.5 22.5t3.5 23.5l62 352q14 81 64 128t139 47h112q51 0 83 -17.5t46 -46.5q15 -30 29 -37t23 -7q19 0 31.5 10.5t17.5 39.5l17 93h102l-20 -112q-20 -107 -112 -107q-18 0 -37.5 5.5t-36.5 26.5l-3 -23l-62 -352
q-14 -80 -63.5 -127t-138.5 -47h-112zM462 526q1 3 1 6.5v5.5q0 37 -41 37h-112q-47 0 -56 -49l-62 -351q-2 -10 -2 -14q0 -35 41 -35h112q48 0 57 49z" />
    <glyph glyph-name="ohorn" unicode="&#x1a1;" horiz-adv-x="586" 
d="M196 0q-134 0 -134 119q0 11 1 22.5t3 24.5l32 181q30 166 188 166h102q39 0 65.5 -10.5t40.5 -27.5q10 -14 19 -18t17 -4q18 0 32 10t19 40l16 93h103l-20 -112q-10 -53 -38.5 -80.5t-73.5 -27.5q-12 0 -24 2t-23 10q0 -21 -4 -41l-32 -181q-30 -166 -187 -166h-102z
M397 343q1 5 1 8.5v7.5q0 32 -36 32h-94q-43 0 -52 -48l-30 -174q-1 -5 -1.5 -8.5t-0.5 -6.5q0 -33 36 -33h94q44 0 53 48z" />
    <glyph glyph-name="Uhorn" unicode="&#x1af;" horiz-adv-x="656" 
d="M227 0q-161 0 -161 135q0 11 1.5 23t3.5 26l92 517h124l-91 -516q-1 -5 -1.5 -8.5t-0.5 -7.5q0 -43 51 -43h78q60 0 71 59l91 516h124l-13 -74q12 -23 24 -28.5t20 -5.5q16 0 28 12t17 38l17 93h103l-20 -112q-20 -107 -112 -107q-22 0 -45 8.5t-43 42.5l-68 -384
q-33 -184 -220 -184h-70z" />
    <glyph glyph-name="uhorn" unicode="&#x1b0;" horiz-adv-x="619" 
d="M338 0l10 56q-24 -32 -49 -44t-68 -12h-64q-104 0 -104 111q0 13 1 26.5t4 29.5l61 346h117l-59 -339q-1 -5 -1.5 -9.5t-0.5 -8.5q0 -35 34 -35h88q49 0 58 54l59 338h118l-6 -35q10 -17 21 -21t20 -4q16 0 28 12t17 38l16 93h103l-20 -112q-10 -53 -38.5 -80.5
t-73.5 -27.5q-21 0 -42 8t-41 37l-74 -421h-114z" />
    <glyph glyph-name="Scommaaccent" unicode="&#x218;" horiz-adv-x="494" 
d="M34 0zM34 0l22 126h242q64 0 76 67l7 41q1 5 1.5 9.5t0.5 8.5q0 44 -53 44h-77q-147 0 -147 124q0 11 1.5 23t3.5 26l7 39q17 97 71 145t148 48h225l-23 -126h-225q-61 0 -73 -67l-7 -39q-1 -5 -1.5 -9.5t-0.5 -9.5q0 -43 53 -43h77q147 0 147 -124q0 -11 -1.5 -23
t-3.5 -26l-7 -41q-33 -193 -221 -193h-242zM148 -234l37 194h113l-68 -194h-82z" />
    <glyph glyph-name="scommaaccent" unicode="&#x219;" horiz-adv-x="478" 
d="M40 0zM40 0l21 121h255q39 0 45 36l3 18q0 2 0.5 4.5t0.5 4.5q0 27 -33 27h-118q-65 0 -98 22.5t-33 70.5q0 14 3 31l5 28q14 79 58 114.5t121 35.5h242l-21 -122h-247q-36 0 -42 -36l-2 -9q-1 -4 -1 -10q0 -29 33 -29h121q63 0 96 -23t33 -71v-13.5t-2 -14.5l-6 -33
q-27 -152 -175 -152h-259zM140 -234l37 194h113l-68 -194h-82z" />
    <glyph glyph-name="uni021A" unicode="&#x21a;" horiz-adv-x="435" 
d="M116 0zM155 0l101 575h-140l23 126h404l-23 -126h-142l-101 -575h-122zM118 -234l37 194h113l-68 -194h-82z" />
    <glyph glyph-name="uni021B" unicode="&#x21b;" horiz-adv-x="297" 
d="M49 0zM194 0q-129 0 -129 121q0 12 1 25t4 28l90 514h120l-31 -175h107l-18 -102h-107l-42 -241q-1 -5 -1.5 -9.5t-0.5 -9.5q0 -40 39 -40h58l-20 -111h-70zM49 -234l37 194h113l-68 -194h-82z" />
    <glyph glyph-name="circumflex" unicode="&#x2c6;" horiz-adv-x="460" 
d="M481 556l-134 114l-173 -114l-30 29l188 151h55l134 -151z" />
    <glyph glyph-name="caron" unicode="&#x2c7;" horiz-adv-x="456" 
d="M353 556h-55l-135 150l41 30l132 -116l175 116l29 -30z" />
    <glyph glyph-name="uni02C9" unicode="&#x2c9;" horiz-adv-x="420" 
d="M148 609zM148 609l14 77h337l-14 -77h-337z" />
    <glyph glyph-name="breve" unicode="&#x2d8;" horiz-adv-x="460" 
d="M541 695q-11 -24 -30.5 -48.5t-47 -45t-62 -33t-74.5 -12.5t-70.5 12.5t-51 33t-31 45t-10.5 48.5l52 29q5 -49 38 -77.5t83 -28.5q52 0 94 27.5t68 78.5z" />
    <glyph glyph-name="dotaccent" unicode="&#x2d9;" horiz-adv-x="198" 
d="M151 586l21 119h103l-21 -119h-103z" />
    <glyph glyph-name="ring" unicode="&#x2da;" horiz-adv-x="364" 
d="M380 663q0 25 -17 40t-56 15q-27 0 -45.5 -6.5t-29.5 -18t-15.5 -26.5t-4.5 -32q0 -26 16 -41t54 -15q56 0 77 24t21 60zM439 672q0 -30 -8.5 -55t-28 -44t-51 -29.5t-77.5 -10.5q-66 0 -93.5 25t-27.5 68q0 30 8.5 55t27.5 44t50 29.5t76 10.5q67 0 95.5 -25t28.5 -68z
" />
    <glyph glyph-name="ogonek" unicode="&#x2db;" horiz-adv-x="300" 
d="M108 -234q-48 0 -72 20t-24 57q0 39 25.5 69t82.5 53l86 35h55l-119 -52q-38 -17 -38 -43q0 -13 10 -22t32 -9h93l-19 -108h-112z" />
    <glyph glyph-name="tilde" unicode="&#x2dc;" horiz-adv-x="466" 
d="M544 677q-7 -17 -19 -33t-28.5 -28.5t-36.5 -20t-42 -7.5q-28 0 -46.5 7t-34 15.5t-31.5 15.5t-40 7q-21 0 -39 -10.5t-30 -36.5l-48 26q14 34 47.5 60.5t79.5 26.5q27 0 46.5 -7t35.5 -15t32.5 -15t37.5 -7q45 0 67 49z" />
    <glyph glyph-name="hungarumlaut" unicode="&#x2dd;" horiz-adv-x="417" 
d="M137 557l106 179h82l-113 -179h-75zM308 557l116 179h84l-125 -179h-75z" />
    <glyph glyph-name="tildecomb" unicode="&#x303;" horiz-adv-x="399" 
d="M420 525l-114 84l-143 -84l-25 23l153 112h47l115 -112zM490 737q-6 -13 -16 -25.5t-23.5 -22t-30 -15.5t-34.5 -6q-24 0 -39.5 5.5t-28.5 12.5t-26.5 12.5t-33.5 5.5q-13 0 -29.5 -7.5t-28.5 -30.5l-40 20q11 26 39 47t68 21q22 0 37.5 -5.5t29.5 -12.5t28 -12.5
t33 -5.5q15 0 29 9.5t23 29.5z" />
    <glyph glyph-name="hookabovecomb" unicode="&#x309;" horiz-adv-x="314" 
d="M174 519q6 38 25 58.5t54 20.5q20 0 32.5 12t12.5 35q0 30 -37 30h-103l16 90h135q85 0 85 -78q0 -58 -31 -90t-82 -32q-21 0 -31 -10.5t-14 -35.5h-62z" />
    <glyph glyph-name="dotbelowcomb" unicode="&#x323;" horiz-adv-x="194" 
d="M13 -193l21 119h103l-21 -119h-103z" />
    <glyph glyph-name="uni037E" unicode="&#x37e;" horiz-adv-x="232" 
d="M40 0zM40 -93l47 243h122l-75 -243h-94zM120 333l26 150h118l-26 -150h-118z" />
    <glyph glyph-name="Delta" unicode="&#x394;" horiz-adv-x="503" 
d="M9 0l292 701h144l49 -701h-485zM335 505l-164 -401h186z" />
    <glyph glyph-name="Omega" unicode="&#x3a9;" horiz-adv-x="699" 
d="M430 0l21 120q54 41 87.5 116t33.5 178q0 78 -31.5 114t-91.5 36q-107 0 -154.5 -77t-47.5 -219q0 -108 42 -148l-21 -120h-226l18 100h108q-22 20 -40 68t-18 126q0 85 21 159.5t65.5 130t113.5 87t164 31.5q64 0 110.5 -18t77 -51t45 -79.5t14.5 -103.5
q0 -73 -15.5 -130.5t-39 -101t-50.5 -73t-50 -45.5h108l-18 -100h-226z" />
    <glyph glyph-name="pi" unicode="&#x3c0;" horiz-adv-x="617" 
d="M381 0l69 392h-150l-69 -392h-121l69 392h-84l21 121h563l-21 -121h-87l-69 -392h-121z" />
    <glyph glyph-name="Wgrave" unicode="&#x1e80;" horiz-adv-x="789" 
d="M133 0zM492 0l-21 440l-175 -440h-136l-27 701h133v-506l202 506h111l21 -506l186 506h117l-270 -701h-141zM386 864l54 60l193 -141l-37 -39z" />
    <glyph glyph-name="wgrave" unicode="&#x1e81;" horiz-adv-x="696" 
d="M99 0zM429 0l-26 335l-144 -335h-112l-48 513h123l16 -344l147 344h109l29 -344l136 344h117l-227 -513h-120zM306 676l54 60l193 -141l-37 -39z" />
    <glyph glyph-name="Wacute" unicode="&#x1e82;" horiz-adv-x="789" 
d="M133 0zM492 0l-21 440l-175 -440h-136l-27 701h133v-506l202 506h111l21 -506l186 506h117l-270 -701h-141zM455 744l-23 39l243 141l32 -60z" />
    <glyph glyph-name="wacute" unicode="&#x1e83;" horiz-adv-x="696" 
d="M99 0zM429 0l-26 335l-144 -335h-112l-48 513h123l16 -344l147 344h109l29 -344l136 344h117l-227 -513h-120zM375 556l-23 39l243 141l32 -60z" />
    <glyph glyph-name="Wdieresis" unicode="&#x1e84;" horiz-adv-x="789" 
d="M133 0zM492 0l-21 440l-175 -440h-136l-27 701h133v-506l202 506h111l21 -506l186 506h117l-270 -701h-141zM588 774l21 119h102l-21 -119h-102zM370 774l21 119h103l-21 -119h-103z" />
    <glyph glyph-name="wdieresis" unicode="&#x1e85;" horiz-adv-x="696" 
d="M99 0zM429 0l-26 335l-144 -335h-112l-48 513h123l16 -344l147 344h109l29 -344l136 344h117l-227 -513h-120zM509 586l21 119h102l-21 -119h-102zM291 586l21 119h103l-21 -119h-103z" />
    <glyph glyph-name="uni1EA0" unicode="&#x1ea0;" horiz-adv-x="503" 
d="M9 0zM362 0l-6 123h-177l-48 -123h-122l292 701h144l49 -701h-132zM339 525l-120 -299h133zM166 -193l21 119h103l-21 -119h-103z" />
    <glyph glyph-name="uni1EA1" unicode="&#x1ea1;" 
d="M53 0zM162 0q-109 0 -109 97q0 22 4 42l8 50q19 120 152 120h163l6 29q1 5 1 8.5v7.5q0 37 -40 37h-215l21 122h215q137 0 137 -122q0 -11 -1.5 -23t-3.5 -26l-60 -342h-278zM364 217h-147q-37 0 -43 -39l-5 -30q-1 -4 -1 -10q0 -25 31 -25h147zM154 -193l21 119h103
l-21 -119h-103z" />
    <glyph glyph-name="uni1EA2" unicode="&#x1ea2;" horiz-adv-x="503" 
d="M9 0zM362 0l-6 123h-177l-48 -123h-122l292 701h144l49 -701h-132zM339 525l-120 -299h133zM322 707q6 38 25 58.5t54 20.5q20 0 32.5 12t12.5 35q0 30 -37 30h-103l16 90h135q85 0 85 -78q0 -58 -31 -90t-82 -32q-21 0 -31 -10.5t-14 -35.5h-62z" />
    <glyph glyph-name="uni1EA3" unicode="&#x1ea3;" 
d="M53 0zM162 0q-109 0 -109 97q0 22 4 42l8 50q19 120 152 120h163l6 29q1 5 1 8.5v7.5q0 37 -40 37h-215l21 122h215q137 0 137 -122q0 -11 -1.5 -23t-3.5 -26l-60 -342h-278zM364 217h-147q-37 0 -43 -39l-5 -30q-1 -4 -1 -10q0 -25 31 -25h147zM277 519q6 38 25 58.5
t54 20.5q20 0 32.5 12t12.5 35q0 30 -37 30h-103l16 90h135q85 0 85 -78q0 -58 -31 -90t-82 -32q-21 0 -31 -10.5t-14 -35.5h-62z" />
    <glyph glyph-name="uni1EA4" unicode="&#x1ea4;" horiz-adv-x="503" 
d="M9 0zM362 0l-6 123h-177l-48 -123h-122l292 701h144l49 -701h-132zM339 525l-120 -299h133zM558 768l-19 30l170 101l26 -47zM491 768l-94 83l-121 -83l-22 23l132 108h41l95 -108z" />
    <glyph glyph-name="uni1EA5" unicode="&#x1ea5;" 
d="M53 0zM162 0q-109 0 -109 97q0 22 4 42l8 50q19 120 152 120h163l6 29q1 5 1 8.5v7.5q0 37 -40 37h-215l21 122h215q137 0 137 -122q0 -11 -1.5 -23t-3.5 -26l-60 -342h-278zM364 217h-147q-37 0 -43 -39l-5 -30q-1 -4 -1 -10q0 -25 31 -25h147zM529 580l-19 30l170 101
l26 -47zM462 580l-94 83l-121 -83l-22 23l132 108h41l95 -108z" />
    <glyph glyph-name="uni1EA6" unicode="&#x1ea6;" horiz-adv-x="503" 
d="M9 0zM362 0l-6 123h-177l-48 -123h-122l292 701h144l49 -701h-132zM339 525l-120 -299h133zM63 852l41 47l136 -101l-30 -30zM492 768l-92 83l-125 -83l-21 23l133 108h41l94 -108z" />
    <glyph glyph-name="uni1EA7" unicode="&#x1ea7;" 
d="M30 0zM162 0q-109 0 -109 97q0 22 4 42l8 50q19 120 152 120h163l6 29q1 5 1 8.5v7.5q0 37 -40 37h-215l21 122h215q137 0 137 -122q0 -11 -1.5 -23t-3.5 -26l-60 -342h-278zM364 217h-147q-37 0 -43 -39l-5 -30q-1 -4 -1 -10q0 -25 31 -25h147zM30 664l41 47l136 -101
l-30 -30zM459 580l-92 83l-125 -83l-21 23l133 108h41l94 -108z" />
    <glyph glyph-name="uni1EA8" unicode="&#x1ea8;" horiz-adv-x="503" 
d="M9 0zM362 0l-6 123h-177l-48 -123h-122l292 701h144l49 -701h-132zM339 525l-120 -299h133zM554 762q11 56 54 56q15 0 24 8.5t9 22.5q0 21 -26 21h-73l12 64h96q58 0 58 -55q0 -40 -21 -62.5t-58 -22.5q-25 0 -31 -32h-44zM487 768l-94 83l-121 -83l-22 23l132 108h41
l95 -108z" />
    <glyph glyph-name="uni1EA9" unicode="&#x1ea9;" 
d="M53 0zM162 0q-109 0 -109 97q0 22 4 42l8 50q19 120 152 120h163l6 29q1 5 1 8.5v7.5q0 37 -40 37h-215l21 122h215q137 0 137 -122q0 -11 -1.5 -23t-3.5 -26l-60 -342h-278zM364 217h-147q-37 0 -43 -39l-5 -30q-1 -4 -1 -10q0 -25 31 -25h147zM529 574q11 56 54 56
q15 0 24 8.5t9 22.5q0 21 -26 21h-73l12 64h96q58 0 58 -55q0 -40 -21 -62.5t-58 -22.5q-25 0 -31 -32h-44zM462 580l-94 83l-121 -83l-22 23l132 108h41l95 -108z" />
    <glyph glyph-name="uni1EAA" unicode="&#x1eaa;" horiz-adv-x="503" 
d="M9 0zM362 0l-6 123h-177l-48 -123h-122l292 701h144l49 -701h-132zM339 525l-120 -299h133zM505 713l-114 84l-143 -84l-25 23l153 112h47l115 -112zM575 925q-6 -13 -16 -25.5t-23.5 -22t-30 -15.5t-34.5 -6q-24 0 -39.5 5.5t-28.5 12.5t-26.5 12.5t-33.5 5.5
q-13 0 -29.5 -7.5t-28.5 -30.5l-40 20q11 26 39 47t68 21q22 0 37.5 -5.5t29.5 -12.5t28 -12.5t33 -5.5q15 0 29 9.5t23 29.5z" />
    <glyph glyph-name="uni1EAB" unicode="&#x1eab;" 
d="M53 0zM162 0q-109 0 -109 97q0 22 4 42l8 50q19 120 152 120h163l6 29q1 5 1 8.5v7.5q0 37 -40 37h-215l21 122h215q137 0 137 -122q0 -11 -1.5 -23t-3.5 -26l-60 -342h-278zM364 217h-147q-37 0 -43 -39l-5 -30q-1 -4 -1 -10q0 -25 31 -25h147zM470 525l-114 84
l-143 -84l-25 23l153 112h47l115 -112zM540 737q-6 -13 -16 -25.5t-23.5 -22t-30 -15.5t-34.5 -6q-24 0 -39.5 5.5t-28.5 12.5t-26.5 12.5t-33.5 5.5q-13 0 -29.5 -7.5t-28.5 -30.5l-40 20q11 26 39 47t68 21q22 0 37.5 -5.5t29.5 -12.5t28 -12.5t33 -5.5q15 0 29 9.5
t23 29.5z" />
    <glyph glyph-name="uni1EAC" unicode="&#x1eac;" horiz-adv-x="503" 
d="M9 0zM362 0l-6 123h-177l-48 -123h-122l292 701h144l49 -701h-132zM339 525l-120 -299h133zM536 744l-134 114l-173 -114l-30 29l188 151h55l134 -151zM161 -193l21 119h103l-21 -119h-103z" />
    <glyph glyph-name="uni1EAD" unicode="&#x1ead;" 
d="M53 0zM162 0q-109 0 -109 97q0 22 4 42l8 50q19 120 152 120h163l6 29q1 5 1 8.5v7.5q0 37 -40 37h-215l21 122h215q137 0 137 -122q0 -11 -1.5 -23t-3.5 -26l-60 -342h-278zM364 217h-147q-37 0 -43 -39l-5 -30q-1 -4 -1 -10q0 -25 31 -25h147zM501 556l-134 114
l-173 -114l-30 29l188 151h55l134 -151zM154 -193l21 119h103l-21 -119h-103z" />
    <glyph glyph-name="uni1EAE" unicode="&#x1eae;" horiz-adv-x="503" 
d="M9 0zM362 0l-6 123h-177l-48 -123h-122l292 701h144l49 -701h-132zM339 525l-120 -299h133zM341 835l-15 26l143 92l21 -43zM545 837q-9 -21 -24.5 -43t-37.5 -39.5t-48.5 -29t-57.5 -11.5t-54.5 11.5t-39 29t-23.5 39.5t-8 43l42 26q2 -45 27 -69.5t64 -24.5
q40 0 72 24.5t55 69.5z" />
    <glyph glyph-name="uni1EAF" unicode="&#x1eaf;" 
d="M53 0zM162 0q-109 0 -109 97q0 22 4 42l8 50q19 120 152 120h163l6 29q1 5 1 8.5v7.5q0 37 -40 37h-215l21 122h215q137 0 137 -122q0 -11 -1.5 -23t-3.5 -26l-60 -342h-278zM364 217h-147q-37 0 -43 -39l-5 -30q-1 -4 -1 -10q0 -25 31 -25h147zM306 647l-15 26l143 92
l21 -43zM510 649q-9 -21 -24.5 -43t-37.5 -39.5t-48.5 -29t-57.5 -11.5t-54.5 11.5t-39 29t-23.5 39.5t-8 43l42 26q2 -45 27 -69.5t64 -24.5q40 0 72 24.5t55 69.5z" />
    <glyph glyph-name="uni1EB0" unicode="&#x1eb0;" horiz-adv-x="503" 
d="M9 0zM362 0l-6 123h-177l-48 -123h-122l292 701h144l49 -701h-132zM339 525l-120 -299h133zM545 837q-6 -21 -21.5 -43t-38 -39.5t-50 -29t-57.5 -11.5q-31 0 -54 11.5t-38.5 29t-24 39.5t-9.5 43l42 26q6 -45 29.5 -69.5t64.5 -24.5q18 0 36 6.5t34.5 18.5t31 29.5
t23.5 39.5zM334 910l36 43l112 -92l-25 -26z" />
    <glyph glyph-name="uni1EB1" unicode="&#x1eb1;" 
d="M53 0zM162 0q-109 0 -109 97q0 22 4 42l8 50q19 120 152 120h163l6 29q1 5 1 8.5v7.5q0 37 -40 37h-215l21 122h215q137 0 137 -122q0 -11 -1.5 -23t-3.5 -26l-60 -342h-278zM364 217h-147q-37 0 -43 -39l-5 -30q-1 -4 -1 -10q0 -25 31 -25h147zM510 649
q-6 -21 -21.5 -43t-38 -39.5t-50 -29t-57.5 -11.5q-31 0 -54 11.5t-38.5 29t-24 39.5t-9.5 43l42 26q6 -45 29.5 -69.5t64.5 -24.5q18 0 36 6.5t34.5 18.5t31 29.5t23.5 39.5zM299 722l36 43l112 -92l-25 -26z" />
    <glyph glyph-name="uni1EB2" unicode="&#x1eb2;" horiz-adv-x="503" 
d="M9 0zM362 0l-6 123h-177l-48 -123h-122l292 701h144l49 -701h-132zM339 525l-120 -299h133zM544 837q-7 -21 -22.5 -43t-37.5 -39.5t-49.5 -29t-58.5 -11.5t-53.5 11.5t-38 29t-23.5 39.5t-9 43l41 25q6 -45 29.5 -69t64.5 -24q35 0 70 25t54 68zM359 812q4 25 16.5 34
t25.5 12t23 7t10 20q0 18 -22 18h-65l8 50h84q53 0 53 -43q0 -36 -13.5 -48.5t-31 -17.5l-32.5 -9.5t-18 -22.5h-38z" />
    <glyph glyph-name="uni1EB3" unicode="&#x1eb3;" 
d="M53 0zM162 0q-109 0 -109 97q0 22 4 42l8 50q19 120 152 120h163l6 29q1 5 1 8.5v7.5q0 37 -40 37h-215l21 122h215q137 0 137 -122q0 -11 -1.5 -23t-3.5 -26l-60 -342h-278zM364 217h-147q-37 0 -43 -39l-5 -30q-1 -4 -1 -10q0 -25 31 -25h147zM510 649
q-7 -21 -22.5 -43t-37.5 -39.5t-49.5 -29t-58.5 -11.5t-53.5 11.5t-38 29t-23.5 39.5t-9 43l41 25q6 -45 29.5 -69t64.5 -24q35 0 70 25t54 68zM325 624q4 25 16.5 34t25.5 12t23 7t10 20q0 18 -22 18h-65l8 50h84q53 0 53 -43q0 -36 -13.5 -48.5t-31 -17.5l-32.5 -9.5
t-18 -22.5h-38z" />
    <glyph glyph-name="uni1EB4" unicode="&#x1eb4;" horiz-adv-x="503" 
d="M9 0zM362 0l-6 123h-177l-48 -123h-122l292 701h144l49 -701h-132zM339 525l-120 -299h133zM545 837q-9 -21 -24.5 -43t-37.5 -39.5t-48.5 -29t-57.5 -11.5t-54.5 11.5t-39 29t-23.5 39.5t-8 43l42 26q2 -45 27 -69.5t64 -24.5q40 0 72 24.5t55 69.5zM530 934
q-9 -23 -28.5 -40t-46.5 -17q-17 0 -27 4.5t-18.5 10.5t-17.5 10.5t-23 4.5q-12 0 -22.5 -6.5t-18.5 -24.5l-28 16q10 22 30 39t46 17q16 0 26.5 -5t19.5 -11t17.5 -11t22.5 -5q26 0 41 34z" />
    <glyph glyph-name="uni1EB5" unicode="&#x1eb5;" 
d="M53 0zM162 0q-109 0 -109 97q0 22 4 42l8 50q19 120 152 120h163l6 29q1 5 1 8.5v7.5q0 37 -40 37h-215l21 122h215q137 0 137 -122q0 -11 -1.5 -23t-3.5 -26l-60 -342h-278zM364 217h-147q-37 0 -43 -39l-5 -30q-1 -4 -1 -10q0 -25 31 -25h147zM510 649
q-9 -21 -24.5 -43t-37.5 -39.5t-48.5 -29t-57.5 -11.5t-54.5 11.5t-39 29t-23.5 39.5t-8 43l42 26q2 -45 27 -69.5t64 -24.5q40 0 72 24.5t55 69.5zM495 746q-9 -23 -28.5 -40t-46.5 -17q-17 0 -27 4.5t-18.5 10.5t-17.5 10.5t-23 4.5q-12 0 -22.5 -6.5t-18.5 -24.5l-28 16
q10 22 30 39t46 17q16 0 26.5 -5t19.5 -11t17.5 -11t22.5 -5q26 0 41 34z" />
    <glyph glyph-name="uni1EB6" unicode="&#x1eb6;" horiz-adv-x="503" 
d="M9 0zM362 0l-6 123h-177l-48 -123h-122l292 701h144l49 -701h-132zM339 525l-120 -299h133zM596 883q-11 -24 -30.5 -48.5t-47 -45t-62 -33t-74.5 -12.5t-70.5 12.5t-51 33t-31 45t-10.5 48.5l52 29q5 -49 38 -77.5t83 -28.5q52 0 94 27.5t68 78.5zM162 -193l21 119h103
l-21 -119h-103z" />
    <glyph glyph-name="uni1EB7" unicode="&#x1eb7;" 
d="M53 0zM162 0q-109 0 -109 97q0 22 4 42l8 50q19 120 152 120h163l6 29q1 5 1 8.5v7.5q0 37 -40 37h-215l21 122h215q137 0 137 -122q0 -11 -1.5 -23t-3.5 -26l-60 -342h-278zM364 217h-147q-37 0 -43 -39l-5 -30q-1 -4 -1 -10q0 -25 31 -25h147zM561 695
q-11 -24 -30.5 -48.5t-47 -45t-62 -33t-74.5 -12.5t-70.5 12.5t-51 33t-31 45t-10.5 48.5l52 29q5 -49 38 -77.5t83 -28.5q52 0 94 27.5t68 78.5zM154 -193l21 119h103l-21 -119h-103z" />
    <glyph glyph-name="uni1EB8" unicode="&#x1eb8;" horiz-adv-x="479" 
d="M42 0zM42 0l124 701h404l-23 -126h-280l-29 -166h150l-19 -107h-150l-31 -176h280l-22 -126h-404zM166 -193l21 119h103l-21 -119h-103z" />
    <glyph glyph-name="uni1EB9" unicode="&#x1eb9;" horiz-adv-x="481" 
d="M62 0zM200 0q-138 0 -138 122q0 11 1.5 23t3.5 26l30 171q30 171 193 171h80q138 0 138 -122q0 -11 -1.5 -23t-3.5 -26l-23 -132h-290l-6 -36q-1 -5 -1.5 -9t-0.5 -8q0 -36 39 -36h229l-21 -121h-229zM391 345q1 5 1 8.5v7.5q0 38 -40 38h-82q-25 0 -38 -13.5t-18 -40.5
l-8 -42h177zM155 -193l21 119h103l-21 -119h-103z" />
    <glyph glyph-name="uni1EBA" unicode="&#x1eba;" horiz-adv-x="479" 
d="M42 0zM42 0l124 701h404l-23 -126h-280l-29 -166h150l-19 -107h-150l-31 -176h280l-22 -126h-404zM307 707q6 38 25 58.5t54 20.5q20 0 32.5 12t12.5 35q0 30 -37 30h-103l16 90h135q85 0 85 -78q0 -58 -31 -90t-82 -32q-21 0 -31 -10.5t-14 -35.5h-62z" />
    <glyph glyph-name="uni1EBB" unicode="&#x1ebb;" horiz-adv-x="481" 
d="M62 0zM200 0q-138 0 -138 122q0 11 1.5 23t3.5 26l30 171q30 171 193 171h80q138 0 138 -122q0 -11 -1.5 -23t-3.5 -26l-23 -132h-290l-6 -36q-1 -5 -1.5 -9t-0.5 -8q0 -36 39 -36h229l-21 -121h-229zM391 345q1 5 1 8.5v7.5q0 38 -40 38h-82q-25 0 -38 -13.5t-18 -40.5
l-8 -42h177zM274 519q6 38 25 58.5t54 20.5q20 0 32.5 12t12.5 35q0 30 -37 30h-103l16 90h135q85 0 85 -78q0 -58 -31 -90t-82 -32q-21 0 -31 -10.5t-14 -35.5h-62z" />
    <glyph glyph-name="uni1EBC" unicode="&#x1ebc;" horiz-adv-x="479" 
d="M42 0zM42 0l124 701h404l-23 -126h-280l-29 -166h150l-19 -107h-150l-31 -176h280l-22 -126h-404zM597 865q-7 -17 -19 -33t-28.5 -28.5t-36.5 -20t-42 -7.5q-28 0 -46.5 7t-34 15.5t-31.5 15.5t-40 7q-21 0 -39 -10.5t-30 -36.5l-48 26q14 34 47.5 60.5t79.5 26.5
q27 0 46.5 -7t35.5 -15t32.5 -15t37.5 -7q45 0 67 49z" />
    <glyph glyph-name="uni1EBD" unicode="&#x1ebd;" horiz-adv-x="481" 
d="M62 0zM200 0q-138 0 -138 122q0 11 1.5 23t3.5 26l30 171q30 171 193 171h80q138 0 138 -122q0 -11 -1.5 -23t-3.5 -26l-23 -132h-290l-6 -36q-1 -5 -1.5 -9t-0.5 -8q0 -36 39 -36h229l-21 -121h-229zM391 345q1 5 1 8.5v7.5q0 38 -40 38h-82q-25 0 -38 -13.5t-18 -40.5
l-8 -42h177zM551 677q-7 -17 -19 -33t-28.5 -28.5t-36.5 -20t-42 -7.5q-28 0 -46.5 7t-34 15.5t-31.5 15.5t-40 7q-21 0 -39 -10.5t-30 -36.5l-48 26q14 34 47.5 60.5t79.5 26.5q27 0 46.5 -7t35.5 -15t32.5 -15t37.5 -7q45 0 67 49z" />
    <glyph glyph-name="uni1EBE" unicode="&#x1ebe;" horiz-adv-x="479" 
d="M42 0zM42 0l124 701h404l-23 -126h-280l-29 -166h150l-19 -107h-150l-31 -176h280l-22 -126h-404zM559 768l-19 30l170 101l26 -47zM492 768l-94 83l-121 -83l-22 23l132 108h41l95 -108z" />
    <glyph glyph-name="uni1EBF" unicode="&#x1ebf;" horiz-adv-x="481" 
d="M62 0zM200 0q-138 0 -138 122q0 11 1.5 23t3.5 26l30 171q30 171 193 171h80q138 0 138 -122q0 -11 -1.5 -23t-3.5 -26l-23 -132h-290l-6 -36q-1 -5 -1.5 -9t-0.5 -8q0 -36 39 -36h229l-21 -121h-229zM391 345q1 5 1 8.5v7.5q0 38 -40 38h-82q-25 0 -38 -13.5t-18 -40.5
l-8 -42h177zM521 580l-19 30l170 101l26 -47zM454 580l-94 83l-121 -83l-22 23l132 108h41l95 -108z" />
    <glyph glyph-name="uni1EC0" unicode="&#x1ec0;" horiz-adv-x="479" 
d="M42 0zM42 0l124 701h404l-23 -126h-280l-29 -166h150l-19 -107h-150l-31 -176h280l-22 -126h-404zM54 852l41 47l136 -101l-30 -30zM483 768l-92 83l-125 -83l-21 23l133 108h41l94 -108z" />
    <glyph glyph-name="uni1EC1" unicode="&#x1ec1;" horiz-adv-x="481" 
d="M25 0zM200 0q-138 0 -138 122q0 11 1.5 23t3.5 26l30 171q30 171 193 171h80q138 0 138 -122q0 -11 -1.5 -23t-3.5 -26l-23 -132h-290l-6 -36q-1 -5 -1.5 -9t-0.5 -8q0 -36 39 -36h229l-21 -121h-229zM391 345q1 5 1 8.5v7.5q0 38 -40 38h-82q-25 0 -38 -13.5t-18 -40.5
l-8 -42h177zM25 664l41 47l136 -101l-30 -30zM454 580l-92 83l-125 -83l-21 23l133 108h41l94 -108z" />
    <glyph glyph-name="uni1EC2" unicode="&#x1ec2;" horiz-adv-x="479" 
d="M42 0zM42 0l124 701h404l-23 -126h-280l-29 -166h150l-19 -107h-150l-31 -176h280l-22 -126h-404zM552 762q11 56 54 56q15 0 24 8.5t9 22.5q0 21 -26 21h-73l12 64h96q58 0 58 -55q0 -40 -21 -62.5t-58 -22.5q-25 0 -31 -32h-44zM485 768l-94 83l-121 -83l-22 23
l132 108h41l95 -108z" />
    <glyph glyph-name="uni1EC3" unicode="&#x1ec3;" horiz-adv-x="481" 
d="M62 0zM200 0q-138 0 -138 122q0 11 1.5 23t3.5 26l30 171q30 171 193 171h80q138 0 138 -122q0 -11 -1.5 -23t-3.5 -26l-23 -132h-290l-6 -36q-1 -5 -1.5 -9t-0.5 -8q0 -36 39 -36h229l-21 -121h-229zM391 345q1 5 1 8.5v7.5q0 38 -40 38h-82q-25 0 -38 -13.5t-18 -40.5
l-8 -42h177zM519 574q11 56 54 56q15 0 24 8.5t9 22.5q0 21 -26 21h-73l12 64h96q58 0 58 -55q0 -40 -21 -62.5t-58 -22.5q-25 0 -31 -32h-44zM452 580l-94 83l-121 -83l-22 23l132 108h41l95 -108z" />
    <glyph glyph-name="uni1EC4" unicode="&#x1ec4;" horiz-adv-x="479" 
d="M42 0zM42 0l124 701h404l-23 -126h-280l-29 -166h150l-19 -107h-150l-31 -176h280l-22 -126h-404zM501 713l-114 84l-143 -84l-25 23l153 112h47l115 -112zM571 925q-6 -13 -16 -25.5t-23.5 -22t-30 -15.5t-34.5 -6q-24 0 -39.5 5.5t-28.5 12.5t-26.5 12.5t-33.5 5.5
q-13 0 -29.5 -7.5t-28.5 -30.5l-40 20q11 26 39 47t68 21q22 0 37.5 -5.5t29.5 -12.5t28 -12.5t33 -5.5q15 0 29 9.5t23 29.5z" />
    <glyph glyph-name="uni1EC5" unicode="&#x1ec5;" horiz-adv-x="481" 
d="M62 0zM200 0q-138 0 -138 122q0 11 1.5 23t3.5 26l30 171q30 171 193 171h80q138 0 138 -122q0 -11 -1.5 -23t-3.5 -26l-23 -132h-290l-6 -36q-1 -5 -1.5 -9t-0.5 -8q0 -36 39 -36h229l-21 -121h-229zM391 345q1 5 1 8.5v7.5q0 38 -40 38h-82q-25 0 -38 -13.5t-18 -40.5
l-8 -42h177zM461 525l-114 84l-143 -84l-25 23l153 112h47l115 -112zM531 737q-6 -13 -16 -25.5t-23.5 -22t-30 -15.5t-34.5 -6q-24 0 -39.5 5.5t-28.5 12.5t-26.5 12.5t-33.5 5.5q-13 0 -29.5 -7.5t-28.5 -30.5l-40 20q11 26 39 47t68 21q22 0 37.5 -5.5t29.5 -12.5
t28 -12.5t33 -5.5q15 0 29 9.5t23 29.5z" />
    <glyph glyph-name="uni1EC6" unicode="&#x1ec6;" horiz-adv-x="479" 
d="M42 0zM42 0l124 701h404l-23 -126h-280l-29 -166h150l-19 -107h-150l-31 -176h280l-22 -126h-404zM544 744l-134 114l-173 -114l-30 29l188 151h55l134 -151zM172 -193l21 119h103l-21 -119h-103z" />
    <glyph glyph-name="uni1EC7" unicode="&#x1ec7;" horiz-adv-x="481" 
d="M62 0zM200 0q-138 0 -138 122q0 11 1.5 23t3.5 26l30 171q30 171 193 171h80q138 0 138 -122q0 -11 -1.5 -23t-3.5 -26l-23 -132h-290l-6 -36q-1 -5 -1.5 -9t-0.5 -8q0 -36 39 -36h229l-21 -121h-229zM391 345q1 5 1 8.5v7.5q0 38 -40 38h-82q-25 0 -38 -13.5t-18 -40.5
l-8 -42h177zM502 556l-134 114l-173 -114l-30 29l188 151h55l134 -151zM160 -193l21 119h103l-21 -119h-103z" />
    <glyph glyph-name="uni1EC8" unicode="&#x1ec8;" horiz-adv-x="218" 
d="M47 0zM47 0l124 701h124l-124 -701h-124zM180 707q6 38 25 58.5t54 20.5q20 0 32.5 12t12.5 35q0 30 -37 30h-103l16 90h135q85 0 85 -78q0 -58 -31 -90t-82 -32q-21 0 -31 -10.5t-14 -35.5h-62z" />
    <glyph glyph-name="uni1EC9" unicode="&#x1ec9;" horiz-adv-x="214" 
d="M47 0zM47 0l90 513h120l-90 -513h-120zM146 519q6 38 25 58.5t54 20.5q20 0 32.5 12t12.5 35q0 30 -37 30h-103l16 90h135q85 0 85 -78q0 -58 -31 -90t-82 -32q-21 0 -31 -10.5t-14 -35.5h-62z" />
    <glyph glyph-name="uni1ECA" unicode="&#x1eca;" horiz-adv-x="218" 
d="M23 0zM47 0l124 701h124l-124 -701h-124zM23 -193l21 119h103l-21 -119h-103z" />
    <glyph glyph-name="uni1ECB" unicode="&#x1ecb;" horiz-adv-x="214" 
d="M21 0zM149 581l22 120h120l-22 -120h-120zM47 0l90 513h120l-90 -513h-120zM21 -193l21 119h103l-21 -119h-103z" />
    <glyph glyph-name="uni1ECC" unicode="&#x1ecc;" horiz-adv-x="530" 
d="M63 0zM209 0q-75 0 -110.5 34t-35.5 94q0 11 1.5 22.5t3.5 23.5l62 352q14 81 64 128t139 47h112q75 0 109.5 -34t34.5 -94q0 -11 -1 -23t-3 -24l-62 -352q-14 -80 -63.5 -127t-138.5 -47h-112zM462 526q1 3 1 6.5v5.5q0 37 -41 37h-112q-47 0 -56 -49l-62 -351
q-2 -10 -2 -14q0 -35 41 -35h112q48 0 57 49zM179 -193l21 119h103l-21 -119h-103z" />
    <glyph glyph-name="uni1ECD" unicode="&#x1ecd;" horiz-adv-x="493" 
d="M62 0zM205 0q-75 0 -109 28.5t-34 90.5q0 24 6 56l29 163q8 46 23.5 79.5t39.5 54.5t57.5 31t77.5 10h83q75 0 109 -28.5t34 -90.5q0 -13 -1.5 -27t-3.5 -29l-29 -163q-16 -88 -61.5 -131.5t-127.5 -43.5h-93zM397 339q1 5 1.5 9t0.5 8q0 35 -37 35h-94q-43 0 -52 -48
l-29 -170q-1 -5 -1.5 -9.5t-0.5 -8.5q0 -34 35 -34h94q44 0 53 48zM161 -193l21 119h103l-21 -119h-103z" />
    <glyph glyph-name="uni1ECE" unicode="&#x1ece;" horiz-adv-x="530" 
d="M63 0zM209 0q-75 0 -110.5 34t-35.5 94q0 11 1.5 22.5t3.5 23.5l62 352q14 81 64 128t139 47h112q75 0 109.5 -34t34.5 -94q0 -11 -1 -23t-3 -24l-62 -352q-14 -80 -63.5 -127t-138.5 -47h-112zM462 526q1 3 1 6.5v5.5q0 37 -41 37h-112q-47 0 -56 -49l-62 -351
q-2 -10 -2 -14q0 -35 41 -35h112q48 0 57 49zM335 707q6 38 25 58.5t54 20.5q20 0 32.5 12t12.5 35q0 30 -37 30h-103l16 90h135q85 0 85 -78q0 -58 -31 -90t-82 -32q-21 0 -31 -10.5t-14 -35.5h-62z" />
    <glyph glyph-name="uni1ECF" unicode="&#x1ecf;" horiz-adv-x="493" 
d="M62 0zM205 0q-75 0 -109 28.5t-34 90.5q0 24 6 56l29 163q8 46 23.5 79.5t39.5 54.5t57.5 31t77.5 10h83q75 0 109 -28.5t34 -90.5q0 -13 -1.5 -27t-3.5 -29l-29 -163q-16 -88 -61.5 -131.5t-127.5 -43.5h-93zM397 339q1 5 1.5 9t0.5 8q0 35 -37 35h-94q-43 0 -52 -48
l-29 -170q-1 -5 -1.5 -9.5t-0.5 -8.5q0 -34 35 -34h94q44 0 53 48zM284 519q6 38 25 58.5t54 20.5q20 0 32.5 12t12.5 35q0 30 -37 30h-103l16 90h135q85 0 85 -78q0 -58 -31 -90t-82 -32q-21 0 -31 -10.5t-14 -35.5h-62z" />
    <glyph glyph-name="uni1ED0" unicode="&#x1ed0;" horiz-adv-x="530" 
d="M63 0zM209 0q-75 0 -110.5 34t-35.5 94q0 11 1.5 22.5t3.5 23.5l62 352q14 81 64 128t139 47h112q75 0 109.5 -34t34.5 -94q0 -11 -1 -23t-3 -24l-62 -352q-14 -80 -63.5 -127t-138.5 -47h-112zM462 526q1 3 1 6.5v5.5q0 37 -41 37h-112q-47 0 -56 -49l-62 -351
q-2 -10 -2 -14q0 -35 41 -35h112q48 0 57 49zM565 768l-19 30l170 101l26 -47zM498 768l-94 83l-121 -83l-22 23l132 108h41l95 -108z" />
    <glyph glyph-name="uni1ED1" unicode="&#x1ed1;" horiz-adv-x="493" 
d="M62 0zM205 0q-75 0 -109 28.5t-34 90.5q0 24 6 56l29 163q8 46 23.5 79.5t39.5 54.5t57.5 31t77.5 10h83q75 0 109 -28.5t34 -90.5q0 -13 -1.5 -27t-3.5 -29l-29 -163q-16 -88 -61.5 -131.5t-127.5 -43.5h-93zM397 339q1 5 1.5 9t0.5 8q0 35 -37 35h-94q-43 0 -52 -48
l-29 -170q-1 -5 -1.5 -9.5t-0.5 -8.5q0 -34 35 -34h94q44 0 53 48zM524 580l-19 30l170 101l26 -47zM457 580l-94 83l-121 -83l-22 23l132 108h41l95 -108z" />
    <glyph glyph-name="uni1ED2" unicode="&#x1ed2;" horiz-adv-x="530" 
d="M63 0zM209 0q-75 0 -110.5 34t-35.5 94q0 11 1.5 22.5t3.5 23.5l62 352q14 81 64 128t139 47h112q75 0 109.5 -34t34.5 -94q0 -11 -1 -23t-3 -24l-62 -352q-14 -80 -63.5 -127t-138.5 -47h-112zM462 526q1 3 1 6.5v5.5q0 37 -41 37h-112q-47 0 -56 -49l-62 -351
q-2 -10 -2 -14q0 -35 41 -35h112q48 0 57 49zM89 852l41 47l136 -101l-30 -30zM518 768l-92 83l-125 -83l-21 23l133 108h41l94 -108z" />
    <glyph glyph-name="uni1ED3" unicode="&#x1ed3;" horiz-adv-x="493" 
d="M25 0zM205 0q-75 0 -109 28.5t-34 90.5q0 24 6 56l29 163q8 46 23.5 79.5t39.5 54.5t57.5 31t77.5 10h83q75 0 109 -28.5t34 -90.5q0 -13 -1.5 -27t-3.5 -29l-29 -163q-16 -88 -61.5 -131.5t-127.5 -43.5h-93zM397 339q1 5 1.5 9t0.5 8q0 35 -37 35h-94q-43 0 -52 -48
l-29 -170q-1 -5 -1.5 -9.5t-0.5 -8.5q0 -34 35 -34h94q44 0 53 48zM25 664l41 47l136 -101l-30 -30zM454 580l-92 83l-125 -83l-21 23l133 108h41l94 -108z" />
    <glyph glyph-name="uni1ED4" unicode="&#x1ed4;" horiz-adv-x="530" 
d="M63 0zM209 0q-75 0 -110.5 34t-35.5 94q0 11 1.5 22.5t3.5 23.5l62 352q14 81 64 128t139 47h112q75 0 109.5 -34t34.5 -94q0 -11 -1 -23t-3 -24l-62 -352q-14 -80 -63.5 -127t-138.5 -47h-112zM462 526q1 3 1 6.5v5.5q0 37 -41 37h-112q-47 0 -56 -49l-62 -351
q-2 -10 -2 -14q0 -35 41 -35h112q48 0 57 49zM572 762q11 56 54 56q15 0 24 8.5t9 22.5q0 21 -26 21h-73l12 64h96q58 0 58 -55q0 -40 -21 -62.5t-58 -22.5q-25 0 -31 -32h-44zM505 768l-94 83l-121 -83l-22 23l132 108h41l95 -108z" />
    <glyph glyph-name="uni1ED5" unicode="&#x1ed5;" horiz-adv-x="493" 
d="M62 0zM205 0q-75 0 -109 28.5t-34 90.5q0 24 6 56l29 163q8 46 23.5 79.5t39.5 54.5t57.5 31t77.5 10h83q75 0 109 -28.5t34 -90.5q0 -13 -1.5 -27t-3.5 -29l-29 -163q-16 -88 -61.5 -131.5t-127.5 -43.5h-93zM397 339q1 5 1.5 9t0.5 8q0 35 -37 35h-94q-43 0 -52 -48
l-29 -170q-1 -5 -1.5 -9.5t-0.5 -8.5q0 -34 35 -34h94q44 0 53 48zM523 574q11 56 54 56q15 0 24 8.5t9 22.5q0 21 -26 21h-73l12 64h96q58 0 58 -55q0 -40 -21 -62.5t-58 -22.5q-25 0 -31 -32h-44zM456 580l-94 83l-121 -83l-22 23l132 108h41l95 -108z" />
    <glyph glyph-name="uni1ED6" unicode="&#x1ed6;" horiz-adv-x="530" 
d="M63 0zM209 0q-75 0 -110.5 34t-35.5 94q0 11 1.5 22.5t3.5 23.5l62 352q14 81 64 128t139 47h112q75 0 109.5 -34t34.5 -94q0 -11 -1 -23t-3 -24l-62 -352q-14 -80 -63.5 -127t-138.5 -47h-112zM462 526q1 3 1 6.5v5.5q0 37 -41 37h-112q-47 0 -56 -49l-62 -351
q-2 -10 -2 -14q0 -35 41 -35h112q48 0 57 49zM518 713l-114 84l-143 -84l-25 23l153 112h47l115 -112zM588 925q-6 -13 -16 -25.5t-23.5 -22t-30 -15.5t-34.5 -6q-24 0 -39.5 5.5t-28.5 12.5t-26.5 12.5t-33.5 5.5q-13 0 -29.5 -7.5t-28.5 -30.5l-40 20q11 26 39 47t68 21
q22 0 37.5 -5.5t29.5 -12.5t28 -12.5t33 -5.5q15 0 29 9.5t23 29.5z" />
    <glyph glyph-name="uni1ED7" unicode="&#x1ed7;" horiz-adv-x="493" 
d="M62 0zM205 0q-75 0 -109 28.5t-34 90.5q0 24 6 56l29 163q8 46 23.5 79.5t39.5 54.5t57.5 31t77.5 10h83q75 0 109 -28.5t34 -90.5q0 -13 -1.5 -27t-3.5 -29l-29 -163q-16 -88 -61.5 -131.5t-127.5 -43.5h-93zM397 339q1 5 1.5 9t0.5 8q0 35 -37 35h-94q-43 0 -52 -48
l-29 -170q-1 -5 -1.5 -9.5t-0.5 -8.5q0 -34 35 -34h94q44 0 53 48zM467 525l-114 84l-143 -84l-25 23l153 112h47l115 -112zM537 737q-6 -13 -16 -25.5t-23.5 -22t-30 -15.5t-34.5 -6q-24 0 -39.5 5.5t-28.5 12.5t-26.5 12.5t-33.5 5.5q-13 0 -29.5 -7.5t-28.5 -30.5l-40 20
q11 26 39 47t68 21q22 0 37.5 -5.5t29.5 -12.5t28 -12.5t33 -5.5q15 0 29 9.5t23 29.5z" />
    <glyph glyph-name="uni1ED8" unicode="&#x1ed8;" horiz-adv-x="530" 
d="M63 0zM209 0q-75 0 -110.5 34t-35.5 94q0 11 1.5 22.5t3.5 23.5l62 352q14 81 64 128t139 47h112q75 0 109.5 -34t34.5 -94q0 -11 -1 -23t-3 -24l-62 -352q-14 -80 -63.5 -127t-138.5 -47h-112zM462 526q1 3 1 6.5v5.5q0 37 -41 37h-112q-47 0 -56 -49l-62 -351
q-2 -10 -2 -14q0 -35 41 -35h112q48 0 57 49zM549 744l-134 114l-173 -114l-30 29l188 151h55l134 -151zM179 -193l21 119h103l-21 -119h-103z" />
    <glyph glyph-name="uni1ED9" unicode="&#x1ed9;" horiz-adv-x="493" 
d="M62 0zM205 0q-75 0 -109 28.5t-34 90.5q0 24 6 56l29 163q8 46 23.5 79.5t39.5 54.5t57.5 31t77.5 10h83q75 0 109 -28.5t34 -90.5q0 -13 -1.5 -27t-3.5 -29l-29 -163q-16 -88 -61.5 -131.5t-127.5 -43.5h-93zM397 339q1 5 1.5 9t0.5 8q0 35 -37 35h-94q-43 0 -52 -48
l-29 -170q-1 -5 -1.5 -9.5t-0.5 -8.5q0 -34 35 -34h94q44 0 53 48zM498 556l-134 114l-173 -114l-30 29l188 151h55l134 -151zM161 -193l21 119h103l-21 -119h-103z" />
    <glyph glyph-name="uni1EDA" unicode="&#x1eda;" horiz-adv-x="657" 
d="M63 0zM209 0q-75 0 -110.5 34t-35.5 94q0 11 1.5 22.5t3.5 23.5l62 352q14 81 64 128t139 47h112q51 0 83 -17.5t46 -46.5q15 -30 29 -37t23 -7q19 0 31.5 10.5t17.5 39.5l17 93h102l-20 -112q-20 -107 -112 -107q-18 0 -37.5 5.5t-36.5 26.5l-3 -23l-62 -352
q-14 -80 -63.5 -127t-138.5 -47h-112zM462 526q1 3 1 6.5v5.5q0 37 -41 37h-112q-47 0 -56 -49l-62 -351q-2 -10 -2 -14q0 -35 41 -35h112q48 0 57 49zM329 744l-23 39l243 141l32 -60z" />
    <glyph glyph-name="uni1EDB" unicode="&#x1edb;" horiz-adv-x="586" 
d="M62 0zM196 0q-134 0 -134 119q0 11 1 22.5t3 24.5l32 181q30 166 188 166h102q39 0 65.5 -10.5t40.5 -27.5q10 -14 19 -18t17 -4q18 0 32 10t19 40l16 93h103l-20 -112q-10 -53 -38.5 -80.5t-73.5 -27.5q-12 0 -24 2t-23 10q0 -21 -4 -41l-32 -181q-30 -166 -187 -166
h-102zM397 343q1 5 1 8.5v7.5q0 32 -36 32h-94q-43 0 -52 -48l-30 -174q-1 -5 -1.5 -8.5t-0.5 -6.5q0 -33 36 -33h94q44 0 53 48zM280 556l-23 39l243 141l32 -60z" />
    <glyph glyph-name="uni1EDC" unicode="&#x1edc;" horiz-adv-x="657" 
d="M63 0zM209 0q-75 0 -110.5 34t-35.5 94q0 11 1.5 22.5t3.5 23.5l62 352q14 81 64 128t139 47h112q51 0 83 -17.5t46 -46.5q15 -30 29 -37t23 -7q19 0 31.5 10.5t17.5 39.5l17 93h102l-20 -112q-20 -107 -112 -107q-18 0 -37.5 5.5t-36.5 26.5l-3 -23l-62 -352
q-14 -80 -63.5 -127t-138.5 -47h-112zM462 526q1 3 1 6.5v5.5q0 37 -41 37h-112q-47 0 -56 -49l-62 -351q-2 -10 -2 -14q0 -35 41 -35h112q48 0 57 49zM252 864l54 60l193 -141l-37 -39z" />
    <glyph glyph-name="uni1EDD" unicode="&#x1edd;" horiz-adv-x="586" 
d="M62 0zM196 0q-134 0 -134 119q0 11 1 22.5t3 24.5l32 181q30 166 188 166h102q39 0 65.5 -10.5t40.5 -27.5q10 -14 19 -18t17 -4q18 0 32 10t19 40l16 93h103l-20 -112q-10 -53 -38.5 -80.5t-73.5 -27.5q-12 0 -24 2t-23 10q0 -21 -4 -41l-32 -181q-30 -166 -187 -166
h-102zM397 343q1 5 1 8.5v7.5q0 32 -36 32h-94q-43 0 -52 -48l-30 -174q-1 -5 -1.5 -8.5t-0.5 -6.5q0 -33 36 -33h94q44 0 53 48zM211 676l54 60l193 -141l-37 -39z" />
    <glyph glyph-name="uni1EDE" unicode="&#x1ede;" horiz-adv-x="657" 
d="M63 0zM209 0q-75 0 -110.5 34t-35.5 94q0 11 1.5 22.5t3.5 23.5l62 352q14 81 64 128t139 47h112q51 0 83 -17.5t46 -46.5q15 -30 29 -37t23 -7q19 0 31.5 10.5t17.5 39.5l17 93h102l-20 -112q-20 -107 -112 -107q-18 0 -37.5 5.5t-36.5 26.5l-3 -23l-62 -352
q-14 -80 -63.5 -127t-138.5 -47h-112zM462 526q1 3 1 6.5v5.5q0 37 -41 37h-112q-47 0 -56 -49l-62 -351q-2 -10 -2 -14q0 -35 41 -35h112q48 0 57 49zM339 707q6 38 25 58.5t54 20.5q20 0 32.5 12t12.5 35q0 30 -37 30h-103l16 90h135q85 0 85 -78q0 -58 -31 -90t-82 -32
q-21 0 -31 -10.5t-14 -35.5h-62z" />
    <glyph glyph-name="uni1EDF" unicode="&#x1edf;" horiz-adv-x="586" 
d="M62 0zM196 0q-134 0 -134 119q0 11 1 22.5t3 24.5l32 181q30 166 188 166h102q39 0 65.5 -10.5t40.5 -27.5q10 -14 19 -18t17 -4q18 0 32 10t19 40l16 93h103l-20 -112q-10 -53 -38.5 -80.5t-73.5 -27.5q-12 0 -24 2t-23 10q0 -21 -4 -41l-32 -181q-30 -166 -187 -166
h-102zM397 343q1 5 1 8.5v7.5q0 32 -36 32h-94q-43 0 -52 -48l-30 -174q-1 -5 -1.5 -8.5t-0.5 -6.5q0 -33 36 -33h94q44 0 53 48zM290 519q6 38 25 58.5t54 20.5q20 0 32.5 12t12.5 35q0 30 -37 30h-103l16 90h135q85 0 85 -78q0 -58 -31 -90t-82 -32q-21 0 -31 -10.5
t-14 -35.5h-62z" />
    <glyph glyph-name="uni1EE0" unicode="&#x1ee0;" horiz-adv-x="657" 
d="M63 0zM209 0q-75 0 -110.5 34t-35.5 94q0 11 1.5 22.5t3.5 23.5l62 352q14 81 64 128t139 47h112q51 0 83 -17.5t46 -46.5q15 -30 29 -37t23 -7q19 0 31.5 10.5t17.5 39.5l17 93h102l-20 -112q-20 -107 -112 -107q-18 0 -37.5 5.5t-36.5 26.5l-3 -23l-62 -352
q-14 -80 -63.5 -127t-138.5 -47h-112zM462 526q1 3 1 6.5v5.5q0 37 -41 37h-112q-47 0 -56 -49l-62 -351q-2 -10 -2 -14q0 -35 41 -35h112q48 0 57 49zM612 865q-7 -17 -19 -33t-28.5 -28.5t-36.5 -20t-42 -7.5q-28 0 -46.5 7t-34 15.5t-31.5 15.5t-40 7q-21 0 -39 -10.5
t-30 -36.5l-48 26q14 34 47.5 60.5t79.5 26.5q27 0 46.5 -7t35.5 -15t32.5 -15t37.5 -7q45 0 67 49z" />
    <glyph glyph-name="uni1EE1" unicode="&#x1ee1;" horiz-adv-x="586" 
d="M62 0zM196 0q-134 0 -134 119q0 11 1 22.5t3 24.5l32 181q30 166 188 166h102q39 0 65.5 -10.5t40.5 -27.5q10 -14 19 -18t17 -4q18 0 32 10t19 40l16 93h103l-20 -112q-10 -53 -38.5 -80.5t-73.5 -27.5q-12 0 -24 2t-23 10q0 -21 -4 -41l-32 -181q-30 -166 -187 -166
h-102zM397 343q1 5 1 8.5v7.5q0 32 -36 32h-94q-43 0 -52 -48l-30 -174q-1 -5 -1.5 -8.5t-0.5 -6.5q0 -33 36 -33h94q44 0 53 48zM556 677q-7 -17 -19 -33t-28.5 -28.5t-36.5 -20t-42 -7.5q-28 0 -46.5 7t-34 15.5t-31.5 15.5t-40 7q-21 0 -39 -10.5t-30 -36.5l-48 26
q14 34 47.5 60.5t79.5 26.5q27 0 46.5 -7t35.5 -15t32.5 -15t37.5 -7q45 0 67 49z" />
    <glyph glyph-name="uni1EE2" unicode="&#x1ee2;" horiz-adv-x="657" 
d="M63 0zM209 0q-75 0 -110.5 34t-35.5 94q0 11 1.5 22.5t3.5 23.5l62 352q14 81 64 128t139 47h112q51 0 83 -17.5t46 -46.5q15 -30 29 -37t23 -7q19 0 31.5 10.5t17.5 39.5l17 93h102l-20 -112q-20 -107 -112 -107q-18 0 -37.5 5.5t-36.5 26.5l-3 -23l-62 -352
q-14 -80 -63.5 -127t-138.5 -47h-112zM462 526q1 3 1 6.5v5.5q0 37 -41 37h-112q-47 0 -56 -49l-62 -351q-2 -10 -2 -14q0 -35 41 -35h112q48 0 57 49zM181 -193l21 119h103l-21 -119h-103z" />
    <glyph glyph-name="uni1EE3" unicode="&#x1ee3;" horiz-adv-x="586" 
d="M62 0zM196 0q-134 0 -134 119q0 11 1 22.5t3 24.5l32 181q30 166 188 166h102q39 0 65.5 -10.5t40.5 -27.5q10 -14 19 -18t17 -4q18 0 32 10t19 40l16 93h103l-20 -112q-10 -53 -38.5 -80.5t-73.5 -27.5q-12 0 -24 2t-23 10q0 -21 -4 -41l-32 -181q-30 -166 -187 -166
h-102zM397 343q1 5 1 8.5v7.5q0 32 -36 32h-94q-43 0 -52 -48l-30 -174q-1 -5 -1.5 -8.5t-0.5 -6.5q0 -33 36 -33h94q44 0 53 48zM160 -193l21 119h103l-21 -119h-103z" />
    <glyph glyph-name="uni1EE4" unicode="&#x1ee4;" horiz-adv-x="524" 
d="M66 0zM227 0q-161 0 -161 135q0 11 1.5 23t3.5 26l92 517h124l-91 -516q-1 -5 -1.5 -8.5t-0.5 -7.5q0 -43 51 -43h78q60 0 71 59l91 516h124l-92 -517q-33 -184 -220 -184h-70zM176 -193l21 119h103l-21 -119h-103z" />
    <glyph glyph-name="uni1EE5" unicode="&#x1ee5;" horiz-adv-x="495" 
d="M63 0zM338 0l10 56q-24 -32 -49 -44t-68 -12h-64q-104 0 -104 111q0 13 1 26.5t4 29.5l61 346h117l-59 -339q-1 -5 -1.5 -9.5t-0.5 -8.5q0 -35 34 -35h88q49 0 58 54l59 338h118l-90 -513h-114zM166 -193l21 119h103l-21 -119h-103z" />
    <glyph glyph-name="uni1EE6" unicode="&#x1ee6;" horiz-adv-x="524" 
d="M66 0zM227 0q-161 0 -161 135q0 11 1.5 23t3.5 26l92 517h124l-91 -516q-1 -5 -1.5 -8.5t-0.5 -7.5q0 -43 51 -43h78q60 0 71 59l91 516h124l-92 -517q-33 -184 -220 -184h-70zM332 707q6 38 25 58.5t54 20.5q20 0 32.5 12t12.5 35q0 30 -37 30h-103l16 90h135
q85 0 85 -78q0 -58 -31 -90t-82 -32q-21 0 -31 -10.5t-14 -35.5h-62z" />
    <glyph glyph-name="uni1EE7" unicode="&#x1ee7;" horiz-adv-x="495" 
d="M63 0zM338 0l10 56q-24 -32 -49 -44t-68 -12h-64q-104 0 -104 111q0 13 1 26.5t4 29.5l61 346h117l-59 -339q-1 -5 -1.5 -9.5t-0.5 -8.5q0 -35 34 -35h88q49 0 58 54l59 338h118l-90 -513h-114zM285 519q6 38 25 58.5t54 20.5q20 0 32.5 12t12.5 35q0 30 -37 30h-103
l16 90h135q85 0 85 -78q0 -58 -31 -90t-82 -32q-21 0 -31 -10.5t-14 -35.5h-62z" />
    <glyph glyph-name="uni1EE8" unicode="&#x1ee8;" horiz-adv-x="656" 
d="M66 0zM227 0q-161 0 -161 135q0 11 1.5 23t3.5 26l92 517h124l-91 -516q-1 -5 -1.5 -8.5t-0.5 -7.5q0 -43 51 -43h78q60 0 71 59l91 516h124l-13 -74q12 -23 24 -28.5t20 -5.5q16 0 28 12t17 38l17 93h103l-20 -112q-20 -107 -112 -107q-22 0 -45 8.5t-43 42.5l-68 -384
q-33 -184 -220 -184h-70zM328 744l-23 39l243 141l32 -60z" />
    <glyph glyph-name="uni1EE9" unicode="&#x1ee9;" horiz-adv-x="619" 
d="M63 0zM338 0l10 56q-24 -32 -49 -44t-68 -12h-64q-104 0 -104 111q0 13 1 26.5t4 29.5l61 346h117l-59 -339q-1 -5 -1.5 -9.5t-0.5 -8.5q0 -35 34 -35h88q49 0 58 54l59 338h118l-6 -35q10 -17 21 -21t20 -4q16 0 28 12t17 38l16 93h103l-20 -112q-10 -53 -38.5 -80.5
t-73.5 -27.5q-21 0 -42 8t-41 37l-74 -421h-114zM277 556l-23 39l243 141l32 -60z" />
    <glyph glyph-name="uni1EEA" unicode="&#x1eea;" horiz-adv-x="656" 
d="M66 0zM227 0q-161 0 -161 135q0 11 1.5 23t3.5 26l92 517h124l-91 -516q-1 -5 -1.5 -8.5t-0.5 -7.5q0 -43 51 -43h78q60 0 71 59l91 516h124l-13 -74q12 -23 24 -28.5t20 -5.5q16 0 28 12t17 38l17 93h103l-20 -112q-20 -107 -112 -107q-22 0 -45 8.5t-43 42.5l-68 -384
q-33 -184 -220 -184h-70zM259 864l54 60l193 -141l-37 -39z" />
    <glyph glyph-name="uni1EEB" unicode="&#x1eeb;" horiz-adv-x="619" 
d="M63 0zM338 0l10 56q-24 -32 -49 -44t-68 -12h-64q-104 0 -104 111q0 13 1 26.5t4 29.5l61 346h117l-59 -339q-1 -5 -1.5 -9.5t-0.5 -8.5q0 -35 34 -35h88q49 0 58 54l59 338h118l-6 -35q10 -17 21 -21t20 -4q16 0 28 12t17 38l16 93h103l-20 -112q-10 -53 -38.5 -80.5
t-73.5 -27.5q-21 0 -42 8t-41 37l-74 -421h-114zM208 676l54 60l193 -141l-37 -39z" />
    <glyph glyph-name="uni1EEC" unicode="&#x1eec;" horiz-adv-x="656" 
d="M66 0zM227 0q-161 0 -161 135q0 11 1.5 23t3.5 26l92 517h124l-91 -516q-1 -5 -1.5 -8.5t-0.5 -7.5q0 -43 51 -43h78q60 0 71 59l91 516h124l-13 -74q12 -23 24 -28.5t20 -5.5q16 0 28 12t17 38l17 93h103l-20 -112q-20 -107 -112 -107q-22 0 -45 8.5t-43 42.5l-68 -384
q-33 -184 -220 -184h-70zM351 707q6 38 25 58.5t54 20.5q20 0 32.5 12t12.5 35q0 30 -37 30h-103l16 90h135q85 0 85 -78q0 -58 -31 -90t-82 -32q-21 0 -31 -10.5t-14 -35.5h-62z" />
    <glyph glyph-name="uni1EED" unicode="&#x1eed;" horiz-adv-x="619" 
d="M63 0zM338 0l10 56q-24 -32 -49 -44t-68 -12h-64q-104 0 -104 111q0 13 1 26.5t4 29.5l61 346h117l-59 -339q-1 -5 -1.5 -9.5t-0.5 -8.5q0 -35 34 -35h88q49 0 58 54l59 338h118l-6 -35q10 -17 21 -21t20 -4q16 0 28 12t17 38l16 93h103l-20 -112q-10 -53 -38.5 -80.5
t-73.5 -27.5q-21 0 -42 8t-41 37l-74 -421h-114zM287 519q6 38 25 58.5t54 20.5q20 0 32.5 12t12.5 35q0 30 -37 30h-103l16 90h135q85 0 85 -78q0 -58 -31 -90t-82 -32q-21 0 -31 -10.5t-14 -35.5h-62z" />
    <glyph glyph-name="uni1EEE" unicode="&#x1eee;" horiz-adv-x="656" 
d="M66 0zM227 0q-161 0 -161 135q0 11 1.5 23t3.5 26l92 517h124l-91 -516q-1 -5 -1.5 -8.5t-0.5 -7.5q0 -43 51 -43h78q60 0 71 59l91 516h124l-13 -74q12 -23 24 -28.5t20 -5.5q16 0 28 12t17 38l17 93h103l-20 -112q-20 -107 -112 -107q-22 0 -45 8.5t-43 42.5l-68 -384
q-33 -184 -220 -184h-70zM612 865q-7 -17 -19 -33t-28.5 -28.5t-36.5 -20t-42 -7.5q-28 0 -46.5 7t-34 15.5t-31.5 15.5t-40 7q-21 0 -39 -10.5t-30 -36.5l-48 26q14 34 47.5 60.5t79.5 26.5q27 0 46.5 -7t35.5 -15t32.5 -15t37.5 -7q45 0 67 49z" />
    <glyph glyph-name="uni1EEF" unicode="&#x1eef;" horiz-adv-x="619" 
d="M63 0zM338 0l10 56q-24 -32 -49 -44t-68 -12h-64q-104 0 -104 111q0 13 1 26.5t4 29.5l61 346h117l-59 -339q-1 -5 -1.5 -9.5t-0.5 -8.5q0 -35 34 -35h88q49 0 58 54l59 338h118l-6 -35q10 -17 21 -21t20 -4q16 0 28 12t17 38l16 93h103l-20 -112q-10 -53 -38.5 -80.5
t-73.5 -27.5q-21 0 -42 8t-41 37l-74 -421h-114zM560 677q-7 -17 -19 -33t-28.5 -28.5t-36.5 -20t-42 -7.5q-28 0 -46.5 7t-34 15.5t-31.5 15.5t-40 7q-21 0 -39 -10.5t-30 -36.5l-48 26q14 34 47.5 60.5t79.5 26.5q27 0 46.5 -7t35.5 -15t32.5 -15t37.5 -7q45 0 67 49z" />
    <glyph glyph-name="uni1EF0" unicode="&#x1ef0;" horiz-adv-x="656" 
d="M66 0zM227 0q-161 0 -161 135q0 11 1.5 23t3.5 26l92 517h124l-91 -516q-1 -5 -1.5 -8.5t-0.5 -7.5q0 -43 51 -43h78q60 0 71 59l91 516h124l-13 -74q12 -23 24 -28.5t20 -5.5q16 0 28 12t17 38l17 93h103l-20 -112q-20 -107 -112 -107q-22 0 -45 8.5t-43 42.5l-68 -384
q-33 -184 -220 -184h-70zM182 -193l21 119h103l-21 -119h-103z" />
    <glyph glyph-name="uni1EF1" unicode="&#x1ef1;" horiz-adv-x="619" 
d="M63 0zM338 0l10 56q-24 -32 -49 -44t-68 -12h-64q-104 0 -104 111q0 13 1 26.5t4 29.5l61 346h117l-59 -339q-1 -5 -1.5 -9.5t-0.5 -8.5q0 -35 34 -35h88q49 0 58 54l59 338h118l-6 -35q10 -17 21 -21t20 -4q16 0 28 12t17 38l16 93h103l-20 -112q-10 -53 -38.5 -80.5
t-73.5 -27.5q-21 0 -42 8t-41 37l-74 -421h-114zM164 -193l21 119h103l-21 -119h-103z" />
    <glyph glyph-name="Ygrave" unicode="&#x1ef2;" horiz-adv-x="494" 
d="M129 0zM183 0l55 313l-109 388h134l67 -255l160 255h123l-252 -388l-55 -313h-123zM238 864l54 60l193 -141l-37 -39z" />
    <glyph glyph-name="ygrave" unicode="&#x1ef3;" 
d="M73 0zM106 -159l20 112h139q46 0 57 58l8 44h-118q-139 0 -139 119q0 20 5 48l51 291h119l-52 -296q-2 -10 -2 -15q0 -37 41 -37h114l61 348h119l-87 -497q-31 -175 -186 -175h-150zM198 676l54 60l193 -141l-37 -39z" />
    <glyph glyph-name="endash" unicode="&#x2013;" horiz-adv-x="569" 
d="M78 301l14 80h519l-14 -80h-519z" />
    <glyph glyph-name="emdash" unicode="&#x2014;" horiz-adv-x="796" 
d="M78 301l14 80h745l-14 -80h-745z" />
    <glyph glyph-name="quoteleft" unicode="&#x2018;" horiz-adv-x="201" 
d="M124 458l77 243h80l-47 -243h-110z" />
    <glyph glyph-name="quoteright" unicode="&#x2019;" horiz-adv-x="201" 
d="M124 458l47 243h110l-77 -243h-80z" />
    <glyph glyph-name="quotesinglbase" unicode="&#x201a;" horiz-adv-x="201" 
d="M27 -93l46 243h110l-76 -243h-80z" />
    <glyph glyph-name="quotedblleft" unicode="&#x201c;" horiz-adv-x="402" 
d="M124 458zM124 458l77 243h80l-47 -243h-110zM325 458l77 243h80l-47 -243h-110z" />
    <glyph glyph-name="quotedblright" unicode="&#x201d;" horiz-adv-x="402" 
d="M124 458zM124 458l47 243h110l-77 -243h-80zM325 458l47 243h110l-77 -243h-80z" />
    <glyph glyph-name="quotedblbase" unicode="&#x201e;" horiz-adv-x="402" 
d="M27 0zM27 -93l46 243h110l-76 -243h-80zM228 -93l46 243h110l-76 -243h-80z" />
    <glyph glyph-name="dagger" unicode="&#x2020;" horiz-adv-x="515" 
d="M219 -1l90 511h-177l13 72h177l21 119h85l-21 -119h169l-13 -72h-169l-90 -511h-85z" />
    <glyph glyph-name="daggerdbl" unicode="&#x2021;" horiz-adv-x="515" 
d="M325 118l-21 -119h-85l21 119h-177l13 74h177l56 318h-177l13 72h177l21 119h85l-21 -119h169l-13 -72h-169l-56 -318h169l-13 -74h-169z" />
    <glyph glyph-name="bullet" unicode="&#x2022;" horiz-adv-x="312" 
d="M218 236q-24 0 -45 9t-36 24.5t-24 36.5t-9 45t9 45t24 36.5t36 24.5t45 9t44.5 -9t35.5 -24.5t24 -36.5t9 -45t-9 -45t-24 -36.5t-35.5 -24.5t-44.5 -9z" />
    <glyph glyph-name="ellipsis" unicode="&#x2026;" horiz-adv-x="1035" 
d="M44 0zM44 0l26 150h118l-26 -150h-118zM458 0l26 150h118l-26 -150h-118zM872 0l26 150h118l-26 -150h-118z" />
    <glyph glyph-name="perthousand" unicode="&#x2030;" horiz-adv-x="1027" 
d="M31 0zM211 361q-34 0 -48.5 13t-14.5 39v10.5t2 12.5l35 200q6 37 26 56t61 19h80q34 0 48.5 -13t14.5 -39q0 -5 -0.5 -11t-1.5 -12l-35 -200q-7 -37 -26.5 -56t-60.5 -19h-80zM349 624q0 2 0.5 3.5t0.5 3.5q0 17 -21 17h-56q-24 0 -28 -24l-31 -176q-1 -2 -1 -7
q0 -17 21 -17h56q23 0 28 24zM31 -32l734 769h96l-734 -769h-96zM538 -10q-34 0 -48.5 13t-14.5 39v10.5t2 12.5l35 200q6 37 26 56t61 19h80q34 0 48.5 -13t14.5 -39q0 -5 -0.5 -11t-1.5 -12l-35 -200q-7 -37 -26.5 -56t-60.5 -19h-80zM676 253q0 2 0.5 3.5t0.5 3.5
q0 17 -21 17h-56q-24 0 -28 -24l-31 -176q-1 -2 -1 -7q0 -17 21 -17h56q23 0 28 24zM833 -10q-34 0 -48.5 13t-14.5 39v10.5t2 12.5l35 200q6 37 26 56t61 19h80q34 0 48.5 -13t14.5 -39q0 -5 -0.5 -11t-1.5 -12l-35 -200q-7 -37 -26.5 -56t-60.5 -19h-80zM971 253
q0 2 0.5 3.5t0.5 3.5q0 17 -21 17h-56q-24 0 -28 -24l-31 -176q-1 -2 -1 -7q0 -17 21 -17h56q23 0 28 24z" />
    <glyph glyph-name="guilsinglleft" unicode="&#x2039;" horiz-adv-x="307" 
d="M227 90l-145 240l229 239l61 -65l-172 -174l110 -175z" />
    <glyph glyph-name="guilsinglright" unicode="&#x203a;" horiz-adv-x="307" 
d="M51 155l172 175l-110 174l84 65l144 -239l-228 -240z" />
    <glyph glyph-name="fraction" unicode="&#x2044;" horiz-adv-x="217" 
d="M-245 -32l734 769h96l-734 -769h-96z" />
    <glyph glyph-name="zerosuperior" unicode="&#x2070;" horiz-adv-x="295" 
d="M107 361zM170 361q-34 0 -48.5 13t-14.5 39v10.5t2 12.5l35 200q6 37 26 56t61 19h80q34 0 48.5 -13t14.5 -39q0 -5 -0.5 -11t-1.5 -12l-35 -200q-7 -37 -26.5 -56t-60.5 -19h-80zM308 624q0 2 0.5 3.5t0.5 3.5q0 17 -21 17h-56q-24 0 -28 -24l-31 -176q-1 -2 -1 -7
q0 -17 21 -17h56q23 0 28 24z" />
    <glyph glyph-name="foursuperior" unicode="&#x2074;" horiz-adv-x="275" 
d="M97 361zM269 624l-106 -151h79zM223 361l10 59h-136l9 48l166 243h73l-42 -238h27l-9 -53h-27l-10 -59h-61z" />
    <glyph glyph-name="fivesuperior" unicode="&#x2075;" horiz-adv-x="285" 
d="M109 361zM182 361q-35 0 -54 14.5t-19 46.5q0 10 3 24l4 24h60l-4 -24q-1 -2 -1 -6q0 -17 22 -17h41q27 0 33 32l6 35q1 3 1 10q0 20 -23 20h-122l33 191h208l-11 -63h-153l-13 -73h73q71 0 71 -62q0 -5 -0.5 -11t-1.5 -12l-6 -35q-16 -94 -106 -94h-41z" />
    <glyph glyph-name="sixsuperior" unicode="&#x2076;" horiz-adv-x="285" 
d="M109 361zM187 361q-78 0 -78 68q0 12 3 26l29 163q16 93 107 93h40q73 0 73 -62q0 -5 -0.5 -11t-1.5 -13l-4 -23h-60l4 23v6q0 17 -22 17h-40q-30 0 -34 -30l-9 -51h76q33 0 50.5 -12t17.5 -41v-12t-2 -13l-7 -41q-8 -45 -34 -66t-67 -21h-41zM276 488v6q0 18 -21 18h-71
l-10 -57q-1 -3 -1 -8q0 -24 25 -24h41q25 0 30 25z" />
    <glyph glyph-name="sevensuperior" unicode="&#x2077;" horiz-adv-x="255" 
d="M104 361zM104 361l160 288h-120l10 62h208l-191 -350h-67z" />
    <glyph glyph-name="eightsuperior" unicode="&#x2078;" horiz-adv-x="286" 
d="M109 361zM188 361q-79 0 -79 68q0 12 3 26l5 24q5 27 18.5 42.5t30.5 19.5q-24 7 -24 38q0 5 0.5 9.5t1.5 10.5l7 43q10 69 96 69h39q73 0 73 -53v-7.5t-1 -8.5l-7 -43q-5 -26 -15 -39.5t-29 -18.5q30 -6 30 -45v-8t-1 -9l-5 -24q-10 -47 -35 -70.5t-72 -23.5h-36z
M274 483q0 2 0.5 4.5t0.5 4.5q0 25 -29 25h-27q-35 0 -40 -34l-4 -26q-1 -3 -1 -9q0 -24 29 -24h27q34 0 40 33zM298 621v7q0 20 -23 20h-39q-27 0 -31 -27l-6 -31q-1 -3 -1 -8q0 -19 23 -19h39q26 0 32 27z" />
    <glyph glyph-name="ninesuperior" unicode="&#x2079;" horiz-adv-x="285" 
d="M109 361zM183 361q-35 0 -54.5 14.5t-19.5 46.5q0 10 3 24l4 24h60l-4 -24q-1 -2 -1 -5q0 -18 23 -18h40q28 0 34 31l9 52h-75q-35 0 -52 12t-17 41v11t2 13l7 41q8 45 34 66t68 21h40q77 0 77 -68v-12.5t-2 -13.5l-29 -163q-17 -93 -107 -93h-40zM297 617q1 3 1 9
q0 22 -25 22h-41q-26 0 -30 -25l-7 -39q-1 -2 -1 -6q0 -18 22 -18h71z" />
    <glyph glyph-name="zeroinferior" unicode="&#x2080;" horiz-adv-x="295" 
d="M105 -10q-34 0 -48.5 13t-14.5 39v10.5t2 12.5l35 200q6 37 26 56t61 19h80q34 0 48.5 -13t14.5 -39q0 -5 -0.5 -11t-1.5 -12l-35 -200q-7 -37 -26.5 -56t-60.5 -19h-80zM243 253q0 2 0.5 3.5t0.5 3.5q0 17 -21 17h-56q-24 0 -28 -24l-31 -176q-1 -2 -1 -7q0 -17 21 -17
h56q23 0 28 24z" />
    <glyph glyph-name="oneinferior" unicode="&#x2081;" horiz-adv-x="178" 
d="M74 -10l50 287h-47l11 63h108l-61 -350h-61z" />
    <glyph glyph-name="twoinferior" unicode="&#x2082;" horiz-adv-x="287" 
d="M32 -10l19 110q15 86 102 86h39q31 0 37 33l5 25v8q0 25 -27 25h-35q-27 0 -31 -26l-4 -20h-60l4 20q18 89 102 89h35q79 0 79 -69v-12.5t-2 -14.5l-5 -25q-9 -44 -33 -66t-68 -22h-39q-33 0 -37 -31l-8 -47h153l-11 -63h-215z" />
    <glyph glyph-name="threeinferior" unicode="&#x2083;" horiz-adv-x="285" 
d="M118 -10q-36 0 -55.5 14.5t-19.5 46.5q0 10 3 24l4 24h60l-4 -23q-1 -2 -1 -6q0 -17 23 -17h38q34 0 40 33l4 26q0 2 0.5 4.5t0.5 4.5q0 25 -29 25h-43l8 46h49q26 0 32 27l6 31v7q0 20 -23 20h-42q-25 0 -29 -24l-4 -22h-60l4 22q8 45 33.5 66t66.5 21h42q74 0 74 -53
v-7.5t-1 -8.5l-7 -43q-5 -26 -15.5 -39.5t-28.5 -18.5q29 -6 29 -45v-8t-1 -9l-5 -24q-10 -47 -35 -70.5t-72 -23.5h-42z" />
    <glyph glyph-name="fourinferior" unicode="&#x2084;" horiz-adv-x="275" 
d="M204 253l-106 -151h79zM158 -10l10 59h-136l9 48l166 243h73l-42 -238h27l-9 -53h-27l-10 -59h-61z" />
    <glyph glyph-name="fiveinferior" unicode="&#x2085;" horiz-adv-x="285" 
d="M117 -10q-35 0 -54 14.5t-19 46.5q0 10 3 24l4 24h60l-4 -24q-1 -2 -1 -6q0 -17 22 -17h41q27 0 33 32l6 35q1 3 1 10q0 20 -23 20h-122l33 191h208l-11 -63h-153l-13 -73h73q71 0 71 -62q0 -5 -0.5 -11t-1.5 -12l-6 -35q-16 -94 -106 -94h-41z" />
    <glyph glyph-name="sixinferior" unicode="&#x2086;" horiz-adv-x="285" 
d="M122 -10q-78 0 -78 68q0 12 3 26l29 163q16 93 107 93h40q73 0 73 -62q0 -5 -0.5 -11t-1.5 -13l-4 -23h-60l4 23v6q0 17 -22 17h-40q-30 0 -34 -30l-9 -51h76q33 0 50.5 -12t17.5 -41v-12t-2 -13l-7 -41q-8 -45 -34 -66t-67 -21h-41zM211 117v6q0 18 -21 18h-71l-10 -57
q-1 -3 -1 -8q0 -24 25 -24h41q25 0 30 25z" />
    <glyph glyph-name="seveninferior" unicode="&#x2087;" horiz-adv-x="255" 
d="M39 -10l160 288h-120l10 62h208l-191 -350h-67z" />
    <glyph glyph-name="eightinferior" unicode="&#x2088;" horiz-adv-x="286" 
d="M123 -10q-79 0 -79 68q0 12 3 26l5 24q5 27 18.5 42.5t30.5 19.5q-24 7 -24 38q0 5 0.5 9.5t1.5 10.5l7 43q10 69 96 69h39q73 0 73 -53v-7.5t-1 -8.5l-7 -43q-5 -26 -15 -39.5t-29 -18.5q30 -6 30 -45v-8t-1 -9l-5 -24q-10 -47 -35 -70.5t-72 -23.5h-36zM209 112
q0 2 0.5 4.5t0.5 4.5q0 25 -29 25h-27q-35 0 -40 -34l-4 -26q-1 -3 -1 -9q0 -24 29 -24h27q34 0 40 33zM233 250v7q0 20 -23 20h-39q-27 0 -31 -27l-6 -31q-1 -3 -1 -8q0 -19 23 -19h39q26 0 32 27z" />
    <glyph glyph-name="nineinferior" unicode="&#x2089;" horiz-adv-x="285" 
d="M118 -10q-35 0 -54.5 14.5t-19.5 46.5q0 10 3 24l4 24h60l-4 -24q-1 -2 -1 -5q0 -18 23 -18h40q28 0 34 31l9 52h-75q-35 0 -52 12t-17 41v11t2 13l7 41q8 45 34 66t68 21h40q77 0 77 -68v-12.5t-2 -13.5l-29 -163q-17 -93 -107 -93h-40zM232 246q1 3 1 9q0 22 -25 22
h-41q-26 0 -30 -25l-7 -39q-1 -2 -1 -6q0 -18 22 -18h71z" />
    <glyph glyph-name="Euro" unicode="&#x20ac;" horiz-adv-x="646" 
d="M302 0q-182 0 -182 159q0 15 1.5 32t5.5 36l7 39h-67l26 55h51l10 58h-67l26 55h51l6 39q20 115 82.5 171.5t173.5 56.5h327l-98 -155h-229q-39 0 -60 -20.5t-29 -67.5l-4 -24h255l-34 -55h-231l-10 -58h206l-33 -55h-183l-5 -25q-3 -15 -3 -26q0 -60 62 -60h247
l-27 -155h-275z" />
    <glyph glyph-name="trademark" unicode="&#x2122;" horiz-adv-x="731" 
d="M170 363l46 263h-72l14 75h210l-14 -75h-69l-46 -263h-69zM677 363l48 273l-115 -273h-110l-26 273l-48 -273h-75l60 338h143l13 -277l109 277h138l-60 -338h-77z" />
    <glyph glyph-name="uni2126" unicode="&#x2126;" horiz-adv-x="699" 
d="M42 0zM430 0l21 120q54 41 87.5 116t33.5 178q0 78 -31.5 114t-91.5 36q-107 0 -154.5 -77t-47.5 -219q0 -108 42 -148l-21 -120h-226l18 100h108q-22 20 -40 68t-18 126q0 85 21 159.5t65.5 130t113.5 87t164 31.5q64 0 110.5 -18t77 -51t45 -79.5t14.5 -103.5
q0 -73 -15.5 -130.5t-39 -101t-50.5 -73t-50 -45.5h108l-18 -100h-226z" />
    <glyph glyph-name="onethird" unicode="&#x2153;" horiz-adv-x="784" 
d="M31 0zM217 361l50 287h-47l11 63h108l-61 -350h-61zM31 -32l734 769h96l-734 -769h-96zM611 -10q-36 0 -55.5 14.5t-19.5 46.5q0 10 3 24l4 24h60l-4 -23q-1 -2 -1 -6q0 -17 23 -17h38q34 0 40 33l4 26q0 2 0.5 4.5t0.5 4.5q0 25 -29 25h-43l8 46h49q26 0 32 27l6 31v7
q0 20 -23 20h-42q-25 0 -29 -24l-4 -22h-60l4 22q8 45 33.5 66t66.5 21h42q74 0 74 -53v-7.5t-1 -8.5l-7 -43q-5 -26 -15.5 -39.5t-28.5 -18.5q29 -6 29 -45v-8t-1 -9l-5 -24q-10 -47 -35 -70.5t-72 -23.5h-42z" />
    <glyph glyph-name="twothirds" unicode="&#x2154;" horiz-adv-x="769" 
d="M31 0zM116 361l19 110q15 86 102 86h39q31 0 37 33l5 25v8q0 25 -27 25h-35q-27 0 -31 -26l-4 -20h-60l4 20q18 89 102 89h35q79 0 79 -69v-12.5t-2 -14.5l-5 -25q-9 -44 -33 -66t-68 -22h-39q-33 0 -37 -31l-8 -47h153l-11 -63h-215zM31 -32l734 769h96l-734 -769h-96z
M571 -10q-36 0 -55.5 14.5t-19.5 46.5q0 10 3 24l4 24h60l-4 -23q-1 -2 -1 -6q0 -17 23 -17h38q34 0 40 33l4 26q0 2 0.5 4.5t0.5 4.5q0 25 -29 25h-43l8 46h49q26 0 32 27l6 31v7q0 20 -23 20h-42q-25 0 -29 -24l-4 -22h-60l4 22q8 45 33.5 66t66.5 21h42q74 0 74 -53v-7.5
t-1 -8.5l-7 -43q-5 -26 -15.5 -39.5t-28.5 -18.5q29 -6 29 -45v-8t-1 -9l-5 -24q-10 -47 -35 -70.5t-72 -23.5h-42z" />
    <glyph glyph-name="oneeighth" unicode="&#x215b;" horiz-adv-x="783" 
d="M31 0zM227 361l50 287h-47l11 63h108l-61 -350h-61zM31 -32l734 769h96l-734 -769h-96zM616 -10q-79 0 -79 68q0 12 3 26l5 24q5 27 18.5 42.5t30.5 19.5q-24 7 -24 38q0 5 0.5 9.5t1.5 10.5l7 43q10 69 96 69h39q73 0 73 -53v-7.5t-1 -8.5l-7 -43q-5 -26 -15 -39.5
t-29 -18.5q30 -6 30 -45v-8t-1 -9l-5 -24q-10 -47 -35 -70.5t-72 -23.5h-36zM702 112q0 2 0.5 4.5t0.5 4.5q0 25 -29 25h-27q-35 0 -40 -34l-4 -26q-1 -3 -1 -9q0 -24 29 -24h27q34 0 40 33zM726 250v7q0 20 -23 20h-39q-27 0 -31 -27l-6 -31q-1 -3 -1 -8q0 -19 23 -19h39
q26 0 32 27z" />
    <glyph glyph-name="threeeighths" unicode="&#x215c;" horiz-adv-x="769" 
d="M31 0zM224 361q-36 0 -55.5 14.5t-19.5 46.5q0 10 3 24l4 24h60l-4 -23q-1 -2 -1 -6q0 -17 23 -17h38q34 0 40 33l4 26q0 2 0.5 4.5t0.5 4.5q0 25 -29 25h-43l8 46h49q26 0 32 27l6 31v7q0 20 -23 20h-42q-25 0 -29 -24l-4 -22h-60l4 22q8 45 33.5 66t66.5 21h42
q74 0 74 -53v-7.5t-1 -8.5l-7 -43q-5 -26 -15.5 -39.5t-28.5 -18.5q29 -6 29 -45v-8t-1 -9l-5 -24q-10 -47 -35 -70.5t-72 -23.5h-42zM31 -32l734 769h96l-734 -769h-96zM586 -10q-79 0 -79 68q0 12 3 26l5 24q5 27 18.5 42.5t30.5 19.5q-24 7 -24 38q0 5 0.5 9.5t1.5 10.5
l7 43q10 69 96 69h39q73 0 73 -53v-7.5t-1 -8.5l-7 -43q-5 -26 -15 -39.5t-29 -18.5q30 -6 30 -45v-8t-1 -9l-5 -24q-10 -47 -35 -70.5t-72 -23.5h-36zM672 112q0 2 0.5 4.5t0.5 4.5q0 25 -29 25h-27q-35 0 -40 -34l-4 -26q-1 -3 -1 -9q0 -24 29 -24h27q34 0 40 33zM696 250
v7q0 20 -23 20h-39q-27 0 -31 -27l-6 -31q-1 -3 -1 -8q0 -19 23 -19h39q26 0 32 27z" />
    <glyph glyph-name="fiveeighths" unicode="&#x215d;" horiz-adv-x="769" 
d="M31 0zM223 361q-35 0 -54 14.5t-19 46.5q0 10 3 24l4 24h60l-4 -24q-1 -2 -1 -6q0 -17 22 -17h41q27 0 33 32l6 35q1 3 1 10q0 20 -23 20h-122l33 191h208l-11 -63h-153l-13 -73h73q71 0 71 -62q0 -5 -0.5 -11t-1.5 -12l-6 -35q-16 -94 -106 -94h-41zM31 -32l734 769h96
l-734 -769h-96zM586 -10q-79 0 -79 68q0 12 3 26l5 24q5 27 18.5 42.5t30.5 19.5q-24 7 -24 38q0 5 0.5 9.5t1.5 10.5l7 43q10 69 96 69h39q73 0 73 -53v-7.5t-1 -8.5l-7 -43q-5 -26 -15 -39.5t-29 -18.5q30 -6 30 -45v-8t-1 -9l-5 -24q-10 -47 -35 -70.5t-72 -23.5h-36z
M672 112q0 2 0.5 4.5t0.5 4.5q0 25 -29 25h-27q-35 0 -40 -34l-4 -26q-1 -3 -1 -9q0 -24 29 -24h27q34 0 40 33zM696 250v7q0 20 -23 20h-39q-27 0 -31 -27l-6 -31q-1 -3 -1 -8q0 -19 23 -19h39q26 0 32 27z" />
    <glyph glyph-name="seveneighths" unicode="&#x215e;" horiz-adv-x="783" 
d="M31 0zM165 361l160 288h-120l10 62h208l-191 -350h-67zM31 -32l734 769h96l-734 -769h-96zM616 -10q-79 0 -79 68q0 12 3 26l5 24q5 27 18.5 42.5t30.5 19.5q-24 7 -24 38q0 5 0.5 9.5t1.5 10.5l7 43q10 69 96 69h39q73 0 73 -53v-7.5t-1 -8.5l-7 -43q-5 -26 -15 -39.5
t-29 -18.5q30 -6 30 -45v-8t-1 -9l-5 -24q-10 -47 -35 -70.5t-72 -23.5h-36zM702 112q0 2 0.5 4.5t0.5 4.5q0 25 -29 25h-27q-35 0 -40 -34l-4 -26q-1 -3 -1 -9q0 -24 29 -24h27q34 0 40 33zM726 250v7q0 20 -23 20h-39q-27 0 -31 -27l-6 -31q-1 -3 -1 -8q0 -19 23 -19h39
q26 0 32 27z" />
    <glyph glyph-name="partialdiff" unicode="&#x2202;" horiz-adv-x="607" 
d="M181 647q15 8 37 18t48.5 18.5t56 14t58.5 5.5q55 0 101.5 -12.5t81 -41.5t54 -78t19.5 -122q0 -56 -12 -126q-12 -67 -36 -128t-64 -107.5t-98 -74t-137 -27.5q-48 0 -87.5 14t-68.5 40t-45 62.5t-16 81.5q0 58 21.5 109.5t60 89t91.5 59.5t116 22q24 0 48.5 -5.5
t46.5 -16t40.5 -25.5t29.5 -35q6 36 6 66q0 45 -13 76.5t-35 52t-51.5 29.5t-62.5 9q-83 0 -170 -46zM511 292q-21 40 -63 62t-87 22q-34 0 -66 -12t-56.5 -35.5t-39.5 -57.5t-15 -79q0 -54 31 -85.5t91 -31.5q45 0 79 15.5t59 43.5t41.5 68t25.5 90z" />
    <glyph glyph-name="uni2206" unicode="&#x2206;" horiz-adv-x="503" 
d="M9 0zM9 0l292 701h144l49 -701h-485zM335 505l-164 -401h186z" />
    <glyph glyph-name="product" unicode="&#x220f;" horiz-adv-x="684" 
d="M512 -160l136 772h-396l-136 -772h-102l152 861h600l-152 -861h-102z" />
    <glyph glyph-name="summation" unicode="&#x2211;" horiz-adv-x="540" 
d="M17 -135l10 57l265 360l-138 360l11 59h458l-15 -81h-345l127 -338l-246 -337h345l-14 -80h-458z" />
    <glyph glyph-name="minus" unicode="&#x2212;" horiz-adv-x="620" 
d="M96 312l17 98h538l-17 -98h-538z" />
    <glyph glyph-name="radical" unicode="&#x221a;" horiz-adv-x="666" 
d="M255 0l-66 364h-83l16 92h177l52 -332l280 577h116l-344 -701h-148z" />
    <glyph glyph-name="infinity" unicode="&#x221e;" horiz-adv-x="912" 
d="M561 351q6 -30 17 -55.5t27 -44t37.5 -29.5t48.5 -11q40 0 69 15t48 39t28 54t9 60q0 22 -6 42.5t-18.5 36t-32.5 24.5t-47 9q-51 0 -97.5 -39.5t-82.5 -100.5zM477 357q-6 29 -17.5 54.5t-28 44t-37.5 29.5t-48 11q-40 0 -69 -15t-48 -39t-28 -53.5t-9 -59.5
q0 -23 6 -43t18.5 -35.5t32.5 -24.5t48 -9q51 0 96.5 39t83.5 101zM504 269q-41 -75 -101 -117.5t-129 -42.5q-42 0 -75 14.5t-55 40t-33.5 61.5t-11.5 79q0 62 19 116t53.5 93.5t82.5 62.5t107 23q66 0 113.5 -42t58.5 -119q39 76 100 118.5t130 42.5q42 0 75 -14.5
t55 -40.5t33.5 -62t11.5 -79q0 -62 -19 -116t-53.5 -93.5t-83 -62t-106.5 -22.5q-67 0 -114 41t-58 119z" />
    <glyph glyph-name="integral" unicode="&#x222b;" horiz-adv-x="554" 
d="M313 518q10 55 32 90.5t53.5 56.5t69.5 29t80 8q23 0 48 -6.5t35 -20.5l-15 -86q-14 15 -33.5 22t-42.5 7q-48 0 -78 -26t-39 -78l-87 -491q-10 -55 -32 -90.5t-53.5 -56t-69.5 -28.5t-80 -8q-12 0 -24.5 1.5t-24 5t-20.5 8.5t-13 12l14 84q15 -16 38.5 -20.5t38.5 -4.5
q99 0 117 102z" />
    <glyph glyph-name="approxequal" unicode="&#x2248;" horiz-adv-x="620" 
d="M68 143zM617 206q-63 -63 -169 -63q-31 0 -57.5 13t-52.5 28.5t-53 28.5t-59 13q-42 0 -79 -17.5t-79 -65.5l21 117q25 28 60.5 45t88.5 17q37 0 67 -13.5t56.5 -29t53 -29t56.5 -13.5q49 0 89 21.5t79 72.5zM660 465q-63 -63 -169 -63q-31 0 -57.5 13t-52.5 28.5
t-53 28.5t-59 13q-42 0 -79 -17.5t-79 -65.5l21 117q25 28 60.5 45t88.5 17q37 0 67 -13.5t56.5 -29t53 -29t56.5 -13.5q49 0 89 21.5t79 72.5z" />
    <glyph glyph-name="notequal" unicode="&#x2260;" horiz-adv-x="620" 
d="M492 429l-131 -138h269l-18 -99h-346l-213 -224h-95l212 224h-96l18 99h173l131 138h-280l18 99h357l199 209h96l-199 -209h85l-18 -99h-162z" />
    <glyph glyph-name="lessequal" unicode="&#x2264;" horiz-adv-x="620" 
d="M34 0zM95 305l13 74l578 229l-19 -108l-400 -157l345 -158l-19 -107zM34 -47l17 98h538l-17 -98h-538z" />
    <glyph glyph-name="greaterequal" unicode="&#x2265;" horiz-adv-x="620" 
d="M34 0zM55 78l19 107l399 158l-344 157l19 108l498 -229l-13 -74zM34 -47l17 98h538l-17 -98h-538z" />
    <glyph glyph-name="dotmath" unicode="&#x22c5;" horiz-adv-x="207" 
d="M91 270zM91 270l27 150h118l-27 -150h-118z" />
    <glyph glyph-name="lozenge" unicode="&#x25ca;" horiz-adv-x="570" 
d="M478 350l-88 229l-173 -229l92 -229zM235 0l-131 350l254 350h107l125 -350l-248 -350h-107z" />
    <glyph glyph-name="fi" unicode="&#xfb01;" horiz-adv-x="501" 
d="M39 0zM39 0l96 544q27 157 174 157h79l-19 -107h-75q-35 0 -41 -37l-8 -44h116l-18 -103h-112l-72 -410h-120zM436 581l22 120h120l-22 -120h-120zM334 0l90 513h120l-90 -513h-120z" />
    <glyph glyph-name="fl" unicode="&#xfb02;" horiz-adv-x="491" 
d="M39 0zM39 0l96 544q27 157 174 157h79l-19 -107h-75q-35 0 -41 -37l-8 -44h116l-18 -103h-112l-72 -410h-120zM329 0l124 701h119l-124 -701h-119z" />
    <glyph glyph-name="brevehook" horiz-adv-x="371" 
d="M445 649q-7 -21 -22.5 -43t-37.5 -39.5t-49.5 -29t-58.5 -11.5t-53.5 11.5t-38 29t-23.5 39.5t-9 43l41 25q6 -45 29.5 -69t64.5 -24q35 0 70 25t54 68zM260 624q4 25 16.5 34t25.5 12t23 7t10 20q0 18 -22 18h-65l8 50h84q53 0 53 -43q0 -36 -13.5 -48.5t-31 -17.5
l-32.5 -9.5t-18 -22.5h-38z" />
    <glyph glyph-name="brevegrave" horiz-adv-x="371" 
d="M446 649q-6 -21 -21.5 -43t-38 -39.5t-50 -29t-57.5 -11.5q-31 0 -54 11.5t-38.5 29t-24 39.5t-9.5 43l42 26q6 -45 29.5 -69.5t64.5 -24.5q18 0 36 6.5t34.5 18.5t31 29.5t23.5 39.5zM235 722l36 43l112 -92l-25 -26z" />
    <glyph glyph-name="gravecircumflex" horiz-adv-x="548" 
d="M156 664l41 47l136 -101l-30 -30zM585 580l-92 83l-125 -83l-21 23l133 108h41l94 -108z" />
    <glyph glyph-name="brevetilde" horiz-adv-x="371" 
d="M446 649q-9 -21 -24.5 -43t-37.5 -39.5t-48.5 -29t-57.5 -11.5t-54.5 11.5t-39 29t-23.5 39.5t-8 43l42 26q2 -45 27 -69.5t64 -24.5q40 0 72 24.5t55 69.5zM431 746q-9 -23 -28.5 -40t-46.5 -17q-17 0 -27 4.5t-18.5 10.5t-17.5 10.5t-23 4.5q-12 0 -22.5 -6.5
t-18.5 -24.5l-28 16q10 22 30 39t46 17q16 0 26.5 -5t19.5 -11t17.5 -11t22.5 -5q26 0 41 34z" />
    <glyph glyph-name="circumflexacute" horiz-adv-x="548" 
d="M449 580l-19 30l170 101l26 -47zM382 580l-94 83l-121 -83l-22 23l132 108h41l95 -108z" />
    <glyph glyph-name=".null" horiz-adv-x="0" 
 />
    <glyph glyph-name="nonmarkingreturn" horiz-adv-x="199" 
 />
    <glyph glyph-name="breveacute" horiz-adv-x="371" 
d="M242 647l-15 26l143 92l21 -43zM446 649q-9 -21 -24.5 -43t-37.5 -39.5t-48.5 -29t-57.5 -11.5t-54.5 11.5t-39 29t-23.5 39.5t-8 43l42 26q2 -45 27 -69.5t64 -24.5q40 0 72 24.5t55 69.5z" />
    <glyph glyph-name="circumflexhook" horiz-adv-x="521" 
d="M449 574q11 56 54 56q15 0 24 8.5t9 22.5q0 21 -26 21h-73l12 64h96q58 0 58 -55q0 -40 -21 -62.5t-58 -22.5q-25 0 -31 -32h-44zM382 580l-94 83l-121 -83l-22 23l132 108h41l95 -108z" />
    <glyph glyph-name=".ttfautohint" horiz-adv-x="521" 
d="M0 0z" />
    </font>
</defs>
</svg>
