<?xml version="1.0" standalone="no"?>
<!DOCTYPE svg PUBLIC "-//W3C//DTD SVG 1.1//EN" "http://www.w3.org/Graphics/SVG/1.1/DTD/svg11.dtd" >
<svg>
<metadata>
Created by FontForge 20090622 at Wed May 25 13:08:25 2016
 By deploy user
(c) 1999-2012 Typodermic Fonts Inc. See attached license agreement. If agreement is missing visit typodermicfonts.com for more info. Accents by Chikako Larabie.
</metadata>
<defs>
<font id="ForgottenFuturistRg-Italic" horiz-adv-x="500" >
  <font-face 
    font-family="Forgotten Futurist Rg"
    font-weight="400"
    font-style="italic"
    font-stretch="normal"
    units-per-em="1000"
    panose-1="2 11 6 6 2 2 2 8 2 3"
    ascent="726"
    descent="-274"
    x-height="513"
    cap-height="701"
    bbox="-240 -234 1026 953"
    underline-thickness="20"
    underline-position="-123"
    slope="-10"
    unicode-range="U+0017-U+FB02"
  />
<missing-glyph horiz-adv-x="518" 
d="M164 0q-115 0 -115 102v478q0 103 115 103h189q116 0 116 -103v-478q0 -102 -116 -102h-189zM378 580q0 19 -25 19h-189q-26 0 -26 -19v-478q0 -19 26 -19h189q25 0 25 19v478z" />
    <glyph glyph-name="copyright" unicode="&#x28;C&#x29;" horiz-adv-x="803" 
d="M467 -11q-74 0 -139.5 28.5t-114.5 77.5t-77.5 115t-28.5 140q0 75 28.5 140.5t77.5 114.5t114.5 77.5t139.5 28.5q75 0 140.5 -28.5t114.5 -77.5t77.5 -114.5t28.5 -140.5q0 -74 -28.5 -140t-77.5 -115t-114.5 -77.5t-140.5 -28.5zM767 350q0 62 -23.5 116t-64 94.5
t-95 64t-117.5 23.5q-62 0 -117 -23.5t-95.5 -64t-64 -94.5t-23.5 -116t23.5 -117t64 -95.5t95.5 -64t117 -23.5q63 0 117.5 23.5t95 64t64 95.5t23.5 117zM411 195q-101 0 -101 103v112q0 103 101 103h180v-61h-167q-48 0 -48 -49v-97q0 -50 48 -50h167v-61h-180z" />
    <glyph glyph-name="registered" unicode="&#x28;R&#x29;" horiz-adv-x="540" 
d="M354 256q-48 0 -89.5 18t-72.5 49t-49 72.5t-18 89.5t18 89.5t49 72.5t72.5 49t89.5 18t89.5 -18t72.5 -49t49 -72.5t18 -89.5t-18 -89.5t-49 -72.5t-72.5 -49t-89.5 -18zM354 295q39 0 73.5 15t60 40.5t40 60.5t14.5 74t-14.5 73t-40 60t-60 41t-73.5 15t-74 -15
t-60.5 -41t-40.5 -60t-15 -73t15 -74t40.5 -60.5t60.5 -40.5t74 -15zM411 383v49q0 12 -8.5 17t-22.5 5h-73v-71h-43v201h135q29 0 40.5 -12.5t11.5 -36.5v-25q0 -17 -8 -25.5t-19 -11.5q13 -3 22 -11.5t9 -28.5v-50h-44zM407 526q0 21 -23 21h-77v-61h72q28 0 28 22v18z
" />
    <glyph glyph-name="uni2117" unicode="&#x28;P&#x29;" horiz-adv-x="803" 
d="M829 349q0 -74 -28.5 -139.5t-77 -114.5t-114.5 -77.5t-141 -28.5q-74 0 -139.5 28.5t-114.5 77.5t-77.5 114.5t-28.5 139.5q0 75 28.5 141t77.5 115t114.5 77t139.5 28q75 0 141 -28t114.5 -77t77 -115t28.5 -141zM768 349q0 63 -23.5 117.5t-64 95t-95 63.5t-117.5 23
q-62 0 -116.5 -23t-95.5 -63.5t-64.5 -95t-23.5 -117.5q0 -62 23.5 -116t64.5 -95t95.5 -64.5t116.5 -23.5q63 0 117.5 23.5t95 64.5t64 95t23.5 116zM396 271v-84h-67v325h208q50 0 77.5 -23t27.5 -65v-66q0 -39 -26.5 -63t-73.5 -24h-146zM575 421q0 34 -38 34h-141v-132
h141q38 0 38 38v60z" />
    <glyph glyph-name=".notdef" horiz-adv-x="518" 
d="M164 0q-115 0 -115 102v478q0 103 115 103h189q116 0 116 -103v-478q0 -102 -116 -102h-189zM378 580q0 19 -25 19h-189q-26 0 -26 -19v-478q0 -19 26 -19h189q25 0 25 19v478z" />
    <glyph glyph-name="uni0017" horiz-adv-x="192" 
 />
    <glyph glyph-name="space" unicode=" " horiz-adv-x="192" 
 />
    <glyph glyph-name="exclam" unicode="!" horiz-adv-x="218" 
d="M108 206l88 495h75l-88 -495h-75zM72 0l26 150h76l-26 -150h-76z" />
    <glyph glyph-name="quotedbl" unicode="&#x22;" horiz-adv-x="380" 
d="M153 458zM153 458l20 243h92l-66 -243h-46zM343 458l20 243h92l-66 -243h-46z" />
    <glyph glyph-name="numbersign" unicode="#" horiz-adv-x="598" 
d="M469 462h-175l-37 -214h175zM388 0l35 200h-175l-35 -200h-51l35 200h-113l9 48h113l37 214h-113l9 48h113l34 191h51l-34 -191h175l34 191h51l-34 -191h109l-9 -48h-109l-37 -214h109l-9 -48h-114l-30 -200h-51z" />
    <glyph glyph-name="dollar" unicode="$" horiz-adv-x="507" 
d="M231 0l12 67h-182l13 72h264q38 0 57.5 19.5t26.5 56.5l5 29q1 6 1.5 11.5t0.5 10.5q0 26 -14 39.5t-46 13.5h-138q-31 0 -51.5 6t-33 17.5t-17.5 27.5t-5 36q0 10 1 21t3 23l9 47q13 69 52.5 103t108.5 34h45l12 67h45l-12 -67h170l-13 -73h-253q-38 0 -57 -19t-26 -57
l-5 -26q-2 -6 -2 -12v-11q0 -52 59 -52h138q61 0 84 -23t23 -63q0 -11 -1 -22t-3 -23l-9 -49q-13 -69 -54 -103t-109 -34h-42l-12 -67h-45z" />
    <glyph glyph-name="percent" unicode="%" horiz-adv-x="768" 
d="M38 0zM181 361q-56 0 -56 49q0 5 0.5 10t1.5 11l37 210q6 33 24.5 51.5t53.5 18.5h87q56 0 56 -49q0 -5 -0.5 -10.5t-1.5 -10.5l-37 -210q-6 -33 -24.5 -51.5t-53.5 -18.5h-87zM343 634q0 2 0.5 5t0.5 5q0 27 -30 27h-71q-35 0 -41 -37l-35 -196q-1 -4 -1 -10
q0 -27 30 -27h71q35 0 41 37zM38 -32l739 769h75l-739 -769h-75zM569 -10q-56 0 -56 49q0 5 0.5 10t1.5 11l37 210q6 33 24.5 51.5t53.5 18.5h87q56 0 56 -49q0 -5 -0.5 -10.5t-1.5 -10.5l-37 -210q-6 -33 -24.5 -51.5t-53.5 -18.5h-87zM731 263q0 2 0.5 5t0.5 5
q0 27 -30 27h-71q-35 0 -41 -37l-35 -196q-1 -4 -1 -10q0 -27 30 -27h71q35 0 41 37z" />
    <glyph glyph-name="ampersand" unicode="&#x26;" horiz-adv-x="558" 
d="M488 0q-42 0 -67.5 15t-28.5 41q-12 -26 -43 -41t-73 -15h-74q-134 0 -134 118q0 23 4 46l14 76q10 54 39.5 86t67.5 38q-59 11 -59 80q0 8 1 17t3 19l16 90q11 66 51.5 98.5t103.5 32.5h229l-14 -80h-215q-72 0 -86 -76l-14 -76q-1 -5 -1.5 -10t-0.5 -10q0 -53 63 -53
h143l14 77h73l-14 -77h104l-11 -67h-104l-32 -179q-1 -5 -1.5 -9.5t-0.5 -9.5q0 -26 17 -38.5t49 -12.5h27l-14 -80h-32zM402 329h-136q-42 0 -68 -23t-33 -62l-14 -77q-2 -7 -2 -13v-11q0 -63 72 -63h60q76 0 89 70z" />
    <glyph glyph-name="quotesingle" unicode="'" horiz-adv-x="190" 
d="M153 458l20 243h92l-66 -243h-46z" />
    <glyph glyph-name="parenleft" unicode="(" horiz-adv-x="368" 
d="M263 -150q-34 14 -62 35t-48 51.5t-31 71.5t-11 95t12 123l43 247q15 86 41.5 148.5t61.5 107t78.5 73t91.5 46.5l23 -60q-88 -34 -141.5 -109t-74.5 -196l-47 -268q-9 -53 -9 -97q0 -157 117 -209z" />
    <glyph glyph-name="parenright" unicode=")" horiz-adv-x="369" 
d="M30 -91q173 68 215 306l47 268q9 52 9 97q0 155 -116 208l43 60q34 -14 62 -35t48 -51.5t31.5 -72t11.5 -95.5t-12 -121l-43 -247q-15 -86 -41.5 -149t-62 -107.5t-79 -73t-91.5 -46.5z" />
    <glyph glyph-name="asterisk" unicode="*" horiz-adv-x="495" 
d="M429 340l-81 132l-86 -130l-62 42l106 117l-157 41l24 63l150 -60l-15 156h78l-13 -156l151 60l22 -66l-158 -37l104 -119z" />
    <glyph glyph-name="plus" unicode="+" horiz-adv-x="617" 
d="M288 98l40 225h-225l13 76h225l40 225h77l-40 -225h224l-13 -76h-224l-40 -225h-77z" />
    <glyph glyph-name="comma" unicode="," horiz-adv-x="195" 
d="M38 -93l57 243h79l-77 -243h-59z" />
    <glyph glyph-name="hyphen" unicode="-" horiz-adv-x="354" 
d="M88 316l9 52h290l-9 -52h-290z" />
    <glyph glyph-name="period" unicode="." horiz-adv-x="185" 
d="M54 0l26 150h76l-26 -150h-76z" />
    <glyph glyph-name="slash" unicode="/" horiz-adv-x="463" 
d="M2 -28l503 756h79l-503 -756h-79z" />
    <glyph glyph-name="zero" unicode="0" horiz-adv-x="527" 
d="M177 0q-60 0 -86 25.5t-26 72.5q0 22 4 42l74 421q11 66 48.5 103t109.5 37h173q60 0 86 -25.5t26 -73.5q0 -10 -1 -20t-3 -21l-74 -421q-12 -66 -49.5 -103t-108.5 -37h-173zM501 546q1 5 1.5 10t0.5 10q0 26 -14.5 40.5t-44.5 14.5h-143q-35 0 -56 -20t-27 -55
l-69 -391q-1 -5 -1.5 -10t-0.5 -10q0 -26 14.5 -40.5t44.5 -14.5h143q35 0 56 20t27 55z" />
    <glyph glyph-name="one" unicode="1" horiz-adv-x="281" 
d="M146 0l109 621h-110l15 80h188l-124 -701h-78z" />
    <glyph glyph-name="two" unicode="2" horiz-adv-x="513" 
d="M46 0l39 220q14 77 57.5 115t127.5 38h99q43 0 68.5 24t33.5 67l11 65q3 15 3 28q0 64 -76 64h-91q-43 0 -65.5 -20.5t-30.5 -63.5l-10 -54h-76l10 54q16 85 61.5 124.5t126.5 39.5h90q73 0 107 -30.5t34 -90.5q0 -11 -1.5 -24t-3.5 -27l-11 -65q-14 -78 -61 -119.5
t-125 -41.5h-99q-48 0 -70.5 -20.5t-30.5 -62.5l-25 -140h336l-14 -80h-414z" />
    <glyph glyph-name="three" unicode="3" horiz-adv-x="509" 
d="M195 0q-63 0 -96 26t-33 80q0 9 1 19t3 21l12 72h76l-12 -71q-1 -5 -1.5 -8.5t-0.5 -8.5q0 -50 65 -50h110q85 0 100 87l13 74q1 6 1.5 11.5t0.5 10.5q0 30 -18 48t-54 18h-105l11 60h112q38 0 59.5 20.5t27.5 55.5l14 80q1 5 1.5 10.5t0.5 10.5q0 55 -62 55h-115
q-71 0 -85 -73l-12 -65h-76l12 66q28 152 176 152h115q126 0 126 -98q0 -15 -3 -33l-17 -93q-10 -53 -34 -81.5t-60 -34.5q29 -5 47 -29.5t18 -63.5q0 -15 -3 -31l-13 -73q-30 -164 -187 -164h-115z" />
    <glyph glyph-name="four" unicode="4" horiz-adv-x="489" 
d="M328 0l22 127h-303l11 61l377 512h93l-89 -505h53l-12 -68h-53l-22 -127h-77zM432 590l-299 -395h229z" />
    <glyph glyph-name="five" unicode="5" horiz-adv-x="509" 
d="M191 0q-124 0 -124 104q0 20 4 39l13 75h76l-13 -74q-1 -5 -1 -8.5v-7.5q0 -49 58 -49h121q72 0 87 82l18 102q1 6 1.5 11.5t0.5 10.5q0 55 -60 55h-259l64 361h402l-15 -80h-332l-37 -211h196q121 0 121 -106q0 -9 -1 -19.5t-3 -21.5l-18 -102q-14 -81 -58 -121
t-121 -40h-120z" />
    <glyph glyph-name="six" unicode="6" horiz-adv-x="508" 
d="M198 0q-130 0 -130 116q0 20 5 48l67 383q27 154 183 154h113q128 0 128 -107q0 -9 -1 -18.5t-3 -20.5l-13 -72h-76l13 72q1 5 1 8.5v7.5q0 50 -64 50h-113q-78 0 -90 -74l-26 -150h201q60 0 90 -22.5t30 -75.5q-1 -9 -1.5 -19t-2.5 -21l-19 -104q-28 -155 -177 -155
h-115zM432 258q1 5 1.5 10t0.5 10q0 50 -59 50h-195l-29 -164q-3 -14 -3 -25q0 -60 64 -60h115q35 0 58 19.5t30 57.5z" />
    <glyph glyph-name="seven" unicode="7" horiz-adv-x="450" 
d="M71 0l366 622h-290l14 79h403l-407 -701h-86z" />
    <glyph glyph-name="eight" unicode="8" horiz-adv-x="512" 
d="M202 0q-134 0 -134 118q0 23 4 46l13 73q9 53 39.5 85.5t67.5 38.5q-58 9 -58 78q0 19 4 38l16 93q23 131 169 131h111q125 0 125 -98q0 -15 -3 -33l-16 -93q-9 -53 -33.5 -81.5t-61.5 -34.5q29 -5 47.5 -29t18.5 -63q0 -16 -3 -32l-13 -73q-15 -82 -60.5 -123
t-125.5 -41h-107zM430 241q1 5 1.5 10.5t0.5 10.5q0 30 -18 48.5t-54 18.5h-94q-42 0 -68.5 -24.5t-33.5 -63.5l-13 -74q-2 -7 -2 -13v-11q0 -63 72 -63h96q85 0 100 87zM479 545q1 5 1.5 10t0.5 10q0 56 -61 56h-111q-72 0 -86 -76l-15 -80q-1 -5 -1.5 -10t-0.5 -10
q0 -26 15.5 -41t47.5 -15h109q39 0 59 20.5t27 55.5z" />
    <glyph glyph-name="nine" unicode="9" horiz-adv-x="508" 
d="M196 0q-63 0 -96 25.5t-33 79.5q0 9 1 19t3 21l12 73h76l-12 -73q-1 -5 -1.5 -8.5t-0.5 -7.5q0 -50 64 -50h113q76 0 90 75l27 153h-200q-60 0 -90.5 22.5t-30.5 74.5q0 21 4 41l18 100q14 80 59.5 118t119.5 38h114q129 0 129 -117q0 -25 -4 -48l-68 -382
q-27 -154 -182 -154h-112zM480 536q1 7 1.5 13.5t0.5 11.5q0 60 -64 60h-115q-73 0 -87 -77l-17 -98q-1 -5 -1.5 -9.5t-0.5 -9.5q0 -50 59 -50h195z" />
    <glyph glyph-name="colon" unicode=":" horiz-adv-x="211" 
d="M70 0l26 150h76l-26 -150h-76zM129 333l26 150h76l-26 -150h-76z" />
    <glyph glyph-name="semicolon" unicode=";" horiz-adv-x="208" 
d="M39 -93l57 243h79l-77 -243h-59zM129 333l26 150h76l-26 -150h-76z" />
    <glyph glyph-name="less" unicode="&#x3c;" horiz-adv-x="617" 
d="M101 313l10 58l568 237l-15 -85l-431 -180l368 -181l-15 -84z" />
    <glyph glyph-name="equal" unicode="=" horiz-adv-x="617" 
d="M82 203l13 77h526l-13 -77h-526zM124 440l13 77h526l-13 -77h-526z" />
    <glyph glyph-name="greater" unicode="&#x3e;" horiz-adv-x="617" 
d="M60 78l15 84l430 181l-367 180l15 85l484 -237l-10 -58z" />
    <glyph glyph-name="question" unicode="?" horiz-adv-x="485" 
d="M184 206l6 30q11 68 48 100t109 32q48 0 73 19t33 57l17 92q1 7 1.5 13t0.5 12q0 60 -57 60h-122q-71 0 -85 -77l-11 -61h-76l8 47q8 49 24 81.5t40 52.5t57 28.5t77 8.5h67q42 0 71.5 -5.5t48 -18.5t27.5 -35.5t9 -55.5q0 -36 -9 -85l-10 -57q-24 -135 -160 -144
q-21 -2 -39 -4.5t-32.5 -9.5t-24 -20.5t-13.5 -36.5l-4 -23h-74zM147 0l26 150h76l-26 -150h-76z" />
    <glyph glyph-name="at" unicode="@" horiz-adv-x="554" 
d="M171 0q-60 0 -85.5 23.5t-25.5 67.5q0 15 3 35l83 470q10 56 39 80.5t82 24.5h272q42 0 62.5 -14.5t20.5 -52.5q0 -8 -1 -17.5t-3 -20.5l-66 -377h-222q-35 0 -48 11t-13 31q0 5 0.5 10t1.5 10l28 160q5 28 25 44.5t62 16.5h152l15 88q1 5 1 8.5v6.5q0 19 -9.5 26.5
t-28.5 7.5h-233q-53 0 -62 -54l-78 -441q-1 -5 -1.5 -10t-0.5 -10q0 -53 60 -53h325l-13 -71h-342zM529 453h-125q-20 0 -30.5 -8t-14.5 -28l-21 -114q-1 -3 -1 -9q0 -11 7.5 -16.5t27.5 -5.5h125z" />
    <glyph glyph-name="A" unicode="A" 
d="M400 0l-12 139h-235l-60 -139h-77l310 701h90l68 -701h-84zM350 593l-169 -388h201z" />
    <glyph glyph-name="B" unicode="B" horiz-adv-x="506" 
d="M49 0l124 701h258q126 0 126 -98q0 -15 -3 -33l-16 -90q-9 -52 -34 -81t-61 -35q29 -5 47 -28.5t18 -62.5q0 -15 -3 -33l-13 -76q-29 -164 -187 -164h-256zM427 240q1 5 1.5 10.5t0.5 10.5q0 31 -18 49.5t-54 18.5h-172l-44 -249h173q85 0 100 87zM476 545q1 6 1.5 11
t0.5 10q0 55 -62 55h-180l-39 -225h179q38 0 59 21t28 56z" />
    <glyph glyph-name="C" unicode="C" horiz-adv-x="469" 
d="M212 0q-143 0 -143 123q0 20 5 48l64 364q29 166 193 166h218l-15 -80h-218q-85 0 -100 -86l-64 -364q-3 -15 -3 -26q0 -65 74 -65h218l-14 -80h-215z" />
    <glyph glyph-name="D" unicode="D" horiz-adv-x="513" 
d="M49 0l124 701h236q155 0 155 -137q0 -12 -1.5 -26t-3.5 -28l-56 -319q-33 -191 -222 -191h-232zM480 510q3 16 3 32q0 79 -89 79h-158l-95 -541h156q107 0 127 111z" />
    <glyph glyph-name="E" unicode="E" horiz-adv-x="478" 
d="M49 0l124 701h390l-15 -80h-312l-40 -228h186l-13 -74h-186l-42 -239h312l-14 -80h-390z" />
    <glyph glyph-name="F" unicode="F" horiz-adv-x="432" 
d="M49 0l124 701h361l-15 -80h-283l-43 -245h186l-13 -74h-186l-53 -302h-78z" />
    <glyph glyph-name="G" unicode="G" horiz-adv-x="505" 
d="M212 0q-143 0 -143 123q0 20 5 48l63 359q30 171 194 171h239l-15 -80h-239q-85 0 -101 -91l-63 -359q-3 -15 -3 -26q0 -65 74 -65h178l43 242h-145l13 73h218l-70 -395h-248z" />
    <glyph glyph-name="H" unicode="H" horiz-adv-x="514" 
d="M386 0l56 315h-259l-56 -315h-78l124 701h78l-55 -310h259l55 310h79l-124 -701h-79z" />
    <glyph glyph-name="I" unicode="I" horiz-adv-x="186" 
d="M54 0l124 701h78l-124 -701h-78z" />
    <glyph glyph-name="J" unicode="J" horiz-adv-x="443" 
d="M27 0l14 80h205q87 0 103 91l79 450h-161l15 80h239l-94 -530q-30 -171 -198 -171h-202z" />
    <glyph glyph-name="K" unicode="K" horiz-adv-x="492" 
d="M365 0l40 226q1 5 1.5 10.5t0.5 10.5q0 30 -17.5 47t-52.5 17h-155l-55 -311h-78l124 701h78l-59 -330l297 330h88l-306 -329h77q72 0 105 -27.5t33 -79.5q0 -17 -3 -36l-40 -229h-78z" />
    <glyph glyph-name="L" unicode="L" horiz-adv-x="383" 
d="M49 0l124 701h77l-110 -621h235l-14 -80h-312z" />
    <glyph glyph-name="M" unicode="M" horiz-adv-x="619" 
d="M504 0l98 558l-253 -558h-79l-55 559l-99 -559h-71l124 701h103l54 -615l273 615h99l-124 -701h-70z" />
    <glyph glyph-name="N" unicode="N" horiz-adv-x="498" 
d="M378 0l-164 555l-98 -555h-71l124 701h84l159 -534l95 534h70l-124 -701h-75z" />
    <glyph glyph-name="O" unicode="O" horiz-adv-x="527" 
d="M192 0q-66 0 -95.5 30t-29.5 83q0 22 4 41l69 392q12 71 55.5 113t120.5 42h143q65 0 94.5 -30t29.5 -83q0 -22 -4 -42l-69 -392q-12 -70 -55 -112t-120 -42h-143zM501 546q1 6 1.5 12t0.5 11q0 52 -59 52h-143q-35 0 -56 -20t-27 -55l-69 -391q-2 -6 -2 -12v-11
q0 -52 59 -52h143q35 0 56 20t27 55z" />
    <glyph glyph-name="P" unicode="P" horiz-adv-x="490" 
d="M49 0l124 701h259q129 0 129 -119q0 -11 -1.5 -24.5t-3.5 -27.5l-17 -99q-29 -165 -184 -165h-181l-47 -266h-78zM477 529q3 16 3 29q0 63 -64 63h-180l-49 -281h180q76 0 93 91z" />
    <glyph glyph-name="Q" unicode="Q" horiz-adv-x="563" 
d="M197 0q-66 0 -95.5 30.5t-29.5 81.5q0 20 4 39l70 398q12 68 55 110t117 42h146q63 0 92 -30.5t29 -82.5q0 -9 -1 -18.5t-3 -20.5l-83 -472h69l-14 -77h-356zM504 549q1 5 1.5 9.5t0.5 9.5q0 25 -14 39t-43 14h-146q-34 0 -53.5 -19.5t-25.5 -52.5l-71 -400
q-1 -5 -1.5 -9t-0.5 -9q0 -26 14 -40t43 -14h213z" />
    <glyph glyph-name="R" unicode="R" horiz-adv-x="505" 
d="M385 0l34 190q1 5 1.5 10t0.5 10q0 31 -18.5 50t-54.5 19h-172l-49 -279h-78l124 701h251q129 0 129 -110q0 -23 -4 -46l-19 -107q-10 -55 -34.5 -83.5t-60.5 -36.5q29 -4 47 -28t18 -63q0 -17 -3 -33l-34 -194h-78zM473 529q3 15 3 28q0 64 -67 64h-173l-47 -268h179
q38 0 60 20.5t28 55.5z" />
    <glyph glyph-name="S" unicode="S" horiz-adv-x="493" 
d="M41 0l14 80h244q45 0 73 23t36 70l10 61q1 6 1.5 11.5t0.5 10.5q0 59 -73 59h-99q-134 0 -134 115q0 22 4 42l10 54q16 88 63.5 131.5t132.5 43.5h231l-15 -80h-231q-45 0 -69.5 -23.5t-33.5 -71.5l-10 -54q-2 -6 -2 -12v-11q0 -60 74 -60h99q133 0 133 -113
q0 -10 -1 -20.5t-3 -21.5l-10 -61q-14 -87 -65 -130t-136 -43h-244z" />
    <glyph glyph-name="T" unicode="T" horiz-adv-x="434" 
d="M177 0l109 621h-155l15 80h390l-15 -80h-157l-109 -621h-78z" />
    <glyph glyph-name="U" unicode="U" horiz-adv-x="522" 
d="M214 0q-143 0 -143 123q0 20 5 48l94 530h78l-94 -530q-3 -15 -3 -26q0 -65 75 -65h99q87 0 103 91l94 530h78l-94 -530q-30 -171 -198 -171h-94z" />
    <glyph glyph-name="V" unicode="V" 
d="M208 0l-68 701h85l51 -584l254 584h78l-310 -701h-90z" />
    <glyph glyph-name="W" unicode="W" horiz-adv-x="776" 
d="M513 0l-27 545l-224 -545h-85l-37 701h81l23 -574l235 574h72l30 -574l227 574h76l-283 -701h-88z" />
    <glyph glyph-name="X" unicode="X" horiz-adv-x="485" 
d="M376 0l-85 288l-196 -288h-81l252 357l-109 344h88l85 -275l188 275h77l-239 -344l112 -357h-92z" />
    <glyph glyph-name="Y" unicode="Y" horiz-adv-x="491" 
d="M205 0l57 323l-126 378h85l99 -294l204 294h79l-263 -378l-57 -323h-78z" />
    <glyph glyph-name="Z" unicode="Z" horiz-adv-x="446" 
d="M36 0l11 63l374 558h-276l15 80h373l-8 -45l-383 -576h281l-14 -80h-373z" />
    <glyph glyph-name="bracketleft" unicode="[" horiz-adv-x="360" 
d="M74 -150l176 998h214l-12 -64h-137l-153 -868h137l-11 -66h-214z" />
    <glyph glyph-name="backslash" unicode="\" horiz-adv-x="463" 
d="M371 -28l-236 756h78l238 -756h-80z" />
    <glyph glyph-name="bracketright" unicode="]" horiz-adv-x="361" 
d="M20 -150l11 66h136l153 868h-136l12 64h214l-176 -998h-214z" />
    <glyph glyph-name="asciicircum" unicode="^" horiz-adv-x="569" 
d="M490 258l-101 349l-225 -349h-70l282 443h59l130 -443h-75z" />
    <glyph glyph-name="underscore" unicode="_" horiz-adv-x="462" 
d="M-22 -123l10 57h464l-10 -57h-464z" />
    <glyph glyph-name="grave" unicode="`" horiz-adv-x="334" 
d="M162 696l35 40l201 -154l-25 -26z" />
    <glyph glyph-name="a" unicode="a" horiz-adv-x="479" 
d="M161 0q-104 0 -104 87q0 16 3 34l14 75q11 57 45 85.5t97 28.5h199l7 39q2 7 2 13.5v12.5q0 60 -64 60h-215l13 78h215q126 0 126 -114q0 -11 -1 -22.5t-3 -24.5l-62 -352h-272zM403 244h-193q-58 0 -69 -61l-9 -52q-1 -5 -1.5 -9t-0.5 -8q0 -42 50 -42h193z" />
    <glyph glyph-name="b" unicode="b" horiz-adv-x="484" 
d="M49 0l124 701h75l-34 -188h166q126 0 126 -114q0 -11 -1 -22.5t-3 -24.5l-34 -191q-29 -161 -178 -161h-241zM427 349q1 7 1.5 13.5t0.5 12.5q0 60 -65 60h-163l-63 -358h163q78 0 93 86z" />
    <glyph glyph-name="c" unicode="c" horiz-adv-x="419" 
d="M194 0q-126 0 -126 115q0 23 4 46l33 186q30 166 179 166h180l-13 -78h-178q-77 0 -93 -91l-32 -181q-3 -14 -3 -26q0 -60 65 -60h180l-14 -77h-182z" />
    <glyph glyph-name="d" unicode="d" horiz-adv-x="484" 
d="M194 0q-126 0 -126 115q0 23 4 46l34 191q29 161 178 161h165l34 188h76l-124 -701h-241zM436 435h-162q-78 0 -93 -86l-33 -186q-3 -14 -3 -26q0 -60 66 -60h162z" />
    <glyph glyph-name="e" unicode="e" horiz-adv-x="480" 
d="M194 0q-126 0 -126 115q0 23 4 46l34 191q29 161 178 161h91q127 0 127 -114q0 -24 -4 -47l-22 -127h-319l-11 -62q-3 -14 -3 -26q0 -60 65 -60h228l-14 -77h-228zM426 354q2 7 2 13.5v12.5q0 60 -64 60h-92q-78 0 -93 -86l-11 -63h247z" />
    <glyph glyph-name="f" unicode="f" horiz-adv-x="279" 
d="M46 0l98 554q25 147 160 147h69l-13 -69h-67q-63 0 -75 -70l-9 -49h137l-11 -66h-134l-79 -447h-76z" />
    <glyph glyph-name="g" unicode="g" horiz-adv-x="485" 
d="M101 -159l12 71h158q36 0 59.5 23t31.5 68l7 42h-167q-127 0 -127 111q0 11 1.5 22t3.5 24l26 150q27 161 178 161h243l-89 -507q-29 -165 -172 -165h-165zM438 435h-164q-78 0 -93 -86l-27 -150q-3 -14 -3 -25q0 -59 66 -59h164z" />
    <glyph glyph-name="h" unicode="h" 
d="M379 0l62 351q3 18 3 31q0 53 -48 53h-125q-39 0 -58 -20.5t-27 -64.5l-62 -350h-75l124 701h75l-45 -251q21 35 47 49t70 14h108q94 0 94 -104q0 -12 -1.5 -25t-3.5 -28l-63 -356h-75z" />
    <glyph glyph-name="i" unicode="i" horiz-adv-x="184" 
d="M156 581l22 120h76l-22 -120h-76zM54 0l90 513h76l-90 -513h-76z" />
    <glyph glyph-name="j" unicode="j" horiz-adv-x="214" 
d="M-68 -159l12 71h54q36 0 60 23t32 68l89 510h76l-89 -507q-29 -165 -172 -165h-62zM191 581l22 120h76l-22 -120h-76z" />
    <glyph glyph-name="k" unicode="k" horiz-adv-x="475" 
d="M360 0l23 133q2 12 3.5 22t0.5 19q0 35 -17.5 46.5t-50.5 11.5h-154l-41 -232h-75l124 701h75l-73 -411l268 223h93l-278 -222h90q62 0 89.5 -30.5t27.5 -77.5q0 -16 -3 -32l-27 -151h-75z" />
    <glyph glyph-name="l" unicode="l" horiz-adv-x="174" 
d="M49 0l124 701h75l-124 -701h-75z" />
    <glyph glyph-name="m" unicode="m" horiz-adv-x="744" 
d="M622 0l62 351q3 16 3 30q0 54 -48 54h-90q-29 0 -49 -19.5t-28 -64.5l-62 -351h-74l62 351q3 16 3 30q0 54 -49 54h-81q-39 0 -58 -20.5t-27 -64.5l-62 -350h-75l90 513h72l-11 -63q21 35 47.5 49t69.5 14h68q38 0 60 -18.5t26 -56.5q20 42 51.5 58.5t73.5 16.5h75
q94 0 94 -104q0 -12 -1.5 -25t-3.5 -28l-63 -356h-75z" />
    <glyph glyph-name="n" unicode="n" horiz-adv-x="502" 
d="M381 0l62 351q3 16 3 30q0 54 -48 54h-127q-39 0 -58 -20.5t-27 -64.5l-62 -350h-75l90 513h72l-11 -63q21 35 47.5 49t69.5 14h113q93 0 93 -103q0 -12 -1.5 -25.5t-3.5 -28.5l-63 -356h-74z" />
    <glyph glyph-name="o" unicode="o" horiz-adv-x="492" 
d="M210 0q-79 0 -111 23t-32 79q0 15 2 33t6 39l29 165q9 51 23 85t36.5 53.5t56 27.5t80.5 8h72q79 0 111 -23.5t32 -80.5q0 -32 -7 -70l-29 -165q-16 -87 -53.5 -130.5t-114.5 -43.5h-101zM435 352q3 19 3 34q0 27 -12.5 38t-40.5 11h-125q-65 0 -77 -71l-36 -204
q-3 -20 -3 -33q0 -27 12.5 -38.5t40.5 -11.5h125q65 0 77 71z" />
    <glyph glyph-name="p" unicode="p" horiz-adv-x="483" 
d="M124 0l-28 -160h-75l118 673h240q66 0 95 -30.5t29 -91.5q0 -17 -2 -36t-6 -40l-28 -154q-15 -81 -58.5 -121t-119.5 -40h-165zM422 330q2 11 3 21.5t1 19.5q0 31 -14 47.5t-48 16.5h-163l-63 -358h163q77 0 92 86z" />
    <glyph glyph-name="q" unicode="q" horiz-adv-x="485" 
d="M333 -160l28 160h-167q-126 0 -126 115q0 23 4 46l34 191q29 161 178 161h242l-118 -673h-75zM438 435h-164q-78 0 -93 -86l-33 -186q-3 -14 -3 -26q0 -60 66 -60h164z" />
    <glyph glyph-name="r" unicode="r" horiz-adv-x="360" 
d="M49 0l90 513h72l-11 -63q21 35 47.5 49t69.5 14h105l-13 -78h-138q-39 0 -58 -20.5t-27 -64.5l-62 -350h-75z" />
    <glyph glyph-name="s" unicode="s" horiz-adv-x="477" 
d="M46 0l14 77h258q30 0 49 15t24 44l6 36q1 5 1 13q0 22 -14 33t-40 11h-130q-58 0 -90 18.5t-32 67.5q0 8 1 16t3 18l4 23q7 41 20.5 68t35 43.5t51 23t68.5 6.5h230l-13 -78h-250q-59 0 -71 -62l-3 -16q-1 -5 -1.5 -8.5t-0.5 -7.5q0 -23 14.5 -36.5t44.5 -13.5h133
q54 0 84.5 -18.5t30.5 -65.5q0 -14 -3 -29l-5 -33q-14 -73 -50.5 -109t-108.5 -36h-260z" />
    <glyph glyph-name="t" unicode="t" horiz-adv-x="289" 
d="M189 0q-119 0 -119 114q0 11 1.5 23.5t3.5 26.5l92 524h76l-31 -175h129l-11 -66h-129l-51 -286q-3 -15 -3 -27q0 -63 62 -63h53l-13 -71h-60z" />
    <glyph glyph-name="u" unicode="u" horiz-adv-x="494" 
d="M372 0l11 62q-20 -35 -46.5 -48.5t-70.5 -13.5h-104q-94 0 -94 101q0 24 6 56l62 356h74l-62 -352q-3 -17 -3 -28q0 -56 50 -56h118q39 0 58.5 21t27.5 64l61 351h75l-90 -513h-73z" />
    <glyph glyph-name="v" unicode="v" horiz-adv-x="459" 
d="M191 0l-85 513h83l60 -413l204 413h80l-264 -513h-78z" />
    <glyph glyph-name="w" unicode="w" horiz-adv-x="686" 
d="M447 0l-35 400l-177 -400h-72l-57 513h78l37 -407l178 407h70l37 -407l179 407h75l-237 -513h-76z" />
    <glyph glyph-name="x" unicode="x" horiz-adv-x="469" 
d="M358 0l-90 208l-168 -208h-81l221 260l-115 253h87l89 -202l163 202h77l-213 -253l120 -260h-90z" />
    <glyph glyph-name="y" unicode="y" horiz-adv-x="480" 
d="M109 -159l12 71h145q36 0 59.5 23t31.5 68l7 42h-160q-127 0 -127 111q0 11 1.5 22t3.5 24l54 311h75l-55 -314q-3 -14 -3 -25q0 -59 66 -59h157l70 398h76l-89 -507q-29 -165 -172 -165h-152z" />
    <glyph glyph-name="z" unicode="z" horiz-adv-x="432" 
d="M36 0l9 52l321 386h-253l13 75h360l-8 -47l-322 -392h253l-13 -74h-360z" />
    <glyph glyph-name="braceleft" unicode="{" horiz-adv-x="404" 
d="M253 -150q-21 0 -42.5 5.5t-38 19t-27 35.5t-10.5 56q0 22 4 42l41 233q2 15 4 26.5t1 21.5q0 35 -21 35h-41l13 74h41q32 0 45 77l40 230q7 40 24 67.5t40.5 44t49.5 24t51 7.5h82l-13 -69h-64q-32 0 -61 -30.5t-41 -99.5l-34 -194q-12 -68 -58 -96q28 -21 28 -61
q0 -15 -3 -34l-41 -228q-4 -20 -4 -39q0 -42 18 -59.5t43 -17.5h66l-12 -70h-80z" />
    <glyph glyph-name="bar" unicode="|" horiz-adv-x="377" 
d="M122 -127l172 976h87l-172 -976h-87z" />
    <glyph glyph-name="braceright" unicode="}" horiz-adv-x="404" 
d="M20 -150l12 70h64q15 0 30 6t28.5 20t23.5 36t16 54l41 228q6 36 18.5 58t37.5 37q-26 19 -26 61q0 15 3 35l34 194q4 23 4 46q0 44 -17 64t-43 20h-63l13 69h79q22 0 43 -5.5t37.5 -18.5t26.5 -33.5t10 -50.5q0 -16 -3 -35l-40 -230q-5 -28 -5 -42q0 -35 22 -35h42
l-13 -74h-42q-15 0 -26.5 -19t-19.5 -64l-41 -233q-8 -47 -26 -77.5t-41.5 -48.5t-49.5 -25t-51 -7h-78z" />
    <glyph glyph-name="asciitilde" unicode="~" horiz-adv-x="617" 
d="M633 344q-29 -32 -70.5 -49t-91.5 -17q-32 0 -59 14t-52.5 31.5t-53 31.5t-60.5 14q-39 0 -74.5 -17t-74.5 -65l16 93q24 29 59 46.5t84 17.5q38 0 67 -14.5t55.5 -32t52.5 -32t57 -14.5q48 0 87.5 21.5t74.5 71.5z" />
    <glyph glyph-name="nonbreakingspace" unicode="&#xa0;" horiz-adv-x="192" 
 />
    <glyph glyph-name="exclamdown" unicode="&#xa1;" horiz-adv-x="218" 
d="M72 0zM235.007 495.013l-87.9951 -494.97h-74.9951l87.9941 494.97h74.9961zM271.004 701l-25.998 -149.991h-75.9951l25.998 149.991h75.9951z" />
    <glyph glyph-name="cent" unicode="&#xa2;" horiz-adv-x="503" 
d="M317 67l-12 -67h-44l12 67h-50q-73 0 -107 31t-34 95q0 26 6 59l35 197q17 93 64.5 139t135.5 46h50l12 67h44l-12 -67h151l-14 -80h-228q-52 0 -80 -28t-38 -85l-32 -182q-4 -19 -4 -38q0 -74 82 -74h228l-14 -80h-151z" />
    <glyph glyph-name="sterling" unicode="&#xa3;" horiz-adv-x="593" 
d="M50 0l17 98h85l38 212h-86l13 74h86l15 89q39 228 247 228h204l-18 -98h-182q-123 0 -147 -141l-13 -78h298l-13 -74h-298l-38 -212h301l-17 -98h-492z" />
    <glyph glyph-name="currency" unicode="&#xa4;" horiz-adv-x="494" 
d="M382 202q-24 -14 -50.5 -22t-53.5 -8q-28 0 -51.5 8.5t-41.5 22.5l-73 -62l-34 42l69 59q-20 31 -20 74q0 33 14.5 62.5t39.5 53.5l-48 60l48 43l51 -64q23 14 50 22t54 8t50.5 -7.5t41.5 -21.5l72 63l35 -43l-69 -59q11 -14 16.5 -34t5.5 -41q0 -33 -15 -63t-40 -54
l47 -58l-49 -42zM436 353q0 44 -29.5 74t-77.5 30q-29 0 -56 -11t-48 -30t-33.5 -43.5t-12.5 -52.5q0 -44 29.5 -74t77.5 -30q30 0 57 11t47.5 29.5t33 43.5t12.5 53z" />
    <glyph glyph-name="yen" unicode="&#xa5;" horiz-adv-x="702" 
d="M300 0l44 249h-199l10 58h199l12 69l-193 326h105l154 -266l249 266h95l-302 -318l-14 -77h193l-10 -58h-193l-44 -249h-106z" />
    <glyph glyph-name="brokenbar" unicode="&#xa6;" horiz-adv-x="377" 
d="M121 -127l84 474h87l-84 -474h-87zM300 396h-87l80 453h87z" />
    <glyph glyph-name="section" unicode="&#xa7;" horiz-adv-x="532" 
d="M161 -180l14 78h111q51 0 75 23.5t32 70.5l16 91h-168q-44 0 -74.5 7.5t-49.5 21.5t-27 35t-8 48q0 20 5 48l53 299q13 77 54.5 118t130.5 41h137l-14 -78h-111q-50 0 -74 -24t-32 -71l-16 -91h166q89 0 124.5 -29t35.5 -84q0 -23 -4 -46l-53 -300q-7 -38 -20 -67.5
t-35 -49.5t-54 -30.5t-77 -10.5h-137zM441 267q3 16 3 30q0 32 -17.5 48.5t-58.5 16.5h-166l-19 -109q-3 -17 -3 -31q0 -32 17.5 -48t57.5 -16h167z" />
    <glyph glyph-name="dieresis" unicode="&#xa8;" horiz-adv-x="390" 
d="M369 586l21 119h80l-21 -119h-80zM149 586l21 119h81l-21 -119h-81z" />
    <glyph glyph-name="ordfeminine" unicode="&#xaa;" horiz-adv-x="323" 
d="M171 300q-58 0 -58 48q0 5 0.5 9.5t1.5 9.5l7 41q10 62 79 62h109l4 22q1 5 1 8.5v6.5q0 32 -34 32h-119l7 43h119q69 0 69 -63q0 -6 -0.5 -12t-1.5 -13l-35 -194h-149zM304 434h-106q-32 0 -38 -33l-5 -29q-1 -4 -1 -10q0 -22 27 -22h106z" />
    <glyph glyph-name="guillemotleft" unicode="&#xab;" horiz-adv-x="592" 
d="M86 90zM227 90l-141 240l225 239l47 -51l-180 -188l114 -190zM523 90l-141 240l225 239l47 -51l-180 -188l114 -190z" />
    <glyph glyph-name="logicalnot" unicode="&#xac;" horiz-adv-x="611" 
d="M471 0l63 357h-422l10 55h478l-73 -412h-56z" />
    <glyph glyph-name="macron" unicode="&#xaf;" horiz-adv-x="421" 
d="M155 618l11 60h329l-11 -60h-329z" />
    <glyph glyph-name="degree" unicode="&#xb0;" horiz-adv-x="361" 
d="M429 634q0 -29 -9 -56.5t-28.5 -49t-50.5 -34.5t-75 -13q-62 0 -88.5 30t-26.5 74q0 29 8.5 56.5t28 48.5t49.5 34t74 13q64 0 91 -29.5t27 -73.5zM382 627q0 29 -18 48.5t-60 19.5q-29 0 -49 -8.5t-32.5 -22.5t-18 -32.5t-5.5 -38.5q0 -30 16.5 -50t57.5 -20
q29 0 49.5 9t34 23.5t19.5 33t6 38.5z" />
    <glyph glyph-name="plusminus" unicode="&#xb1;" horiz-adv-x="617" 
d="M44 0zM288 98l40 225h-225l13 76h225l40 225h77l-40 -225h224l-13 -76h-224l-40 -225h-77zM44 -16l14 76h526l-14 -76h-526z" />
    <glyph glyph-name="twosuperior" unicode="&#xb2;" horiz-adv-x="286" 
d="M101 361zM101 361l19 110q7 38 29 57t64 19h49q43 0 51 46l5 32q1 5 1 15q0 31 -37 31h-46q-41 0 -48 -42l-5 -27h-38l5 27q8 43 30.5 62.5t63.5 19.5h45q70 0 70 -60v-12.5t-2 -13.5l-5 -32q-6 -39 -30.5 -60t-62.5 -21h-50q-23 0 -34.5 -10t-15.5 -31l-12 -70h168
l-7 -40h-207z" />
    <glyph glyph-name="threesuperior" unicode="&#xb3;" horiz-adv-x="284" 
d="M111 361zM175 361q-64 0 -64 53q0 5 0.5 10t1.5 10l6 36h38l-6 -36q-1 -3 -1 -8q0 -25 32 -25h55q41 0 50 43l7 37q0 2 0.5 4.5t0.5 5.5q0 15 -9 24.5t-27 9.5h-53l5 30h56q20 0 30.5 10.5t13.5 27.5l7 40q0 2 0.5 5t0.5 5q0 28 -31 28h-58q-36 0 -42 -36l-6 -33h-38
l6 33q13 76 87 76h58q64 0 64 -48q0 -5 -0.5 -8.5t-1.5 -8.5l-8 -47q-5 -26 -17.5 -40.5t-30.5 -17.5q15 -3 24 -15t9 -32v-7t-1 -8l-7 -36q-16 -82 -93 -82h-58z" />
    <glyph glyph-name="acute" unicode="&#xb4;" horiz-adv-x="337" 
d="M157 556l-15 26l255 154l21 -40z" />
    <glyph glyph-name="mu" unicode="&#x3bc;" horiz-adv-x="497" 
d="M375 0l11 62q-20 -35 -47 -48.5t-70 -13.5h-82q-43 0 -58 33l-34 -193h-74l118 673h74l-62 -352q-3 -15 -3 -27q0 -57 50 -57h118q39 0 58.5 21t27.5 64l61 351h75l-90 -513h-73z" />
    <glyph glyph-name="paragraph" unicode="&#xb6;" horiz-adv-x="514" 
d="M370 -129l136 771h-164l-136 -771h-64l102 578q-60 6 -87.5 34t-27.5 73q0 29 9 55.5t29.5 46.5t53.5 32t82 12h278l-147 -831h-64z" />
    <glyph glyph-name="periodcentered" unicode="&#xb7;" horiz-adv-x="185" 
d="M103 280l26 150h76l-26 -150h-76z" />
    <glyph glyph-name="cedilla" unicode="&#xb8;" horiz-adv-x="172" 
d="M-2 -234l43 194h89l-69 -194h-63z" />
    <glyph glyph-name="onesuperior" unicode="&#xb9;" horiz-adv-x="170" 
d="M150 361zM151 361l54 310h-55l7 40h94l-61 -350h-39z" />
    <glyph glyph-name="ordmasculine" unicode="&#xba;" horiz-adv-x="331" 
d="M198 300q-45 0 -62 12.5t-17 44.5q0 19 4 39l16 90q5 28 12.5 47t20.5 29.5t31.5 15t44.5 4.5h39q43 0 60.5 -12.5t17.5 -43.5q0 -20 -4 -40l-16 -90q-8 -48 -28.5 -72t-63.5 -24h-55zM322 494q1 5 1 8.5v6.5q0 30 -29 30h-68q-36 0 -43 -39l-20 -112q-1 -5 -1.5 -8.5
t-0.5 -7.5q0 -30 30 -30h68q35 0 43 39z" />
    <glyph glyph-name="guillemotright" unicode="&#xbb;" horiz-adv-x="592" 
d="M54 90zM54 141l180 189l-114 188l66 51l140 -239l-224 -240zM350 141l180 189l-114 188l66 51l140 -239l-224 -240z" />
    <glyph glyph-name="onequarter" unicode="&#xbc;" horiz-adv-x="776" 
d="M38 0zM219 361l54 310h-55l7 40h94l-61 -350h-39zM38 -32l739 769h75l-739 -769h-75zM665 -10l11 63h-152l5 31l189 256h46l-44 -253h27l-6 -34h-27l-11 -63h-38zM717 285l-150 -198h115z" />
    <glyph glyph-name="onehalf" unicode="&#xbd;" horiz-adv-x="780" 
d="M38 0zM239 361l54 310h-55l7 40h94l-61 -350h-39zM38 -32l739 769h75l-739 -769h-75zM524 -10l19 110q7 38 29 57t64 19h49q43 0 51 46l5 32q1 5 1 15q0 31 -37 31h-46q-41 0 -48 -42l-5 -27h-38l5 27q8 43 30.5 62.5t63.5 19.5h45q70 0 70 -60v-12.5t-2 -13.5l-5 -32
q-6 -39 -30.5 -60t-62.5 -21h-50q-23 0 -34.5 -10t-15.5 -31l-12 -70h168l-7 -40h-207z" />
    <glyph glyph-name="threequarters" unicode="&#xbe;" horiz-adv-x="766" 
d="M38 0zM189 361q-64 0 -64 53q0 5 0.5 10t1.5 10l6 36h38l-6 -36q-1 -3 -1 -8q0 -25 32 -25h55q41 0 50 43l7 37q0 2 0.5 4.5t0.5 5.5q0 15 -9 24.5t-27 9.5h-53l5 30h56q20 0 30.5 10.5t13.5 27.5l7 40q0 2 0.5 5t0.5 5q0 28 -31 28h-58q-36 0 -42 -36l-6 -33h-38l6 33
q13 76 87 76h58q64 0 64 -48q0 -5 -0.5 -8.5t-1.5 -8.5l-8 -47q-5 -26 -17.5 -40.5t-30.5 -17.5q15 -3 24 -15t9 -32v-7t-1 -8l-7 -36q-16 -82 -93 -82h-58zM38 -32l739 769h75l-739 -769h-75zM635 -10l11 63h-152l5 31l189 256h46l-44 -253h27l-6 -34h-27l-11 -63h-38z
M687 285l-150 -198h115z" />
    <glyph glyph-name="questiondown" unicode="&#xbf;" horiz-adv-x="485" 
d="M56 0zM422.012 495.013l-6 -29.998q-10.999 -67.9961 -47.9971 -99.9941t-108.993 -31.998q-47.9971 0 -72.9961 -18.999q-24.998 -18.999 -32.998 -56.9961l-16.999 -91.9941q-1 -7 -1.5 -13q-0.499023 -5.99902 -0.499023 -11.999q0 -59.9961 56.9961 -59.9961h121.992
q70.9961 0 84.9951 76.9951l10.999 60.9961h75.9961l-8 -46.9971q-7.99902 -48.9971 -23.998 -81.4951t-39.998 -52.4961q-23.998 -19.999 -56.9961 -28.499q-32.998 -8.49902 -76.9961 -8.49902h-66.9951q-41.998 0 -71.4961 5.5q-29.498 5.49902 -47.9971 18.498
q-18.499 13 -27.498 35.498q-9 22.499 -9 55.4971q0 35.9971 9 84.9941l9.99902 56.9971q23.999 134.991 159.99 143.991q20.999 2 38.998 4.49902q17.999 2.5 32.498 9.5q14.499 6.99902 23.998 20.499q9.5 13.499 13.499 36.4971l4 22.999h73.9961zM459.009 701
l-25.998 -149.991h-75.9951l25.998 149.991h75.9951z" />
    <glyph glyph-name="Agrave" unicode="&#xc0;" 
d="M16 0zM400 0l-12 139h-235l-60 -139h-77l310 701h90l68 -701h-84zM350 593l-169 -388h201zM248 884l35 40l201 -154l-25 -26z" />
    <glyph glyph-name="Aacute" unicode="&#xc1;" 
d="M16 0zM400 0l-12 139h-235l-60 -139h-77l310 701h90l68 -701h-84zM350 593l-169 -388h201zM303 744l-15 26l255 154l21 -40z" />
    <glyph glyph-name="Acircumflex" unicode="&#xc2;" 
d="M16 0zM400 0l-12 139h-235l-60 -139h-77l310 701h90l68 -701h-84zM350 593l-169 -388h201zM539 744l-137 126l-180 -126l-24 24l192 156h45l136 -156z" />
    <glyph glyph-name="Atilde" unicode="&#xc3;" 
d="M16 0zM400 0l-12 139h-235l-60 -139h-77l310 701h90l68 -701h-84zM350 593l-169 -388h201zM589 865q-14 -33 -44.5 -58.5t-75.5 -25.5q-28 0 -46.5 7.5t-34.5 17t-32.5 17t-40.5 7.5q-25 0 -43.5 -12t-31.5 -39l-37 21q14 33 44.5 57.5t75.5 24.5q27 0 46.5 -7.5
t36 -16.5t33 -16.5t38.5 -7.5q51 0 73 52z" />
    <glyph glyph-name="Adieresis" unicode="&#xc4;" 
d="M16 0zM400 0l-12 139h-235l-60 -139h-77l310 701h90l68 -701h-84zM350 593l-169 -388h201zM456 774l21 119h80l-21 -119h-80zM236 774l21 119h81l-21 -119h-81z" />
    <glyph glyph-name="Aring" unicode="&#xc5;" 
d="M16 0zM400 0l-12 139h-235l-60 -139h-77l310 701h90l68 -701h-84zM350 593l-169 -388h201zM537 861q0 -30 -8 -55.5t-27 -44.5t-50 -29.5t-77 -10.5q-63 0 -90 25t-27 67q0 30 8 55.5t26 44t48.5 29.5t75.5 11q66 0 93.5 -25t27.5 -67zM490 853q0 29 -18 45.5t-63 16.5
q-30 0 -50 -7.5t-32 -20t-17 -30t-5 -37.5q0 -29 17.5 -45.5t59.5 -16.5q61 0 84.5 27.5t23.5 67.5z" />
    <glyph glyph-name="AE" unicode="&#xc6;" horiz-adv-x="815" 
d="M411 0l25 139h-255l-82 -139h-83l419 701h455l-15 -80h-276l-40 -232h151l-12 -66h-151l-43 -243h276l-14 -80h-355zM520 621h-56l-247 -416h230z" />
    <glyph glyph-name="Ccedilla" unicode="&#xc7;" horiz-adv-x="469" 
d="M69 0zM212 0q-143 0 -143 123q0 20 5 48l64 364q29 166 193 166h218l-15 -80h-218q-85 0 -100 -86l-64 -364q-3 -15 -3 -26q0 -65 74 -65h218l-14 -80h-215zM159 -234l43 194h89l-69 -194h-63z" />
    <glyph glyph-name="Egrave" unicode="&#xc8;" horiz-adv-x="478" 
d="M49 0zM49 0l124 701h390l-15 -80h-312l-40 -228h186l-13 -74h-186l-42 -239h312l-14 -80h-390zM237 884l35 40l201 -154l-25 -26z" />
    <glyph glyph-name="Eacute" unicode="&#xc9;" horiz-adv-x="478" 
d="M49 0zM49 0l124 701h390l-15 -80h-312l-40 -228h186l-13 -74h-186l-42 -239h312l-14 -80h-390zM292 744l-15 26l255 154l21 -40z" />
    <glyph glyph-name="Ecircumflex" unicode="&#xca;" horiz-adv-x="478" 
d="M49 0zM49 0l124 701h390l-15 -80h-312l-40 -228h186l-13 -74h-186l-42 -239h312l-14 -80h-390zM538 744l-137 126l-180 -126l-24 24l192 156h45l136 -156z" />
    <glyph glyph-name="Edieresis" unicode="&#xcb;" horiz-adv-x="478" 
d="M49 0zM49 0l124 701h390l-15 -80h-312l-40 -228h186l-13 -74h-186l-42 -239h312l-14 -80h-390zM455 774l21 119h80l-21 -119h-80zM235 774l21 119h81l-21 -119h-81z" />
    <glyph glyph-name="Igrave" unicode="&#xcc;" horiz-adv-x="186" 
d="M54 0zM54 0l124 701h78l-124 -701h-78zM93 884l35 40l201 -154l-25 -26z" />
    <glyph glyph-name="Iacute" unicode="&#xcd;" horiz-adv-x="186" 
d="M54 0zM54 0l124 701h78l-124 -701h-78zM148 744l-15 26l255 154l21 -40z" />
    <glyph glyph-name="Icircumflex" unicode="&#xce;" horiz-adv-x="186" 
d="M44 0zM54 0l124 701h78l-124 -701h-78zM385 744l-137 126l-180 -126l-24 24l192 156h45l136 -156z" />
    <glyph glyph-name="Idieresis" unicode="&#xcf;" horiz-adv-x="186" 
d="M54 0zM54 0l124 701h78l-124 -701h-78zM301 774l21 119h80l-21 -119h-80zM81 774l21 119h81l-21 -119h-81z" />
    <glyph glyph-name="Eth" unicode="&#xd0;" horiz-adv-x="511" 
d="M47 0l56 316h-37l11 65h37l57 320h236q155 0 155 -137q0 -12 -1.5 -26t-3.5 -28l-56 -319q-33 -191 -222 -191h-232zM478 510q3 16 3 32q0 79 -89 79h-158l-42 -240h116l-11 -65h-116l-42 -236h156q107 0 127 111z" />
    <glyph glyph-name="Ntilde" unicode="&#xd1;" horiz-adv-x="498" 
d="M45 0zM378 0l-164 555l-98 -555h-71l124 701h84l159 -534l95 534h70l-124 -701h-75zM588 865q-14 -33 -44.5 -58.5t-75.5 -25.5q-28 0 -46.5 7.5t-34.5 17t-32.5 17t-40.5 7.5q-25 0 -43.5 -12t-31.5 -39l-37 21q14 33 44.5 57.5t75.5 24.5q27 0 46.5 -7.5t36 -16.5
t33 -16.5t38.5 -7.5q51 0 73 52z" />
    <glyph glyph-name="Ograve" unicode="&#xd2;" horiz-adv-x="527" 
d="M67 0zM192 0q-66 0 -95.5 30t-29.5 83q0 22 4 41l69 392q12 71 55.5 113t120.5 42h143q65 0 94.5 -30t29.5 -83q0 -22 -4 -42l-69 -392q-12 -70 -55 -112t-120 -42h-143zM501 546q1 6 1.5 12t0.5 11q0 52 -59 52h-143q-35 0 -56 -20t-27 -55l-69 -391q-2 -6 -2 -12v-11
q0 -52 59 -52h143q35 0 56 20t27 55zM261 884l35 40l201 -154l-25 -26z" />
    <glyph glyph-name="Oacute" unicode="&#xd3;" horiz-adv-x="527" 
d="M67 0zM192 0q-66 0 -95.5 30t-29.5 83q0 22 4 41l69 392q12 71 55.5 113t120.5 42h143q65 0 94.5 -30t29.5 -83q0 -22 -4 -42l-69 -392q-12 -70 -55 -112t-120 -42h-143zM501 546q1 6 1.5 12t0.5 11q0 52 -59 52h-143q-35 0 -56 -20t-27 -55l-69 -391q-2 -6 -2 -12v-11
q0 -52 59 -52h143q35 0 56 20t27 55zM316 744l-15 26l255 154l21 -40z" />
    <glyph glyph-name="Ocircumflex" unicode="&#xd4;" horiz-adv-x="527" 
d="M67 0zM192 0q-66 0 -95.5 30t-29.5 83q0 22 4 41l69 392q12 71 55.5 113t120.5 42h143q65 0 94.5 -30t29.5 -83q0 -22 -4 -42l-69 -392q-12 -70 -55 -112t-120 -42h-143zM501 546q1 6 1.5 12t0.5 11q0 52 -59 52h-143q-35 0 -56 -20t-27 -55l-69 -391q-2 -6 -2 -12v-11
q0 -52 59 -52h143q35 0 56 20t27 55zM553 744l-137 126l-180 -126l-24 24l192 156h45l136 -156z" />
    <glyph glyph-name="Otilde" unicode="&#xd5;" horiz-adv-x="527" 
d="M67 0zM192 0q-66 0 -95.5 30t-29.5 83q0 22 4 41l69 392q12 71 55.5 113t120.5 42h143q65 0 94.5 -30t29.5 -83q0 -22 -4 -42l-69 -392q-12 -70 -55 -112t-120 -42h-143zM501 546q1 6 1.5 12t0.5 11q0 52 -59 52h-143q-35 0 -56 -20t-27 -55l-69 -391q-2 -6 -2 -12v-11
q0 -52 59 -52h143q35 0 56 20t27 55zM603 865q-14 -33 -44.5 -58.5t-75.5 -25.5q-28 0 -46.5 7.5t-34.5 17t-32.5 17t-40.5 7.5q-25 0 -43.5 -12t-31.5 -39l-37 21q14 33 44.5 57.5t75.5 24.5q27 0 46.5 -7.5t36 -16.5t33 -16.5t38.5 -7.5q51 0 73 52z" />
    <glyph glyph-name="Odieresis" unicode="&#xd6;" horiz-adv-x="527" 
d="M67 0zM192 0q-66 0 -95.5 30t-29.5 83q0 22 4 41l69 392q12 71 55.5 113t120.5 42h143q65 0 94.5 -30t29.5 -83q0 -22 -4 -42l-69 -392q-12 -70 -55 -112t-120 -42h-143zM501 546q1 6 1.5 12t0.5 11q0 52 -59 52h-143q-35 0 -56 -20t-27 -55l-69 -391q-2 -6 -2 -12v-11
q0 -52 59 -52h143q35 0 56 20t27 55zM469 774l21 119h80l-21 -119h-80zM249 774l21 119h81l-21 -119h-81z" />
    <glyph glyph-name="multiply" unicode="&#xd7;" horiz-adv-x="617" 
d="M494 148l-131 159l-187 -159l-45 54l187 159l-131 159l65 55l131 -160l186 159l44 -54l-187 -158l132 -159z" />
    <glyph glyph-name="Oslash" unicode="&#xd8;" horiz-adv-x="527" 
d="M192 0q-45 0 -73 15l-43 -63l-40 22l49 71q-18 25 -18 67q0 22 4 42l69 392q12 71 55.5 113t120.5 42h143q42 0 70 -14l42 60l39 -22l-46 -67q19 -26 19 -70q0 -10 -1 -20.5t-3 -21.5l-69 -392q-12 -70 -55 -112t-120 -42h-143zM501 546q1 7 1.5 12.5t0.5 11.5l-334 -483
q14 -7 37 -7h143q35 0 56 20t27 55zM149 155q-2 -6 -2 -11v-10l332 480q-13 7 -35 7h-143q-35 0 -56 -20t-27 -55z" />
    <glyph glyph-name="Ugrave" unicode="&#xd9;" horiz-adv-x="522" 
d="M71 0zM214 0q-143 0 -143 123q0 20 5 48l94 530h78l-94 -530q-3 -15 -3 -26q0 -65 75 -65h99q87 0 103 91l94 530h78l-94 -530q-30 -171 -198 -171h-94zM259 884l35 40l201 -154l-25 -26z" />
    <glyph glyph-name="Uacute" unicode="&#xda;" horiz-adv-x="522" 
d="M71 0zM214 0q-143 0 -143 123q0 20 5 48l94 530h78l-94 -530q-3 -15 -3 -26q0 -65 75 -65h99q87 0 103 91l94 530h78l-94 -530q-30 -171 -198 -171h-94zM314 744l-15 26l255 154l21 -40z" />
    <glyph glyph-name="Ucircumflex" unicode="&#xdb;" horiz-adv-x="522" 
d="M71 0zM214 0q-143 0 -143 123q0 20 5 48l94 530h78l-94 -530q-3 -15 -3 -26q0 -65 75 -65h99q87 0 103 91l94 530h78l-94 -530q-30 -171 -198 -171h-94zM550 744l-137 126l-180 -126l-24 24l192 156h45l136 -156z" />
    <glyph glyph-name="Udieresis" unicode="&#xdc;" horiz-adv-x="522" 
d="M71 0zM214 0q-143 0 -143 123q0 20 5 48l94 530h78l-94 -530q-3 -15 -3 -26q0 -65 75 -65h99q87 0 103 91l94 530h78l-94 -530q-30 -171 -198 -171h-94zM467 774l21 119h80l-21 -119h-80zM247 774l21 119h81l-21 -119h-81z" />
    <glyph glyph-name="Yacute" unicode="&#xdd;" horiz-adv-x="491" 
d="M136 0zM205 0l57 323l-126 378h85l99 -294l204 294h79l-263 -378l-57 -323h-78zM299 744l-15 26l255 154l21 -40z" />
    <glyph glyph-name="Thorn" unicode="&#xde;" horiz-adv-x="495" 
d="M150 133l-23 -133h-78l123 700h78l-20 -118h149q81 0 122 -25t41 -91q0 -11 -1.5 -23t-3.5 -26l-20 -111q-9 -51 -27 -84.5t-44.5 -53t-63 -27.5t-83.5 -8h-149zM457 415q2 8 2 14.5v12.5q0 60 -62 60h-181l-52 -290h181q76 0 93 92z" />
    <glyph glyph-name="germandbls" unicode="&#xdf;" horiz-adv-x="597" 
d="M228 0l14 77h181q77 0 92 86l13 75q1 5 1.5 10.5t0.5 10.5q0 55 -66 55q-96 0 -96 80q0 14 3 31l24 136q1 5 1.5 10t0.5 10q0 51 -54 51h-47q-63 0 -75 -70l-99 -562h-76l98 554q25 147 160 147h57q112 0 112 -104q0 -10 -1 -20.5t-3 -22.5l-23 -127q-1 -4 -1 -7.5v-6.5
q0 -33 32 -33q130 0 130 -102q0 -8 -1 -17.5t-3 -19.5l-14 -80q-29 -161 -178 -161h-183z" />
    <glyph glyph-name="agrave" unicode="&#xe0;" horiz-adv-x="479" 
d="M57 0zM161 0q-104 0 -104 87q0 16 3 34l14 75q11 57 45 85.5t97 28.5h199l7 39q2 7 2 13.5v12.5q0 60 -64 60h-215l13 78h215q126 0 126 -114q0 -11 -1 -22.5t-3 -24.5l-62 -352h-272zM403 244h-193q-58 0 -69 -61l-9 -52q-1 -5 -1.5 -9t-0.5 -8q0 -42 50 -42h193z
M204 696l35 40l201 -154l-25 -26z" />
    <glyph glyph-name="aacute" unicode="&#xe1;" horiz-adv-x="479" 
d="M57 0zM161 0q-104 0 -104 87q0 16 3 34l14 75q11 57 45 85.5t97 28.5h199l7 39q2 7 2 13.5v12.5q0 60 -64 60h-215l13 78h215q126 0 126 -114q0 -11 -1 -22.5t-3 -24.5l-62 -352h-272zM403 244h-193q-58 0 -69 -61l-9 -52q-1 -5 -1.5 -9t-0.5 -8q0 -42 50 -42h193z
M259 556l-15 26l255 154l21 -40z" />
    <glyph glyph-name="acircumflex" unicode="&#xe2;" horiz-adv-x="479" 
d="M57 0zM161 0q-104 0 -104 87q0 16 3 34l14 75q11 57 45 85.5t97 28.5h199l7 39q2 7 2 13.5v12.5q0 60 -64 60h-215l13 78h215q126 0 126 -114q0 -11 -1 -22.5t-3 -24.5l-62 -352h-272zM403 244h-193q-58 0 -69 -61l-9 -52q-1 -5 -1.5 -9t-0.5 -8q0 -42 50 -42h193z
M506 556l-137 126l-180 -126l-24 24l192 156h45l136 -156z" />
    <glyph glyph-name="atilde" unicode="&#xe3;" horiz-adv-x="479" 
d="M57 0zM161 0q-104 0 -104 87q0 16 3 34l14 75q11 57 45 85.5t97 28.5h199l7 39q2 7 2 13.5v12.5q0 60 -64 60h-215l13 78h215q126 0 126 -114q0 -11 -1 -22.5t-3 -24.5l-62 -352h-272zM403 244h-193q-58 0 -69 -61l-9 -52q-1 -5 -1.5 -9t-0.5 -8q0 -42 50 -42h193z
M556 677q-14 -33 -44.5 -58.5t-75.5 -25.5q-28 0 -46.5 7.5t-34.5 17t-32.5 17t-40.5 7.5q-25 0 -43.5 -12t-31.5 -39l-37 21q14 33 44.5 57.5t75.5 24.5q27 0 46.5 -7.5t36 -16.5t33 -16.5t38.5 -7.5q51 0 73 52z" />
    <glyph glyph-name="adieresis" unicode="&#xe4;" horiz-adv-x="479" 
d="M57 0zM161 0q-104 0 -104 87q0 16 3 34l14 75q11 57 45 85.5t97 28.5h199l7 39q2 7 2 13.5v12.5q0 60 -64 60h-215l13 78h215q126 0 126 -114q0 -11 -1 -22.5t-3 -24.5l-62 -352h-272zM403 244h-193q-58 0 -69 -61l-9 -52q-1 -5 -1.5 -9t-0.5 -8q0 -42 50 -42h193z
M422 586l21 119h80l-21 -119h-80zM202 586l21 119h81l-21 -119h-81z" />
    <glyph glyph-name="aring" unicode="&#xe5;" horiz-adv-x="479" 
d="M57 0zM161 0q-104 0 -104 87q0 16 3 34l14 75q11 57 45 85.5t97 28.5h199l7 39q2 7 2 13.5v12.5q0 60 -64 60h-215l13 78h215q126 0 126 -114q0 -11 -1 -22.5t-3 -24.5l-62 -352h-272zM403 244h-193q-58 0 -69 -61l-9 -52q-1 -5 -1.5 -9t-0.5 -8q0 -42 50 -42h193z
M503 673q0 -30 -8 -55.5t-27 -44.5t-50 -29.5t-77 -10.5q-63 0 -90 25t-27 67q0 30 8 55.5t26 44t48.5 29.5t75.5 11q66 0 93.5 -25t27.5 -67zM456 665q0 29 -18 45.5t-63 16.5q-30 0 -50 -7.5t-32 -20t-17 -30t-5 -37.5q0 -29 17.5 -45.5t59.5 -16.5q61 0 84.5 27.5
t23.5 67.5z" />
    <glyph glyph-name="ae" unicode="&#xe6;" horiz-adv-x="797" 
d="M537 0q-48 0 -72.5 15t-32.5 46l-11 -61h-266q-98 0 -98 89q0 19 4 38l12 65q11 57 44.5 85.5t93.5 28.5h203l8 46q1 7 1.5 13t0.5 11q0 59 -64 59h-215l13 78h215q42 0 69 -17t33 -49q17 32 50 49t75 17h92q126 0 126 -114q0 -11 -1 -22.5t-3 -24.5l-22 -124h-319
l-12 -68q-1 -6 -1.5 -12t-0.5 -11q0 -60 65 -60h228l-14 -77h-201zM404 248h-192q-59 0 -70 -61l-10 -56q-1 -5 -1.5 -9t-0.5 -8q0 -42 50 -42h193zM742 354q2 7 2 13.5v12.5q0 60 -63 60h-93q-79 0 -93 -86l-11 -67h247z" />
    <glyph glyph-name="ccedilla" unicode="&#xe7;" horiz-adv-x="419" 
d="M68 0zM194 0q-126 0 -126 115q0 23 4 46l33 186q30 166 179 166h180l-13 -78h-178q-77 0 -93 -91l-32 -181q-3 -14 -3 -26q0 -60 65 -60h180l-14 -77h-182zM129 -234l43 194h89l-69 -194h-63z" />
    <glyph glyph-name="egrave" unicode="&#xe8;" horiz-adv-x="480" 
d="M68 0zM194 0q-126 0 -126 115q0 23 4 46l34 191q29 161 178 161h91q127 0 127 -114q0 -24 -4 -47l-22 -127h-319l-11 -62q-3 -14 -3 -26q0 -60 65 -60h228l-14 -77h-228zM426 354q2 7 2 13.5v12.5q0 60 -64 60h-92q-78 0 -93 -86l-11 -63h247zM205 696l35 40l201 -154
l-25 -26z" />
    <glyph glyph-name="eacute" unicode="&#xe9;" horiz-adv-x="480" 
d="M68 0zM194 0q-126 0 -126 115q0 23 4 46l34 191q29 161 178 161h91q127 0 127 -114q0 -24 -4 -47l-22 -127h-319l-11 -62q-3 -14 -3 -26q0 -60 65 -60h228l-14 -77h-228zM426 354q2 7 2 13.5v12.5q0 60 -64 60h-92q-78 0 -93 -86l-11 -63h247zM260 556l-15 26l255 154
l21 -40z" />
    <glyph glyph-name="ecircumflex" unicode="&#xea;" horiz-adv-x="480" 
d="M68 0zM194 0q-126 0 -126 115q0 23 4 46l34 191q29 161 178 161h91q127 0 127 -114q0 -24 -4 -47l-22 -127h-319l-11 -62q-3 -14 -3 -26q0 -60 65 -60h228l-14 -77h-228zM426 354q2 7 2 13.5v12.5q0 60 -64 60h-92q-78 0 -93 -86l-11 -63h247zM496 556l-137 126
l-180 -126l-24 24l192 156h45l136 -156z" />
    <glyph glyph-name="edieresis" unicode="&#xeb;" horiz-adv-x="480" 
d="M68 0zM194 0q-126 0 -126 115q0 23 4 46l34 191q29 161 178 161h91q127 0 127 -114q0 -24 -4 -47l-22 -127h-319l-11 -62q-3 -14 -3 -26q0 -60 65 -60h228l-14 -77h-228zM426 354q2 7 2 13.5v12.5q0 60 -64 60h-92q-78 0 -93 -86l-11 -63h247zM423 586l21 119h80
l-21 -119h-80zM203 586l21 119h81l-21 -119h-81z" />
    <glyph glyph-name="igrave" unicode="&#xec;" horiz-adv-x="184" 
d="M54 0l90 513h76l-90 -513h-76zM56 696l35 40l201 -154l-24 -26z" />
    <glyph glyph-name="iacute" unicode="&#xed;" horiz-adv-x="184" 
d="M54 0l90 513h76l-90 -513h-76zM112 556l-16 26l255 154l21 -40z" />
    <glyph glyph-name="icircumflex" unicode="&#xee;" horiz-adv-x="184" 
d="M54 0l90 513h76l-90 -513h-76zM349 556l-137 126l-180 -126l-24 24l191 156h45l137 -156z" />
    <glyph glyph-name="idieresis" unicode="&#xef;" horiz-adv-x="184" 
d="M54 0l90 513h76l-90 -513h-76zM265 586l21 119h80l-21 -119h-80zM45 586l21 119h81l-21 -119h-81z" />
    <glyph glyph-name="eth" unicode="&#xf0;" horiz-adv-x="492" 
d="M204 0q-134 0 -134 123q0 12 1 25.5t4 27.5l23 132q15 88 62 128t128 40h169l8 48q3 18 3 32q0 73 -69 73h-142l13 72h149q126 0 126 -124q0 -13 -1 -26.5t-4 -29.5l-61 -345q-32 -176 -191 -176h-84zM444 402h-153q-29 0 -49 -5.5t-34 -18.5t-23 -33.5t-14 -51.5
l-18 -103l-3.5 -23.5t-1.5 -20.5q0 -39 21 -54t64 -15h53q51 0 79.5 22.5t38.5 78.5z" />
    <glyph glyph-name="ntilde" unicode="&#xf1;" horiz-adv-x="502" 
d="M49 0zM381 0l62 351q3 16 3 30q0 54 -48 54h-127q-39 0 -58 -20.5t-27 -64.5l-62 -350h-75l90 513h72l-11 -63q21 35 47.5 49t69.5 14h113q93 0 93 -103q0 -12 -1.5 -25.5t-3.5 -28.5l-63 -356h-74zM567 677q-14 -33 -44.5 -58.5t-75.5 -25.5q-28 0 -46.5 7.5t-34.5 17
t-32.5 17t-40.5 7.5q-25 0 -43.5 -12t-31.5 -39l-37 21q14 33 44.5 57.5t75.5 24.5q27 0 46.5 -7.5t36 -16.5t33 -16.5t38.5 -7.5q51 0 73 52z" />
    <glyph glyph-name="ograve" unicode="&#xf2;" horiz-adv-x="492" 
d="M67 0zM210 0q-79 0 -111 23t-32 79q0 15 2 33t6 39l29 165q9 51 23 85t36.5 53.5t56 27.5t80.5 8h72q79 0 111 -23.5t32 -80.5q0 -32 -7 -70l-29 -165q-16 -87 -53.5 -130.5t-114.5 -43.5h-101zM435 352q3 19 3 34q0 27 -12.5 38t-40.5 11h-125q-65 0 -77 -71l-36 -204
q-3 -20 -3 -33q0 -27 12.5 -38.5t40.5 -11.5h125q65 0 77 71zM211 696l35 40l201 -154l-25 -26z" />
    <glyph glyph-name="oacute" unicode="&#xf3;" horiz-adv-x="492" 
d="M67 0zM210 0q-79 0 -111 23t-32 79q0 15 2 33t6 39l29 165q9 51 23 85t36.5 53.5t56 27.5t80.5 8h72q79 0 111 -23.5t32 -80.5q0 -32 -7 -70l-29 -165q-16 -87 -53.5 -130.5t-114.5 -43.5h-101zM435 352q3 19 3 34q0 27 -12.5 38t-40.5 11h-125q-65 0 -77 -71l-36 -204
q-3 -20 -3 -33q0 -27 12.5 -38.5t40.5 -11.5h125q65 0 77 71zM266 556l-15 26l255 154l21 -40z" />
    <glyph glyph-name="ocircumflex" unicode="&#xf4;" horiz-adv-x="492" 
d="M67 0zM210 0q-79 0 -111 23t-32 79q0 15 2 33t6 39l29 165q9 51 23 85t36.5 53.5t56 27.5t80.5 8h72q79 0 111 -23.5t32 -80.5q0 -32 -7 -70l-29 -165q-16 -87 -53.5 -130.5t-114.5 -43.5h-101zM435 352q3 19 3 34q0 27 -12.5 38t-40.5 11h-125q-65 0 -77 -71l-36 -204
q-3 -20 -3 -33q0 -27 12.5 -38.5t40.5 -11.5h125q65 0 77 71zM502 556l-137 126l-180 -126l-24 24l192 156h45l136 -156z" />
    <glyph glyph-name="otilde" unicode="&#xf5;" horiz-adv-x="492" 
d="M67 0zM210 0q-79 0 -111 23t-32 79q0 15 2 33t6 39l29 165q9 51 23 85t36.5 53.5t56 27.5t80.5 8h72q79 0 111 -23.5t32 -80.5q0 -32 -7 -70l-29 -165q-16 -87 -53.5 -130.5t-114.5 -43.5h-101zM435 352q3 19 3 34q0 27 -12.5 38t-40.5 11h-125q-65 0 -77 -71l-36 -204
q-3 -20 -3 -33q0 -27 12.5 -38.5t40.5 -11.5h125q65 0 77 71zM552 677q-14 -33 -44.5 -58.5t-75.5 -25.5q-28 0 -46.5 7.5t-34.5 17t-32.5 17t-40.5 7.5q-25 0 -43.5 -12t-31.5 -39l-37 21q14 33 44.5 57.5t75.5 24.5q27 0 46.5 -7.5t36 -16.5t33 -16.5t38.5 -7.5
q51 0 73 52z" />
    <glyph glyph-name="odieresis" unicode="&#xf6;" horiz-adv-x="492" 
d="M67 0zM210 0q-79 0 -111 23t-32 79q0 15 2 33t6 39l29 165q9 51 23 85t36.5 53.5t56 27.5t80.5 8h72q79 0 111 -23.5t32 -80.5q0 -32 -7 -70l-29 -165q-16 -87 -53.5 -130.5t-114.5 -43.5h-101zM435 352q3 19 3 34q0 27 -12.5 38t-40.5 11h-125q-65 0 -77 -71l-36 -204
q-3 -20 -3 -33q0 -27 12.5 -38.5t40.5 -11.5h125q65 0 77 71zM419 586l21 119h80l-21 -119h-80zM199 586l21 119h81l-21 -119h-81z" />
    <glyph glyph-name="divide" unicode="&#xf7;" horiz-adv-x="617" 
d="M102 40zM102 323l14 76h526l-14 -76h-526zM360 513l26 150h76l-26 -150h-76zM277 40l26 150h76l-26 -150h-76z" />
    <glyph glyph-name="oslash" unicode="&#xf8;" horiz-adv-x="492" 
d="M210 0q-20 0 -35.5 1t-29.5 4l-36 -53l-40 22l32 47q-34 23 -34 81q0 15 2 33t6 39l29 165q9 51 23 85t36.5 53.5t56 27.5t80.5 8h72q37 0 66 -6l47 69l39 -22l-44 -63q19 -13 27 -33t8 -50q0 -15 -1.5 -32t-5.5 -37l-29 -165q-16 -87 -53.5 -130.5t-114.5 -43.5h-101z
M435 352q3 19 3 33q0 22 -8 33l-235 -341h127q65 0 77 71zM147 160q-3 -21 -3 -35q0 -21 7 -31l236 341h-127q-65 0 -77 -71z" />
    <glyph glyph-name="ugrave" unicode="&#xf9;" horiz-adv-x="494" 
d="M68 0zM372 0l11 62q-20 -35 -46.5 -48.5t-70.5 -13.5h-104q-94 0 -94 101q0 24 6 56l62 356h74l-62 -352q-3 -17 -3 -28q0 -56 50 -56h118q39 0 58.5 21t27.5 64l61 351h75l-90 -513h-73zM212 696l35 40l201 -154l-25 -26z" />
    <glyph glyph-name="uacute" unicode="&#xfa;" horiz-adv-x="494" 
d="M68 0zM372 0l11 62q-20 -35 -46.5 -48.5t-70.5 -13.5h-104q-94 0 -94 101q0 24 6 56l62 356h74l-62 -352q-3 -17 -3 -28q0 -56 50 -56h118q39 0 58.5 21t27.5 64l61 351h75l-90 -513h-73zM267 556l-15 26l255 154l21 -40z" />
    <glyph glyph-name="ucircumflex" unicode="&#xfb;" horiz-adv-x="494" 
d="M68 0zM372 0l11 62q-20 -35 -46.5 -48.5t-70.5 -13.5h-104q-94 0 -94 101q0 24 6 56l62 356h74l-62 -352q-3 -17 -3 -28q0 -56 50 -56h118q39 0 58.5 21t27.5 64l61 351h75l-90 -513h-73zM503 556l-137 126l-180 -126l-24 24l192 156h45l136 -156z" />
    <glyph glyph-name="udieresis" unicode="&#xfc;" horiz-adv-x="494" 
d="M68 0zM372 0l11 62q-20 -35 -46.5 -48.5t-70.5 -13.5h-104q-94 0 -94 101q0 24 6 56l62 356h74l-62 -352q-3 -17 -3 -28q0 -56 50 -56h118q39 0 58.5 21t27.5 64l61 351h75l-90 -513h-73zM418 586l21 119h80l-21 -119h-80zM198 586l21 119h81l-21 -119h-81z" />
    <glyph glyph-name="yacute" unicode="&#xfd;" horiz-adv-x="480" 
d="M77 0zM109 -159l12 71h145q36 0 59.5 23t31.5 68l7 42h-160q-127 0 -127 111q0 11 1.5 22t3.5 24l54 311h75l-55 -314q-3 -14 -3 -25q0 -59 66 -59h157l70 398h76l-89 -507q-29 -165 -172 -165h-152zM260 556l-15 26l255 154l21 -40z" />
    <glyph glyph-name="thorn" unicode="&#xfe;" horiz-adv-x="482" 
d="M124 0l-28 -160h-75l152 861h75l-34 -188h164q66 0 95 -30.5t29 -91.5q0 -17 -2 -36t-6 -40l-28 -154q-15 -81 -58.5 -121t-119.5 -40h-164zM421 330q4 20 4 42q0 30 -14 46.5t-49 16.5h-161l-63 -358h162q77 0 92 86z" />
    <glyph glyph-name="ydieresis" unicode="&#xff;" horiz-adv-x="480" 
d="M77 0zM109 -159l12 71h145q36 0 59.5 23t31.5 68l7 42h-160q-127 0 -127 111q0 11 1.5 22t3.5 24l54 311h75l-55 -314q-3 -14 -3 -25q0 -59 66 -59h157l70 398h76l-89 -507q-29 -165 -172 -165h-152zM413 586l21 119h80l-21 -119h-80zM193 586l21 119h81l-21 -119h-81z
" />
    <glyph glyph-name="Amacron" unicode="&#x100;" 
d="M16 0zM400 0l-12 139h-235l-60 -139h-77l310 701h90l68 -701h-84zM350 593l-169 -388h201zM227 806l11 60h329l-11 -60h-329z" />
    <glyph glyph-name="amacron" unicode="&#x101;" horiz-adv-x="479" 
d="M57 0zM161 0q-104 0 -104 87q0 16 3 34l14 75q11 57 45 85.5t97 28.5h199l7 39q2 7 2 13.5v12.5q0 60 -64 60h-215l13 78h215q126 0 126 -114q0 -11 -1 -22.5t-3 -24.5l-62 -352h-272zM403 244h-193q-58 0 -69 -61l-9 -52q-1 -5 -1.5 -9t-0.5 -8q0 -42 50 -42h193z
M194 618l11 60h329l-11 -60h-329z" />
    <glyph glyph-name="Abreve" unicode="&#x102;" 
d="M16 0zM400 0l-12 139h-235l-60 -139h-77l310 701h90l68 -701h-84zM350 593l-169 -388h201zM592 884q-11 -24 -30.5 -49t-46.5 -45t-61 -33t-73 -13t-69.5 13t-50.5 33t-30.5 45t-10.5 49l41 23q3 -49 38.5 -81.5t89.5 -32.5q56 0 100 31.5t70 82.5z" />
    <glyph glyph-name="abreve" unicode="&#x103;" horiz-adv-x="479" 
d="M57 0zM161 0q-104 0 -104 87q0 16 3 34l14 75q11 57 45 85.5t97 28.5h199l7 39q2 7 2 13.5v12.5q0 60 -64 60h-215l13 78h215q126 0 126 -114q0 -11 -1 -22.5t-3 -24.5l-62 -352h-272zM403 244h-193q-58 0 -69 -61l-9 -52q-1 -5 -1.5 -9t-0.5 -8q0 -42 50 -42h193z
M558 696q-11 -24 -30.5 -49t-46.5 -45t-61 -33t-73 -13t-69.5 13t-50.5 33t-30.5 45t-10.5 49l41 23q3 -49 38.5 -81.5t89.5 -32.5q56 0 100 31.5t70 82.5z" />
    <glyph glyph-name="Aogonek" unicode="&#x104;" 
d="M333 -234q-48 0 -72 18.5t-24 53.5q0 39 24.5 70.5t79.5 53.5l96 38h-37l-13 139h-235l-59 -139h-77l309 701h90l69 -701l-126 -53q-24 -10 -37 -25.5t-13 -33.5q0 -17 12.5 -27.5t41.5 -10.5h95l-15 -84h-109zM349 593l-168 -388h201z" />
    <glyph glyph-name="aogonek" unicode="&#x105;" horiz-adv-x="479" 
d="M282 -234q-48 0 -72 18.5t-24 53.5q0 39 24.5 70.5t79.5 53.5l96 38h-225q-104 0 -104 87q0 16 3 34l13 75q19 114 142 114h199l7 39q2 7 2 13.5v12.5q0 60 -64 60h-215l14 78h215q126 0 126 -115q0 -11 -1 -22.5t-3 -23.5l-62 -352l-126 -53q-24 -10 -37 -25.5
t-13 -33.5q0 -17 12.5 -27.5t41.5 -10.5h95l-15 -84h-109zM403 244h-193q-58 0 -69 -61l-9 -52q-1 -5 -1.5 -9t-0.5 -8q0 -42 49 -42h193z" />
    <glyph glyph-name="Cacute" unicode="&#x106;" horiz-adv-x="469" 
d="M69 0zM212 0q-143 0 -143 123q0 20 5 48l64 364q29 166 193 166h218l-15 -80h-218q-85 0 -100 -86l-64 -364q-3 -15 -3 -26q0 -65 74 -65h218l-14 -80h-215zM287 744l-15 26l255 154l21 -40z" />
    <glyph glyph-name="cacute" unicode="&#x107;" horiz-adv-x="419" 
d="M68 0zM194 0q-126 0 -126 115q0 23 4 46l33 186q30 166 179 166h180l-13 -78h-178q-77 0 -93 -91l-32 -181q-3 -14 -3 -26q0 -60 65 -60h180l-14 -77h-182zM229 556l-15 26l255 154l21 -40z" />
    <glyph glyph-name="Cdotaccent" unicode="&#x10a;" horiz-adv-x="469" 
d="M69 0zM212 0q-143 0 -143 123q0 20 5 48l64 364q29 166 193 166h218l-15 -80h-218q-85 0 -100 -86l-64 -364q-3 -15 -3 -26q0 -65 74 -65h218l-14 -80h-215zM360 774l21 119h80l-21 -119h-80z" />
    <glyph glyph-name="cdotaccent" unicode="&#x10b;" horiz-adv-x="419" 
d="M68 0zM194 0q-126 0 -126 115q0 23 4 46l33 186q30 166 179 166h180l-13 -78h-178q-77 0 -93 -91l-32 -181q-3 -14 -3 -26q0 -60 65 -60h180l-14 -77h-182zM302 586l21 119h80l-21 -119h-80z" />
    <glyph glyph-name="Ccaron" unicode="&#x10c;" horiz-adv-x="469" 
d="M69 0zM212 0q-143 0 -143 123q0 20 5 48l64 364q29 166 193 166h218l-15 -80h-218q-85 0 -100 -86l-64 -364q-3 -15 -3 -26q0 -65 74 -65h218l-14 -80h-215zM407 744h-44l-136 156l32 24l135 -127l182 127l24 -24z" />
    <glyph glyph-name="ccaron" unicode="&#x10d;" horiz-adv-x="419" 
d="M68 0zM194 0q-126 0 -126 115q0 23 4 46l33 186q30 166 179 166h180l-13 -78h-178q-77 0 -93 -91l-32 -181q-3 -14 -3 -26q0 -60 65 -60h180l-14 -77h-182zM349 556h-44l-136 156l32 24l135 -127l182 127l24 -24z" />
    <glyph glyph-name="Dcaron" unicode="&#x10e;" horiz-adv-x="513" 
d="M49 0zM49 0l124 701h236q155 0 155 -137q0 -12 -1.5 -26t-3.5 -28l-56 -319q-33 -191 -222 -191h-232zM480 510q3 16 3 32q0 79 -89 79h-158l-95 -541h156q107 0 127 111zM399 744h-44l-136 156l32 24l135 -127l182 127l24 -24z" />
    <glyph glyph-name="dcaron" unicode="&#x10f;" horiz-adv-x="558" 
d="M68 0zM194 0q-126 0 -126 115q0 23 4 46l34 191q29 161 178 161h165l34 188h76l-124 -701h-241zM436 435h-162q-78 0 -93 -86l-33 -186q-3 -14 -3 -26q0 -60 66 -60h162zM548 458l53 243h81l-78 -243h-56z" />
    <glyph glyph-name="Dcroat" unicode="&#x110;" horiz-adv-x="511" 
d="M47 0zM47 0l56 316h-37l11 65h37l57 320h236q155 0 155 -137q0 -12 -1.5 -26t-3.5 -28l-56 -319q-33 -191 -222 -191h-232zM478 510q3 16 3 32q0 79 -89 79h-158l-42 -240h116l-11 -65h-116l-42 -236h156q107 0 127 111z" />
    <glyph glyph-name="dcroat" unicode="&#x111;" horiz-adv-x="484" 
d="M194 0q-127 0 -127 114q0 19 5 47l34 191q29 161 178 161h165l11 65h-174l11 60h174l11 63h76l-11 -63h49l-11 -60h-49l-101 -578h-241zM435 435h-162q-78 0 -93 -86l-33 -186q-3 -14 -3 -26q0 -60 66 -60h162z" />
    <glyph glyph-name="Emacron" unicode="&#x112;" horiz-adv-x="478" 
d="M49 0zM49 0l124 701h390l-15 -80h-312l-40 -228h186l-13 -74h-186l-42 -239h312l-14 -80h-390zM226 806l11 60h329l-11 -60h-329z" />
    <glyph glyph-name="emacron" unicode="&#x113;" horiz-adv-x="480" 
d="M68 0zM194 0q-126 0 -126 115q0 23 4 46l34 191q29 161 178 161h91q127 0 127 -114q0 -24 -4 -47l-22 -127h-319l-11 -62q-3 -14 -3 -26q0 -60 65 -60h228l-14 -77h-228zM426 354q2 7 2 13.5v12.5q0 60 -64 60h-92q-78 0 -93 -86l-11 -63h247zM194 618l11 60h329l-11 -60
h-329z" />
    <glyph glyph-name="Ebreve" unicode="&#x114;" horiz-adv-x="478" 
d="M49 0zM49 0l124 701h390l-15 -80h-312l-40 -228h186l-13 -74h-186l-42 -239h312l-14 -80h-390zM591 884q-11 -24 -30.5 -49t-46.5 -45t-61 -33t-73 -13t-69.5 13t-50.5 33t-30.5 45t-10.5 49l41 23q3 -49 38.5 -81.5t89.5 -32.5q56 0 100 31.5t70 82.5z" />
    <glyph glyph-name="ebreve" unicode="&#x115;" horiz-adv-x="480" 
d="M68 0zM194 0q-126 0 -126 115q0 23 4 46l34 191q29 161 178 161h91q127 0 127 -114q0 -24 -4 -47l-22 -127h-319l-11 -62q-3 -14 -3 -26q0 -60 65 -60h228l-14 -77h-228zM426 354q2 7 2 13.5v12.5q0 60 -64 60h-92q-78 0 -93 -86l-11 -63h247zM559 696q-11 -24 -30.5 -49
t-46.5 -45t-61 -33t-73 -13t-69.5 13t-50.5 33t-30.5 45t-10.5 49l41 23q3 -49 38.5 -81.5t89.5 -32.5q56 0 100 31.5t70 82.5z" />
    <glyph glyph-name="Edotaccent" unicode="&#x116;" horiz-adv-x="478" 
d="M49 0zM49 0l124 701h390l-15 -80h-312l-40 -228h186l-13 -74h-186l-42 -239h312l-14 -80h-390zM350 774l21 119h80l-21 -119h-80z" />
    <glyph glyph-name="edotaccent" unicode="&#x117;" horiz-adv-x="480" 
d="M68 0zM194 0q-126 0 -126 115q0 23 4 46l34 191q29 161 178 161h91q127 0 127 -114q0 -24 -4 -47l-22 -127h-319l-11 -62q-3 -14 -3 -26q0 -60 65 -60h228l-14 -77h-228zM426 354q2 7 2 13.5v12.5q0 60 -64 60h-92q-78 0 -93 -86l-11 -63h247zM313 586l21 119h80
l-21 -119h-80z" />
    <glyph glyph-name="Eogonek" unicode="&#x118;" horiz-adv-x="478" 
d="M288 -234q-48 0 -72 18.5t-24 53.5q0 39 24.5 70.5t79.5 53.5l96 38h-343l123 701h390l-14 -80h-312l-40 -228h186l-13 -74h-186l-42 -239h312l-14 -80l-126 -53q-24 -10 -37 -25.5t-13 -33.5q0 -17 12.5 -27.5t41.5 -10.5h95l-15 -84h-109z" />
    <glyph glyph-name="eogonek" unicode="&#x119;" horiz-adv-x="480" 
d="M271 -234q-48 0 -72 18.5t-24 53.5q0 39 24.5 70.5t79.5 53.5l96 38h-181q-127 0 -127 114q0 19 5 47l34 191q29 161 178 161h91q127 0 127 -115q0 -11 -1 -22.5t-3 -23.5l-23 -127h-319l-11 -62q-3 -14 -3 -26q0 -60 65 -60h228l-13 -77l-126 -53q-24 -10 -37 -25.5
t-13 -33.5q0 -17 12.5 -27.5t41.5 -10.5h95l-15 -84h-109zM426 354q1 7 1.5 13.5t0.5 11.5q0 61 -65 61h-92q-77 0 -92 -86l-11 -63h247z" />
    <glyph glyph-name="Ecaron" unicode="&#x11a;" horiz-adv-x="478" 
d="M49 0zM49 0l124 701h390l-15 -80h-312l-40 -228h186l-13 -74h-186l-42 -239h312l-14 -80h-390zM401 744h-44l-136 156l32 24l135 -127l182 127l24 -24z" />
    <glyph glyph-name="ecaron" unicode="&#x11b;" horiz-adv-x="480" 
d="M68 0zM194 0q-126 0 -126 115q0 23 4 46l34 191q29 161 178 161h91q127 0 127 -114q0 -24 -4 -47l-22 -127h-319l-11 -62q-3 -14 -3 -26q0 -60 65 -60h228l-14 -77h-228zM426 354q2 7 2 13.5v12.5q0 60 -64 60h-92q-78 0 -93 -86l-11 -63h247zM369 556h-44l-136 156
l32 24l135 -127l182 127l24 -24z" />
    <glyph glyph-name="Gbreve" unicode="&#x11e;" horiz-adv-x="505" 
d="M69 0zM212 0q-143 0 -143 123q0 20 5 48l63 359q30 171 194 171h239l-15 -80h-239q-85 0 -101 -91l-63 -359q-3 -15 -3 -26q0 -65 74 -65h178l43 242h-145l13 73h218l-70 -395h-248zM594 884q-11 -24 -30.5 -49t-46.5 -45t-61 -33t-73 -13t-69.5 13t-50.5 33t-30.5 45
t-10.5 49l41 23q3 -49 38.5 -81.5t89.5 -32.5q56 0 100 31.5t70 82.5z" />
    <glyph glyph-name="gbreve" unicode="&#x11f;" horiz-adv-x="485" 
d="M75 0zM101 -159l12 71h158q36 0 59.5 23t31.5 68l7 42h-167q-127 0 -127 111q0 11 1.5 22t3.5 24l26 150q27 161 178 161h243l-89 -507q-29 -165 -172 -165h-165zM438 435h-164q-78 0 -93 -86l-27 -150q-3 -14 -3 -25q0 -59 66 -59h164zM561 696q-11 -24 -30.5 -49
t-46.5 -45t-61 -33t-73 -13t-69.5 13t-50.5 33t-30.5 45t-10.5 49l41 23q3 -49 38.5 -81.5t89.5 -32.5q56 0 100 31.5t70 82.5z" />
    <glyph glyph-name="Gdotaccent" unicode="&#x120;" horiz-adv-x="505" 
d="M69 0zM212 0q-143 0 -143 123q0 20 5 48l63 359q30 171 194 171h239l-15 -80h-239q-85 0 -101 -91l-63 -359q-3 -15 -3 -26q0 -65 74 -65h178l43 242h-145l13 73h218l-70 -395h-248zM368 774l21 119h80l-21 -119h-80z" />
    <glyph glyph-name="gdotaccent" unicode="&#x121;" horiz-adv-x="485" 
d="M75 0zM101 -159l12 71h158q36 0 59.5 23t31.5 68l7 42h-167q-127 0 -127 111q0 11 1.5 22t3.5 24l26 150q27 161 178 161h243l-89 -507q-29 -165 -172 -165h-165zM438 435h-164q-78 0 -93 -86l-27 -150q-3 -14 -3 -25q0 -59 66 -59h164zM320 586l21 119h80l-21 -119h-80z
" />
    <glyph glyph-name="Gcommaaccent" unicode="&#x122;" horiz-adv-x="505" 
d="M69 0zM212 0q-143 0 -143 123q0 20 5 48l63 359q30 171 194 171h239l-15 -80h-239q-85 0 -101 -91l-63 -359q-3 -15 -3 -26q0 -65 74 -65h178l43 242h-145l13 73h218l-70 -395h-248zM172 -234l43 194h89l-69 -194h-63z" />
    <glyph glyph-name="gcommaaccent" unicode="&#x123;" horiz-adv-x="485" 
d="M75 0zM101 -159l12 71h158q36 0 59.5 23t31.5 68l7 42h-167q-127 0 -127 111q0 11 1.5 22t3.5 24l26 150q27 161 178 161h243l-89 -507q-29 -165 -172 -165h-165zM438 435h-164q-78 0 -93 -86l-27 -150q-3 -14 -3 -25q0 -59 66 -59h164zM442 747.985l-42.9971 -193.987
h-88.9951l68.9961 193.987h62.9961z" />
    <glyph glyph-name="Hbar" unicode="&#x126;" horiz-adv-x="514" 
d="M386 0l55 315h-259l-55 -315h-78l123 701h78l-22 -127h259l22 127h79l-123 -701h-79zM454 391l22 123h-259l-22 -123h259z" />
    <glyph glyph-name="hbar" unicode="&#x127;" 
d="M224 568l-21 -118q20 35 46.5 49t70.5 14h108q93 0 93 -102q0 -12 -1.5 -26t-3.5 -29l-62 -356h-75l61 351q3 18 3 31q0 53 -48 53h-125q-39 0 -58 -20.5t-27 -64.5l-61 -350h-75l100 568h-49l10 60h49l13 73h75l-13 -73h135l-10 -60h-135z" />
    <glyph glyph-name="Itilde" unicode="&#x128;" horiz-adv-x="186" 
d="M49 0zM54 0l124 701h78l-124 -701h-78zM435 865q-14 -33 -44.5 -58.5t-75.5 -25.5q-28 0 -46.5 7.5t-34.5 17t-32.5 17t-40.5 7.5q-25 0 -43.5 -12t-31.5 -39l-37 21q14 33 44.5 57.5t75.5 24.5q27 0 46.5 -7.5t36 -16.5t33 -16.5t38.5 -7.5q51 0 73 52z" />
    <glyph glyph-name="itilde" unicode="&#x129;" horiz-adv-x="184" 
d="M14 0zM54 0l90 513h76l-90 -513h-76zM400 677q-14 -33 -44.5 -58.5t-75.5 -25.5q-28 0 -46.5 7.5t-34.5 17t-32.5 17t-40.5 7.5q-25 0 -43.5 -12t-31.5 -39l-37 21q14 33 44.5 57.5t75.5 24.5q27 0 46.5 -7.5t36 -16.5t33 -16.5t38.5 -7.5q51 0 73 52z" />
    <glyph glyph-name="uni012A" unicode="&#x12a;" horiz-adv-x="186" 
d="M54 0zM54 0l124 701h78l-124 -701h-78zM73 806l11 60h329l-11 -60h-329z" />
    <glyph glyph-name="imacron" unicode="&#x12b;" horiz-adv-x="184" 
d="M38 0zM54 0l90 513h76l-90 -513h-76zM38 618l11 60h329l-11 -60h-329z" />
    <glyph glyph-name="Ibreve" unicode="&#x12c;" horiz-adv-x="186" 
d="M54 0zM54 0l124 701h78l-124 -701h-78zM437 884q-11 -24 -30.5 -49t-46.5 -45t-61 -33t-73 -13t-69.5 13t-50.5 33t-30.5 45t-10.5 49l41 23q3 -49 38.5 -81.5t89.5 -32.5q56 0 100 31.5t70 82.5z" />
    <glyph glyph-name="ibreve" unicode="&#x12d;" horiz-adv-x="184" 
d="M30 0zM54 0l90 513h76l-90 -513h-76zM402 696q-11 -24 -30.5 -49t-46.5 -45t-61 -33t-73 -13t-69.5 13t-50.5 33t-30.5 45t-10.5 49l41 23q3 -49 38.5 -81.5t89.5 -32.5q56 0 100 31.5t70 82.5z" />
    <glyph glyph-name="Iogonek" unicode="&#x12e;" horiz-adv-x="186" 
d="M-18 -234q-48 0 -72 18.5t-24 53.5q0 39 24.5 70.5t79.5 53.5l95 38h-31l123 701h78l-123 -701l-126 -53q-23 -10 -36 -25.5t-13 -33.5q0 -17 12.5 -27.5t40.5 -10.5h95l-15 -84h-108z" />
    <glyph glyph-name="iogonek" unicode="&#x12f;" horiz-adv-x="184" 
d="M-20 -234q-48 0 -72 18.5t-24 53.5q0 39 24.5 70.5t79.5 53.5l95 38h-29l90 513h76l-90 -513l-126 -53q-23 -10 -36 -25.5t-13 -33.5q0 -17 12.5 -27.5t40.5 -10.5h95l-15 -84h-108z" />
    <glyph glyph-name="Idotaccent" unicode="&#x130;" horiz-adv-x="186" 
d="M54 0zM54 0l124 701h78l-124 -701h-78zM189 774l21 119h80l-21 -119h-80z" />
    <glyph glyph-name="dotlessi" unicode="&#x131;" horiz-adv-x="184" 
d="M54 0l90 513h76l-90 -513h-76z" />
    <glyph glyph-name="IJ" unicode="&#x132;" horiz-adv-x="629" 
d="M54 0zM54 0l124 701h78l-124 -701h-78zM213 0l14 80h205q87 0 103 91l79 450h-161l15 80h239l-94 -530q-30 -171 -198 -171h-202z" />
    <glyph glyph-name="ij" unicode="&#x133;" horiz-adv-x="398" 
d="M54 0zM156 581l22 120h76l-22 -120h-76zM54 0l90 513h76l-90 -513h-76zM116 -159l12 71h54q36 0 60 23t32 68l89 510h76l-89 -507q-29 -165 -172 -165h-62zM375 581l22 120h76l-22 -120h-76z" />
    <glyph glyph-name="Kcommaaccent" unicode="&#x136;" horiz-adv-x="492" 
d="M49 0zM365 0l40 226q1 5 1.5 10.5t0.5 10.5q0 30 -17.5 47t-52.5 17h-155l-55 -311h-78l124 701h78l-59 -330l297 330h88l-306 -329h77q72 0 105 -27.5t33 -79.5q0 -17 -3 -36l-40 -229h-78zM156 -234l43 194h89l-69 -194h-63z" />
    <glyph glyph-name="kcommaaccent" unicode="&#x137;" horiz-adv-x="475" 
d="M49 0zM360 0l23 133q2 12 3.5 22t0.5 19q0 35 -17.5 46.5t-50.5 11.5h-154l-41 -232h-75l124 701h75l-73 -411l268 223h93l-278 -222h90q62 0 89.5 -30.5t27.5 -77.5q0 -16 -3 -32l-27 -151h-75zM147 -234l43 194h89l-69 -194h-63z" />
    <glyph glyph-name="Lacute" unicode="&#x139;" horiz-adv-x="383" 
d="M49 0zM49 0l124 701h77l-110 -621h235l-14 -80h-312zM146 744l-15 26l255 154l21 -40z" />
    <glyph glyph-name="lacute" unicode="&#x13a;" horiz-adv-x="174" 
d="M49 0zM49 0l124 701h75l-124 -701h-75zM142 744l-15 26l255 154l21 -40z" />
    <glyph glyph-name="Lcommaaccent" unicode="&#x13b;" horiz-adv-x="383" 
d="M49 0zM49 0l124 701h77l-110 -621h235l-14 -80h-312zM121 -234l43 194h89l-69 -194h-63z" />
    <glyph glyph-name="lcommaaccent" unicode="&#x13c;" horiz-adv-x="174" 
d="M0 0zM49 0l124 701h75l-124 -701h-75zM-2 -234l43 194h89l-69 -194h-63z" />
    <glyph glyph-name="Lcaron" unicode="&#x13d;" horiz-adv-x="383" 
d="M49 0zM49 0l124 701h77l-110 -621h235l-14 -80h-312zM238 458l53 243h81l-78 -243h-56z" />
    <glyph glyph-name="lcaron" unicode="&#x13e;" horiz-adv-x="244" 
d="M49 0zM49 0l124 701h75l-124 -701h-75zM234 458l53 243h81l-78 -243h-56z" />
    <glyph glyph-name="Ldot" unicode="&#x13f;" horiz-adv-x="383" 
d="M49 0zM49 0l124 701h77l-110 -621h235l-14 -80h-312zM213 315l21 119h80l-21 -119h-80z" />
    <glyph glyph-name="ldot" unicode="&#x140;" horiz-adv-x="233" 
d="M49 0zM49 0l124 701h75l-124 -701h-75zM205 301l21 119h80l-21 -119h-80z" />
    <glyph glyph-name="Lslash" unicode="&#x141;" horiz-adv-x="381" 
d="M47 0l57 323l-40 -15l12 64l39 15l56 314h78l-51 -285l117 47l-12 -64l-116 -46l-48 -273h234l-14 -80h-312z" />
    <glyph glyph-name="lslash" unicode="&#x142;" horiz-adv-x="243" 
d="M83 0l61 344l-79 -31l11 63l79 31l52 294h75l-47 -265l80 31l-11 -63l-80 -32l-66 -372h-75z" />
    <glyph glyph-name="Nacute" unicode="&#x143;" horiz-adv-x="498" 
d="M45 0zM378 0l-164 555l-98 -555h-71l124 701h84l159 -534l95 534h70l-124 -701h-75zM302 744l-15 26l255 154l21 -40z" />
    <glyph glyph-name="nacute" unicode="&#x144;" horiz-adv-x="502" 
d="M49 0zM381 0l62 351q3 16 3 30q0 54 -48 54h-127q-39 0 -58 -20.5t-27 -64.5l-62 -350h-75l90 513h72l-11 -63q21 35 47.5 49t69.5 14h113q93 0 93 -103q0 -12 -1.5 -25.5t-3.5 -28.5l-63 -356h-74zM271 556l-15 26l255 154l21 -40z" />
    <glyph glyph-name="Ncommaaccent" unicode="&#x145;" horiz-adv-x="498" 
d="M45 0zM378 0l-164 555l-98 -555h-71l124 701h84l159 -534l95 534h70l-124 -701h-75zM159 -234l43 194h89l-69 -194h-63z" />
    <glyph glyph-name="ncommaaccent" unicode="&#x146;" horiz-adv-x="502" 
d="M49 0zM381 0l62 351q3 16 3 30q0 54 -48 54h-127q-39 0 -58 -20.5t-27 -64.5l-62 -350h-75l90 513h72l-11 -63q21 35 47.5 49t69.5 14h113q93 0 93 -103q0 -12 -1.5 -25.5t-3.5 -28.5l-63 -356h-74zM161 -234l43 194h89l-69 -194h-63z" />
    <glyph glyph-name="Ncaron" unicode="&#x147;" horiz-adv-x="498" 
d="M45 0zM378 0l-164 555l-98 -555h-71l124 701h84l159 -534l95 534h70l-124 -701h-75zM401 744h-44l-136 156l32 24l135 -127l182 127l24 -24z" />
    <glyph glyph-name="ncaron" unicode="&#x148;" horiz-adv-x="502" 
d="M49 0zM381 0l62 351q3 16 3 30q0 54 -48 54h-127q-39 0 -58 -20.5t-27 -64.5l-62 -350h-75l90 513h72l-11 -63q21 35 47.5 49t69.5 14h113q93 0 93 -103q0 -12 -1.5 -25.5t-3.5 -28.5l-63 -356h-74zM380 556h-44l-136 156l32 24l135 -127l182 127l24 -24z" />
    <glyph glyph-name="Eng" unicode="&#x14a;" horiz-adv-x="498" 
d="M240 -234l13 71h20q37 0 63 23t34 68l13 72l-170 555l-97 -555h-71l123 701h84l160 -534l94 534h70l-136 -770q-30 -165 -172 -165h-28z" />
    <glyph glyph-name="eng" unicode="&#x14b;" horiz-adv-x="502" 
d="M249 -234l13 71h13q76 0 93 91l76 431q1 7 1.5 13t0.5 11q0 52 -49 52h-127q-39 0 -58 -20.5t-27 -64.5l-61 -350h-75l90 513h72l-11 -63q20 35 47 49t70 14h113q93 0 93 -99q0 -23 -4 -46l-77 -437q-29 -165 -172 -165h-21z" />
    <glyph glyph-name="Omacron" unicode="&#x14c;" horiz-adv-x="527" 
d="M67 0zM192 0q-66 0 -95.5 30t-29.5 83q0 22 4 41l69 392q12 71 55.5 113t120.5 42h143q65 0 94.5 -30t29.5 -83q0 -22 -4 -42l-69 -392q-12 -70 -55 -112t-120 -42h-143zM501 546q1 6 1.5 12t0.5 11q0 52 -59 52h-143q-35 0 -56 -20t-27 -55l-69 -391q-2 -6 -2 -12v-11
q0 -52 59 -52h143q35 0 56 20t27 55zM241 806l11 60h329l-11 -60h-329z" />
    <glyph glyph-name="omacron" unicode="&#x14d;" horiz-adv-x="492" 
d="M67 0zM210 0q-79 0 -111 23t-32 79q0 15 2 33t6 39l29 165q9 51 23 85t36.5 53.5t56 27.5t80.5 8h72q79 0 111 -23.5t32 -80.5q0 -32 -7 -70l-29 -165q-16 -87 -53.5 -130.5t-114.5 -43.5h-101zM435 352q3 19 3 34q0 27 -12.5 38t-40.5 11h-125q-65 0 -77 -71l-36 -204
q-3 -20 -3 -33q0 -27 12.5 -38.5t40.5 -11.5h125q65 0 77 71zM190 618l11 60h329l-11 -60h-329z" />
    <glyph glyph-name="Obreve" unicode="&#x14e;" horiz-adv-x="527" 
d="M67 0zM192 0q-66 0 -95.5 30t-29.5 83q0 22 4 41l69 392q12 71 55.5 113t120.5 42h143q65 0 94.5 -30t29.5 -83q0 -22 -4 -42l-69 -392q-12 -70 -55 -112t-120 -42h-143zM501 546q1 6 1.5 12t0.5 11q0 52 -59 52h-143q-35 0 -56 -20t-27 -55l-69 -391q-2 -6 -2 -12v-11
q0 -52 59 -52h143q35 0 56 20t27 55zM605 884q-11 -24 -30.5 -49t-46.5 -45t-61 -33t-73 -13t-69.5 13t-50.5 33t-30.5 45t-10.5 49l41 23q3 -49 38.5 -81.5t89.5 -32.5q56 0 100 31.5t70 82.5z" />
    <glyph glyph-name="obreve" unicode="&#x14f;" horiz-adv-x="492" 
d="M67 0zM210 0q-79 0 -111 23t-32 79q0 15 2 33t6 39l29 165q9 51 23 85t36.5 53.5t56 27.5t80.5 8h72q79 0 111 -23.5t32 -80.5q0 -32 -7 -70l-29 -165q-16 -87 -53.5 -130.5t-114.5 -43.5h-101zM435 352q3 19 3 34q0 27 -12.5 38t-40.5 11h-125q-65 0 -77 -71l-36 -204
q-3 -20 -3 -33q0 -27 12.5 -38.5t40.5 -11.5h125q65 0 77 71zM555 696q-11 -24 -30.5 -49t-46.5 -45t-61 -33t-73 -13t-69.5 13t-50.5 33t-30.5 45t-10.5 49l41 23q3 -49 38.5 -81.5t89.5 -32.5q56 0 100 31.5t70 82.5z" />
    <glyph glyph-name="Ohungarumlaut" unicode="&#x150;" horiz-adv-x="527" 
d="M67 0zM192 0q-66 0 -95.5 30t-29.5 83q0 22 4 41l69 392q12 71 55.5 113t120.5 42h143q65 0 94.5 -30t29.5 -83q0 -22 -4 -42l-69 -392q-12 -70 -55 -112t-120 -42h-143zM501 546q1 6 1.5 12t0.5 11q0 52 -59 52h-143q-35 0 -56 -20t-27 -55l-69 -391q-2 -6 -2 -12v-11
q0 -52 59 -52h143q35 0 56 20t27 55zM436 745l113 179h66l-120 -179h-59zM266 745l105 179h65l-111 -179h-59z" />
    <glyph glyph-name="ohungarumlaut" unicode="&#x151;" horiz-adv-x="492" 
d="M67 0zM210 0q-79 0 -111 23t-32 79q0 15 2 33t6 39l29 165q9 51 23 85t36.5 53.5t56 27.5t80.5 8h72q79 0 111 -23.5t32 -80.5q0 -32 -7 -70l-29 -165q-16 -87 -53.5 -130.5t-114.5 -43.5h-101zM435 352q3 19 3 34q0 27 -12.5 38t-40.5 11h-125q-65 0 -77 -71l-36 -204
q-3 -20 -3 -33q0 -27 12.5 -38.5t40.5 -11.5h125q65 0 77 71zM385 557l113 179h66l-120 -179h-59zM215 557l105 179h65l-111 -179h-59z" />
    <glyph glyph-name="OE" unicode="&#x152;" horiz-adv-x="817" 
d="M395 0l2 12q-32 -12 -72 -12h-133q-66 0 -95.5 30t-29.5 83q0 22 4 41l69 392q12 71 55.5 113t120.5 42h133q38 0 67 -13l3 13h380l-15 -80h-302l-40 -228h180l-13 -74h-180l-42 -239h302l-14 -80h-380zM491 546q1 5 1.5 10t0.5 10q0 26 -14.5 40.5t-44.5 14.5h-133
q-35 0 -56 -20t-27 -55l-69 -391q-1 -5 -1.5 -10t-0.5 -10q0 -26 14.5 -40.5t44.5 -14.5h133q35 0 56 20t27 55z" />
    <glyph glyph-name="oe" unicode="&#x153;" horiz-adv-x="808" 
d="M528 0q-91 0 -107 57q-32 -57 -115 -57h-125q-115 0 -115 103q0 10 1 20.5t3 22.5l39 221q26 146 162 146h125q84 0 95 -59q38 59 127 59h86q126 0 126 -114q0 -11 -1 -22.5t-3 -24.5l-23 -128h-318l-10 -61q-3 -14 -3 -26q0 -60 65 -60h227l-14 -77h-222zM437 364
q1 6 1.5 11.5t0.5 10.5q0 49 -54 49h-125q-65 0 -77 -71l-38 -216q-1 -5 -1.5 -10t-0.5 -10q0 -51 54 -51h125q65 0 77 71zM754 354q2 7 2 13.5v12.5q0 60 -63 60h-92q-78 0 -93 -86l-11 -63h246z" />
    <glyph glyph-name="Racute" unicode="&#x154;" horiz-adv-x="505" 
d="M49 0zM385 0l34 190q1 5 1.5 10t0.5 10q0 31 -18.5 50t-54.5 19h-172l-49 -279h-78l124 701h251q129 0 129 -110q0 -23 -4 -46l-19 -107q-10 -55 -34.5 -83.5t-60.5 -36.5q29 -4 47 -28t18 -63q0 -17 -3 -33l-34 -194h-78zM473 529q3 15 3 28q0 64 -67 64h-173l-47 -268
h179q38 0 60 20.5t28 55.5zM305 744l-15 26l255 154l21 -40z" />
    <glyph glyph-name="racute" unicode="&#x155;" horiz-adv-x="360" 
d="M49 0zM49 0l90 513h72l-11 -63q21 35 47.5 49t69.5 14h105l-13 -78h-138q-39 0 -58 -20.5t-27 -64.5l-62 -350h-75zM200 556l-15 26l255 154l21 -40z" />
    <glyph glyph-name="Rcommaaccent" unicode="&#x156;" horiz-adv-x="505" 
d="M49 0zM385 0l34 190q1 5 1.5 10t0.5 10q0 31 -18.5 50t-54.5 19h-172l-49 -279h-78l124 701h251q129 0 129 -110q0 -23 -4 -46l-19 -107q-10 -55 -34.5 -83.5t-60.5 -36.5q29 -4 47 -28t18 -63q0 -17 -3 -33l-34 -194h-78zM473 529q3 15 3 28q0 64 -67 64h-173l-47 -268
h179q38 0 60 20.5t28 55.5zM162 -234l43 194h89l-69 -194h-63z" />
    <glyph glyph-name="rcommaaccent" unicode="&#x157;" horiz-adv-x="360" 
d="M0 0zM49 0l90 513h72l-11 -63q21 35 47.5 49t69.5 14h105l-13 -78h-138q-39 0 -58 -20.5t-27 -64.5l-62 -350h-75zM-2 -234l43 194h89l-69 -194h-63z" />
    <glyph glyph-name="Rcaron" unicode="&#x158;" horiz-adv-x="505" 
d="M49 0zM385 0l34 190q1 5 1.5 10t0.5 10q0 31 -18.5 50t-54.5 19h-172l-49 -279h-78l124 701h251q129 0 129 -110q0 -23 -4 -46l-19 -107q-10 -55 -34.5 -83.5t-60.5 -36.5q29 -4 47 -28t18 -63q0 -17 -3 -33l-34 -194h-78zM473 529q3 15 3 28q0 64 -67 64h-173l-47 -268
h179q38 0 60 20.5t28 55.5zM395 744h-44l-136 156l32 24l135 -127l182 127l24 -24z" />
    <glyph glyph-name="rcaron" unicode="&#x159;" horiz-adv-x="360" 
d="M49 0zM49 0l90 513h72l-11 -63q21 35 47.5 49t69.5 14h105l-13 -78h-138q-39 0 -58 -20.5t-27 -64.5l-62 -350h-75zM301 556h-44l-136 156l32 24l135 -127l182 127l24 -24z" />
    <glyph glyph-name="Sacute" unicode="&#x15a;" horiz-adv-x="493" 
d="M41 0zM41 0l14 80h244q45 0 73 23t36 70l10 61q1 6 1.5 11.5t0.5 10.5q0 59 -73 59h-99q-134 0 -134 115q0 22 4 42l10 54q16 88 63.5 131.5t132.5 43.5h231l-15 -80h-231q-45 0 -69.5 -23.5t-33.5 -71.5l-10 -54q-2 -6 -2 -12v-11q0 -60 74 -60h99q133 0 133 -113
q0 -10 -1 -20.5t-3 -21.5l-10 -61q-14 -87 -65 -130t-136 -43h-244zM299 744l-15 26l255 154l21 -40z" />
    <glyph glyph-name="sacute" unicode="&#x15b;" horiz-adv-x="477" 
d="M46 0zM46 0l14 77h258q30 0 49 15t24 44l6 36q1 5 1 13q0 22 -14 33t-40 11h-130q-58 0 -90 18.5t-32 67.5q0 8 1 16t3 18l4 23q7 41 20.5 68t35 43.5t51 23t68.5 6.5h230l-13 -78h-250q-59 0 -71 -62l-3 -16q-1 -5 -1.5 -8.5t-0.5 -7.5q0 -23 14.5 -36.5t44.5 -13.5h133
q54 0 84.5 -18.5t30.5 -65.5q0 -14 -3 -29l-5 -33q-14 -73 -50.5 -109t-108.5 -36h-260zM258 556l-15 26l255 154l21 -40z" />
    <glyph glyph-name="Scedilla" unicode="&#x15e;" horiz-adv-x="493" 
d="M41 0zM41 0l14 80h244q45 0 73 23t36 70l10 61q1 6 1.5 11.5t0.5 10.5q0 59 -73 59h-99q-134 0 -134 115q0 22 4 42l10 54q16 88 63.5 131.5t132.5 43.5h231l-15 -80h-231q-45 0 -69.5 -23.5t-33.5 -71.5l-10 -54q-2 -6 -2 -12v-11q0 -60 74 -60h99q133 0 133 -113
q0 -10 -1 -20.5t-3 -21.5l-10 -61q-14 -87 -65 -130t-136 -43h-244zM156 -234l43 194h89l-69 -194h-63z" />
    <glyph glyph-name="scedilla" unicode="&#x15f;" horiz-adv-x="477" 
d="M46 0zM46 0l14 77h258q30 0 49 15t24 44l6 36q1 5 1 13q0 22 -14 33t-40 11h-130q-58 0 -90 18.5t-32 67.5q0 8 1 16t3 18l4 23q7 41 20.5 68t35 43.5t51 23t68.5 6.5h230l-13 -78h-250q-59 0 -71 -62l-3 -16q-1 -5 -1.5 -8.5t-0.5 -7.5q0 -23 14.5 -36.5t44.5 -13.5h133
q54 0 84.5 -18.5t30.5 -65.5q0 -14 -3 -29l-5 -33q-14 -73 -50.5 -109t-108.5 -36h-260zM148 -234l43 194h89l-69 -194h-63z" />
    <glyph glyph-name="Scaron" unicode="&#x160;" horiz-adv-x="493" 
d="M41 0zM41 0l14 80h244q45 0 73 23t36 70l10 61q1 6 1.5 11.5t0.5 10.5q0 59 -73 59h-99q-134 0 -134 115q0 22 4 42l10 54q16 88 63.5 131.5t132.5 43.5h231l-15 -80h-231q-45 0 -69.5 -23.5t-33.5 -71.5l-10 -54q-2 -6 -2 -12v-11q0 -60 74 -60h99q133 0 133 -113
q0 -10 -1 -20.5t-3 -21.5l-10 -61q-14 -87 -65 -130t-136 -43h-244zM409 744h-44l-136 156l32 24l135 -127l182 127l24 -24z" />
    <glyph glyph-name="scaron" unicode="&#x161;" horiz-adv-x="477" 
d="M46 0zM46 0l14 77h258q30 0 49 15t24 44l6 36q1 5 1 13q0 22 -14 33t-40 11h-130q-58 0 -90 18.5t-32 67.5q0 8 1 16t3 18l4 23q7 41 20.5 68t35 43.5t51 23t68.5 6.5h230l-13 -78h-250q-59 0 -71 -62l-3 -16q-1 -5 -1.5 -8.5t-0.5 -7.5q0 -23 14.5 -36.5t44.5 -13.5h133
q54 0 84.5 -18.5t30.5 -65.5q0 -14 -3 -29l-5 -33q-14 -73 -50.5 -109t-108.5 -36h-260zM358 556h-44l-136 156l32 24l135 -127l182 127l24 -24z" />
    <glyph glyph-name="Tcommaaccent" unicode="&#x162;" horiz-adv-x="434" 
d="M124 0zM177 0l109 621h-155l15 80h390l-15 -80h-157l-109 -621h-78zM124 -234l43 194h89l-69 -194h-63z" />
    <glyph glyph-name="tcommaaccent" unicode="&#x163;" horiz-adv-x="289" 
d="M54 0zM189 0q-119 0 -119 114q0 11 1.5 23.5t3.5 26.5l92 524h76l-31 -175h129l-11 -66h-129l-51 -286q-3 -15 -3 -27q0 -63 62 -63h53l-13 -71h-60zM54 -234l43 194h89l-69 -194h-63z" />
    <glyph glyph-name="Tcaron" unicode="&#x164;" horiz-adv-x="434" 
d="M131 0zM177 0l109 621h-155l15 80h390l-15 -80h-157l-109 -621h-78zM370 744h-44l-136 156l32 24l135 -127l182 127l24 -24z" />
    <glyph glyph-name="tcaron" unicode="&#x165;" horiz-adv-x="370" 
d="M70 0zM189 0q-119 0 -119 114q0 11 1.5 23.5t3.5 26.5l92 524h76l-31 -175h129l-11 -66h-129l-51 -286q-3 -15 -3 -27q0 -63 62 -63h53l-13 -71h-60zM360 458l53 243h81l-78 -243h-56z" />
    <glyph glyph-name="Tbar" unicode="&#x166;" horiz-adv-x="434" 
d="M177 0l53 302h-75l9 52h75l47 267h-155l14 80h390l-14 -80h-157l-47 -267h77l-9 -52h-77l-53 -302h-78z" />
    <glyph glyph-name="tbar" unicode="&#x167;" horiz-adv-x="289" 
d="M163 236l-13 -75q-3 -17 -3 -29q0 -61 61 -61h53l-12 -71h-60q-120 0 -120 115q0 11 1.5 23t3.5 26l93 524h76l-31 -175h129l-12 -66h-129l-28 -159h123l-9 -52h-123z" />
    <glyph glyph-name="Utilde" unicode="&#x168;" horiz-adv-x="522" 
d="M71 0zM214 0q-143 0 -143 123q0 20 5 48l94 530h78l-94 -530q-3 -15 -3 -26q0 -65 75 -65h99q87 0 103 91l94 530h78l-94 -530q-30 -171 -198 -171h-94zM600 865q-14 -33 -44.5 -58.5t-75.5 -25.5q-28 0 -46.5 7.5t-34.5 17t-32.5 17t-40.5 7.5q-25 0 -43.5 -12
t-31.5 -39l-37 21q14 33 44.5 57.5t75.5 24.5q27 0 46.5 -7.5t36 -16.5t33 -16.5t38.5 -7.5q51 0 73 52z" />
    <glyph glyph-name="utilde" unicode="&#x169;" horiz-adv-x="494" 
d="M68 0zM372 0l11 62q-20 -35 -46.5 -48.5t-70.5 -13.5h-104q-94 0 -94 101q0 24 6 56l62 356h74l-62 -352q-3 -17 -3 -28q0 -56 50 -56h118q39 0 58.5 21t27.5 64l61 351h75l-90 -513h-73zM553 677q-14 -33 -44.5 -58.5t-75.5 -25.5q-28 0 -46.5 7.5t-34.5 17t-32.5 17
t-40.5 7.5q-25 0 -43.5 -12t-31.5 -39l-37 21q14 33 44.5 57.5t75.5 24.5q27 0 46.5 -7.5t36 -16.5t33 -16.5t38.5 -7.5q51 0 73 52z" />
    <glyph glyph-name="Umacron" unicode="&#x16a;" horiz-adv-x="522" 
d="M71 0zM214 0q-143 0 -143 123q0 20 5 48l94 530h78l-94 -530q-3 -15 -3 -26q0 -65 75 -65h99q87 0 103 91l94 530h78l-94 -530q-30 -171 -198 -171h-94zM238 806l11 60h329l-11 -60h-329z" />
    <glyph glyph-name="umacron" unicode="&#x16b;" horiz-adv-x="494" 
d="M68 0zM372 0l11 62q-20 -35 -46.5 -48.5t-70.5 -13.5h-104q-94 0 -94 101q0 24 6 56l62 356h74l-62 -352q-3 -17 -3 -28q0 -56 50 -56h118q39 0 58.5 21t27.5 64l61 351h75l-90 -513h-73zM191 618l11 60h329l-11 -60h-329z" />
    <glyph glyph-name="Ubreve" unicode="&#x16c;" horiz-adv-x="522" 
d="M71 0zM214 0q-143 0 -143 123q0 20 5 48l94 530h78l-94 -530q-3 -15 -3 -26q0 -65 75 -65h99q87 0 103 91l94 530h78l-94 -530q-30 -171 -198 -171h-94zM603 884q-11 -24 -30.5 -49t-46.5 -45t-61 -33t-73 -13t-69.5 13t-50.5 33t-30.5 45t-10.5 49l41 23
q3 -49 38.5 -81.5t89.5 -32.5q56 0 100 31.5t70 82.5z" />
    <glyph glyph-name="ubreve" unicode="&#x16d;" horiz-adv-x="494" 
d="M68 0zM372 0l11 62q-20 -35 -46.5 -48.5t-70.5 -13.5h-104q-94 0 -94 101q0 24 6 56l62 356h74l-62 -352q-3 -17 -3 -28q0 -56 50 -56h118q39 0 58.5 21t27.5 64l61 351h75l-90 -513h-73zM556 696q-11 -24 -30.5 -49t-46.5 -45t-61 -33t-73 -13t-69.5 13t-50.5 33
t-30.5 45t-10.5 49l41 23q3 -49 38.5 -81.5t89.5 -32.5q56 0 100 31.5t70 82.5z" />
    <glyph glyph-name="Uring" unicode="&#x16e;" horiz-adv-x="522" 
d="M71 0zM214 0q-143 0 -143 123q0 20 5 48l94 530h78l-94 -530q-3 -15 -3 -26q0 -65 75 -65h99q87 0 103 91l94 530h78l-94 -530q-30 -171 -198 -171h-94zM548 861q0 -30 -8 -55.5t-27 -44.5t-50 -29.5t-77 -10.5q-63 0 -90 25t-27 67q0 30 8 55.5t26 44t48.5 29.5t75.5 11
q66 0 93.5 -25t27.5 -67zM501 853q0 29 -18 45.5t-63 16.5q-30 0 -50 -7.5t-32 -20t-17 -30t-5 -37.5q0 -29 17.5 -45.5t59.5 -16.5q61 0 84.5 27.5t23.5 67.5z" />
    <glyph glyph-name="uring" unicode="&#x16f;" horiz-adv-x="494" 
d="M68 0zM372 0l11 62q-20 -35 -46.5 -48.5t-70.5 -13.5h-104q-94 0 -94 101q0 24 6 56l62 356h74l-62 -352q-3 -17 -3 -28q0 -56 50 -56h118q39 0 58.5 21t27.5 64l61 351h75l-90 -513h-73zM501 673q0 -30 -8 -55.5t-27 -44.5t-50 -29.5t-77 -10.5q-63 0 -90 25t-27 67
q0 30 8 55.5t26 44t48.5 29.5t75.5 11q66 0 93.5 -25t27.5 -67zM454 665q0 29 -18 45.5t-63 16.5q-30 0 -50 -7.5t-32 -20t-17 -30t-5 -37.5q0 -29 17.5 -45.5t59.5 -16.5q61 0 84.5 27.5t23.5 67.5z" />
    <glyph glyph-name="Uhungarumlaut" unicode="&#x170;" horiz-adv-x="522" 
d="M71 0zM214 0q-143 0 -143 123q0 20 5 48l94 530h78l-94 -530q-3 -15 -3 -26q0 -65 75 -65h99q87 0 103 91l94 530h78l-94 -530q-30 -171 -198 -171h-94zM433 745l113 179h66l-120 -179h-59zM263 745l105 179h65l-111 -179h-59z" />
    <glyph glyph-name="uhungarumlaut" unicode="&#x171;" horiz-adv-x="494" 
d="M68 0zM372 0l11 62q-20 -35 -46.5 -48.5t-70.5 -13.5h-104q-94 0 -94 101q0 24 6 56l62 356h74l-62 -352q-3 -17 -3 -28q0 -56 50 -56h118q39 0 58.5 21t27.5 64l61 351h75l-90 -513h-73zM386 557l113 179h66l-120 -179h-59zM216 557l105 179h65l-111 -179h-59z" />
    <glyph glyph-name="Uogonek" unicode="&#x172;" horiz-adv-x="522" 
d="M166 -234q-48 0 -72 18.5t-24 53.5q0 39 24.5 70.5t79.5 53.5l96 38h-56q-143 0 -143 123q0 20 5 48l93 530h78l-93 -530q-3 -15 -3 -26q0 -65 75 -65h99q87 0 103 91l93 530h78l-93 -530q-30 -166 -189 -171l-126 -53q-24 -10 -37 -25.5t-13 -33.5q0 -17 12.5 -27.5
t41.5 -10.5h95l-15 -84h-109z" />
    <glyph glyph-name="uogonek" unicode="&#x173;" horiz-adv-x="494" 
d="M294 -234q-48 0 -72 18.5t-24 53.5q0 39 24.5 70.5t79.5 53.5l96 38h-26l10 62q-20 -35 -46 -48.5t-70 -13.5h-104q-94 0 -94 103q0 12 1 25.5t4 28.5l63 356h74l-62 -352q-3 -17 -3 -30q0 -54 49 -54h118q39 0 58.5 21t27.5 64l62 351h75l-90 -513l-126 -53
q-24 -10 -37 -25.5t-13 -33.5q0 -17 12.5 -27.5t41.5 -10.5h95l-15 -84h-109z" />
    <glyph glyph-name="Wcircumflex" unicode="&#x174;" horiz-adv-x="776" 
d="M140 0zM513 0l-27 545l-224 -545h-85l-37 701h81l23 -574l235 574h72l30 -574l227 574h76l-283 -701h-88zM677 744l-137 126l-180 -126l-24 24l192 156h45l136 -156z" />
    <glyph glyph-name="wcircumflex" unicode="&#x175;" horiz-adv-x="686" 
d="M106 0zM447 0l-35 400l-177 -400h-72l-57 513h78l37 -407l178 407h70l37 -407l179 407h75l-237 -513h-76zM599 556l-137 126l-180 -126l-24 24l192 156h45l136 -156z" />
    <glyph glyph-name="Ycircumflex" unicode="&#x176;" horiz-adv-x="491" 
d="M136 0zM205 0l57 323l-126 378h85l99 -294l204 294h79l-263 -378l-57 -323h-78zM537 744l-137 126l-180 -126l-24 24l192 156h45l136 -156z" />
    <glyph glyph-name="ycircumflex" unicode="&#x177;" horiz-adv-x="480" 
d="M77 0zM109 -159l12 71h145q36 0 59.5 23t31.5 68l7 42h-160q-127 0 -127 111q0 11 1.5 22t3.5 24l54 311h75l-55 -314q-3 -14 -3 -25q0 -59 66 -59h157l70 398h76l-89 -507q-29 -165 -172 -165h-152zM496 556l-137 126l-180 -126l-24 24l192 156h45l136 -156z" />
    <glyph glyph-name="Ydieresis" unicode="&#x178;" horiz-adv-x="491" 
d="M136 0zM205 0l57 323l-126 378h85l99 -294l204 294h79l-263 -378l-57 -323h-78zM454 774l21 119h80l-21 -119h-80zM234 774l21 119h81l-21 -119h-81z" />
    <glyph glyph-name="Zacute" unicode="&#x179;" horiz-adv-x="446" 
d="M36 0zM36 0l11 63l374 558h-276l15 80h373l-8 -45l-383 -576h281l-14 -80h-373zM276 744l-15 26l255 154l21 -40z" />
    <glyph glyph-name="zacute" unicode="&#x17a;" horiz-adv-x="432" 
d="M36 0zM36 0l9 52l321 386h-253l13 75h360l-8 -47l-322 -392h253l-13 -74h-360zM236 556l-15 26l255 154l21 -40z" />
    <glyph glyph-name="Zdotaccent" unicode="&#x17b;" horiz-adv-x="446" 
d="M36 0zM36 0l11 63l374 558h-276l15 80h373l-8 -45l-383 -576h281l-14 -80h-373zM319 774l21 119h80l-21 -119h-80z" />
    <glyph glyph-name="zdotaccent" unicode="&#x17c;" horiz-adv-x="432" 
d="M36 0zM36 0l9 52l321 386h-253l13 75h360l-8 -47l-322 -392h253l-13 -74h-360zM279 586l21 119h80l-21 -119h-80z" />
    <glyph glyph-name="Zcaron" unicode="&#x17d;" horiz-adv-x="446" 
d="M36 0zM36 0l11 63l374 558h-276l15 80h373l-8 -45l-383 -576h281l-14 -80h-373zM376 744h-44l-136 156l32 24l135 -127l182 127l24 -24z" />
    <glyph glyph-name="zcaron" unicode="&#x17e;" horiz-adv-x="432" 
d="M36 0zM36 0l9 52l321 386h-253l13 75h360l-8 -47l-322 -392h253l-13 -74h-360zM337 556h-44l-136 156l32 24l135 -127l182 127l24 -24z" />
    <glyph glyph-name="florin" unicode="&#x192;" horiz-adv-x="665" 
d="M363 349h-76l10 60h85l31 86q22 61 48 101.5t57.5 63.5t68.5 32.5t81 9.5q26 0 42.5 -2.5t30.5 -7.5l-13 -75q-16 9 -31 12.5t-35 3.5q-51 0 -91.5 -26t-62.5 -94l-34 -104h87l-10 -60h-99l-105 -303q-21 -62 -47 -101.5t-57.5 -63t-68.5 -32.5t-82 -9q-27 0 -44 2.5
t-29 7.5l13 75q16 -9 31 -12.5t35 -3.5q51 0 90 26.5t62 92.5z" />
    <glyph glyph-name="Ohorn" unicode="&#x1a0;" horiz-adv-x="650" 
d="M192 0q-66 0 -95.5 30t-29.5 83q0 22 4 41l69 392q12 71 55.5 113t120.5 42h143q49 0 76.5 -19.5t38.5 -51.5q13 -38 28.5 -47.5t30.5 -9.5q24 0 41.5 14t24.5 53l17 96h65l-19 -107q-10 -56 -38 -81t-70 -25q-20 0 -39 8t-33 34l-72 -411q-12 -70 -55 -112t-120 -42
h-143zM501 546q1 5 1.5 10t0.5 10q0 26 -14.5 40.5t-44.5 14.5h-143q-35 0 -56 -20t-27 -55l-69 -391q-1 -5 -1.5 -10t-0.5 -10q0 -26 14.5 -40.5t44.5 -14.5h143q35 0 56 20t27 55z" />
    <glyph glyph-name="ohorn" unicode="&#x1a1;" horiz-adv-x="588" 
d="M181 0q-115 0 -115 103q0 10 1 20.5t3 22.5l39 221q26 146 162 146h130q76 0 98 -43q11 -23 22.5 -30t24.5 -7q24 0 41.5 13.5t24.5 53.5l17 96h66l-19 -107q-10 -56 -37.5 -81t-69.5 -25q-15 0 -28 4t-24 16q-1 -8 -1.5 -17t-2.5 -19l-39 -221q-26 -146 -163 -146h-130z
M437 364q1 6 1.5 11.5t0.5 10.5q0 49 -54 49h-125q-65 0 -77 -71l-38 -216q-1 -6 -1.5 -11t-0.5 -10q0 -50 54 -50h125q65 0 77 71z" />
    <glyph glyph-name="Uhorn" unicode="&#x1af;" horiz-adv-x="648" 
d="M214 0q-143 0 -143 123q0 20 5 48l94 530h78l-94 -530q-3 -15 -3 -26q0 -65 75 -65h99q87 0 103 91l94 530h78l-13 -69q13 -39 27.5 -49t29.5 -10q23 0 39.5 14.5t23.5 52.5l17 96h66l-19 -107q-10 -56 -38 -81t-70 -25q-12 0 -23.5 2.5t-22 9.5t-20 19.5t-17.5 32.5
l-74 -416q-30 -171 -198 -171h-94z" />
    <glyph glyph-name="uhorn" unicode="&#x1b0;" horiz-adv-x="612" 
d="M372 0l11 62q-20 -35 -46.5 -48.5t-70.5 -13.5h-104q-94 0 -94 101q0 24 6 56l62 356h74l-62 -352q-3 -17 -3 -28q0 -56 50 -56h118q39 0 58.5 21t27.5 64l61 351h75l-5 -32q11 -31 24 -39.5t28 -8.5q23 0 39.5 14.5t23.5 52.5l17 96h66l-19 -107q-10 -56 -37.5 -81
t-69.5 -25q-23 0 -43.5 10t-36.5 45l-77 -438h-73z" />
    <glyph glyph-name="Scommaaccent" unicode="&#x218;" horiz-adv-x="493" 
d="M41 0zM41 0l14 80h244q45 0 73 23t36 70l10 61q1 6 1.5 11.5t0.5 10.5q0 59 -73 59h-99q-134 0 -134 115q0 22 4 42l10 54q16 88 63.5 131.5t132.5 43.5h231l-15 -80h-231q-45 0 -69.5 -23.5t-33.5 -71.5l-10 -54q-2 -6 -2 -12v-11q0 -60 74 -60h99q133 0 133 -113
q0 -10 -1 -20.5t-3 -21.5l-10 -61q-14 -87 -65 -130t-136 -43h-244zM156 -234l43 194h89l-69 -194h-63z" />
    <glyph glyph-name="scommaaccent" unicode="&#x219;" horiz-adv-x="477" 
d="M46 0zM46 0l14 77h258q30 0 49 15t24 44l6 36q1 5 1 13q0 22 -14 33t-40 11h-130q-58 0 -90 18.5t-32 67.5q0 8 1 16t3 18l4 23q7 41 20.5 68t35 43.5t51 23t68.5 6.5h230l-13 -78h-250q-59 0 -71 -62l-3 -16q-1 -5 -1.5 -8.5t-0.5 -7.5q0 -23 14.5 -36.5t44.5 -13.5h133
q54 0 84.5 -18.5t30.5 -65.5q0 -14 -3 -29l-5 -33q-14 -73 -50.5 -109t-108.5 -36h-260zM148 -234l43 194h89l-69 -194h-63z" />
    <glyph glyph-name="uni021A" unicode="&#x21a;" horiz-adv-x="434" 
d="M127 0zM177 0l109 621h-155l15 80h390l-15 -80h-157l-109 -621h-78zM127 -234l43 194h89l-69 -194h-63z" />
    <glyph glyph-name="uni021B" unicode="&#x21b;" horiz-adv-x="289" 
d="M54 0zM189 0q-119 0 -119 114q0 11 1.5 23.5t3.5 26.5l92 524h76l-31 -175h129l-11 -66h-129l-51 -286q-3 -15 -3 -27q0 -63 62 -63h53l-13 -71h-60zM54 -234l43 194h89l-69 -194h-63z" />
    <glyph glyph-name="circumflex" unicode="&#x2c6;" horiz-adv-x="465" 
d="M488 556l-137 126l-180 -126l-24 24l192 156h45l136 -156z" />
    <glyph glyph-name="caron" unicode="&#x2c7;" horiz-adv-x="452" 
d="M345 556h-44l-136 156l32 24l135 -127l182 127l24 -24z" />
    <glyph glyph-name="uni02C9" unicode="&#x2c9;" horiz-adv-x="421" 
d="M155 618zM155 618l11 60h329l-11 -60h-329z" />
    <glyph glyph-name="breve" unicode="&#x2d8;" horiz-adv-x="465" 
d="M541 696q-11 -24 -30.5 -49t-46.5 -45t-61 -33t-73 -13t-69.5 13t-50.5 33t-30.5 45t-10.5 49l41 23q3 -49 38.5 -81.5t89.5 -32.5q56 0 100 31.5t70 82.5z" />
    <glyph glyph-name="dotaccent" unicode="&#x2d9;" horiz-adv-x="185" 
d="M156 586l21 119h80l-21 -119h-80z" />
    <glyph glyph-name="ring" unicode="&#x2da;" horiz-adv-x="367" 
d="M437 673q0 -30 -8 -55.5t-27 -44.5t-50 -29.5t-77 -10.5q-63 0 -90 25t-27 67q0 30 8 55.5t26 44t48.5 29.5t75.5 11q66 0 93.5 -25t27.5 -67zM390 665q0 29 -18 45.5t-63 16.5q-30 0 -50 -7.5t-32 -20t-17 -30t-5 -37.5q0 -29 17.5 -45.5t59.5 -16.5q61 0 84.5 27.5
t23.5 67.5z" />
    <glyph glyph-name="ogonek" unicode="&#x2db;" horiz-adv-x="298" 
d="M109 -234q-48 0 -72.5 20.5t-24.5 55.5q0 38 25 68t79 52l96 38h47l-125 -53q-50 -21 -50 -58q0 -17 12.5 -28t41.5 -11h95l-15 -84h-109z" />
    <glyph glyph-name="tilde" unicode="&#x2dc;" horiz-adv-x="466" 
d="M540 677q-14 -33 -44.5 -58.5t-75.5 -25.5q-28 0 -46.5 7.5t-34.5 17t-32.5 17t-40.5 7.5q-25 0 -43.5 -12t-31.5 -39l-37 21q14 33 44.5 57.5t75.5 24.5q27 0 46.5 -7.5t36 -16.5t33 -16.5t38.5 -7.5q51 0 73 52z" />
    <glyph glyph-name="hungarumlaut" unicode="&#x2dd;" horiz-adv-x="395" 
d="M307 557l113 179h66l-120 -179h-59zM137 557l105 179h65l-111 -179h-59z" />
    <glyph glyph-name="tildecomb" unicode="&#x303;" horiz-adv-x="395" 
d="M421 525l-115 93l-149 -93l-20 19l156 116h38l117 -116zM486 738q-11 -27 -38.5 -47t-62.5 -20q-23 0 -38.5 6t-29 13.5t-27.5 14t-34 6.5q-14 0 -33 -8t-31 -33l-32 16q11 26 38.5 46t65.5 20q22 0 37.5 -6.5t29 -14t27.5 -14t34 -6.5q15 0 32 10t28 33z" />
    <glyph glyph-name="hookabovecomb" unicode="&#x309;" horiz-adv-x="311" 
d="M181 519q7 38 25.5 58.5t55.5 20.5q22 0 38.5 14.5t16.5 42.5q0 40 -48 40h-107l12 70h131q86 0 86 -77q0 -57 -31.5 -87.5t-76.5 -30.5q-26 0 -37 -12t-16 -39h-49z" />
    <glyph glyph-name="dotbelowcomb" unicode="&#x323;" horiz-adv-x="172" 
d="M13 -193l21 119h81l-21 -119h-81z" />
    <glyph glyph-name="uni037E" unicode="&#x37e;" horiz-adv-x="208" 
d="M39 0zM39 -93l57 243h79l-77 -243h-59zM129 333l26 150h76l-26 -150h-76z" />
    <glyph glyph-name="Delta" unicode="&#x394;" 
d="M16 0l310 701h90l68 -701h-468zM346 573l-226 -507h277z" />
    <glyph glyph-name="Omega" unicode="&#x3a9;" horiz-adv-x="675" 
d="M439 0l14 77q29 22 55 55t45.5 77t31 98.5t11.5 120.5q0 91 -35.5 139t-114.5 48q-56 0 -96.5 -16.5t-68 -45t-44 -65.5t-25.5 -77t-11.5 -81.5t-2.5 -77.5q0 -64 14 -108t38 -67l-14 -77h-187l11 64h112q-23 22 -41.5 71.5t-18.5 129.5q0 81 16 159t56 140t107.5 100
t170.5 38q61 0 104 -18t70.5 -51.5t40.5 -80.5t13 -104q0 -82 -16 -145t-41 -110t-54 -78.5t-54 -50.5h112l-11 -64h-187z" />
    <glyph glyph-name="pi" unicode="&#x3c0;" horiz-adv-x="615" 
d="M401 0l77 436h-192l-77 -436h-77l77 436h-99l13 77h547l-13 -77h-102l-77 -436h-77z" />
    <glyph glyph-name="Wgrave" unicode="&#x1e80;" horiz-adv-x="776" 
d="M140 0zM513 0l-27 545l-224 -545h-85l-37 701h81l23 -574l235 574h72l30 -574l227 574h76l-283 -701h-88zM386 884l35 40l201 -154l-25 -26z" />
    <glyph glyph-name="wgrave" unicode="&#x1e81;" horiz-adv-x="686" 
d="M106 0zM447 0l-35 400l-177 -400h-72l-57 513h78l37 -407l178 407h70l37 -407l179 407h75l-237 -513h-76zM308 696l35 40l201 -154l-25 -26z" />
    <glyph glyph-name="Wacute" unicode="&#x1e82;" horiz-adv-x="776" 
d="M140 0zM513 0l-27 545l-224 -545h-85l-37 701h81l23 -574l235 574h72l30 -574l227 574h76l-283 -701h-88zM441 744l-15 26l255 154l21 -40z" />
    <glyph glyph-name="wacute" unicode="&#x1e83;" horiz-adv-x="686" 
d="M106 0zM447 0l-35 400l-177 -400h-72l-57 513h78l37 -407l178 407h70l37 -407l179 407h75l-237 -513h-76zM363 556l-15 26l255 154l21 -40z" />
    <glyph glyph-name="Wdieresis" unicode="&#x1e84;" horiz-adv-x="776" 
d="M140 0zM513 0l-27 545l-224 -545h-85l-37 701h81l23 -574l235 574h72l30 -574l227 574h76l-283 -701h-88zM594 774l21 119h80l-21 -119h-80zM374 774l21 119h81l-21 -119h-81z" />
    <glyph glyph-name="wdieresis" unicode="&#x1e85;" horiz-adv-x="686" 
d="M106 0zM447 0l-35 400l-177 -400h-72l-57 513h78l37 -407l178 407h70l37 -407l179 407h75l-237 -513h-76zM516 586l21 119h80l-21 -119h-80zM296 586l21 119h81l-21 -119h-81z" />
    <glyph glyph-name="uni1EA0" unicode="&#x1ea0;" 
d="M16 0zM400 0l-12 139h-235l-60 -139h-77l310 701h90l68 -701h-84zM350 593l-169 -388h201zM175 -193l21 119h81l-21 -119h-81z" />
    <glyph glyph-name="uni1EA1" unicode="&#x1ea1;" horiz-adv-x="479" 
d="M57 0zM161 0q-104 0 -104 87q0 16 3 34l14 75q11 57 45 85.5t97 28.5h199l7 39q2 7 2 13.5v12.5q0 60 -64 60h-215l13 78h215q126 0 126 -114q0 -11 -1 -22.5t-3 -24.5l-62 -352h-272zM403 244h-193q-58 0 -69 -61l-9 -52q-1 -5 -1.5 -9t-0.5 -8q0 -42 50 -42h193z
M165 -193l21 119h81l-21 -119h-81z" />
    <glyph glyph-name="uni1EA2" unicode="&#x1ea2;" 
d="M16 0zM400 0l-12 139h-235l-60 -139h-77l310 701h90l68 -701h-84zM350 593l-169 -388h201zM329 707q7 38 25.5 58.5t55.5 20.5q22 0 38.5 14.5t16.5 42.5q0 40 -48 40h-107l12 70h131q86 0 86 -77q0 -57 -31.5 -87.5t-76.5 -30.5q-26 0 -37 -12t-16 -39h-49z" />
    <glyph glyph-name="uni1EA3" unicode="&#x1ea3;" horiz-adv-x="479" 
d="M57 0zM161 0q-104 0 -104 87q0 16 3 34l14 75q11 57 45 85.5t97 28.5h199l7 39q2 7 2 13.5v12.5q0 60 -64 60h-215l13 78h215q126 0 126 -114q0 -11 -1 -22.5t-3 -24.5l-62 -352h-272zM403 244h-193q-58 0 -69 -61l-9 -52q-1 -5 -1.5 -9t-0.5 -8q0 -42 50 -42h193z
M285 519q7 38 25.5 58.5t55.5 20.5q22 0 38.5 14.5t16.5 42.5q0 40 -48 40h-107l12 70h131q86 0 86 -77q0 -57 -31.5 -87.5t-76.5 -30.5q-26 0 -37 -12t-16 -39h-49z" />
    <glyph glyph-name="uni1EA4" unicode="&#x1ea4;" 
d="M16 0zM400 0l-12 139h-235l-60 -139h-77l310 701h90l68 -701h-84zM350 593l-169 -388h201zM550 767l-16 24l176 108l20 -39zM493 767l-96 91l-125 -91l-18 19l134 113h34l96 -113z" />
    <glyph glyph-name="uni1EA5" unicode="&#x1ea5;" horiz-adv-x="479" 
d="M57 0zM161 0q-104 0 -104 87q0 16 3 34l14 75q11 57 45 85.5t97 28.5h199l7 39q2 7 2 13.5v12.5q0 60 -64 60h-215l13 78h215q126 0 126 -114q0 -11 -1 -22.5t-3 -24.5l-62 -352h-272zM403 244h-193q-58 0 -69 -61l-9 -52q-1 -5 -1.5 -9t-0.5 -8q0 -42 50 -42h193z
M521 579l-16 24l176 108l20 -39zM464 579l-96 91l-125 -91l-18 19l134 113h34l96 -113z" />
    <glyph glyph-name="uni1EA6" unicode="&#x1ea6;" 
d="M16 0zM400 0l-12 139h-235l-60 -139h-77l310 701h90l68 -701h-84zM350 593l-169 -388h201zM69 860l34 39l137 -108l-23 -24zM495 767l-94 91l-128 -91l-18 19l136 113h33l95 -113z" />
    <glyph glyph-name="uni1EA7" unicode="&#x1ea7;" horiz-adv-x="479" 
d="M38 0zM161 0q-104 0 -104 87q0 16 3 34l14 75q11 57 45 85.5t97 28.5h199l7 39q2 7 2 13.5v12.5q0 60 -64 60h-215l13 78h215q126 0 126 -114q0 -11 -1 -22.5t-3 -24.5l-62 -352h-272zM403 244h-193q-58 0 -69 -61l-9 -52q-1 -5 -1.5 -9t-0.5 -8q0 -42 50 -42h193z
M38 672l34 39l137 -108l-23 -24zM464 579l-94 91l-128 -91l-18 19l136 113h33l95 -113z" />
    <glyph glyph-name="uni1EA8" unicode="&#x1ea8;" 
d="M16 0zM400 0l-12 139h-235l-60 -139h-77l310 701h90l68 -701h-84zM350 593l-169 -388h201zM556 762q5 28 18 41.5t37 13.5q15 0 27 11t12 28q0 27 -32 27h-76l9 51h93q59 0 59 -55q0 -39 -21.5 -60.5t-55.5 -21.5q-16 0 -23 -8t-11 -27h-36zM489 767l-96 91l-125 -91
l-18 19l134 113h34l96 -113z" />
    <glyph glyph-name="uni1EA9" unicode="&#x1ea9;" horiz-adv-x="479" 
d="M57 0zM161 0q-104 0 -104 87q0 16 3 34l14 75q11 57 45 85.5t97 28.5h199l7 39q2 7 2 13.5v12.5q0 60 -64 60h-215l13 78h215q126 0 126 -114q0 -11 -1 -22.5t-3 -24.5l-62 -352h-272zM403 244h-193q-58 0 -69 -61l-9 -52q-1 -5 -1.5 -9t-0.5 -8q0 -42 50 -42h193z
M532 574q5 28 18 41.5t37 13.5q15 0 27 11t12 28q0 27 -32 27h-76l9 51h93q59 0 59 -55q0 -39 -21.5 -60.5t-55.5 -21.5q-16 0 -23 -8t-11 -27h-36zM465 579l-96 91l-125 -91l-18 19l134 113h34l96 -113z" />
    <glyph glyph-name="uni1EAA" unicode="&#x1eaa;" 
d="M16 0zM400 0l-12 139h-235l-60 -139h-77l310 701h90l68 -701h-84zM350 593l-169 -388h201zM506 713l-115 93l-149 -93l-20 19l156 116h38l117 -116zM571 926q-11 -27 -38.5 -47t-62.5 -20q-23 0 -38.5 6t-29 13.5t-27.5 14t-34 6.5q-14 0 -33 -8t-31 -33l-32 16
q11 26 38.5 46t65.5 20q22 0 37.5 -6.5t29 -14t27.5 -14t34 -6.5q15 0 32 10t28 33z" />
    <glyph glyph-name="uni1EAB" unicode="&#x1eab;" horiz-adv-x="479" 
d="M57 0zM161 0q-104 0 -104 87q0 16 3 34l14 75q11 57 45 85.5t97 28.5h199l7 39q2 7 2 13.5v12.5q0 60 -64 60h-215l13 78h215q126 0 126 -114q0 -11 -1 -22.5t-3 -24.5l-62 -352h-272zM403 244h-193q-58 0 -69 -61l-9 -52q-1 -5 -1.5 -9t-0.5 -8q0 -42 50 -42h193z
M473 525l-115 93l-149 -93l-20 19l156 116h38l117 -116zM538 738q-11 -27 -38.5 -47t-62.5 -20q-23 0 -38.5 6t-29 13.5t-27.5 14t-34 6.5q-14 0 -33 -8t-31 -33l-32 16q11 26 38.5 46t65.5 20q22 0 37.5 -6.5t29 -14t27.5 -14t34 -6.5q15 0 32 10t28 33z" />
    <glyph glyph-name="uni1EAC" unicode="&#x1eac;" 
d="M16 0zM400 0l-12 139h-235l-60 -139h-77l310 701h90l68 -701h-84zM350 593l-169 -388h201zM539 744l-137 126l-180 -126l-24 24l192 156h45l136 -156zM169 -193l21 119h81l-21 -119h-81z" />
    <glyph glyph-name="uni1EAD" unicode="&#x1ead;" horiz-adv-x="479" 
d="M57 0zM161 0q-104 0 -104 87q0 16 3 34l14 75q11 57 45 85.5t97 28.5h199l7 39q2 7 2 13.5v12.5q0 60 -64 60h-215l13 78h215q126 0 126 -114q0 -11 -1 -22.5t-3 -24.5l-62 -352h-272zM403 244h-193q-58 0 -69 -61l-9 -52q-1 -5 -1.5 -9t-0.5 -8q0 -42 50 -42h193z
M506 556l-137 126l-180 -126l-24 24l192 156h45l136 -156zM165 -193l21 119h81l-21 -119h-81z" />
    <glyph glyph-name="uni1EAE" unicode="&#x1eae;" 
d="M16 0zM400 0l-12 139h-235l-60 -139h-77l310 701h90l68 -701h-84zM350 593l-169 -388h201zM542 838q-9 -21 -24.5 -43t-37 -40t-48.5 -29.5t-57 -11.5q-29 0 -51.5 10.5t-38.5 28t-24 38.5t-8 42v5l33 21q2 -46 28 -73.5t68 -27.5q44 0 78 27.5t55 72.5zM336 834l-12 21
l147 98l18 -35z" />
    <glyph glyph-name="uni1EAF" unicode="&#x1eaf;" horiz-adv-x="479" 
d="M57 0zM161 0q-104 0 -104 87q0 16 3 34l14 75q11 57 45 85.5t97 28.5h199l7 39q2 7 2 13.5v12.5q0 60 -64 60h-215l13 78h215q126 0 126 -114q0 -11 -1 -22.5t-3 -24.5l-62 -352h-272zM403 244h-193q-58 0 -69 -61l-9 -52q-1 -5 -1.5 -9t-0.5 -8q0 -42 50 -42h193z
M509 650q-9 -21 -24.5 -43t-37 -40t-48.5 -29.5t-57 -11.5q-29 0 -51.5 10.5t-38.5 28t-24 38.5t-8 42v5l33 21q2 -46 28 -73.5t68 -27.5q44 0 78 27.5t55 72.5zM303 646l-12 21l147 98l18 -35z" />
    <glyph glyph-name="uni1EB0" unicode="&#x1eb0;" 
d="M16 0zM400 0l-12 139h-235l-60 -139h-77l310 701h90l68 -701h-84zM350 593l-169 -388h201zM542 838q-6 -21 -21.5 -43t-37.5 -40t-49.5 -29.5t-57.5 -11.5t-53 11.5t-38 29.5t-23 40t-9 43l33 20q6 -45 30.5 -72.5t68.5 -27.5q39 0 75.5 28t54.5 73zM335 918l29 35
l114 -98l-20 -21z" />
    <glyph glyph-name="uni1EB1" unicode="&#x1eb1;" horiz-adv-x="479" 
d="M57 0zM161 0q-104 0 -104 87q0 16 3 34l14 75q11 57 45 85.5t97 28.5h199l7 39q2 7 2 13.5v12.5q0 60 -64 60h-215l13 78h215q126 0 126 -114q0 -11 -1 -22.5t-3 -24.5l-62 -352h-272zM403 244h-193q-58 0 -69 -61l-9 -52q-1 -5 -1.5 -9t-0.5 -8q0 -42 50 -42h193z
M509 650q-6 -21 -21.5 -43t-37.5 -40t-49.5 -29.5t-57.5 -11.5t-53 11.5t-38 29.5t-23 40t-9 43l33 20q6 -45 30.5 -72.5t68.5 -27.5q39 0 75.5 28t54.5 73zM302 730l29 35l114 -98l-20 -21z" />
    <glyph glyph-name="uni1EB2" unicode="&#x1eb2;" 
d="M16 0zM400 0l-12 139h-235l-60 -139h-77l310 701h90l68 -701h-84zM350 593l-169 -388h201zM541 837q-7 -21 -22.5 -43t-37.5 -39.5t-49 -29t-57 -11.5t-53 11.5t-38 29t-23 39.5t-9 43l34 21q5 -45 29 -72.5t69 -27.5q19 0 38 7.5t36.5 21t32 32t23.5 39.5zM362 807
q4 21 11.5 31t16.5 14.5t19 5.5t18 3.5t13 8.5t5 20q0 23 -30 23h-68l7 40h83q54 0 54 -44q0 -24 -6.5 -37t-16.5 -20t-22 -10t-23 -6.5t-19.5 -9.5t-10.5 -19h-31z" />
    <glyph glyph-name="uni1EB3" unicode="&#x1eb3;" horiz-adv-x="479" 
d="M57 0zM161 0q-104 0 -104 87q0 16 3 34l14 75q11 57 45 85.5t97 28.5h199l7 39q2 7 2 13.5v12.5q0 60 -64 60h-215l13 78h215q126 0 126 -114q0 -11 -1 -22.5t-3 -24.5l-62 -352h-272zM403 244h-193q-58 0 -69 -61l-9 -52q-1 -5 -1.5 -9t-0.5 -8q0 -42 50 -42h193z
M508 649q-7 -21 -22.5 -43t-37.5 -39.5t-49 -29t-57 -11.5t-53 11.5t-38 29t-23 39.5t-9 43l34 21q5 -45 29 -72.5t69 -27.5q19 0 38 7.5t36.5 21t32 32t23.5 39.5zM329 619q4 21 11.5 31t16.5 14.5t19 5.5t18 3.5t13 8.5t5 20q0 23 -30 23h-68l7 40h83q54 0 54 -44
q0 -24 -6.5 -37t-16.5 -20t-22 -10t-23 -6.5t-19.5 -9.5t-10.5 -19h-31z" />
    <glyph glyph-name="uni1EB4" unicode="&#x1eb4;" 
d="M16 0zM400 0l-12 139h-235l-60 -139h-77l310 701h90l68 -701h-84zM350 593l-169 -388h201zM542 838q-9 -21 -24.5 -43t-37 -40t-48.5 -29.5t-57 -11.5q-29 0 -51.5 10.5t-38.5 28t-24 38.5t-8 42v5l33 21q2 -46 28 -73.5t68 -27.5q44 0 78 27.5t55 72.5zM531 936
q-9 -23 -28 -40t-47 -17q-18 0 -29 5.5t-19.5 12.5t-18 12.5t-24.5 5.5t-27.5 -8t-20.5 -28l-24 13q10 23 30.5 39.5t47.5 16.5q17 0 27.5 -6t19.5 -12.5t18.5 -12.5t24.5 -6q32 0 48 38z" />
    <glyph glyph-name="uni1EB5" unicode="&#x1eb5;" horiz-adv-x="479" 
d="M57 0zM161 0q-104 0 -104 87q0 16 3 34l14 75q11 57 45 85.5t97 28.5h199l7 39q2 7 2 13.5v12.5q0 60 -64 60h-215l13 78h215q126 0 126 -114q0 -11 -1 -22.5t-3 -24.5l-62 -352h-272zM403 244h-193q-58 0 -69 -61l-9 -52q-1 -5 -1.5 -9t-0.5 -8q0 -42 50 -42h193z
M509 650q-9 -21 -24.5 -43t-37 -40t-48.5 -29.5t-57 -11.5q-29 0 -51.5 10.5t-38.5 28t-24 38.5t-8 42v5l33 21q2 -46 28 -73.5t68 -27.5q44 0 78 27.5t55 72.5zM498 748q-9 -23 -28 -40t-47 -17q-18 0 -29 5.5t-19.5 12.5t-18 12.5t-24.5 5.5t-27.5 -8t-20.5 -28l-24 13
q10 23 30.5 39.5t47.5 16.5q17 0 27.5 -6t19.5 -12.5t18.5 -12.5t24.5 -6q32 0 48 38z" />
    <glyph glyph-name="uni1EB6" unicode="&#x1eb6;" 
d="M16 0zM400 0l-12 139h-235l-60 -139h-77l310 701h90l68 -701h-84zM350 593l-169 -388h201zM592 884q-11 -24 -30.5 -49t-46.5 -45t-61 -33t-73 -13t-69.5 13t-50.5 33t-30.5 45t-10.5 49l41 23q3 -49 38.5 -81.5t89.5 -32.5q56 0 100 31.5t70 82.5zM172 -193l21 119h81
l-21 -119h-81z" />
    <glyph glyph-name="uni1EB7" unicode="&#x1eb7;" horiz-adv-x="479" 
d="M57 0zM161 0q-104 0 -104 87q0 16 3 34l14 75q11 57 45 85.5t97 28.5h199l7 39q2 7 2 13.5v12.5q0 60 -64 60h-215l13 78h215q126 0 126 -114q0 -11 -1 -22.5t-3 -24.5l-62 -352h-272zM403 244h-193q-58 0 -69 -61l-9 -52q-1 -5 -1.5 -9t-0.5 -8q0 -42 50 -42h193z
M558 696q-11 -24 -30.5 -49t-46.5 -45t-61 -33t-73 -13t-69.5 13t-50.5 33t-30.5 45t-10.5 49l41 23q3 -49 38.5 -81.5t89.5 -32.5q56 0 100 31.5t70 82.5zM165 -193l21 119h81l-21 -119h-81z" />
    <glyph glyph-name="uni1EB8" unicode="&#x1eb8;" horiz-adv-x="478" 
d="M49 0zM49 0l124 701h390l-15 -80h-312l-40 -228h186l-13 -74h-186l-42 -239h312l-14 -80h-390zM180 -193l21 119h81l-21 -119h-81z" />
    <glyph glyph-name="uni1EB9" unicode="&#x1eb9;" horiz-adv-x="480" 
d="M68 0zM194 0q-126 0 -126 115q0 23 4 46l34 191q29 161 178 161h91q127 0 127 -114q0 -24 -4 -47l-22 -127h-319l-11 -62q-3 -14 -3 -26q0 -60 65 -60h228l-14 -77h-228zM426 354q2 7 2 13.5v12.5q0 60 -64 60h-92q-78 0 -93 -86l-11 -63h247zM165 -193l21 119h81
l-21 -119h-81z" />
    <glyph glyph-name="uni1EBA" unicode="&#x1eba;" horiz-adv-x="478" 
d="M49 0zM49 0l124 701h390l-15 -80h-312l-40 -228h186l-13 -74h-186l-42 -239h312l-14 -80h-390zM322 707q7 38 25.5 58.5t55.5 20.5q22 0 38.5 14.5t16.5 42.5q0 40 -48 40h-107l12 70h131q86 0 86 -77q0 -57 -31.5 -87.5t-76.5 -30.5q-26 0 -37 -12t-16 -39h-49z" />
    <glyph glyph-name="uni1EBB" unicode="&#x1ebb;" horiz-adv-x="480" 
d="M68 0zM194 0q-126 0 -126 115q0 23 4 46l34 191q29 161 178 161h91q127 0 127 -114q0 -24 -4 -47l-22 -127h-319l-11 -62q-3 -14 -3 -26q0 -60 65 -60h228l-14 -77h-228zM426 354q2 7 2 13.5v12.5q0 60 -64 60h-92q-78 0 -93 -86l-11 -63h247zM281 519q7 38 25.5 58.5
t55.5 20.5q22 0 38.5 14.5t16.5 42.5q0 40 -48 40h-107l12 70h131q86 0 86 -77q0 -57 -31.5 -87.5t-76.5 -30.5q-26 0 -37 -12t-16 -39h-49z" />
    <glyph glyph-name="uni1EBC" unicode="&#x1ebc;" horiz-adv-x="478" 
d="M49 0zM49 0l124 701h390l-15 -80h-312l-40 -228h186l-13 -74h-186l-42 -239h312l-14 -80h-390zM593 865q-14 -33 -44.5 -58.5t-75.5 -25.5q-28 0 -46.5 7.5t-34.5 17t-32.5 17t-40.5 7.5q-25 0 -43.5 -12t-31.5 -39l-37 21q14 33 44.5 57.5t75.5 24.5q27 0 46.5 -7.5
t36 -16.5t33 -16.5t38.5 -7.5q51 0 73 52z" />
    <glyph glyph-name="uni1EBD" unicode="&#x1ebd;" horiz-adv-x="480" 
d="M68 0zM194 0q-126 0 -126 115q0 23 4 46l34 191q29 161 178 161h91q127 0 127 -114q0 -24 -4 -47l-22 -127h-319l-11 -62q-3 -14 -3 -26q0 -60 65 -60h228l-14 -77h-228zM426 354q2 7 2 13.5v12.5q0 60 -64 60h-92q-78 0 -93 -86l-11 -63h247zM556 677
q-14 -33 -44.5 -58.5t-75.5 -25.5q-28 0 -46.5 7.5t-34.5 17t-32.5 17t-40.5 7.5q-25 0 -43.5 -12t-31.5 -39l-37 21q14 33 44.5 57.5t75.5 24.5q27 0 46.5 -7.5t36 -16.5t33 -16.5t38.5 -7.5q51 0 73 52z" />
    <glyph glyph-name="uni1EBE" unicode="&#x1ebe;" horiz-adv-x="478" 
d="M49 0zM49 0l124 701h390l-15 -80h-312l-40 -228h186l-13 -74h-186l-42 -239h312l-14 -80h-390zM550 767l-16 24l176 108l20 -39zM493 767l-96 91l-125 -91l-18 19l134 113h34l96 -113z" />
    <glyph glyph-name="uni1EBF" unicode="&#x1ebf;" horiz-adv-x="480" 
d="M68 0zM194 0q-126 0 -126 115q0 23 4 46l34 191q29 161 178 161h91q127 0 127 -114q0 -24 -4 -47l-22 -127h-319l-11 -62q-3 -14 -3 -26q0 -60 65 -60h228l-14 -77h-228zM426 354q2 7 2 13.5v12.5q0 60 -64 60h-92q-78 0 -93 -86l-11 -63h247zM518 579l-16 24l176 108
l20 -39zM461 579l-96 91l-125 -91l-18 19l134 113h34l96 -113z" />
    <glyph glyph-name="uni1EC0" unicode="&#x1ec0;" horiz-adv-x="478" 
d="M49 0zM49 0l124 701h390l-15 -80h-312l-40 -228h186l-13 -74h-186l-42 -239h312l-14 -80h-390zM72 860l34 39l137 -108l-23 -24zM498 767l-94 91l-128 -91l-18 19l136 113h33l95 -113z" />
    <glyph glyph-name="uni1EC1" unicode="&#x1ec1;" horiz-adv-x="480" 
d="M33 0zM194 0q-126 0 -126 115q0 23 4 46l34 191q29 161 178 161h91q127 0 127 -114q0 -24 -4 -47l-22 -127h-319l-11 -62q-3 -14 -3 -26q0 -60 65 -60h228l-14 -77h-228zM426 354q2 7 2 13.5v12.5q0 60 -64 60h-92q-78 0 -93 -86l-11 -63h247zM33 672l34 39l137 -108
l-23 -24zM459 579l-94 91l-128 -91l-18 19l136 113h33l95 -113z" />
    <glyph glyph-name="uni1EC2" unicode="&#x1ec2;" horiz-adv-x="478" 
d="M49 0zM49 0l124 701h390l-15 -80h-312l-40 -228h186l-13 -74h-186l-42 -239h312l-14 -80h-390zM562 762q5 28 18 41.5t37 13.5q15 0 27 11t12 28q0 27 -32 27h-76l9 51h93q59 0 59 -55q0 -39 -21.5 -60.5t-55.5 -21.5q-16 0 -23 -8t-11 -27h-36zM495 767l-96 91l-125 -91
l-18 19l134 113h34l96 -113z" />
    <glyph glyph-name="uni1EC3" unicode="&#x1ec3;" horiz-adv-x="480" 
d="M68 0zM194 0q-126 0 -126 115q0 23 4 46l34 191q29 161 178 161h91q127 0 127 -114q0 -24 -4 -47l-22 -127h-319l-11 -62q-3 -14 -3 -26q0 -60 65 -60h228l-14 -77h-228zM426 354q2 7 2 13.5v12.5q0 60 -64 60h-92q-78 0 -93 -86l-11 -63h247zM523 574q5 28 18 41.5
t37 13.5q15 0 27 11t12 28q0 27 -32 27h-76l9 51h93q59 0 59 -55q0 -39 -21.5 -60.5t-55.5 -21.5q-16 0 -23 -8t-11 -27h-36zM456 579l-96 91l-125 -91l-18 19l134 113h34l96 -113z" />
    <glyph glyph-name="uni1EC4" unicode="&#x1ec4;" horiz-adv-x="478" 
d="M49 0zM49 0l124 701h390l-15 -80h-312l-40 -228h186l-13 -74h-186l-42 -239h312l-14 -80h-390zM504 713l-115 93l-149 -93l-20 19l156 116h38l117 -116zM569 926q-11 -27 -38.5 -47t-62.5 -20q-23 0 -38.5 6t-29 13.5t-27.5 14t-34 6.5q-14 0 -33 -8t-31 -33l-32 16
q11 26 38.5 46t65.5 20q22 0 37.5 -6.5t29 -14t27.5 -14t34 -6.5q15 0 32 10t28 33z" />
    <glyph glyph-name="uni1EC5" unicode="&#x1ec5;" horiz-adv-x="480" 
d="M68 0zM194 0q-126 0 -126 115q0 23 4 46l34 191q29 161 178 161h91q127 0 127 -114q0 -24 -4 -47l-22 -127h-319l-11 -62q-3 -14 -3 -26q0 -60 65 -60h228l-14 -77h-228zM426 354q2 7 2 13.5v12.5q0 60 -64 60h-92q-78 0 -93 -86l-11 -63h247zM473 525l-115 93l-149 -93
l-20 19l156 116h38l117 -116zM538 738q-11 -27 -38.5 -47t-62.5 -20q-23 0 -38.5 6t-29 13.5t-27.5 14t-34 6.5q-14 0 -33 -8t-31 -33l-32 16q11 26 38.5 46t65.5 20q22 0 37.5 -6.5t29 -14t27.5 -14t34 -6.5q15 0 32 10t28 33z" />
    <glyph glyph-name="uni1EC6" unicode="&#x1ec6;" horiz-adv-x="478" 
d="M49 0zM49 0l124 701h390l-15 -80h-312l-40 -228h186l-13 -74h-186l-42 -239h312l-14 -80h-390zM551 744l-137 126l-180 -126l-24 24l192 156h45l136 -156zM174 -193l21 119h81l-21 -119h-81z" />
    <glyph glyph-name="uni1EC7" unicode="&#x1ec7;" horiz-adv-x="480" 
d="M68 0zM194 0q-126 0 -126 115q0 23 4 46l34 191q29 161 178 161h91q127 0 127 -114q0 -24 -4 -47l-22 -127h-319l-11 -62q-3 -14 -3 -26q0 -60 65 -60h228l-14 -77h-228zM426 354q2 7 2 13.5v12.5q0 60 -64 60h-92q-78 0 -93 -86l-11 -63h247zM496 556l-137 126
l-180 -126l-24 24l192 156h45l136 -156zM165 -193l21 119h81l-21 -119h-81z" />
    <glyph glyph-name="uni1EC8" unicode="&#x1ec8;" horiz-adv-x="186" 
d="M54 0zM54 0l124 701h78l-124 -701h-78zM182 707q7 38 25.5 58.5t55.5 20.5q22 0 38.5 14.5t16.5 42.5q0 40 -48 40h-107l12 70h131q86 0 86 -77q0 -57 -31.5 -87.5t-76.5 -30.5q-26 0 -37 -12t-16 -39h-49z" />
    <glyph glyph-name="uni1EC9" unicode="&#x1ec9;" horiz-adv-x="184" 
d="M54 0zM54 0l90 513h76l-90 -513h-76zM149 519q7 38 25.5 58.5t55.5 20.5q22 0 38.5 14.5t16.5 42.5q0 40 -48 40h-107l12 70h131q86 0 86 -77q0 -57 -31.5 -87.5t-76.5 -30.5q-26 0 -37 -12t-16 -39h-49z" />
    <glyph glyph-name="uni1ECA" unicode="&#x1eca;" horiz-adv-x="186" 
d="M18 0zM54 0l124 701h78l-124 -701h-78zM18 -193l21 119h81l-21 -119h-81z" />
    <glyph glyph-name="uni1ECB" unicode="&#x1ecb;" horiz-adv-x="184" 
d="M17 0zM156 581l22 120h76l-22 -120h-76zM54 0l90 513h76l-90 -513h-76zM17 -193l21 119h81l-21 -119h-81z" />
    <glyph glyph-name="uni1ECC" unicode="&#x1ecc;" horiz-adv-x="527" 
d="M67 0zM192 0q-66 0 -95.5 30t-29.5 83q0 22 4 41l69 392q12 71 55.5 113t120.5 42h143q65 0 94.5 -30t29.5 -83q0 -22 -4 -42l-69 -392q-12 -70 -55 -112t-120 -42h-143zM501 546q1 6 1.5 12t0.5 11q0 52 -59 52h-143q-35 0 -56 -20t-27 -55l-69 -391q-2 -6 -2 -12v-11
q0 -52 59 -52h143q35 0 56 20t27 55zM189 -193l21 119h81l-21 -119h-81z" />
    <glyph glyph-name="uni1ECD" unicode="&#x1ecd;" horiz-adv-x="492" 
d="M67 0zM210 0q-79 0 -111 23t-32 79q0 15 2 33t6 39l29 165q9 51 23 85t36.5 53.5t56 27.5t80.5 8h72q79 0 111 -23.5t32 -80.5q0 -32 -7 -70l-29 -165q-16 -87 -53.5 -130.5t-114.5 -43.5h-101zM435 352q3 19 3 34q0 27 -12.5 38t-40.5 11h-125q-65 0 -77 -71l-36 -204
q-3 -20 -3 -33q0 -27 12.5 -38.5t40.5 -11.5h125q65 0 77 71zM171 -193l21 119h81l-21 -119h-81z" />
    <glyph glyph-name="uni1ECE" unicode="&#x1ece;" horiz-adv-x="527" 
d="M67 0zM192 0q-66 0 -95.5 30t-29.5 83q0 22 4 41l69 392q12 71 55.5 113t120.5 42h143q65 0 94.5 -30t29.5 -83q0 -22 -4 -42l-69 -392q-12 -70 -55 -112t-120 -42h-143zM501 546q1 6 1.5 12t0.5 11q0 52 -59 52h-143q-35 0 -56 -20t-27 -55l-69 -391q-2 -6 -2 -12v-11
q0 -52 59 -52h143q35 0 56 20t27 55zM342 707q7 38 25.5 58.5t55.5 20.5q22 0 38.5 14.5t16.5 42.5q0 40 -48 40h-107l12 70h131q86 0 86 -77q0 -57 -31.5 -87.5t-76.5 -30.5q-26 0 -37 -12t-16 -39h-49z" />
    <glyph glyph-name="uni1ECF" unicode="&#x1ecf;" horiz-adv-x="492" 
d="M67 0zM210 0q-79 0 -111 23t-32 79q0 15 2 33t6 39l29 165q9 51 23 85t36.5 53.5t56 27.5t80.5 8h72q79 0 111 -23.5t32 -80.5q0 -32 -7 -70l-29 -165q-16 -87 -53.5 -130.5t-114.5 -43.5h-101zM435 352q3 19 3 34q0 27 -12.5 38t-40.5 11h-125q-65 0 -77 -71l-36 -204
q-3 -20 -3 -33q0 -27 12.5 -38.5t40.5 -11.5h125q65 0 77 71zM292 519q7 38 25.5 58.5t55.5 20.5q22 0 38.5 14.5t16.5 42.5q0 40 -48 40h-107l12 70h131q86 0 86 -77q0 -57 -31.5 -87.5t-76.5 -30.5q-26 0 -37 -12t-16 -39h-49z" />
    <glyph glyph-name="uni1ED0" unicode="&#x1ed0;" horiz-adv-x="527" 
d="M67 0zM192 0q-66 0 -95.5 30t-29.5 83q0 22 4 41l69 392q12 71 55.5 113t120.5 42h143q65 0 94.5 -30t29.5 -83q0 -22 -4 -42l-69 -392q-12 -70 -55 -112t-120 -42h-143zM501 546q1 6 1.5 12t0.5 11q0 52 -59 52h-143q-35 0 -56 -20t-27 -55l-69 -391q-2 -6 -2 -12v-11
q0 -52 59 -52h143q35 0 56 20t27 55zM564 767l-16 24l176 108l20 -39zM507 767l-96 91l-125 -91l-18 19l134 113h34l96 -113z" />
    <glyph glyph-name="uni1ED1" unicode="&#x1ed1;" horiz-adv-x="492" 
d="M67 0zM210 0q-79 0 -111 23t-32 79q0 15 2 33t6 39l29 165q9 51 23 85t36.5 53.5t56 27.5t80.5 8h72q79 0 111 -23.5t32 -80.5q0 -32 -7 -70l-29 -165q-16 -87 -53.5 -130.5t-114.5 -43.5h-101zM435 352q3 19 3 34q0 27 -12.5 38t-40.5 11h-125q-65 0 -77 -71l-36 -204
q-3 -20 -3 -33q0 -27 12.5 -38.5t40.5 -11.5h125q65 0 77 71zM516 579l-16 24l176 108l20 -39zM459 579l-96 91l-125 -91l-18 19l134 113h34l96 -113z" />
    <glyph glyph-name="uni1ED2" unicode="&#x1ed2;" horiz-adv-x="527" 
d="M67 0zM192 0q-66 0 -95.5 30t-29.5 83q0 22 4 41l69 392q12 71 55.5 113t120.5 42h143q65 0 94.5 -30t29.5 -83q0 -22 -4 -42l-69 -392q-12 -70 -55 -112t-120 -42h-143zM501 546q1 6 1.5 12t0.5 11q0 52 -59 52h-143q-35 0 -56 -20t-27 -55l-69 -391q-2 -6 -2 -12v-11
q0 -52 59 -52h143q35 0 56 20t27 55zM87 860l34 39l137 -108l-23 -24zM513 767l-94 91l-128 -91l-18 19l136 113h33l95 -113z" />
    <glyph glyph-name="uni1ED3" unicode="&#x1ed3;" horiz-adv-x="492" 
d="M33 0zM210 0q-79 0 -111 23t-32 79q0 15 2 33t6 39l29 165q9 51 23 85t36.5 53.5t56 27.5t80.5 8h72q79 0 111 -23.5t32 -80.5q0 -32 -7 -70l-29 -165q-16 -87 -53.5 -130.5t-114.5 -43.5h-101zM435 352q3 19 3 34q0 27 -12.5 38t-40.5 11h-125q-65 0 -77 -71l-36 -204
q-3 -20 -3 -33q0 -27 12.5 -38.5t40.5 -11.5h125q65 0 77 71zM33 672l34 39l137 -108l-23 -24zM459 579l-94 91l-128 -91l-18 19l136 113h33l95 -113z" />
    <glyph glyph-name="uni1ED4" unicode="&#x1ed4;" horiz-adv-x="527" 
d="M67 0zM192 0q-66 0 -95.5 30t-29.5 83q0 22 4 41l69 392q12 71 55.5 113t120.5 42h143q65 0 94.5 -30t29.5 -83q0 -22 -4 -42l-69 -392q-12 -70 -55 -112t-120 -42h-143zM501 546q1 6 1.5 12t0.5 11q0 52 -59 52h-143q-35 0 -56 -20t-27 -55l-69 -391q-2 -6 -2 -12v-11
q0 -52 59 -52h143q35 0 56 20t27 55zM579 762q5 28 18 41.5t37 13.5q15 0 27 11t12 28q0 27 -32 27h-76l9 51h93q59 0 59 -55q0 -39 -21.5 -60.5t-55.5 -21.5q-16 0 -23 -8t-11 -27h-36zM512 767l-96 91l-125 -91l-18 19l134 113h34l96 -113z" />
    <glyph glyph-name="uni1ED5" unicode="&#x1ed5;" horiz-adv-x="492" 
d="M67 0zM210 0q-79 0 -111 23t-32 79q0 15 2 33t6 39l29 165q9 51 23 85t36.5 53.5t56 27.5t80.5 8h72q79 0 111 -23.5t32 -80.5q0 -32 -7 -70l-29 -165q-16 -87 -53.5 -130.5t-114.5 -43.5h-101zM435 352q3 19 3 34q0 27 -12.5 38t-40.5 11h-125q-65 0 -77 -71l-36 -204
q-3 -20 -3 -33q0 -27 12.5 -38.5t40.5 -11.5h125q65 0 77 71zM519 574q5 28 18 41.5t37 13.5q15 0 27 11t12 28q0 27 -32 27h-76l9 51h93q59 0 59 -55q0 -39 -21.5 -60.5t-55.5 -21.5q-16 0 -23 -8t-11 -27h-36zM452 579l-96 91l-125 -91l-18 19l134 113h34l96 -113z" />
    <glyph glyph-name="uni1ED6" unicode="&#x1ed6;" horiz-adv-x="527" 
d="M67 0zM192 0q-66 0 -95.5 30t-29.5 83q0 22 4 41l69 392q12 71 55.5 113t120.5 42h143q65 0 94.5 -30t29.5 -83q0 -22 -4 -42l-69 -392q-12 -70 -55 -112t-120 -42h-143zM501 546q1 6 1.5 12t0.5 11q0 52 -59 52h-143q-35 0 -56 -20t-27 -55l-69 -391q-2 -6 -2 -12v-11
q0 -52 59 -52h143q35 0 56 20t27 55zM520 713l-115 93l-149 -93l-20 19l156 116h38l117 -116zM585 926q-11 -27 -38.5 -47t-62.5 -20q-23 0 -38.5 6t-29 13.5t-27.5 14t-34 6.5q-14 0 -33 -8t-31 -33l-32 16q11 26 38.5 46t65.5 20q22 0 37.5 -6.5t29 -14t27.5 -14t34 -6.5
q15 0 32 10t28 33z" />
    <glyph glyph-name="uni1ED7" unicode="&#x1ed7;" horiz-adv-x="492" 
d="M67 0zM210 0q-79 0 -111 23t-32 79q0 15 2 33t6 39l29 165q9 51 23 85t36.5 53.5t56 27.5t80.5 8h72q79 0 111 -23.5t32 -80.5q0 -32 -7 -70l-29 -165q-16 -87 -53.5 -130.5t-114.5 -43.5h-101zM435 352q3 19 3 34q0 27 -12.5 38t-40.5 11h-125q-65 0 -77 -71l-36 -204
q-3 -20 -3 -33q0 -27 12.5 -38.5t40.5 -11.5h125q65 0 77 71zM469 525l-115 93l-149 -93l-20 19l156 116h38l117 -116zM534 738q-11 -27 -38.5 -47t-62.5 -20q-23 0 -38.5 6t-29 13.5t-27.5 14t-34 6.5q-14 0 -33 -8t-31 -33l-32 16q11 26 38.5 46t65.5 20q22 0 37.5 -6.5
t29 -14t27.5 -14t34 -6.5q15 0 32 10t28 33z" />
    <glyph glyph-name="uni1ED8" unicode="&#x1ed8;" horiz-adv-x="527" 
d="M67 0zM192 0q-66 0 -95.5 30t-29.5 83q0 22 4 41l69 392q12 71 55.5 113t120.5 42h143q65 0 94.5 -30t29.5 -83q0 -22 -4 -42l-69 -392q-12 -70 -55 -112t-120 -42h-143zM501 546q1 6 1.5 12t0.5 11q0 52 -59 52h-143q-35 0 -56 -20t-27 -55l-69 -391q-2 -6 -2 -12v-11
q0 -52 59 -52h143q35 0 56 20t27 55zM553 744l-137 126l-180 -126l-24 24l192 156h45l136 -156zM189 -193l21 119h81l-21 -119h-81z" />
    <glyph glyph-name="uni1ED9" unicode="&#x1ed9;" horiz-adv-x="492" 
d="M67 0zM210 0q-79 0 -111 23t-32 79q0 15 2 33t6 39l29 165q9 51 23 85t36.5 53.5t56 27.5t80.5 8h72q79 0 111 -23.5t32 -80.5q0 -32 -7 -70l-29 -165q-16 -87 -53.5 -130.5t-114.5 -43.5h-101zM435 352q3 19 3 34q0 27 -12.5 38t-40.5 11h-125q-65 0 -77 -71l-36 -204
q-3 -20 -3 -33q0 -27 12.5 -38.5t40.5 -11.5h125q65 0 77 71zM502 556l-137 126l-180 -126l-24 24l192 156h45l136 -156zM171 -193l21 119h81l-21 -119h-81z" />
    <glyph glyph-name="uni1EDA" unicode="&#x1eda;" horiz-adv-x="650" 
d="M67 0zM192 0q-66 0 -95.5 30t-29.5 83q0 22 4 41l69 392q12 71 55.5 113t120.5 42h143q49 0 76.5 -19.5t38.5 -51.5q13 -38 28.5 -47.5t30.5 -9.5q24 0 41.5 14t24.5 53l17 96h65l-19 -107q-10 -56 -38 -81t-70 -25q-20 0 -39 8t-33 34l-72 -411q-12 -70 -55 -112
t-120 -42h-143zM501 546q1 5 1.5 10t0.5 10q0 26 -14.5 40.5t-44.5 14.5h-143q-35 0 -56 -20t-27 -55l-69 -391q-1 -5 -1.5 -10t-0.5 -10q0 -26 14.5 -40.5t44.5 -14.5h143q35 0 56 20t27 55zM325 744l-15 26l255 154l21 -40z" />
    <glyph glyph-name="uni1EDB" unicode="&#x1edb;" horiz-adv-x="588" 
d="M66 0zM181 0q-115 0 -115 103q0 10 1 20.5t3 22.5l39 221q26 146 162 146h130q76 0 98 -43q11 -23 22.5 -30t24.5 -7q24 0 41.5 13.5t24.5 53.5l17 96h66l-19 -107q-10 -56 -37.5 -81t-69.5 -25q-15 0 -28 4t-24 16q-1 -8 -1.5 -17t-2.5 -19l-39 -221q-26 -146 -163 -146
h-130zM437 364q1 6 1.5 11.5t0.5 10.5q0 49 -54 49h-125q-65 0 -77 -71l-38 -216q-1 -6 -1.5 -11t-0.5 -10q0 -50 54 -50h125q65 0 77 71zM264 556l-15 26l255 154l21 -40z" />
    <glyph glyph-name="uni1EDC" unicode="&#x1edc;" horiz-adv-x="650" 
d="M67 0zM192 0q-66 0 -95.5 30t-29.5 83q0 22 4 41l69 392q12 71 55.5 113t120.5 42h143q49 0 76.5 -19.5t38.5 -51.5q13 -38 28.5 -47.5t30.5 -9.5q24 0 41.5 14t24.5 53l17 96h65l-19 -107q-10 -56 -38 -81t-70 -25q-20 0 -39 8t-33 34l-72 -411q-12 -70 -55 -112
t-120 -42h-143zM501 546q1 5 1.5 10t0.5 10q0 26 -14.5 40.5t-44.5 14.5h-143q-35 0 -56 -20t-27 -55l-69 -391q-1 -5 -1.5 -10t-0.5 -10q0 -26 14.5 -40.5t44.5 -14.5h143q35 0 56 20t27 55zM263 884l35 40l201 -154l-25 -26z" />
    <glyph glyph-name="uni1EDD" unicode="&#x1edd;" horiz-adv-x="588" 
d="M66 0zM181 0q-115 0 -115 103q0 10 1 20.5t3 22.5l39 221q26 146 162 146h130q76 0 98 -43q11 -23 22.5 -30t24.5 -7q24 0 41.5 13.5t24.5 53.5l17 96h66l-19 -107q-10 -56 -37.5 -81t-69.5 -25q-15 0 -28 4t-24 16q-1 -8 -1.5 -17t-2.5 -19l-39 -221q-26 -146 -163 -146
h-130zM437 364q1 6 1.5 11.5t0.5 10.5q0 49 -54 49h-125q-65 0 -77 -71l-38 -216q-1 -6 -1.5 -11t-0.5 -10q0 -50 54 -50h125q65 0 77 71zM216 696l35 40l201 -154l-25 -26z" />
    <glyph glyph-name="uni1EDE" unicode="&#x1ede;" horiz-adv-x="650" 
d="M67 0zM192 0q-66 0 -95.5 30t-29.5 83q0 22 4 41l69 392q12 71 55.5 113t120.5 42h143q49 0 76.5 -19.5t38.5 -51.5q13 -38 28.5 -47.5t30.5 -9.5q24 0 41.5 14t24.5 53l17 96h65l-19 -107q-10 -56 -38 -81t-70 -25q-20 0 -39 8t-33 34l-72 -411q-12 -70 -55 -112
t-120 -42h-143zM501 546q1 5 1.5 10t0.5 10q0 26 -14.5 40.5t-44.5 14.5h-143q-35 0 -56 -20t-27 -55l-69 -391q-1 -5 -1.5 -10t-0.5 -10q0 -26 14.5 -40.5t44.5 -14.5h143q35 0 56 20t27 55zM334 707q7 38 25.5 58.5t55.5 20.5q22 0 38.5 14.5t16.5 42.5q0 40 -48 40h-107
l12 70h131q86 0 86 -77q0 -57 -31.5 -87.5t-76.5 -30.5q-26 0 -37 -12t-16 -39h-49z" />
    <glyph glyph-name="uni1EDF" unicode="&#x1edf;" horiz-adv-x="588" 
d="M66 0zM181 0q-115 0 -115 103q0 10 1 20.5t3 22.5l39 221q26 146 162 146h130q76 0 98 -43q11 -23 22.5 -30t24.5 -7q24 0 41.5 13.5t24.5 53.5l17 96h66l-19 -107q-10 -56 -37.5 -81t-69.5 -25q-15 0 -28 4t-24 16q-1 -8 -1.5 -17t-2.5 -19l-39 -221q-26 -146 -163 -146
h-130zM437 364q1 6 1.5 11.5t0.5 10.5q0 49 -54 49h-125q-65 0 -77 -71l-38 -216q-1 -6 -1.5 -11t-0.5 -10q0 -50 54 -50h125q65 0 77 71zM298 519q7 38 25.5 58.5t55.5 20.5q22 0 38.5 14.5t16.5 42.5q0 40 -48 40h-107l12 70h131q86 0 86 -77q0 -57 -31.5 -87.5
t-76.5 -30.5q-26 0 -37 -12t-16 -39h-49z" />
    <glyph glyph-name="uni1EE0" unicode="&#x1ee0;" horiz-adv-x="650" 
d="M67 0zM192 0q-66 0 -95.5 30t-29.5 83q0 22 4 41l69 392q12 71 55.5 113t120.5 42h143q49 0 76.5 -19.5t38.5 -51.5q13 -38 28.5 -47.5t30.5 -9.5q24 0 41.5 14t24.5 53l17 96h65l-19 -107q-10 -56 -38 -81t-70 -25q-20 0 -39 8t-33 34l-72 -411q-12 -70 -55 -112
t-120 -42h-143zM501 546q1 5 1.5 10t0.5 10q0 26 -14.5 40.5t-44.5 14.5h-143q-35 0 -56 -20t-27 -55l-69 -391q-1 -5 -1.5 -10t-0.5 -10q0 -26 14.5 -40.5t44.5 -14.5h143q35 0 56 20t27 55zM604 865q-14 -33 -44.5 -58.5t-75.5 -25.5q-28 0 -46.5 7.5t-34.5 17t-32.5 17
t-40.5 7.5q-25 0 -43.5 -12t-31.5 -39l-37 21q14 33 44.5 57.5t75.5 24.5q27 0 46.5 -7.5t36 -16.5t33 -16.5t38.5 -7.5q51 0 73 52z" />
    <glyph glyph-name="uni1EE1" unicode="&#x1ee1;" horiz-adv-x="588" 
d="M66 0zM181 0q-115 0 -115 103q0 10 1 20.5t3 22.5l39 221q26 146 162 146h130q76 0 98 -43q11 -23 22.5 -30t24.5 -7q24 0 41.5 13.5t24.5 53.5l17 96h66l-19 -107q-10 -56 -37.5 -81t-69.5 -25q-15 0 -28 4t-24 16q-1 -8 -1.5 -17t-2.5 -19l-39 -221q-26 -146 -163 -146
h-130zM437 364q1 6 1.5 11.5t0.5 10.5q0 49 -54 49h-125q-65 0 -77 -71l-38 -216q-1 -6 -1.5 -11t-0.5 -10q0 -50 54 -50h125q65 0 77 71zM570 677q-14 -33 -44.5 -58.5t-75.5 -25.5q-28 0 -46.5 7.5t-34.5 17t-32.5 17t-40.5 7.5q-25 0 -43.5 -12t-31.5 -39l-37 21
q14 33 44.5 57.5t75.5 24.5q27 0 46.5 -7.5t36 -16.5t33 -16.5t38.5 -7.5q51 0 73 52z" />
    <glyph glyph-name="uni1EE2" unicode="&#x1ee2;" horiz-adv-x="650" 
d="M67 0zM192 0q-66 0 -95.5 30t-29.5 83q0 22 4 41l69 392q12 71 55.5 113t120.5 42h143q49 0 76.5 -19.5t38.5 -51.5q13 -38 28.5 -47.5t30.5 -9.5q24 0 41.5 14t24.5 53l17 96h65l-19 -107q-10 -56 -38 -81t-70 -25q-20 0 -39 8t-33 34l-72 -411q-12 -70 -55 -112
t-120 -42h-143zM501 546q1 5 1.5 10t0.5 10q0 26 -14.5 40.5t-44.5 14.5h-143q-35 0 -56 -20t-27 -55l-69 -391q-1 -5 -1.5 -10t-0.5 -10q0 -26 14.5 -40.5t44.5 -14.5h143q35 0 56 20t27 55zM191 -193l21 119h81l-21 -119h-81z" />
    <glyph glyph-name="uni1EE3" unicode="&#x1ee3;" horiz-adv-x="588" 
d="M66 0zM181 0q-115 0 -115 103q0 10 1 20.5t3 22.5l39 221q26 146 162 146h130q76 0 98 -43q11 -23 22.5 -30t24.5 -7q24 0 41.5 13.5t24.5 53.5l17 96h66l-19 -107q-10 -56 -37.5 -81t-69.5 -25q-15 0 -28 4t-24 16q-1 -8 -1.5 -17t-2.5 -19l-39 -221q-26 -146 -163 -146
h-130zM437 364q1 6 1.5 11.5t0.5 10.5q0 49 -54 49h-125q-65 0 -77 -71l-38 -216q-1 -6 -1.5 -11t-0.5 -10q0 -50 54 -50h125q65 0 77 71zM170 -193l21 119h81l-21 -119h-81z" />
    <glyph glyph-name="uni1EE4" unicode="&#x1ee4;" horiz-adv-x="522" 
d="M71 0zM214 0q-143 0 -143 123q0 20 5 48l94 530h78l-94 -530q-3 -15 -3 -26q0 -65 75 -65h99q87 0 103 91l94 530h78l-94 -530q-30 -171 -198 -171h-94zM186 -193l21 119h81l-21 -119h-81z" />
    <glyph glyph-name="uni1EE5" unicode="&#x1ee5;" horiz-adv-x="494" 
d="M68 0zM372 0l11 62q-20 -35 -46.5 -48.5t-70.5 -13.5h-104q-94 0 -94 101q0 24 6 56l62 356h74l-62 -352q-3 -17 -3 -28q0 -56 50 -56h118q39 0 58.5 21t27.5 64l61 351h75l-90 -513h-73zM172 -193l21 119h81l-21 -119h-81z" />
    <glyph glyph-name="uni1EE6" unicode="&#x1ee6;" horiz-adv-x="522" 
d="M71 0zM214 0q-143 0 -143 123q0 20 5 48l94 530h78l-94 -530q-3 -15 -3 -26q0 -65 75 -65h99q87 0 103 91l94 530h78l-94 -530q-30 -171 -198 -171h-94zM335 707q7 38 25.5 58.5t55.5 20.5q22 0 38.5 14.5t16.5 42.5q0 40 -48 40h-107l12 70h131q86 0 86 -77
q0 -57 -31.5 -87.5t-76.5 -30.5q-26 0 -37 -12t-16 -39h-49z" />
    <glyph glyph-name="uni1EE7" unicode="&#x1ee7;" horiz-adv-x="494" 
d="M68 0zM372 0l11 62q-20 -35 -46.5 -48.5t-70.5 -13.5h-104q-94 0 -94 101q0 24 6 56l62 356h74l-62 -352q-3 -17 -3 -28q0 -56 50 -56h118q39 0 58.5 21t27.5 64l61 351h75l-90 -513h-73zM283 519q7 38 25.5 58.5t55.5 20.5q22 0 38.5 14.5t16.5 42.5q0 40 -48 40h-107
l12 70h131q86 0 86 -77q0 -57 -31.5 -87.5t-76.5 -30.5q-26 0 -37 -12t-16 -39h-49z" />
    <glyph glyph-name="uni1EE8" unicode="&#x1ee8;" horiz-adv-x="648" 
d="M71 0zM214 0q-143 0 -143 123q0 20 5 48l94 530h78l-94 -530q-3 -15 -3 -26q0 -65 75 -65h99q87 0 103 91l94 530h78l-13 -69q13 -39 27.5 -49t29.5 -10q23 0 39.5 14.5t23.5 52.5l17 96h66l-19 -107q-10 -56 -38 -81t-70 -25q-12 0 -23.5 2.5t-22 9.5t-20 19.5
t-17.5 32.5l-74 -416q-30 -171 -198 -171h-94zM318 744l-15 26l255 154l21 -40z" />
    <glyph glyph-name="uni1EE9" unicode="&#x1ee9;" horiz-adv-x="612" 
d="M68 0zM372 0l11 62q-20 -35 -46.5 -48.5t-70.5 -13.5h-104q-94 0 -94 101q0 24 6 56l62 356h74l-62 -352q-3 -17 -3 -28q0 -56 50 -56h118q39 0 58.5 21t27.5 64l61 351h75l-5 -32q11 -31 24 -39.5t28 -8.5q23 0 39.5 14.5t23.5 52.5l17 96h66l-19 -107
q-10 -56 -37.5 -81t-69.5 -25q-23 0 -43.5 10t-36.5 45l-77 -438h-73zM272 556l-15 26l255 154l21 -40z" />
    <glyph glyph-name="uni1EEA" unicode="&#x1eea;" horiz-adv-x="648" 
d="M71 0zM214 0q-143 0 -143 123q0 20 5 48l94 530h78l-94 -530q-3 -15 -3 -26q0 -65 75 -65h99q87 0 103 91l94 530h78l-13 -69q13 -39 27.5 -49t29.5 -10q23 0 39.5 14.5t23.5 52.5l17 96h66l-19 -107q-10 -56 -38 -81t-70 -25q-12 0 -23.5 2.5t-22 9.5t-20 19.5
t-17.5 32.5l-74 -416q-30 -171 -198 -171h-94zM262 884l35 40l201 -154l-25 -26z" />
    <glyph glyph-name="uni1EEB" unicode="&#x1eeb;" horiz-adv-x="612" 
d="M68 0zM372 0l11 62q-20 -35 -46.5 -48.5t-70.5 -13.5h-104q-94 0 -94 101q0 24 6 56l62 356h74l-62 -352q-3 -17 -3 -28q0 -56 50 -56h118q39 0 58.5 21t27.5 64l61 351h75l-5 -32q11 -31 24 -39.5t28 -8.5q23 0 39.5 14.5t23.5 52.5l17 96h66l-19 -107
q-10 -56 -37.5 -81t-69.5 -25q-23 0 -43.5 10t-36.5 45l-77 -438h-73zM212 696l35 40l201 -154l-25 -26z" />
    <glyph glyph-name="uni1EEC" unicode="&#x1eec;" horiz-adv-x="648" 
d="M71 0zM214 0q-143 0 -143 123q0 20 5 48l94 530h78l-94 -530q-3 -15 -3 -26q0 -65 75 -65h99q87 0 103 91l94 530h78l-13 -69q13 -39 27.5 -49t29.5 -10q23 0 39.5 14.5t23.5 52.5l17 96h66l-19 -107q-10 -56 -38 -81t-70 -25q-12 0 -23.5 2.5t-22 9.5t-20 19.5
t-17.5 32.5l-74 -416q-30 -171 -198 -171h-94zM343 707q7 38 25.5 58.5t55.5 20.5q22 0 38.5 14.5t16.5 42.5q0 40 -48 40h-107l12 70h131q86 0 86 -77q0 -57 -31.5 -87.5t-76.5 -30.5q-26 0 -37 -12t-16 -39h-49z" />
    <glyph glyph-name="uni1EED" unicode="&#x1eed;" horiz-adv-x="612" 
d="M68 0zM372 0l11 62q-20 -35 -46.5 -48.5t-70.5 -13.5h-104q-94 0 -94 101q0 24 6 56l62 356h74l-62 -352q-3 -17 -3 -28q0 -56 50 -56h118q39 0 58.5 21t27.5 64l61 351h75l-5 -32q11 -31 24 -39.5t28 -8.5q23 0 39.5 14.5t23.5 52.5l17 96h66l-19 -107
q-10 -56 -37.5 -81t-69.5 -25q-23 0 -43.5 10t-36.5 45l-77 -438h-73zM302 519q7 38 25.5 58.5t55.5 20.5q22 0 38.5 14.5t16.5 42.5q0 40 -48 40h-107l12 70h131q86 0 86 -77q0 -57 -31.5 -87.5t-76.5 -30.5q-26 0 -37 -12t-16 -39h-49z" />
    <glyph glyph-name="uni1EEE" unicode="&#x1eee;" horiz-adv-x="648" 
d="M71 0zM214 0q-143 0 -143 123q0 20 5 48l94 530h78l-94 -530q-3 -15 -3 -26q0 -65 75 -65h99q87 0 103 91l94 530h78l-13 -69q13 -39 27.5 -49t29.5 -10q23 0 39.5 14.5t23.5 52.5l17 96h66l-19 -107q-10 -56 -38 -81t-70 -25q-12 0 -23.5 2.5t-22 9.5t-20 19.5
t-17.5 32.5l-74 -416q-30 -171 -198 -171h-94zM593 865q-14 -33 -44.5 -58.5t-75.5 -25.5q-28 0 -46.5 7.5t-34.5 17t-32.5 17t-40.5 7.5q-25 0 -43.5 -12t-31.5 -39l-37 21q14 33 44.5 57.5t75.5 24.5q27 0 46.5 -7.5t36 -16.5t33 -16.5t38.5 -7.5q51 0 73 52z" />
    <glyph glyph-name="uni1EEF" unicode="&#x1eef;" horiz-adv-x="612" 
d="M68 0zM372 0l11 62q-20 -35 -46.5 -48.5t-70.5 -13.5h-104q-94 0 -94 101q0 24 6 56l62 356h74l-62 -352q-3 -17 -3 -28q0 -56 50 -56h118q39 0 58.5 21t27.5 64l61 351h75l-5 -32q11 -31 24 -39.5t28 -8.5q23 0 39.5 14.5t23.5 52.5l17 96h66l-19 -107
q-10 -56 -37.5 -81t-69.5 -25q-23 0 -43.5 10t-36.5 45l-77 -438h-73zM552 677q-14 -33 -44.5 -58.5t-75.5 -25.5q-28 0 -46.5 7.5t-34.5 17t-32.5 17t-40.5 7.5q-25 0 -43.5 -12t-31.5 -39l-37 21q14 33 44.5 57.5t75.5 24.5q27 0 46.5 -7.5t36 -16.5t33 -16.5t38.5 -7.5
q51 0 73 52z" />
    <glyph glyph-name="uni1EF0" unicode="&#x1ef0;" horiz-adv-x="648" 
d="M71 0zM214 0q-143 0 -143 123q0 20 5 48l94 530h78l-94 -530q-3 -15 -3 -26q0 -65 75 -65h99q87 0 103 91l94 530h78l-13 -69q13 -39 27.5 -49t29.5 -10q23 0 39.5 14.5t23.5 52.5l17 96h66l-19 -107q-10 -56 -38 -81t-70 -25q-12 0 -23.5 2.5t-22 9.5t-20 19.5
t-17.5 32.5l-74 -416q-30 -171 -198 -171h-94zM189 -193l21 119h81l-21 -119h-81z" />
    <glyph glyph-name="uni1EF1" unicode="&#x1ef1;" horiz-adv-x="612" 
d="M68 0zM372 0l11 62q-20 -35 -46.5 -48.5t-70.5 -13.5h-104q-94 0 -94 101q0 24 6 56l62 356h74l-62 -352q-3 -17 -3 -28q0 -56 50 -56h118q39 0 58.5 21t27.5 64l61 351h75l-5 -32q11 -31 24 -39.5t28 -8.5q23 0 39.5 14.5t23.5 52.5l17 96h66l-19 -107
q-10 -56 -37.5 -81t-69.5 -25q-23 0 -43.5 10t-36.5 45l-77 -438h-73zM171 -193l21 119h81l-21 -119h-81z" />
    <glyph glyph-name="Ygrave" unicode="&#x1ef2;" horiz-adv-x="491" 
d="M136 0zM205 0l57 323l-126 378h85l99 -294l204 294h79l-263 -378l-57 -323h-78zM243 884l35 40l201 -154l-25 -26z" />
    <glyph glyph-name="ygrave" unicode="&#x1ef3;" horiz-adv-x="480" 
d="M77 0zM109 -159l12 71h145q36 0 59.5 23t31.5 68l7 42h-160q-127 0 -127 111q0 11 1.5 22t3.5 24l54 311h75l-55 -314q-3 -14 -3 -25q0 -59 66 -59h157l70 398h76l-89 -507q-29 -165 -172 -165h-152zM205 696l35 40l201 -154l-25 -26z" />
    <glyph glyph-name="endash" unicode="&#x2013;" horiz-adv-x="564" 
d="M88 316l9 52h501l-9 -52h-501z" />
    <glyph glyph-name="emdash" unicode="&#x2014;" horiz-adv-x="784" 
d="M88 316l9 52h720l-9 -52h-720z" />
    <glyph glyph-name="quoteleft" unicode="&#x2018;" horiz-adv-x="196" 
d="M133 458l78 243h56l-53 -243h-81z" />
    <glyph glyph-name="quoteright" unicode="&#x2019;" horiz-adv-x="196" 
d="M133 458l53 243h81l-78 -243h-56z" />
    <glyph glyph-name="quotesinglbase" unicode="&#x201a;" horiz-adv-x="196" 
d="M36 -93l52 243h81l-77 -243h-56z" />
    <glyph glyph-name="quotedblleft" unicode="&#x201c;" horiz-adv-x="392" 
d="M133 458zM133 458l78 243h56l-53 -243h-81zM329 458l78 243h56l-53 -243h-81z" />
    <glyph glyph-name="quotedblright" unicode="&#x201d;" horiz-adv-x="392" 
d="M133 458zM133 458l53 243h81l-78 -243h-56zM329 458l53 243h81l-78 -243h-56z" />
    <glyph glyph-name="quotedblbase" unicode="&#x201e;" horiz-adv-x="392" 
d="M36 0zM36 -93l52 243h81l-77 -243h-56zM232 -93l52 243h81l-77 -243h-56z" />
    <glyph glyph-name="dagger" unicode="&#x2020;" horiz-adv-x="498" 
d="M225 -1l92 524h-176l9 48h176l23 130h55l-23 -130h169l-9 -48h-169l-92 -524h-55z" />
    <glyph glyph-name="daggerdbl" unicode="&#x2021;" horiz-adv-x="498" 
d="M303 131l-23 -132h-55l23 132h-176l9 48h176l60 344h-176l9 48h176l23 130h55l-23 -130h169l-9 -48h-169l-60 -344h169l-9 -48h-169z" />
    <glyph glyph-name="bullet" unicode="&#x2022;" horiz-adv-x="298" 
d="M213 249q-21 0 -39.5 8t-32 21.5t-21 32t-7.5 40.5q0 21 7.5 39.5t21 32t32 21.5t39.5 8t39 -8t31.5 -21.5t21.5 -32t8 -39.5q0 -44 -29 -73t-71 -29z" />
    <glyph glyph-name="ellipsis" unicode="&#x2026;" horiz-adv-x="925" 
d="M54 0zM54 0l26 150h76l-26 -150h-76zM424 0l26 150h76l-26 -150h-76zM794 0l26 150h76l-26 -150h-76z" />
    <glyph glyph-name="perthousand" unicode="&#x2030;" horiz-adv-x="1021" 
d="M38 0zM211 361q-56 0 -56 49q0 5 0.5 10t1.5 11l37 210q6 33 24.5 51.5t53.5 18.5h87q56 0 56 -49q0 -5 -0.5 -10.5t-1.5 -10.5l-37 -210q-6 -33 -24.5 -51.5t-53.5 -18.5h-87zM373 634q0 2 0.5 5t0.5 5q0 27 -30 27h-71q-35 0 -41 -37l-35 -196q-1 -4 -1 -10
q0 -27 30 -27h71q35 0 41 37zM38 -32l739 769h75l-739 -769h-75zM529 -10q-56 0 -56 49q0 5 0.5 10t1.5 11l37 210q6 33 24.5 51.5t53.5 18.5h87q56 0 56 -49q0 -5 -0.5 -10.5t-1.5 -10.5l-37 -210q-6 -33 -24.5 -51.5t-53.5 -18.5h-87zM691 263q0 2 0.5 5t0.5 5
q0 27 -30 27h-71q-35 0 -41 -37l-35 -196q-1 -4 -1 -10q0 -27 30 -27h71q35 0 41 37zM822 -10q-56 0 -56 49q0 5 0.5 10t1.5 11l37 210q6 33 24.5 51.5t53.5 18.5h87q56 0 56 -49q0 -5 -0.5 -10.5t-1.5 -10.5l-37 -210q-6 -33 -24.5 -51.5t-53.5 -18.5h-87zM984 263
q0 2 0.5 5t0.5 5q0 27 -30 27h-71q-35 0 -41 -37l-35 -196q-1 -4 -1 -10q0 -27 30 -27h71q35 0 41 37z" />
    <glyph glyph-name="guilsinglleft" unicode="&#x2039;" horiz-adv-x="296" 
d="M227 90l-141 240l225 239l47 -51l-180 -188l114 -190z" />
    <glyph glyph-name="guilsinglright" unicode="&#x203a;" horiz-adv-x="296" 
d="M54 141l180 189l-114 188l66 51l140 -239l-224 -240z" />
    <glyph glyph-name="fraction" unicode="&#x2044;" horiz-adv-x="210" 
d="M-240 -32l739 769h75l-739 -769h-75z" />
    <glyph glyph-name="zerosuperior" unicode="&#x2070;" horiz-adv-x="293" 
d="M110 361zM166 361q-56 0 -56 49q0 5 0.5 10t1.5 11l37 210q6 33 24.5 51.5t53.5 18.5h87q56 0 56 -49q0 -5 -0.5 -10.5t-1.5 -10.5l-37 -210q-6 -33 -24.5 -51.5t-53.5 -18.5h-87zM328 634q0 2 0.5 5t0.5 5q0 27 -30 27h-71q-35 0 -41 -37l-35 -196q-1 -4 -1 -10
q0 -27 30 -27h71q35 0 41 37z" />
    <glyph glyph-name="foursuperior" unicode="&#x2074;" horiz-adv-x="274" 
d="M101 361zM242 361l11 63h-152l5 31l189 256h46l-44 -253h27l-6 -34h-27l-11 -63h-38zM294 656l-150 -198h115z" />
    <glyph glyph-name="fivesuperior" unicode="&#x2075;" horiz-adv-x="284" 
d="M111 361zM173 361q-62 0 -62 52q0 5 0.5 9.5t1.5 9.5l7 38h38l-7 -37q0 -2 -0.5 -3.5t-0.5 -3.5q0 -26 30 -26h60q36 0 44 41l9 51q0 3 0.5 6t0.5 5q0 28 -30 28h-130l31 180h201l-7 -40h-166l-18 -105h98q61 0 61 -54q0 -5 -0.5 -10t-1.5 -10l-9 -51q-14 -80 -90 -80
h-60z" />
    <glyph glyph-name="sixsuperior" unicode="&#x2076;" horiz-adv-x="284" 
d="M111 361zM177 361q-66 0 -66 57q0 11 3 25l34 191q14 77 90 77h57q64 0 64 -54v-9.5t-1 -9.5l-7 -36h-38l7 36v7q0 26 -32 26h-57q-38 0 -44 -37l-13 -75h100q59 0 59 -47q0 -5 -0.5 -10.5t-1.5 -11.5l-9 -52q-13 -77 -88 -77h-57zM293 490q1 4 1 11q0 24 -29 24h-97
l-15 -82q-1 -5 -1 -12q0 -31 32 -31h57q35 0 43 39z" />
    <glyph glyph-name="sevensuperior" unicode="&#x2077;" horiz-adv-x="255" 
d="M113 361zM113 361l183 311h-145l6 39h202l-203 -350h-43z" />
    <glyph glyph-name="eightsuperior" unicode="&#x2078;" horiz-adv-x="286" 
d="M112 361zM179 361q-67 0 -67 58v11t2 13l7 36q5 26 19 42.5t33 19.5q-28 5 -28 39q0 4 0.5 9t1.5 10l8 47q11 65 84 65h55q64 0 64 -48q0 -5 -0.5 -8.5t-1.5 -8.5l-8 -47q-9 -52 -48 -58q15 -3 24 -15t9 -32v-7t-1 -8l-7 -36q-16 -82 -93 -82h-53zM293 481v8
q0 17 -8 26.5t-27 9.5h-47q-22 0 -34.5 -12t-16.5 -32l-7 -37q-1 -4 -1 -12q0 -31 36 -31h48q41 0 50 43zM317 633q0 2 0.5 5t0.5 5q0 28 -31 28h-55q-37 0 -43 -38l-7 -40q-1 -4 -1 -10q0 -28 31 -28h55q19 0 29.5 10.5t13.5 27.5z" />
    <glyph glyph-name="ninesuperior" unicode="&#x2079;" horiz-adv-x="284" 
d="M110 361zM176 361q-66 0 -66 54q0 5 0.5 9t1.5 9l7 37h38l-7 -37q0 -2 -0.5 -3.5t-0.5 -3.5q0 -26 33 -26h57q20 0 30 9.5t14 28.5l14 76h-100q-30 0 -45 11t-15 37v10t2 11l9 50q13 78 88 78h57q65 0 65 -58q0 -5 -0.5 -11t-1.5 -13l-34 -191q-13 -77 -90 -77h-56z
M317 629q1 5 1 13q0 29 -32 29h-57q-37 0 -43 -38l-9 -49q-1 -2 -1 -4.5v-4.5q0 -26 30 -26h97z" />
    <glyph glyph-name="zeroinferior" unicode="&#x2080;" horiz-adv-x="293" 
d="M101 -10q-56 0 -56 49q0 5 0.5 10t1.5 11l37 210q6 33 24.5 51.5t53.5 18.5h87q56 0 56 -49q0 -5 -0.5 -10.5t-1.5 -10.5l-37 -210q-6 -33 -24.5 -51.5t-53.5 -18.5h-87zM263 263q0 2 0.5 5t0.5 5q0 27 -30 27h-71q-35 0 -41 -37l-35 -196q-1 -4 -1 -10q0 -27 30 -27h71
q35 0 41 37z" />
    <glyph glyph-name="oneinferior" unicode="&#x2081;" horiz-adv-x="170" 
d="M86 -10l54 310h-55l7 40h94l-61 -350h-39z" />
    <glyph glyph-name="twoinferior" unicode="&#x2082;" horiz-adv-x="286" 
d="M36 -10l19 110q7 38 29 57t64 19h49q43 0 51 46l5 32q1 5 1 15q0 31 -37 31h-46q-41 0 -48 -42l-5 -27h-38l5 27q8 43 30.5 62.5t63.5 19.5h45q70 0 70 -60v-12.5t-2 -13.5l-5 -32q-6 -39 -30.5 -60t-62.5 -21h-50q-23 0 -34.5 -10t-15.5 -31l-12 -70h168l-7 -40h-207z
" />
    <glyph glyph-name="threeinferior" unicode="&#x2083;" horiz-adv-x="284" 
d="M110 -10q-64 0 -64 53q0 5 0.5 10t1.5 10l6 36h38l-6 -36q-1 -3 -1 -8q0 -25 32 -25h55q41 0 50 43l7 37q0 2 0.5 4.5t0.5 5.5q0 15 -9 24.5t-27 9.5h-53l5 30h56q20 0 30.5 10.5t13.5 27.5l7 40q0 2 0.5 5t0.5 5q0 28 -31 28h-58q-36 0 -42 -36l-6 -33h-38l6 33
q13 76 87 76h58q64 0 64 -48q0 -5 -0.5 -8.5t-1.5 -8.5l-8 -47q-5 -26 -17.5 -40.5t-30.5 -17.5q15 -3 24 -15t9 -32v-7t-1 -8l-7 -36q-16 -82 -93 -82h-58z" />
    <glyph glyph-name="fourinferior" unicode="&#x2084;" horiz-adv-x="274" 
d="M177 -10l11 63h-152l5 31l189 256h46l-44 -253h27l-6 -34h-27l-11 -63h-38zM229 285l-150 -198h115z" />
    <glyph glyph-name="fiveinferior" unicode="&#x2085;" horiz-adv-x="284" 
d="M108 -10q-62 0 -62 52q0 5 0.5 9.5t1.5 9.5l7 38h38l-7 -37q0 -2 -0.5 -3.5t-0.5 -3.5q0 -26 30 -26h60q36 0 44 41l9 51q0 3 0.5 6t0.5 5q0 28 -30 28h-130l31 180h201l-7 -40h-166l-18 -105h98q61 0 61 -54q0 -5 -0.5 -10t-1.5 -10l-9 -51q-14 -80 -90 -80h-60z" />
    <glyph glyph-name="sixinferior" unicode="&#x2086;" horiz-adv-x="284" 
d="M112 -10q-66 0 -66 57q0 11 3 25l34 191q14 77 90 77h57q64 0 64 -54v-9.5t-1 -9.5l-7 -36h-38l7 36v7q0 26 -32 26h-57q-38 0 -44 -37l-13 -75h100q59 0 59 -47q0 -5 -0.5 -10.5t-1.5 -11.5l-9 -52q-13 -77 -88 -77h-57zM228 119q1 4 1 11q0 24 -29 24h-97l-15 -82
q-1 -5 -1 -12q0 -31 32 -31h57q35 0 43 39z" />
    <glyph glyph-name="seveninferior" unicode="&#x2087;" horiz-adv-x="255" 
d="M48 -10l183 311h-145l6 39h202l-203 -350h-43z" />
    <glyph glyph-name="eightinferior" unicode="&#x2088;" horiz-adv-x="286" 
d="M114 -10q-67 0 -67 58v11t2 13l7 36q5 26 19 42.5t33 19.5q-28 5 -28 39q0 4 0.5 9t1.5 10l8 47q11 65 84 65h55q64 0 64 -48q0 -5 -0.5 -8.5t-1.5 -8.5l-8 -47q-9 -52 -48 -58q15 -3 24 -15t9 -32v-7t-1 -8l-7 -36q-16 -82 -93 -82h-53zM228 110v8q0 17 -8 26.5t-27 9.5
h-47q-22 0 -34.5 -12t-16.5 -32l-7 -37q-1 -4 -1 -12q0 -31 36 -31h48q41 0 50 43zM252 262q0 2 0.5 5t0.5 5q0 28 -31 28h-55q-37 0 -43 -38l-7 -40q-1 -4 -1 -10q0 -28 31 -28h55q19 0 29.5 10.5t13.5 27.5z" />
    <glyph glyph-name="nineinferior" unicode="&#x2089;" horiz-adv-x="284" 
d="M111 -10q-66 0 -66 54q0 5 0.5 9t1.5 9l7 37h38l-7 -37q0 -2 -0.5 -3.5t-0.5 -3.5q0 -26 33 -26h57q20 0 30 9.5t14 28.5l14 76h-100q-30 0 -45 11t-15 37v10t2 11l9 50q13 78 88 78h57q65 0 65 -58q0 -5 -0.5 -11t-1.5 -13l-34 -191q-13 -77 -90 -77h-56zM252 258
q1 5 1 13q0 29 -32 29h-57q-37 0 -43 -38l-9 -49q-1 -2 -1 -4.5v-4.5q0 -26 30 -26h97z" />
    <glyph glyph-name="Euro" unicode="&#x20ac;" horiz-adv-x="639" 
d="M299 0q-175 0 -175 157q0 16 1.5 33t5.5 37l6 33h-64l27 53h46l13 73h-64l27 53h46l6 34q20 115 81 171.5t168 56.5h316l-62 -98h-272q-56 0 -84 -29.5t-41 -102.5l-6 -32h307l-33 -53h-283l-13 -73h254l-32 -53h-231l-6 -34q-2 -12 -3 -22.5t-1 -19.5q0 -45 22 -66
t60 -21h267l-17 -97h-266z" />
    <glyph glyph-name="trademark" unicode="&#x2122;" horiz-adv-x="698" 
d="M657 366l49 283l-128 -283h-86l-34 283l-49 -283h-59l59 335h112l23 -286l124 286h108l-59 -335h-60zM180 366l48 276h-76l11 59h204l-11 -59h-74l-48 -276h-54z" />
    <glyph glyph-name="uni2126" unicode="&#x2126;" horiz-adv-x="675" 
d="M49 0zM439 0l14 77q29 22 55 55t45.5 77t31 98.5t11.5 120.5q0 91 -35.5 139t-114.5 48q-56 0 -96.5 -16.5t-68 -45t-44 -65.5t-25.5 -77t-11.5 -81.5t-2.5 -77.5q0 -64 14 -108t38 -67l-14 -77h-187l11 64h112q-23 22 -41.5 71.5t-18.5 129.5q0 81 16 159t56 140
t107.5 100t170.5 38q61 0 104 -18t70.5 -51.5t40.5 -80.5t13 -104q0 -82 -16 -145t-41 -110t-54 -78.5t-54 -50.5h112l-11 -64h-187z" />
    <glyph glyph-name="onethird" unicode="&#x2153;" horiz-adv-x="801" 
d="M38 0zM219 361l54 310h-55l7 40h94l-61 -350h-39zM38 -32l739 769h75l-739 -769h-75zM618 -10q-64 0 -64 53q0 5 0.5 10t1.5 10l6 36h38l-6 -36q-1 -3 -1 -8q0 -25 32 -25h55q41 0 50 43l7 37q0 2 0.5 4.5t0.5 5.5q0 15 -9 24.5t-27 9.5h-53l5 30h56q20 0 30.5 10.5
t13.5 27.5l7 40q0 2 0.5 5t0.5 5q0 28 -31 28h-58q-36 0 -42 -36l-6 -33h-38l6 33q13 76 87 76h58q64 0 64 -48q0 -5 -0.5 -8.5t-1.5 -8.5l-8 -47q-5 -26 -17.5 -40.5t-30.5 -17.5q15 -3 24 -15t9 -32v-7t-1 -8l-7 -36q-16 -82 -93 -82h-58z" />
    <glyph glyph-name="twothirds" unicode="&#x2154;" horiz-adv-x="766" 
d="M38 0zM123 361l19 110q7 38 29 57t64 19h49q43 0 51 46l5 32q1 5 1 15q0 31 -37 31h-46q-41 0 -48 -42l-5 -27h-38l5 27q8 43 30.5 62.5t63.5 19.5h45q70 0 70 -60v-12.5t-2 -13.5l-5 -32q-6 -39 -30.5 -60t-62.5 -21h-50q-23 0 -34.5 -10t-15.5 -31l-12 -70h168l-7 -40
h-207zM38 -32l739 769h75l-739 -769h-75zM568 -10q-64 0 -64 53q0 5 0.5 10t1.5 10l6 36h38l-6 -36q-1 -3 -1 -8q0 -25 32 -25h55q41 0 50 43l7 37q0 2 0.5 4.5t0.5 5.5q0 15 -9 24.5t-27 9.5h-53l5 30h56q20 0 30.5 10.5t13.5 27.5l7 40q0 2 0.5 5t0.5 5q0 28 -31 28h-58
q-36 0 -42 -36l-6 -33h-38l6 33q13 76 87 76h58q64 0 64 -48q0 -5 -0.5 -8.5t-1.5 -8.5l-8 -47q-5 -26 -17.5 -40.5t-30.5 -17.5q15 -3 24 -15t9 -32v-7t-1 -8l-7 -36q-16 -82 -93 -82h-58z" />
    <glyph glyph-name="oneeighth" unicode="&#x215b;" horiz-adv-x="790" 
d="M38 0zM219 361l54 310h-55l7 40h94l-61 -350h-39zM38 -32l739 769h75l-739 -769h-75zM612 -10q-67 0 -67 58v11t2 13l7 36q5 26 19 42.5t33 19.5q-28 5 -28 39q0 4 0.5 9t1.5 10l8 47q11 65 84 65h55q64 0 64 -48q0 -5 -0.5 -8.5t-1.5 -8.5l-8 -47q-9 -52 -48 -58
q15 -3 24 -15t9 -32v-7t-1 -8l-7 -36q-16 -82 -93 -82h-53zM726 110v8q0 17 -8 26.5t-27 9.5h-47q-22 0 -34.5 -12t-16.5 -32l-7 -37q-1 -4 -1 -12q0 -31 36 -31h48q41 0 50 43zM750 262q0 2 0.5 5t0.5 5q0 28 -31 28h-55q-37 0 -43 -38l-7 -40q-1 -4 -1 -10q0 -28 31 -28
h55q19 0 29.5 10.5t13.5 27.5z" />
    <glyph glyph-name="threeeighths" unicode="&#x215c;" horiz-adv-x="766" 
d="M38 0zM209 361q-64 0 -64 53q0 5 0.5 10t1.5 10l6 36h38l-6 -36q-1 -3 -1 -8q0 -25 32 -25h55q41 0 50 43l7 37q0 2 0.5 4.5t0.5 5.5q0 15 -9 24.5t-27 9.5h-53l5 30h56q20 0 30.5 10.5t13.5 27.5l7 40q0 2 0.5 5t0.5 5q0 28 -31 28h-58q-36 0 -42 -36l-6 -33h-38l6 33
q13 76 87 76h58q64 0 64 -48q0 -5 -0.5 -8.5t-1.5 -8.5l-8 -47q-5 -26 -17.5 -40.5t-30.5 -17.5q15 -3 24 -15t9 -32v-7t-1 -8l-7 -36q-16 -82 -93 -82h-58zM38 -32l739 769h75l-739 -769h-75zM572 -10q-67 0 -67 58v11t2 13l7 36q5 26 19 42.5t33 19.5q-28 5 -28 39
q0 4 0.5 9t1.5 10l8 47q11 65 84 65h55q64 0 64 -48q0 -5 -0.5 -8.5t-1.5 -8.5l-8 -47q-9 -52 -48 -58q15 -3 24 -15t9 -32v-7t-1 -8l-7 -36q-16 -82 -93 -82h-53zM686 110v8q0 17 -8 26.5t-27 9.5h-47q-22 0 -34.5 -12t-16.5 -32l-7 -37q-1 -4 -1 -12q0 -31 36 -31h48
q41 0 50 43zM710 262q0 2 0.5 5t0.5 5q0 28 -31 28h-55q-37 0 -43 -38l-7 -40q-1 -4 -1 -10q0 -28 31 -28h55q19 0 29.5 10.5t13.5 27.5z" />
    <glyph glyph-name="fiveeighths" unicode="&#x215d;" horiz-adv-x="766" 
d="M38 0zM207 361q-62 0 -62 52q0 5 0.5 9.5t1.5 9.5l7 38h38l-7 -37q0 -2 -0.5 -3.5t-0.5 -3.5q0 -26 30 -26h60q36 0 44 41l9 51q0 3 0.5 6t0.5 5q0 28 -30 28h-130l31 180h201l-7 -40h-166l-18 -105h98q61 0 61 -54q0 -5 -0.5 -10t-1.5 -10l-9 -51q-14 -80 -90 -80h-60z
M38 -32l739 769h75l-739 -769h-75zM572 -10q-67 0 -67 58v11t2 13l7 36q5 26 19 42.5t33 19.5q-28 5 -28 39q0 4 0.5 9t1.5 10l8 47q11 65 84 65h55q64 0 64 -48q0 -5 -0.5 -8.5t-1.5 -8.5l-8 -47q-9 -52 -48 -58q15 -3 24 -15t9 -32v-7t-1 -8l-7 -36q-16 -82 -93 -82h-53z
M686 110v8q0 17 -8 26.5t-27 9.5h-47q-22 0 -34.5 -12t-16.5 -32l-7 -37q-1 -4 -1 -12q0 -31 36 -31h48q41 0 50 43zM710 262q0 2 0.5 5t0.5 5q0 28 -31 28h-55q-37 0 -43 -38l-7 -40q-1 -4 -1 -10q0 -28 31 -28h55q19 0 29.5 10.5t13.5 27.5z" />
    <glyph glyph-name="seveneighths" unicode="&#x215e;" horiz-adv-x="780" 
d="M38 0zM166 361l183 311h-145l6 39h202l-203 -350h-43zM38 -32l739 769h75l-739 -769h-75zM602 -10q-67 0 -67 58v11t2 13l7 36q5 26 19 42.5t33 19.5q-28 5 -28 39q0 4 0.5 9t1.5 10l8 47q11 65 84 65h55q64 0 64 -48q0 -5 -0.5 -8.5t-1.5 -8.5l-8 -47q-9 -52 -48 -58
q15 -3 24 -15t9 -32v-7t-1 -8l-7 -36q-16 -82 -93 -82h-53zM716 110v8q0 17 -8 26.5t-27 9.5h-47q-22 0 -34.5 -12t-16.5 -32l-7 -37q-1 -4 -1 -12q0 -31 36 -31h48q41 0 50 43zM740 262q0 2 0.5 5t0.5 5q0 28 -31 28h-55q-37 0 -43 -38l-7 -40q-1 -4 -1 -10q0 -28 31 -28
h55q19 0 29.5 10.5t13.5 27.5z" />
    <glyph glyph-name="partialdiff" unicode="&#x2202;" horiz-adv-x="611" 
d="M187 651q15 9 37 19t48 18.5t55 14t58 5.5q54 0 99.5 -12.5t79.5 -41.5t53 -78t19 -122q0 -50 -7.5 -104t-24.5 -106t-44 -98.5t-65 -82t-88.5 -56.5t-114.5 -21q-47 0 -85.5 14t-66.5 40.5t-43.5 63.5t-15.5 82q0 58 21.5 109.5t59.5 89.5t90 60t114 22q29 0 58 -7
t55 -21t47 -34t34 -45q9 51 9 92q0 55 -15 93.5t-41 61.5t-60.5 33.5t-74.5 10.5q-46 0 -91.5 -14.5t-87.5 -35.5zM550 301q-13 26 -33 46.5t-44.5 34.5t-52.5 21t-56 7q-43 0 -82 -16t-68 -44.5t-46.5 -69t-17.5 -89.5q0 -67 40 -107.5t112 -40.5q55 0 96.5 19.5t71.5 54
t49.5 82t30.5 102.5z" />
    <glyph glyph-name="uni2206" unicode="&#x2206;" 
d="M16 0zM16 0l310 701h90l68 -701h-468zM346 573l-226 -507h277z" />
    <glyph glyph-name="product" unicode="&#x220f;" horiz-adv-x="687" 
d="M545 -160l142 804h-459l-142 -804h-65l152 862h589l-152 -862h-65z" />
    <glyph glyph-name="summation" unicode="&#x2211;" horiz-adv-x="543" 
d="M24 -125l8 45l274 367l-145 368l9 47h452l-12 -64h-364l137 -351l-260 -349h364l-11 -63h-452z" />
    <glyph glyph-name="minus" unicode="&#x2212;" horiz-adv-x="617" 
d="M102 323l14 76h526l-14 -76h-526z" />
    <glyph glyph-name="radical" unicode="&#x221a;" horiz-adv-x="667" 
d="M284 0l-83 402h-81l10 59h140l75 -381l323 622h74l-364 -702h-94z" />
    <glyph glyph-name="infinity" unicode="&#x221e;" horiz-adv-x="911" 
d="M508 297q-22 -43 -49.5 -78t-58.5 -59.5t-64.5 -38t-68.5 -13.5q-42 0 -72.5 15t-50.5 40.5t-29.5 60.5t-9.5 76q0 58 16.5 112.5t48.5 96.5t78 67t106 25q69 0 115.5 -50.5t58.5 -138.5q44 87 107 138t134 51q41 0 71.5 -15t50.5 -40.5t30 -61t10 -75.5
q0 -59 -16.5 -113.5t-48.5 -96t-78.5 -66.5t-105.5 -25q-69 0 -115.5 50.5t-58.5 138.5zM545 353q6 -39 19 -72t31.5 -57t42.5 -37.5t54 -13.5q48 0 81.5 20.5t55.5 52.5t32 71t10 77q0 28 -6.5 53t-20.5 44t-36 30t-53 11q-29 0 -57.5 -13t-55.5 -36.5t-51.5 -56.5
t-45.5 -73zM492 356q-14 79 -51.5 129t-96.5 50q-48 0 -81.5 -20t-55.5 -52t-32 -71t-10 -76q0 -28 6.5 -53.5t20.5 -44.5t36 -30t53 -11q57 0 112 49.5t99 129.5z" />
    <glyph glyph-name="integral" unicode="&#x222b;" horiz-adv-x="597" 
d="M354 517q10 55 32 91t53 57t68.5 29t78.5 8q23 0 47.5 -6.5t33.5 -20.5l-10 -58q-13 17 -33.5 23.5t-43.5 6.5q-60 0 -101.5 -29.5t-54.5 -102.5l-87 -491q-10 -55 -32 -90.5t-52.5 -56.5t-68 -29t-78.5 -8q-23 0 -47.5 6.5t-32.5 20.5l9 55q13 -17 36.5 -21.5t40.5 -4.5
q60 0 101.5 29t54.5 102z" />
    <glyph glyph-name="approxequal" unicode="&#x2248;" horiz-adv-x="617" 
d="M76 149zM612 215q-29 -32 -70.5 -49t-91.5 -17q-32 0 -59 14t-52.5 31.5t-53 31.5t-60.5 14q-39 0 -74.5 -17t-74.5 -65l16 93q24 29 59 46.5t84 17.5q38 0 67 -14.5t55.5 -32t52.5 -32t57 -14.5q48 0 87.5 21.5t74.5 71.5zM655 474q-29 -32 -70.5 -49t-91.5 -17
q-32 0 -59 14t-52.5 31.5t-53 31.5t-60.5 14q-39 0 -74.5 -17t-74.5 -65l16 93q24 29 59 46.5t84 17.5q38 0 67 -14.5t55.5 -32t52.5 -32t57 -14.5q48 0 87.5 21.5t74.5 71.5z" />
    <glyph glyph-name="notequal" unicode="&#x2260;" horiz-adv-x="617" 
d="M491 440l-154 -160h284l-14 -77h-344l-225 -235h-74l224 235h-107l14 77h168l153 160h-293l14 77h354l210 220h75l-211 -220h98l-14 -77h-158z" />
    <glyph glyph-name="lessequal" unicode="&#x2264;" horiz-adv-x="617" 
d="M44 0zM101 313l10 58l568 237l-15 -85l-431 -180l368 -181l-15 -84zM44 -16l14 76h526l-14 -76h-526z" />
    <glyph glyph-name="greaterequal" unicode="&#x2265;" horiz-adv-x="617" 
d="M44 0zM60 78l15 84l430 181l-367 180l15 85l484 -237l-10 -58zM44 -16l14 76h526l-14 -76h-526z" />
    <glyph glyph-name="dotmath" unicode="&#x22c5;" horiz-adv-x="185" 
d="M103 280zM103 280l26 150h76l-26 -150h-76z" />
    <glyph glyph-name="lozenge" unicode="&#x25ca;" horiz-adv-x="572" 
d="M255 0l-144 350l267 350h69l138 -350l-261 -350h-69zM513 350l-114 273l-216 -273l120 -273z" />
    <glyph glyph-name="fi" unicode="&#xfb01;" horiz-adv-x="463" 
d="M46 0zM46 0l98 554q25 147 160 147h69l-13 -69h-67q-63 0 -75 -70l-9 -49h137l-11 -66h-134l-79 -447h-76zM435 581l22 120h76l-22 -120h-76zM333 0l90 513h76l-90 -513h-76z" />
    <glyph glyph-name="fl" unicode="&#xfb02;" horiz-adv-x="453" 
d="M46 0zM46 0l98 554q25 147 160 147h69l-13 -69h-67q-63 0 -75 -70l-9 -49h137l-11 -66h-134l-79 -447h-76zM328 0l124 701h75l-124 -701h-75z" />
    <glyph glyph-name="circumflexhook" horiz-adv-x="515" 
d="M450 574q5 28 18 41.5t37 13.5q15 0 27 11t12 28q0 27 -32 27h-76l9 51h93q59 0 59 -55q0 -39 -21.5 -60.5t-55.5 -21.5q-16 0 -23 -8t-11 -27h-36zM383 579l-96 91l-125 -91l-18 19l134 113h34l96 -113z" />
    <glyph glyph-name="brevegrave" horiz-adv-x="367" 
d="M443 650q-6 -21 -21.5 -43t-37.5 -40t-49.5 -29.5t-57.5 -11.5t-53 11.5t-38 29.5t-23 40t-9 43l33 20q6 -45 30.5 -72.5t68.5 -27.5q39 0 75.5 28t54.5 73zM236 730l29 35l114 -98l-20 -21z" />
    <glyph glyph-name="brevetilde" horiz-adv-x="367" 
d="M443 650q-9 -21 -24.5 -43t-37 -40t-48.5 -29.5t-57 -11.5q-29 0 -51.5 10.5t-38.5 28t-24 38.5t-8 42v5l33 21q2 -46 28 -73.5t68 -27.5q44 0 78 27.5t55 72.5zM432 748q-9 -23 -28 -40t-47 -17q-18 0 -29 5.5t-19.5 12.5t-18 12.5t-24.5 5.5t-27.5 -8t-20.5 -28l-24 13
q10 23 30.5 39.5t47.5 16.5q17 0 27.5 -6t19.5 -12.5t18.5 -12.5t24.5 -6q32 0 48 38z" />
    <glyph glyph-name="circumflexacute" horiz-adv-x="542" 
d="M440 579l-16 24l176 108l20 -39zM383 579l-96 91l-125 -91l-18 19l134 113h34l96 -113z" />
    <glyph glyph-name=".null" horiz-adv-x="0" 
 />
    <glyph glyph-name="breveacute" horiz-adv-x="367" 
d="M443 650q-9 -21 -24.5 -43t-37 -40t-48.5 -29.5t-57 -11.5q-29 0 -51.5 10.5t-38.5 28t-24 38.5t-8 42v5l33 21q2 -46 28 -73.5t68 -27.5q44 0 78 27.5t55 72.5zM237 646l-12 21l147 98l18 -35z" />
    <glyph glyph-name="brevehook" horiz-adv-x="367" 
d="M442 649q-7 -21 -22.5 -43t-37.5 -39.5t-49 -29t-57 -11.5t-53 11.5t-38 29t-23 39.5t-9 43l34 21q5 -45 29 -72.5t69 -27.5q19 0 38 7.5t36.5 21t32 32t23.5 39.5zM263 619q4 21 11.5 31t16.5 14.5t19 5.5t18 3.5t13 8.5t5 20q0 23 -30 23h-68l7 40h83q54 0 54 -44
q0 -24 -6.5 -37t-16.5 -20t-22 -10t-23 -6.5t-19.5 -9.5t-10.5 -19h-31z" />
    <glyph glyph-name="nonmarkingreturn" horiz-adv-x="192" 
 />
    <glyph glyph-name="gravecircumflex" horiz-adv-x="542" 
d="M157 672l34 39l137 -108l-23 -24zM583 579l-94 91l-128 -91l-18 19l136 113h33l95 -113z" />
    <glyph glyph-name=".ttfautohint" horiz-adv-x="542" 
d="M0 0z" />
    </font>
</defs>
</svg>
